<svg width="102" height="100" viewBox="0 0 102 100" fill="none" xmlns="http://www.w3.org/2000/svg">
<path d="M27.2361 24.58C28.8655 24.58 30.3128 24.8053 31.5781 25.256C32.8435 25.6893 33.9528 26.3567 34.9061 27.258L32.5921 30.664C31.8121 30.0053 30.9801 29.494 30.0961 29.13C29.2295 28.7487 28.2675 28.558 27.2101 28.558C26.6728 28.558 26.2395 28.61 25.9101 28.714C25.5808 28.818 25.3381 28.9653 25.1821 29.156C25.0435 29.3293 24.9741 29.5287 24.9741 29.754C24.9741 30.0313 25.1388 30.2567 25.4681 30.43C25.8148 30.6033 26.2915 30.7593 26.8981 30.898L29.4981 31.496C31.2315 31.8947 32.5228 32.484 33.3721 33.264C34.2215 34.0267 34.6461 35.0753 34.6461 36.41C34.6461 37.71 34.3168 38.7933 33.6581 39.66C33.0168 40.5267 32.1328 41.1767 31.0061 41.61C29.8795 42.0433 28.6055 42.26 27.1841 42.26C26.0575 42.26 24.9568 42.1473 23.8821 41.922C22.8248 41.6967 21.8541 41.376 20.9701 40.96C20.0861 40.5267 19.3235 40.0153 18.6821 39.426L20.9701 35.916C21.4381 36.3667 22.0101 36.774 22.6861 37.138C23.3621 37.4847 24.0815 37.762 24.8441 37.97C25.6068 38.178 26.3435 38.282 27.0541 38.282C27.5568 38.282 27.9641 38.2387 28.2761 38.152C28.6055 38.048 28.8395 37.9093 28.9781 37.736C29.1168 37.5627 29.1861 37.3547 29.1861 37.112C29.1861 36.8173 29.0735 36.5833 28.8481 36.41C28.6228 36.2193 28.1981 36.0547 27.5741 35.916L24.7141 35.266C23.7781 35.058 22.9115 34.772 22.1141 34.408C21.3168 34.044 20.6755 33.5413 20.1901 32.9C19.7221 32.2413 19.4881 31.3833 19.4881 30.326C19.4881 29.1993 19.7915 28.2027 20.3981 27.336C21.0048 26.4693 21.8888 25.7933 23.0501 25.308C24.2115 24.8227 25.6068 24.58 27.2361 24.58ZM43.9933 33.81C43.9933 33.3247 43.8633 32.9433 43.6033 32.666C43.3607 32.3713 42.9967 32.224 42.5113 32.224C42.0607 32.224 41.6707 32.3453 41.3413 32.588C41.0293 32.8307 40.83 33.29 40.7433 33.966L36.2973 33.16C36.4707 31.808 37.1033 30.7333 38.1953 29.936C39.2873 29.1387 40.8473 28.74 42.8753 28.74C44.262 28.74 45.4233 28.9393 46.3593 29.338C47.3127 29.7193 48.0233 30.2827 48.4913 31.028C48.9767 31.7733 49.2193 32.666 49.2193 33.706V38.074C49.2193 38.7673 49.5313 39.114 50.1553 39.114C50.4153 39.114 50.6147 39.0793 50.7533 39.01L50.4933 41.844C49.9213 42.1213 49.2107 42.26 48.3613 42.26C47.616 42.26 46.9573 42.1473 46.3853 41.922C45.8133 41.6793 45.3627 41.3327 45.0333 40.882C44.704 40.4313 44.5393 39.842 44.5393 39.114V38.906L45.0593 38.828C45.0593 39.5213 44.8427 40.128 44.4093 40.648C43.9933 41.168 43.4387 41.5667 42.7453 41.844C42.0693 42.1213 41.3153 42.26 40.4833 42.26C39.582 42.26 38.8107 42.1213 38.1693 41.844C37.528 41.5667 37.034 41.168 36.6873 40.648C36.358 40.128 36.1933 39.4953 36.1933 38.75C36.1933 37.7967 36.4793 37.0167 37.0513 36.41C37.6407 35.8033 38.5247 35.3873 39.7033 35.162L44.4093 34.174L44.3833 36.384L42.4593 36.826C42.026 36.9127 41.7053 37.06 41.4973 37.268C41.3067 37.4587 41.2113 37.7273 41.2113 38.074C41.2113 38.4033 41.324 38.6633 41.5493 38.854C41.7747 39.0273 42.052 39.114 42.3813 39.114C42.6067 39.114 42.8147 39.0793 43.0053 39.01C43.196 38.9407 43.3607 38.8367 43.4993 38.698C43.6553 38.5593 43.7767 38.386 43.8633 38.178C43.95 37.97 43.9933 37.7187 43.9933 37.424V33.81ZM60.0717 33.81C60.0717 33.3247 59.9417 32.9433 59.6817 32.666C59.439 32.3713 59.075 32.224 58.5897 32.224C58.139 32.224 57.749 32.3453 57.4197 32.588C57.1077 32.8307 56.9084 33.29 56.8217 33.966L52.3757 33.16C52.549 31.808 53.1817 30.7333 54.2737 29.936C55.3657 29.1387 56.9257 28.74 58.9537 28.74C60.3404 28.74 61.5017 28.9393 62.4377 29.338C63.391 29.7193 64.1017 30.2827 64.5697 31.028C65.055 31.7733 65.2977 32.666 65.2977 33.706V38.074C65.2977 38.7673 65.6097 39.114 66.2337 39.114C66.4937 39.114 66.693 39.0793 66.8317 39.01L66.5717 41.844C65.9997 42.1213 65.289 42.26 64.4397 42.26C63.6944 42.26 63.0357 42.1473 62.4637 41.922C61.8917 41.6793 61.441 41.3327 61.1117 40.882C60.7824 40.4313 60.6177 39.842 60.6177 39.114V38.906L61.1377 38.828C61.1377 39.5213 60.921 40.128 60.4877 40.648C60.0717 41.168 59.517 41.5667 58.8237 41.844C58.1477 42.1213 57.3937 42.26 56.5617 42.26C55.6604 42.26 54.889 42.1213 54.2477 41.844C53.6064 41.5667 53.1124 41.168 52.7657 40.648C52.4364 40.128 52.2717 39.4953 52.2717 38.75C52.2717 37.7967 52.5577 37.0167 53.1297 36.41C53.719 35.8033 54.603 35.3873 55.7817 35.162L60.4877 34.174L60.4617 36.384L58.5377 36.826C58.1044 36.9127 57.7837 37.06 57.5757 37.268C57.385 37.4587 57.2897 37.7273 57.2897 38.074C57.2897 38.4033 57.4024 38.6633 57.6277 38.854C57.853 39.0273 58.1304 39.114 58.4597 39.114C58.685 39.114 58.893 39.0793 59.0837 39.01C59.2744 38.9407 59.439 38.8367 59.5777 38.698C59.7337 38.5593 59.855 38.386 59.9417 38.178C60.0284 37.97 60.0717 37.7187 60.0717 37.424V33.81ZM75.8013 24.58C77.4306 24.58 78.8779 24.8053 80.1433 25.256C81.4086 25.6893 82.5179 26.3567 83.4713 27.258L81.1573 30.664C80.3773 30.0053 79.5453 29.494 78.6613 29.13C77.7946 28.7487 76.8326 28.558 75.7753 28.558C75.2379 28.558 74.8046 28.61 74.4753 28.714C74.1459 28.818 73.9033 28.9653 73.7473 29.156C73.6086 29.3293 73.5393 29.5287 73.5393 29.754C73.5393 30.0313 73.7039 30.2567 74.0333 30.43C74.3799 30.6033 74.8566 30.7593 75.4633 30.898L78.0633 31.496C79.7966 31.8947 81.0879 32.484 81.9373 33.264C82.7866 34.0267 83.2113 35.0753 83.2113 36.41C83.2113 37.71 82.8819 38.7933 82.2233 39.66C81.5819 40.5267 80.6979 41.1767 79.5713 41.61C78.4446 42.0433 77.1706 42.26 75.7493 42.26C74.6226 42.26 73.5219 42.1473 72.4473 41.922C71.3899 41.6967 70.4193 41.376 69.5353 40.96C68.6513 40.5267 67.8886 40.0153 67.2473 39.426L69.5353 35.916C70.0033 36.3667 70.5753 36.774 71.2513 37.138C71.9273 37.4847 72.6466 37.762 73.4093 37.97C74.1719 38.178 74.9086 38.282 75.6193 38.282C76.1219 38.282 76.5293 38.2387 76.8413 38.152C77.1706 38.048 77.4046 37.9093 77.5433 37.736C77.6819 37.5627 77.7513 37.3547 77.7513 37.112C77.7513 36.8173 77.6386 36.5833 77.4133 36.41C77.1879 36.2193 76.7633 36.0547 76.1393 35.916L73.2793 35.266C72.3433 35.058 71.4766 34.772 70.6793 34.408C69.8819 34.044 69.2406 33.5413 68.7553 32.9C68.2873 32.2413 68.0533 31.3833 68.0533 30.326C68.0533 29.1993 68.3566 28.2027 68.9633 27.336C69.5699 26.4693 70.4539 25.7933 71.6153 25.308C72.7766 24.8227 74.1719 24.58 75.8013 24.58Z" fill="#C6C6C6"/>
<path d="M41.1639 0.00540551C47.1692 -0.124205 52.332 2.0817 56.722 6.11525C57.2757 6.65596 57.7617 7.21348 58.2333 7.82647C58.9147 7.60002 59.5954 7.37179 60.2754 7.14083C60.5472 7.04891 60.8191 6.957 61.091 6.86509C61.2273 6.81851 61.3635 6.77192 61.5038 6.72393C65.0265 5.53776 68.8654 5.93607 72.1798 7.54991C73.5662 8.26071 74.7948 9.07174 75.9331 10.1443C76.0793 10.2817 76.2254 10.4192 76.3759 10.5608C78.0037 12.2388 79.1512 14.4182 79.7259 16.6764C80.1428 16.6882 80.1428 16.6882 80.568 16.7003C87.0992 16.9229 92.5226 18.5185 97.2044 23.3583C101.183 27.7988 102.149 33.2293 101.851 39.0119C101.5 42.485 99.8393 45.8297 97.6365 48.494C97.4918 48.673 97.347 48.852 97.1978 49.0364C94.1607 52.6098 89.8169 54.7893 85.2045 55.4475C84.7621 55.4655 84.3193 55.4733 83.8765 55.4729C83.6142 55.4732 83.3518 55.4735 83.0815 55.4738C82.7935 55.473 82.5055 55.4722 82.2176 55.4715C81.9122 55.4714 81.6069 55.4714 81.3015 55.4715C80.4749 55.4716 79.6482 55.4704 78.8216 55.4689C77.9568 55.4676 77.0921 55.4675 76.2273 55.4672C74.5908 55.4665 72.9543 55.4648 71.3178 55.4627C69.4543 55.4604 67.5907 55.4592 65.7272 55.4581C61.8947 55.4559 58.0622 55.4522 54.2297 55.4475C54.2303 55.6304 54.2309 55.8133 54.2315 56.0017C54.2454 60.4547 54.2559 64.9077 54.2625 69.3608C54.2657 71.5142 54.2702 73.6677 54.2774 75.8212C54.2837 77.6985 54.2878 79.5758 54.2892 81.4532C54.29 82.4469 54.2919 83.4406 54.2965 84.4342C54.3008 85.3704 54.3022 86.3066 54.3012 87.2428C54.3014 87.5855 54.3026 87.9282 54.3051 88.271C54.3226 90.8671 54.1599 92.7997 52.2699 94.7627C48.4004 98.2291 42.5991 99.2427 37.5834 99.6972C37.3322 99.7206 37.0809 99.7439 36.822 99.768C29.1134 100.381 18.8997 100.093 12.614 94.9693C11.5489 93.9718 10.6456 92.734 10.5857 91.2402C10.5856 90.9656 10.5855 90.6909 10.5854 90.408C10.5851 90.255 10.5848 90.1021 10.5844 89.9445C10.5836 89.4306 10.5843 88.9167 10.5849 88.4028C10.5846 88.0349 10.5843 87.667 10.5838 87.2991C10.5828 86.2986 10.5832 85.2981 10.5839 84.2977C10.5844 83.2515 10.5839 82.2053 10.5836 81.159C10.5832 79.4015 10.5837 77.6439 10.5847 75.8864C10.5859 73.8541 10.5855 71.8219 10.5843 69.7896C10.5834 68.0457 10.5832 66.3018 10.5838 64.558C10.5841 63.516 10.5842 62.4741 10.5835 61.4322C10.5829 60.4522 10.5833 59.4723 10.5845 58.4924C10.5848 58.1326 10.5847 57.7729 10.5842 57.4132C10.5837 56.9222 10.5844 56.4313 10.5854 55.9403C10.5855 55.6655 10.5856 55.3907 10.5857 55.1076C10.6086 54.4893 10.6783 53.9402 10.8229 53.3404C10.6825 53.2559 10.542 53.1715 10.3974 53.0844C5.67995 50.1748 2.40232 46.0772 0.958908 40.6845C0.285756 37.2065 0.335848 33.2953 1.55154 29.9513C1.60128 29.8133 1.65102 29.6754 1.70227 29.5333C3.55657 24.5299 7.28018 20.6615 12.1265 18.4305C14.5668 17.3759 17.2287 16.8463 19.8835 16.8739C20.1226 16.8758 20.3616 16.8777 20.6079 16.8797C20.8751 16.8834 20.8751 16.8834 21.1478 16.8871C21.1891 16.6829 21.2304 16.4786 21.2729 16.2681C21.9625 13.0917 23.2903 10.3453 25.3621 7.82647C25.5305 7.62112 25.6989 7.41578 25.8724 7.20421C29.3308 3.14359 34.2792 0.702826 39.5588 0.069607C40.0937 0.0381457 40.6285 0.0263738 41.1639 0.00540551ZM27.9659 9.80375C26.0667 12.0651 24.9871 14.7987 24.2863 17.6287C23.7928 19.5487 23.7928 19.5487 23.0442 20.0478C22.5424 20.1016 22.5424 20.1016 21.9487 20.1054C21.6211 20.1109 21.6211 20.1109 21.2869 20.1166C21.0541 20.12 20.8213 20.1233 20.5815 20.1268C15.7532 20.2695 11.7673 21.6893 8.29434 25.1049C7.6772 25.7749 7.1299 26.4655 6.60864 27.212C6.497 27.366 6.38537 27.5201 6.27035 27.6787C4.01044 31.0773 3.39949 35.4089 4.1196 39.3675C5.15081 43.9391 7.79188 47.5141 11.7141 50.0265C12.5822 50.5957 12.5822 50.5957 13.5622 50.8119C14.0651 50.5757 14.5219 50.33 14.9976 50.048C23.5494 45.2838 35.7428 45.6977 44.9584 48.0726C50.491 49.6815 50.491 49.6815 51.9727 51.6697C52.8106 52.5068 53.7061 52.4395 54.8403 52.4512C55.1229 52.4477 55.4055 52.4441 55.6881 52.4404C55.988 52.4411 56.2879 52.4423 56.5878 52.444C57.4008 52.4471 58.2136 52.4423 59.0266 52.4358C59.8808 52.4303 60.7349 52.4314 61.5891 52.4317C63.0257 52.4311 64.4622 52.4256 65.8988 52.4169C67.5517 52.407 69.2045 52.4037 70.8575 52.4041C72.6251 52.4046 74.3927 52.4002 76.1603 52.3944C76.6653 52.393 77.1703 52.3926 77.6753 52.3923C78.4754 52.3917 79.2754 52.3877 80.0755 52.3815C80.5031 52.3788 80.9307 52.3791 81.3584 52.3795C86.4028 52.3279 90.6403 50.7923 94.2651 47.2297C94.3971 47.1004 94.5291 46.9712 94.6651 46.8379C97.5803 43.7513 98.7723 39.5875 98.7354 35.4241C98.501 31.0911 96.5238 27.2474 93.4223 24.2621C89.8092 21.1803 85.7747 20.1333 81.1483 20.1532C80.5368 20.1557 79.9258 20.1528 79.3144 20.1466C79.049 20.1475 78.7835 20.1485 78.51 20.1495C77.705 20.0292 77.4682 19.8489 76.9867 19.205C76.7924 18.6651 76.6319 18.1502 76.4862 17.5983C75.6169 14.6184 73.9787 12.4301 71.2974 10.7896C68.8298 9.45361 66.1251 8.9801 63.3463 9.51135C61.6947 10.0191 60.0887 10.874 58.6547 11.83C58.0489 11.9222 58.0489 11.9222 57.3904 11.83C56.6652 11.1756 56.0737 10.4567 55.4808 9.68337C52.6762 6.2458 48.5399 3.94504 44.1155 3.4015C37.6857 3.00534 32.3401 4.95777 27.9659 9.80375ZM14.2865 54.315C13.8894 54.9458 13.8894 54.9458 13.7729 55.6582C14.2798 57.2127 15.6225 57.9581 16.9862 58.7136C20.8998 60.5772 25.5417 61.3667 29.8488 61.3903C30.0301 61.3918 30.2114 61.3932 30.3981 61.3948C30.9802 61.3984 31.5623 61.3998 32.1444 61.4002C32.343 61.4003 32.5417 61.4005 32.7464 61.4006C35.6631 61.3973 38.5145 61.3348 41.3762 60.7154C41.6333 60.6611 41.6333 60.6611 41.8955 60.6058C44.9026 59.9487 48.6683 59.0395 50.6476 56.5011C51.0315 55.7819 51.0315 55.7819 50.8583 55.0261C49.8939 53.0934 47.4772 52.1736 45.5442 51.4891C43.2998 50.7613 40.9726 50.2896 38.637 49.969C38.4933 49.9488 38.3497 49.9287 38.2017 49.9079C36.3407 49.6842 34.4637 49.7069 32.5922 49.7056C32.4093 49.7055 32.2265 49.7053 32.0381 49.7052C26.464 49.7121 18.4757 50.0235 14.2865 54.315ZM13.7729 60.5046C13.7572 61.4756 13.7458 62.4465 13.7381 63.4176C13.735 63.7477 13.7307 64.0778 13.7252 64.4078C13.7175 64.8833 13.7139 65.3587 13.7111 65.8342C13.7079 65.9809 13.7046 66.1275 13.7013 66.2786C13.7009 67.3844 13.9784 68.0281 14.7005 68.8467C19.1278 72.7333 26.5205 73.1951 32.1312 73.2001C32.3514 73.2003 32.3514 73.2003 32.576 73.2005C38.0811 73.1921 46.0128 72.8691 50.2262 68.7224C50.8534 68.0842 50.9302 67.5753 50.9299 66.6918C50.9267 66.5394 50.9234 66.3871 50.92 66.2301C50.9191 66.0723 50.9183 65.9144 50.9173 65.7518C50.9138 65.2494 50.9059 64.7472 50.8978 64.2448C50.8946 63.9035 50.8918 63.5622 50.8892 63.2209C50.8822 62.3856 50.8713 61.5505 50.8583 60.7154C50.1317 61.0016 49.4248 61.3141 48.7172 61.6448C39.4192 65.9124 26.6805 65.6754 17.197 62.1903C15.9898 61.7305 14.8891 61.1483 13.7729 60.5046ZM13.7729 72.3046C13.7572 73.2417 13.7457 74.1787 13.7381 75.1159C13.735 75.4343 13.7307 75.7528 13.7252 76.0711C13.7175 76.5304 13.7139 76.9896 13.7111 77.4489C13.7078 77.7248 13.7045 78.0006 13.7011 78.2849C13.7948 79.2799 14.0979 79.9808 14.7779 80.7133C19.1162 84.0977 25.513 84.7534 30.8406 84.9473C31.0598 84.956 31.279 84.9647 31.5048 84.9736C37.0674 85.0815 45.7203 84.7232 50.0286 80.5882C50.8212 79.6422 50.9164 79.0336 50.8995 77.8399C50.8989 77.6817 50.8983 77.5236 50.8977 77.3607C50.8953 76.8562 50.89 76.3517 50.8846 75.8472C50.8825 75.5049 50.8806 75.1626 50.8789 74.8203C50.8742 73.9817 50.867 73.1431 50.8583 72.3046C50.6267 72.421 50.3951 72.5374 50.1565 72.6574C40.7438 77.36 28.2946 77.474 18.3781 74.3541C16.78 73.8114 15.2703 73.0778 13.7729 72.3046ZM13.7729 84.1045C13.7519 85.0377 13.7367 85.9708 13.7266 86.9043C13.7224 87.2213 13.7166 87.5382 13.7093 87.8552C13.699 88.3129 13.6943 88.7704 13.6906 89.2282C13.6861 89.503 13.6817 89.7778 13.6772 90.0608C13.8144 91.1886 14.2278 91.9798 15.0939 92.7445C17.4515 94.1894 19.8073 95.0467 22.4911 95.641C22.6798 95.6828 22.8685 95.7247 23.063 95.7678C26.1025 96.3983 29.1267 96.6176 32.2234 96.6023C32.3872 96.602 32.5511 96.6016 32.7199 96.6012C38.2235 96.5796 46.0359 96.2451 50.2262 92.1115C50.8537 91.4731 50.9302 90.9652 50.9299 90.0809C50.9267 89.9285 50.9234 89.7762 50.92 89.6192C50.9191 89.4614 50.9183 89.3036 50.9173 89.1409C50.9138 88.6385 50.9059 88.1363 50.8978 87.6339C50.8946 87.2926 50.8918 86.9513 50.8892 86.61C50.8822 85.7747 50.8713 84.9396 50.8583 84.1045C50.51 84.2687 50.51 84.2687 50.1546 84.4362C44.5758 87.0213 38.7469 87.9451 32.6185 87.95C32.457 87.9501 32.2956 87.9502 32.1292 87.9504C26.3689 87.9424 19.9581 87.469 14.8709 84.4872C14.2627 84.0699 14.2627 84.0699 13.7729 84.1045Z" fill="#C6C6C6"/>
<path d="M73.8334 57.8715C74.0178 57.8712 74.2022 57.8709 74.3921 57.8706C74.7812 57.8709 75.1704 57.8734 75.5595 57.8777C76.1556 57.8839 76.7514 57.8821 77.3476 57.8793C77.7258 57.8807 78.104 57.8824 78.4822 57.8847C78.6607 57.8841 78.8391 57.8835 79.023 57.8828C80.2698 57.9029 80.2698 57.9029 80.7156 58.2724C81.033 58.6606 81.1483 58.9716 81.2824 59.4535C81.3279 59.6131 81.3734 59.7727 81.4203 59.9371C81.4652 60.1026 81.5102 60.2682 81.5565 60.4388C81.6276 60.6908 81.6276 60.6908 81.7001 60.9478C81.8165 61.3615 81.9304 61.7758 82.0438 62.1903C83.0913 62.4359 83.0913 62.4359 84.0793 62.1064C84.2463 61.9689 84.4134 61.8315 84.5855 61.6899C85.3525 61.0658 85.8848 60.7441 86.8902 60.7153C87.6814 61.1186 88.2645 61.6182 88.8853 62.2479C89.0578 62.4218 89.2303 62.5956 89.408 62.7747C89.5854 62.9556 89.7627 63.1365 89.9455 63.3229C90.1229 63.5022 90.3002 63.6814 90.483 63.8661C90.8237 64.2106 91.1636 64.5558 91.5026 64.9018C91.8586 65.2614 92.2207 65.6104 92.5885 65.9576C93.0008 66.4046 93.0008 66.4046 93.172 67.1552C93.1175 68.3046 92.3282 69.1313 91.6427 70.0015C91.2327 70.6122 91.2327 70.6122 91.4748 71.3283C91.5612 71.5114 91.6476 71.6945 91.7365 71.8831C92.0605 71.9332 92.0605 71.9332 92.3909 71.9843C92.6777 72.0338 92.9644 72.0834 93.251 72.1333C93.393 72.1546 93.5349 72.176 93.6811 72.1979C94.7619 72.393 95.2853 72.7023 95.9508 73.5688C96.1005 74.2117 96.0937 74.8354 96.0833 75.4932C96.0838 75.6773 96.0843 75.8614 96.0849 76.051C96.0847 76.4389 96.0818 76.8268 96.0766 77.2146C96.0693 77.809 96.0722 78.4027 96.0763 78.9971C96.0749 79.3744 96.0728 79.7516 96.0701 80.1289C96.0712 80.3067 96.0722 80.4845 96.0733 80.6676C96.0486 81.8912 96.0486 81.8912 95.5631 82.4176C94.9608 82.6979 94.3745 82.8454 93.7251 82.985C93.4858 83.038 93.2465 83.0909 93 83.1455C92.3687 83.2616 92.3687 83.2616 91.7365 83.2616C91.5342 83.9193 91.4433 84.2739 91.5258 84.9473C91.9249 85.6217 92.3686 86.2246 92.856 86.8379C93.3128 87.6574 93.2529 88.0592 93.0008 88.9508C92.7094 89.3582 92.7094 89.3582 92.3423 89.6751C91.8037 90.1669 91.3113 90.6582 90.841 91.216C90.2053 91.9447 89.5582 92.6617 88.8919 93.3626C88.7072 93.5601 88.5225 93.7575 88.3322 93.961C87.5978 94.535 87.1883 94.6574 86.258 94.6401C85.574 94.2845 85.574 94.2845 84.9016 93.7972C83.805 93.0349 83.805 93.0349 82.5047 92.9544C82.2831 93.0239 82.0614 93.0934 81.833 93.1651C81.8176 93.3676 81.8176 93.3676 81.8018 93.5741C81.5676 96.2833 81.5676 96.2833 80.9262 97.0948C79.6704 98.0945 76.8553 97.6444 75.3405 97.6559C75.0674 97.662 74.7942 97.6681 74.5128 97.6744C74.25 97.6762 73.9873 97.6779 73.7165 97.6798C73.4794 97.6828 73.2423 97.6859 72.9981 97.6891C72.2036 97.5675 71.8609 97.3107 71.2974 96.7472C71.0562 96.0953 71.0562 96.0953 70.9155 95.3776C70.8663 95.1407 70.8172 94.9038 70.7665 94.6598C70.6653 94.0079 70.6653 94.0079 70.6653 93.1651C69.7887 92.9558 69.353 92.8666 68.545 93.3025C68.3407 93.4614 68.1365 93.6203 67.926 93.784C67.2473 94.3102 66.795 94.6128 65.9506 94.7857C64.8304 94.5721 64.2921 93.9534 63.501 93.1651C63.3343 93.0089 63.1676 92.8527 62.9958 92.6918C62.4594 92.189 61.9328 91.6773 61.4071 91.1633C61.1347 90.9054 61.1347 90.9054 60.8569 90.6423C60.1126 89.9115 59.574 89.3759 59.2201 88.3845C59.3287 87.2476 59.9658 86.5449 60.6169 85.6387C61.0472 84.8021 60.9797 84.3711 60.7618 83.4723C60.5282 83.4364 60.2946 83.4006 60.0539 83.3636C59.7455 83.3122 59.4371 83.2606 59.1288 83.2089C58.975 83.1858 58.8213 83.1627 58.6629 83.1389C57.9546 83.0166 57.4738 82.897 56.8735 82.4879C55.9937 81.1637 56.2759 79.1375 56.263 77.5881C56.2595 77.2783 56.2538 76.9685 56.2458 76.6588C56.2342 76.2076 56.2296 75.7568 56.2265 75.3055C56.2203 74.9042 56.2203 74.9042 56.2139 74.4947C56.3701 73.5859 56.6718 73.2864 57.3904 72.7259C57.8195 72.5483 57.8195 72.5483 58.2308 72.4848C58.3795 72.4597 58.5282 72.4345 58.6814 72.4086C58.8334 72.3873 58.9854 72.366 59.1419 72.344C59.376 72.3059 59.376 72.3059 59.6148 72.2671C59.9965 72.2055 60.3791 72.1491 60.7618 72.0938C60.9711 71.2172 61.0603 70.7815 60.6243 69.9735C60.4654 69.7692 60.3065 69.565 60.1428 69.3545C59.5819 68.631 59.3044 68.235 59.193 67.319C59.2936 66.5643 59.3662 66.3698 59.9321 65.891C60.4777 65.3998 60.9738 64.9122 61.4466 64.3501C62.0897 63.6045 62.767 62.9007 63.4615 62.2035C63.5628 62.1013 63.664 61.9991 63.7683 61.8938C64.4885 61.1767 64.9418 60.822 65.9893 60.8199C66.6337 60.968 67.0681 61.3018 67.6099 61.6767C68.5478 62.3459 68.5478 62.3459 69.6512 62.3879C69.8468 62.3227 70.0424 62.2575 70.2439 62.1903C70.5333 61.2187 70.76 60.2647 70.927 59.2642C71.4477 57.8122 72.4945 57.8537 73.8334 57.8715ZM74.0367 61.1367C73.9367 61.6756 73.8368 62.2145 73.7338 62.7698C73.3849 64.3336 73.3849 64.3336 72.7675 64.8975C72.28 65.1029 71.8123 65.2328 71.2974 65.351C71.0497 65.4727 70.802 65.5944 70.5468 65.7197C69.7096 66.0242 69.0065 66.1886 68.1367 65.9831C67.4581 65.6185 66.8478 65.1914 66.2403 64.7189C65.3819 65.0581 64.8148 65.6751 64.1859 66.3255C64.0791 66.4342 63.9724 66.5428 63.8624 66.6548C63.6005 66.9216 63.3399 67.1897 63.0796 67.4581C63.3885 68.3026 63.7687 68.8936 64.339 69.5776C64.6499 70.1674 64.6159 70.5911 64.5546 71.251C64.3464 71.8905 64.3464 71.8905 64.0673 72.5284C63.9769 72.7394 63.8864 72.9505 63.7932 73.1679C63.6968 73.3698 63.6004 73.5716 63.501 73.7795C63.4185 73.9691 63.3359 74.1587 63.2508 74.354C62.7072 75.0359 62.0644 75.1442 61.2491 75.3203C60.7406 75.4377 60.2321 75.555 59.7082 75.6759C59.7082 77.0666 59.7082 78.4573 59.7082 79.8902C60.7191 80.1332 60.7191 80.1332 61.7316 80.369C62.347 80.5249 62.7932 80.6588 63.2508 81.1075C64.8693 84.1369 64.8693 84.1369 64.5546 85.5794C64.1101 86.387 63.6125 87.1455 63.0796 87.8973C63.98 89.0002 64.9372 89.9351 66.0296 90.8472C66.3327 90.6808 66.6355 90.5139 66.9383 90.3468C67.107 90.2539 67.2757 90.161 67.4494 90.0653C67.8281 89.8495 68.1955 89.614 68.5582 89.3722C70.0675 89.2116 71.5584 89.792 72.8443 90.5537C73.8284 91.3802 73.88 92.8109 74.0367 94.0079C74.2463 94.2642 74.2463 94.2642 74.6582 94.2426C74.8336 94.2415 75.0091 94.2403 75.1898 94.2392C75.3793 94.2385 75.5688 94.2379 75.7639 94.2372C75.9632 94.2354 76.1624 94.2336 76.3677 94.2318C76.5677 94.2309 76.7678 94.2299 76.9739 94.2289C77.4698 94.2264 77.9657 94.223 78.4616 94.2186C78.4834 93.9924 78.5051 93.7661 78.5275 93.533C78.8532 91.2431 78.8532 91.2431 79.6515 90.5428C81.0123 89.7156 82.5532 89.203 84.1509 89.3722C84.6801 89.6562 84.6801 89.6562 85.1386 90.0175C85.5843 90.3844 85.5843 90.3844 86.0473 90.6365C86.7191 90.5488 87.0599 90.3329 87.5256 89.8521C87.6369 89.7387 87.7483 89.6253 87.8631 89.5085C87.9766 89.3896 88.0901 89.2708 88.2071 89.1484C88.3239 89.0287 88.4407 88.9091 88.561 88.7858C88.8484 88.491 89.1337 88.1943 89.4187 87.8973C89.3122 87.7495 89.2058 87.6017 89.0961 87.4495C87.6764 85.3763 87.6764 85.3763 87.9437 83.8937C88.1231 83.4469 88.3258 83.0374 88.5652 82.6196C88.8307 82.1598 88.8307 82.1598 89.0236 81.4047C89.4763 80.6352 89.6137 80.596 90.4328 80.3511C90.797 80.267 91.1613 80.1836 91.5258 80.1009C91.943 79.9618 92.3603 79.8227 92.7901 79.6795C92.7901 78.2888 92.7901 76.8981 92.7901 75.4652C91.779 75.2912 91.779 75.2912 90.7667 75.1251C90.1601 75.0123 89.7167 74.9131 89.2566 74.4915C88.8929 73.7884 88.5758 73.0806 88.2861 72.344C88.2234 72.1994 88.1606 72.0547 88.096 71.9057C87.7622 71.0535 87.6984 70.7287 87.984 69.8221C88.2626 69.3263 88.5375 68.8397 88.8524 68.3668C89.2755 67.7338 89.2755 67.7338 89.0936 67.2795C88.6683 66.6512 88.1442 66.1393 87.6013 65.6144C87.4927 65.5076 87.384 65.4009 87.2721 65.2909C87.0052 65.029 86.7371 64.7685 86.4687 64.5081C86.2471 64.6342 86.0254 64.7602 85.7971 64.8901C85.6615 64.9664 85.526 65.0427 85.3864 65.1214C84.9633 65.3616 84.9633 65.3616 84.467 65.7197C83.5239 66.1913 82.6802 66.0523 81.6981 65.7362C81.4471 65.6265 81.1961 65.5167 80.9375 65.4037C80.6844 65.2961 80.4312 65.1886 80.1704 65.0777C79.244 64.5703 78.9787 64.2018 78.6831 63.1945C78.539 62.5086 78.395 61.8227 78.2509 61.1367C76.8602 61.1367 75.4695 61.1367 74.0367 61.1367Z" fill="#C6C6C6"/>
<path d="M80.6347 70.5003C80.8955 70.6775 81.1548 70.8572 81.4117 71.0402C81.5942 71.1619 81.7767 71.2836 81.9648 71.409C83.5131 72.8758 84.4612 74.8483 84.6226 76.9673C84.6748 79.383 84.2672 81.3833 82.6702 83.255C80.7915 85.1894 78.8483 86.073 76.157 86.1193C73.6764 86.0921 71.8688 85.3021 70.0743 83.571C68.6025 81.9159 67.7485 80.0048 67.7153 77.783C67.9009 75.0404 68.829 72.9028 70.876 71.0402C71.4806 70.6096 72.0938 70.285 72.7724 69.9866C72.9169 69.9196 73.0614 69.8525 73.2103 69.7833C75.6236 68.8136 78.439 69.1755 80.6347 70.5003ZM71.8637 74.8199C71.0987 76.2083 70.8414 77.5128 71.1847 79.0703C71.6395 80.459 72.4908 81.5376 73.747 82.287C75.0228 82.9013 76.3268 83.0997 77.7053 82.6887C79.2291 82.0577 80.1624 81.1067 80.9902 79.6794C81.516 78.3525 81.4927 77.2066 81.0569 75.8644C80.4781 74.5344 79.493 73.533 78.1785 72.9152C75.786 72.0619 73.437 72.8214 71.8637 74.8199Z" fill="#C6C6C6"/>
<path d="M18.1978 64.7188C18.9783 65.1459 19.3891 65.4522 19.8835 66.1938C19.8376 67.4796 19.8376 67.4796 19.3173 68.077C18.6747 68.3723 18.2683 68.3852 17.5657 68.3009C16.7354 67.9656 16.3813 67.7887 15.88 67.0367C15.791 66.2205 15.7606 65.7479 16.2092 65.0481C16.9277 64.5875 17.3576 64.6029 18.1978 64.7188Z" fill="#C6C6C6"/>
<path d="M18.1575 76.602C18.8369 76.7897 19.2124 77.04 19.6729 77.5724C19.9375 78.3499 19.9559 78.6816 19.607 79.4293C19.2514 79.8902 19.2514 79.8902 18.83 80.101C17.8072 80.1939 17.175 80.0049 16.3014 79.4688C15.7788 78.6848 15.7824 78.2893 15.88 77.3617C16.4506 76.3694 17.1277 76.4306 18.1575 76.602Z" fill="#C6C6C6"/>
<path d="M18.6193 88.5293C19.3533 88.9509 19.6103 89.1885 19.8836 89.9911C19.8836 90.757 19.7149 91.0892 19.2514 91.69C18.6548 91.9883 18.2293 91.9517 17.5657 91.9007C16.7354 91.5654 16.3814 91.3884 15.88 90.6364C15.7878 89.9121 15.7878 89.9121 15.88 89.1614C16.6567 88.1906 17.488 88.1751 18.6193 88.5293Z" fill="#C6C6C6"/>
</svg>
