<svg width="152" height="127" viewBox="0 0 152 127" fill="none" xmlns="http://www.w3.org/2000/svg">
<path d="M135.367 0.0176587C131.513 -0.166258 127.583 1.08831 124.344 3.69415L115.652 10.6835L76.0039 42.6071L36.7271 10.9865C36.1798 10.404 35.4572 10.0572 34.6931 10.0102H35.4845L27.6823 3.72108C24.441 1.10878 20.5056 -0.152837 16.6467 0.0311257C12.7878 0.215089 9.0083 1.84184 6.0748 4.99372C2.34833 8.99521 0.0346009 14.5921 0.0346009 20.7299V32.5674C-0.0115336 32.9045 -0.0115336 33.2471 0.0346009 33.5842V114.124C0.0346009 120.747 5.03215 126.19 11.1135 126.19H34.8539C35.6933 126.19 36.4984 125.827 37.092 125.18C37.6856 124.534 38.0192 123.657 38.0192 122.742V65.4201L74.1244 94.4887C74.6688 94.9261 75.3274 95.1621 76.0039 95.1621C76.6803 95.1621 77.339 94.9261 77.8833 94.4887L113.989 65.4201V122.742C113.989 123.657 114.322 124.534 114.916 125.18C115.509 125.827 116.314 126.19 117.154 126.19H140.894C146.976 126.19 151.973 120.747 151.973 114.124V33.5168C152.009 33.2196 152.009 32.9185 151.973 32.6213V20.7299C151.973 14.6675 149.727 9.09658 146.05 5.08798C145.944 4.97225 145.909 4.9402 145.952 4.98698C145.945 4.98022 145.939 4.97349 145.933 4.96678C143 1.82187 139.222 0.201574 135.367 0.0176587ZM135.021 6.90603C137.415 7.00826 139.736 7.99717 141.494 9.88224C141.554 9.94661 141.598 9.99522 141.568 9.96304C144.089 12.7117 145.642 16.5186 145.642 20.7299V31.3688L120.319 51.7511V15.8683C120.321 15.7515 120.317 15.6346 120.307 15.5182L128.103 9.24256H128.109C130.162 7.59067 132.627 6.8038 135.021 6.90603ZM16.9929 6.92623C19.3896 6.82405 21.8628 7.60699 23.9172 9.26276L31.7008 15.5316C31.6917 15.6436 31.6876 15.7559 31.6885 15.8683V51.7511L6.36538 31.3688V20.7299C6.36538 16.4699 7.95363 12.6581 10.5199 9.90244C12.2775 8.01399 14.5962 7.02841 16.9929 6.92623ZM113.989 20.5952V56.8484L76.0039 87.4252L38.0192 56.8484V20.602L74.1244 49.6705C74.6688 50.1079 75.3274 50.3439 76.0039 50.3439C76.6803 50.3439 77.339 50.1079 77.8833 49.6705L113.989 20.5952ZM6.36538 39.9406L31.6885 60.3296V119.295H11.1135C8.45196 119.295 6.36538 117.022 6.36538 114.124V39.9406ZM145.642 39.9406V114.124C145.642 117.022 143.556 119.295 140.894 119.295H120.319V60.3296L145.642 39.9406Z" fill="white"/>
</svg>
