<svg width="130" height="130" viewBox="0 0 130 130" fill="none" xmlns="http://www.w3.org/2000/svg">
<path d="M0 14.4444C0 6.5 6.5 0 14.4444 0H115.556C123.5 0 130 6.5 130 14.4444V115.556C130 123.5 123.5 130 115.556 130H14.4444C6.5 130 0 123.5 0 115.556V14.4444Z" fill="white"/>
<path d="M65 86.6667C63.0031 86.6667 61.3889 85.0525 61.3889 83.0556V21.6667C61.3889 19.6697 63.0031 18.0556 65 18.0556C66.997 18.0556 68.6111 19.6697 68.6111 21.6667V83.0556C68.6111 85.0525 66.997 86.6667 65 86.6667Z" fill="#0077FF"/>
<path d="M43.3333 83.0556C41.3363 83.0556 39.7222 81.4414 39.7222 79.4445V25.2778C39.7222 23.2808 41.3363 21.6667 43.3333 21.6667C45.3302 21.6667 46.9444 23.2808 46.9444 25.2778V79.4445C46.9444 81.4414 45.3302 83.0556 43.3333 83.0556Z" fill="#0077FF"/>
<path d="M86.6668 83.0556C84.6698 83.0556 83.0557 81.4414 83.0557 79.4445V25.2778C83.0557 23.2808 84.6698 21.6667 86.6668 21.6667C88.6637 21.6667 90.2779 23.2808 90.2779 25.2778V79.4445C90.2779 81.4414 88.6637 83.0556 86.6668 83.0556Z" fill="#0077FF"/>
<path d="M108.333 75.8334C106.336 75.8334 104.722 74.2192 104.722 72.2222V32.5C104.722 30.5031 106.336 28.8889 108.333 28.8889C110.33 28.8889 111.944 30.5031 111.944 32.5V72.2222C111.944 74.2192 110.33 75.8334 108.333 75.8334Z" fill="#0077FF"/>
<path d="M21.6668 75.8334C19.6698 75.8334 18.0557 74.2192 18.0557 72.2222V32.5C18.0557 30.5031 19.6698 28.8889 21.6668 28.8889C23.6637 28.8889 25.2779 30.5031 25.2779 32.5V72.2222C25.2779 74.2192 23.6637 75.8334 21.6668 75.8334Z" fill="#0077FF"/>
<path d="M64.9999 113.194C48.7897 113.194 32.5758 107.687 19.3519 96.6659C17.8208 95.3876 17.6149 93.1126 18.8897 91.5779C20.168 90.0431 22.4394 89.8445 23.9777 91.1156C47.7461 110.926 82.2502 110.926 106.019 91.1156C107.557 89.8409 109.832 90.0431 111.107 91.5779C112.381 93.1126 112.176 95.3912 110.644 96.6659C97.4241 107.683 81.2102 113.194 64.9999 113.194Z" fill="#0077FF"/>
</svg>
