<svg width="117" height="122" viewBox="0 0 117 122" fill="none" xmlns="http://www.w3.org/2000/svg">
<path d="M58.1651 1.8965C60.1517 3.26067 61.365 5.13499 61.8992 7.48148C62.1857 10.0483 61.791 12.2696 60.2924 14.395C58.8847 16.1116 57.6966 16.7571 55.5311 17.6233C55.4532 21.904 55.3754 26.1848 55.2952 30.5953C55.9957 30.7121 55.9957 30.7121 56.7103 30.8312C57.3983 31.0609 58.0537 31.3596 58.7151 31.6567C58.9013 31.7401 59.0876 31.8236 59.2794 31.9096C61.9856 33.1567 64.3354 34.8148 66.6163 36.7276C66.7485 36.8309 66.8808 36.9343 67.017 37.0408C68.81 38.4526 70.1655 40.373 71.5692 42.1522C71.7781 42.1011 71.987 42.0501 72.2022 41.9974C77.2116 40.8715 81.7434 41.3697 86.1923 44.0391C90.0162 46.626 92.5653 50.3781 93.5038 54.8884C93.5816 56.0559 93.6594 57.2234 93.7396 58.4262C98.0982 58.4262 102.457 58.4262 106.948 58.4262C106.948 56.0134 106.948 53.6006 106.948 51.1147C106.481 50.9591 106.014 50.8034 105.532 50.643C103.917 49.7651 102.707 48.3763 101.773 46.8104C101.08 44.362 101.115 42.1101 102.23 39.7937C103.476 37.9381 105.039 36.773 107.17 36.114C109.233 35.7139 111.229 35.9783 113.08 36.9634C114.717 38.0913 115.893 39.5037 116.525 41.4023C116.919 43.5796 116.826 45.8901 115.674 47.8128C114.476 49.5294 113.032 50.7278 110.957 51.1147C110.962 51.417 110.967 51.7193 110.972 52.0307C110.989 53.1524 111 54.2741 111.009 55.3959C111.014 55.8814 111.02 56.3669 111.028 56.8523C111.04 57.5502 111.045 58.2479 111.049 58.9459C111.054 59.1628 111.059 59.3798 111.064 59.6033C111.064 61.1074 111.064 61.1074 110.524 61.8579C109.554 62.5082 108.609 62.4846 107.483 62.5104C107.306 62.5153 107.129 62.5202 106.946 62.5253C106.382 62.5407 105.817 62.5546 105.252 62.5685C104.869 62.5786 104.486 62.5889 104.103 62.5993C103.164 62.6246 102.226 62.6484 101.287 62.6716C101.413 62.8061 101.539 62.9405 101.668 63.079C104.418 66.0819 105.764 69.6709 105.768 73.7568C105.518 78.0716 103.905 81.7679 100.767 84.7582C98.1063 86.9993 94.9577 88.411 91.4576 88.4082C91.3025 88.4084 91.1474 88.4086 90.9876 88.4088C90.4697 88.4092 89.9519 88.4079 89.4341 88.4067C89.0621 88.4066 88.6901 88.4066 88.3182 88.4068C87.3096 88.4068 86.3009 88.4054 85.2923 88.4038C84.2378 88.4023 83.1833 88.4022 82.1288 88.4019C80.1325 88.4012 78.1361 88.3992 76.1398 88.3969C73.4418 88.3937 70.7438 88.3925 68.0457 88.3911C63.7956 88.3889 59.5454 88.3842 55.2952 88.3799C55.2952 96.0853 55.2952 103.791 55.2952 111.73C57.708 111.73 60.1208 111.73 62.6067 111.73C62.8402 111.029 63.0737 110.329 63.3143 109.607C64.5225 107.868 66.1755 106.697 68.2525 106.202C70.7425 105.833 72.7645 106.336 74.8712 107.72C76.3863 109.017 77.4956 110.901 77.7015 112.909C77.8654 115.327 77.1524 117.423 75.5788 119.277C73.749 121.012 71.9031 121.515 69.4314 121.5C68.064 121.452 67.0578 121.181 65.9087 120.456C65.7622 120.374 65.6156 120.291 65.4646 120.206C64.2727 119.463 63.4575 118.411 62.8426 117.154C62.757 116.684 62.6776 116.212 62.6067 115.739C62.2973 115.745 61.9879 115.751 61.6691 115.758C60.521 115.779 59.373 115.793 58.2247 115.804C57.7278 115.81 57.2309 115.818 56.7341 115.828C56.0198 115.842 55.3057 115.849 54.5913 115.854C54.3692 115.86 54.1471 115.866 53.9182 115.873C53.7105 115.873 53.5028 115.873 53.2888 115.873C53.1066 115.876 52.9243 115.878 52.7365 115.881C52.2291 115.739 52.2291 115.739 51.6978 115.3C51.0925 114.213 51.1613 113.247 51.1786 112.023C51.1784 111.767 51.1783 111.512 51.1782 111.248C51.1788 110.405 51.1861 109.561 51.1935 108.718C51.1953 108.133 51.1966 107.547 51.1976 106.962C51.2012 105.422 51.2104 103.883 51.2209 102.343C51.2311 100.771 51.2348 99.1999 51.2396 97.6284C51.2497 94.5456 51.2656 91.4627 51.2857 88.3799C51.0938 88.3805 50.9019 88.3812 50.7042 88.3819C46.0266 88.3975 41.3491 88.4092 36.6715 88.4165C34.4094 88.4202 32.1473 88.4251 29.8852 88.4333C27.9127 88.4403 25.9401 88.4449 23.9676 88.4464C22.9239 88.4474 21.8804 88.4495 20.8368 88.4547C19.8526 88.4595 18.8684 88.461 17.8842 88.4599C17.5248 88.4601 17.1655 88.4615 16.8061 88.4642C12.4041 88.496 8.81275 87.3927 5.52972 84.3703C2.42763 81.307 0.945393 77.7333 0.901062 73.4031C0.955583 69.097 2.41303 65.6266 5.35283 62.4653C7.68268 60.3004 10.9872 58.4262 14.2564 58.4262C14.2633 58.295 14.2701 58.1638 14.2772 58.0285C14.5592 53.1552 15.5654 48.754 18.0301 44.5108C18.115 44.3646 18.1999 44.2184 18.2873 44.0677C19.4221 42.1488 20.7138 40.4486 22.2755 38.8503C22.4798 38.6411 22.6841 38.4319 22.8946 38.2164C23.0794 38.0364 23.2643 37.8564 23.4547 37.671C23.5554 37.557 23.656 37.4429 23.7597 37.3255C28.3144 32.3493 36.2118 29.385 42.8308 28.9655C45.7373 28.8738 48.3528 29.0494 51.2857 29.416C51.2078 25.5244 51.13 21.6328 51.0498 17.6233C50.3493 17.3119 49.6488 17.0006 48.9271 16.6798C46.8729 15.4719 45.5895 13.7389 44.8448 11.4892C44.3078 9.16514 44.5701 6.81735 45.7375 4.73874C48.5205 0.475362 53.8027 -0.760214 58.1651 1.8965ZM50.3146 5.55042C49.1819 6.79118 48.5631 7.84916 48.6185 9.57746C48.8397 11.0921 49.681 12.1759 50.8656 13.0969C51.9837 13.8448 52.9787 13.9442 54.279 13.7556C55.578 13.4171 56.4681 12.745 57.2852 11.6974C57.9292 10.5125 58.0401 9.51311 57.8896 8.18905C57.4559 6.74689 56.5787 5.6658 55.2952 4.88707C53.5853 4.14017 51.752 4.31988 50.3146 5.55042ZM24.3539 42.4618C20.2054 47.3075 18.0358 53.51 18.2954 59.8874C18.263 60.6136 18.1427 61.0909 17.7942 61.7282C16.9247 62.0399 16.1336 62.1758 15.2173 62.2736C12.3761 62.6067 9.56755 63.7701 7.65242 65.9736C5.42218 68.9166 4.66709 71.7687 5.05801 75.4078C5.54098 77.8444 6.75637 79.8801 8.59584 81.5401C8.70834 81.6535 8.82083 81.7669 8.93673 81.8837C10.6419 83.5106 13.0142 84.3978 15.3553 84.402C15.7659 84.4036 15.7659 84.4036 16.1847 84.4052C16.4856 84.4051 16.7866 84.4051 17.0966 84.405C17.4194 84.4058 17.7421 84.4067 18.0649 84.4077C18.9528 84.41 19.8406 84.4109 20.7285 84.4115C21.6858 84.4125 22.6431 84.4147 23.6004 84.4168C25.9129 84.4214 28.2255 84.4238 30.538 84.4259C31.6274 84.4269 32.7168 84.4282 33.8062 84.4295C37.4282 84.4335 41.0503 84.4369 44.6723 84.4386C45.6122 84.439 46.5522 84.4395 47.4921 84.4399C47.7257 84.4401 47.9593 84.4402 48.2 84.4403C51.9827 84.4423 55.7654 84.4482 59.5481 84.4559C63.433 84.4637 67.3178 84.4679 71.2026 84.4687C73.3833 84.4692 75.564 84.4713 77.7447 84.4773C79.6022 84.4824 81.4598 84.4843 83.3173 84.482C84.2645 84.4809 85.2115 84.4814 86.1586 84.486C87.0273 84.4901 87.8958 84.4899 88.7645 84.4862C89.2242 84.4854 89.684 84.4892 90.1438 84.4932C92.9968 84.4725 95.2394 83.7254 97.5133 82.0118C97.7176 81.8756 97.9219 81.7394 98.1324 81.599C100.51 79.3463 101.581 76.5038 101.759 73.2851C101.687 70.4141 100.453 67.5212 98.4567 65.4402C96.2861 63.5536 93.7676 62.4946 90.9315 62.1262C90.4377 61.9641 90.4377 61.9641 90.0166 61.5919C89.6147 60.7907 89.696 60.0628 89.7448 59.1928C89.838 55.6209 88.8553 52.0729 86.3839 49.3891C83.4349 46.6499 80.1791 45.3363 76.1868 45.3925C74.7075 45.5007 73.2722 45.8252 71.9138 46.4271C71.2645 46.658 70.8743 46.6459 70.1983 46.545C69.9188 46.5058 69.9188 46.5058 69.6336 46.4658C69.494 46.4433 69.3545 46.4208 69.2107 46.3976C69.1575 46.2359 69.1043 46.0741 69.0494 45.9075C68.663 45.0497 68.1291 44.3555 67.545 43.6263C67.4286 43.4805 67.3123 43.3346 67.1925 43.1844C62.567 37.462 55.8304 33.9149 48.5392 33.0432C39.24 32.1412 30.6908 35.7116 24.3539 42.4618ZM105.783 41.7542C105.372 42.7926 105.121 43.7032 105.452 44.7826C105.924 45.8079 106.454 46.4862 107.419 47.1052C108.5 47.4654 109.477 47.5711 110.531 47.119C111.479 46.5614 112.229 46.0473 112.608 44.9825C112.787 43.6563 112.753 42.4559 111.994 41.3203C111.148 40.4273 110.143 40.0881 108.952 39.8969C107.623 40.1105 106.646 40.7245 105.783 41.7542ZM66.9848 111.641C66.2502 112.758 66.2365 113.714 66.3804 115.032C66.9299 116.173 67.5978 116.841 68.739 117.39C69.9236 117.579 70.8148 117.531 71.8935 116.992C72.9737 116.041 73.6032 115.363 73.7131 113.863C73.6589 112.628 73.0972 111.765 72.2326 110.934C70.3994 109.501 68.5013 110.008 66.9848 111.641Z" fill="#C6C6C6"/>
<path d="M61.4366 41.5488C66.0329 45.5205 66.0329 45.5205 66.7812 48.1583C66.8219 48.9128 66.6477 49.4114 66.2625 50.0535C65.4396 50.5472 64.7063 50.6142 63.786 50.4072C62.44 49.3896 61.4322 47.7588 60.4398 46.3977C57.2585 42.6828 51.7546 40.7174 47.0402 40.2655C41.2502 39.8786 35.8199 41.807 31.41 45.5637C28.2074 48.4442 26.1623 52.5452 25.6999 56.815C25.6815 56.9842 25.663 57.1535 25.644 57.3278C25.6102 57.6597 25.5806 57.9921 25.556 58.3248C25.482 59.1032 25.3837 59.5517 24.8975 60.1741C24.241 60.667 23.8022 60.7682 22.983 60.7849C22.3359 60.5055 21.941 60.2715 21.5329 59.6941C21.2442 58.8891 21.304 58.1301 21.3615 57.2913C21.3731 57.1143 21.3847 56.9373 21.3967 56.7549C21.8751 50.8059 24.9465 45.5965 29.3511 41.6806C38.5713 34.3797 52.2148 33.9329 61.4366 41.5488Z" fill="#C6C6C6"/>
<path d="M31.8131 65.66V74.852C31.8131 77.156 31.1971 78.884 29.9651 80.036C28.7331 81.172 26.8931 81.74 24.4451 81.74C21.9811 81.74 20.1331 81.172 18.9011 80.036C17.6691 78.884 17.0531 77.156 17.0531 74.852V65.66H21.9731V75.116C21.9731 76.076 22.1811 76.796 22.5971 77.276C23.0131 77.756 23.6291 77.996 24.4451 77.996C25.2611 77.996 25.8771 77.756 26.2931 77.276C26.7091 76.796 26.9171 76.076 26.9171 75.116V65.66H31.8131ZM49.1396 76.796C48.8516 77.964 48.3636 78.916 47.6756 79.652C47.0036 80.388 46.1796 80.924 45.2036 81.26C44.2436 81.58 43.1796 81.74 42.0116 81.74C40.3796 81.74 38.9636 81.42 37.7636 80.78C36.5796 80.124 35.6676 79.188 35.0276 77.972C34.3876 76.756 34.0676 75.292 34.0676 73.58C34.0676 71.868 34.3876 70.404 35.0276 69.188C35.6676 67.972 36.5796 67.044 37.7636 66.404C38.9636 65.748 40.3716 65.42 41.9876 65.42C43.1396 65.42 44.1956 65.58 45.1556 65.9C46.1316 66.22 46.9556 66.716 47.6276 67.388C48.2996 68.06 48.7556 68.932 48.9956 70.004L44.7476 71.708C44.5716 70.684 44.2596 70.004 43.8116 69.668C43.3796 69.332 42.8196 69.164 42.1316 69.164C41.4916 69.164 40.9396 69.332 40.4756 69.668C40.0276 69.988 39.6836 70.476 39.4436 71.132C39.2196 71.772 39.1076 72.588 39.1076 73.58C39.1076 74.556 39.2116 75.372 39.4196 76.028C39.6436 76.684 39.9796 77.18 40.4276 77.516C40.8916 77.836 41.4916 77.996 42.2276 77.996C42.8836 77.996 43.4356 77.804 43.8836 77.42C44.3316 77.036 44.6276 76.436 44.7716 75.62L49.1396 76.796ZM57.5086 73.94C57.5086 73.492 57.3886 73.14 57.1486 72.884C56.9246 72.612 56.5886 72.476 56.1406 72.476C55.7246 72.476 55.3646 72.588 55.0606 72.812C54.7726 73.036 54.5886 73.46 54.5086 74.084L50.4046 73.34C50.5646 72.092 51.1486 71.1 52.1566 70.364C53.1646 69.628 54.6046 69.26 56.4766 69.26C57.7566 69.26 58.8286 69.444 59.6926 69.812C60.5726 70.164 61.2286 70.684 61.6606 71.372C62.1086 72.06 62.3326 72.884 62.3326 73.844V77.876C62.3326 78.516 62.6206 78.836 63.1966 78.836C63.4366 78.836 63.6206 78.804 63.7486 78.74L63.5086 81.356C62.9806 81.612 62.3246 81.74 61.5406 81.74C60.8526 81.74 60.2446 81.636 59.7166 81.428C59.1886 81.204 58.7726 80.884 58.4686 80.468C58.1646 80.052 58.0126 79.508 58.0126 78.836V78.644L58.4926 78.572C58.4926 79.212 58.2926 79.772 57.8926 80.252C57.5086 80.732 56.9966 81.1 56.3566 81.356C55.7326 81.612 55.0366 81.74 54.2686 81.74C53.4366 81.74 52.7246 81.612 52.1326 81.356C51.5406 81.1 51.0846 80.732 50.7646 80.252C50.4606 79.772 50.3086 79.188 50.3086 78.5C50.3086 77.62 50.5726 76.9 51.1006 76.34C51.6446 75.78 52.4606 75.396 53.5486 75.188L57.8926 74.276L57.8686 76.316L56.0926 76.724C55.6926 76.804 55.3966 76.94 55.2046 77.132C55.0286 77.308 54.9406 77.556 54.9406 77.876C54.9406 78.18 55.0446 78.42 55.2526 78.596C55.4606 78.756 55.7166 78.836 56.0206 78.836C56.2286 78.836 56.4206 78.804 56.5966 78.74C56.7726 78.676 56.9246 78.58 57.0526 78.452C57.1966 78.324 57.3086 78.164 57.3886 77.972C57.4686 77.78 57.5086 77.548 57.5086 77.276V73.94ZM72.3502 73.94C72.3502 73.492 72.2302 73.14 71.9902 72.884C71.7662 72.612 71.4302 72.476 70.9822 72.476C70.5662 72.476 70.2062 72.588 69.9022 72.812C69.6142 73.036 69.4302 73.46 69.3502 74.084L65.2462 73.34C65.4062 72.092 65.9902 71.1 66.9982 70.364C68.0062 69.628 69.4462 69.26 71.3182 69.26C72.5982 69.26 73.6702 69.444 74.5342 69.812C75.4142 70.164 76.0702 70.684 76.5022 71.372C76.9502 72.06 77.1742 72.884 77.1742 73.844V77.876C77.1742 78.516 77.4622 78.836 78.0382 78.836C78.2782 78.836 78.4622 78.804 78.5902 78.74L78.3502 81.356C77.8222 81.612 77.1662 81.74 76.3822 81.74C75.6942 81.74 75.0862 81.636 74.5582 81.428C74.0302 81.204 73.6142 80.884 73.3102 80.468C73.0062 80.052 72.8542 79.508 72.8542 78.836V78.644L73.3342 78.572C73.3342 79.212 73.1342 79.772 72.7342 80.252C72.3502 80.732 71.8382 81.1 71.1982 81.356C70.5742 81.612 69.8782 81.74 69.1102 81.74C68.2782 81.74 67.5662 81.612 66.9742 81.356C66.3822 81.1 65.9262 80.732 65.6062 80.252C65.3022 79.772 65.1502 79.188 65.1502 78.5C65.1502 77.62 65.4142 76.9 65.9422 76.34C66.4862 75.78 67.3022 75.396 68.3902 75.188L72.7342 74.276L72.7102 76.316L70.9342 76.724C70.5342 76.804 70.2382 76.94 70.0462 77.132C69.8702 77.308 69.7822 77.556 69.7822 77.876C69.7822 78.18 69.8862 78.42 70.0942 78.596C70.3022 78.756 70.5582 78.836 70.8622 78.836C71.0702 78.836 71.2622 78.804 71.4382 78.74C71.6142 78.676 71.7662 78.58 71.8942 78.452C72.0382 78.324 72.1502 78.164 72.2302 77.972C72.3102 77.78 72.3502 77.548 72.3502 77.276V73.94ZM86.8698 65.42C88.3738 65.42 89.7098 65.628 90.8778 66.044C92.0458 66.444 93.0698 67.06 93.9498 67.892L91.8138 71.036C91.0938 70.428 90.3258 69.956 89.5098 69.62C88.7098 69.268 87.8218 69.092 86.8458 69.092C86.3498 69.092 85.9498 69.14 85.6458 69.236C85.3418 69.332 85.1178 69.468 84.9738 69.644C84.8458 69.804 84.7818 69.988 84.7818 70.196C84.7818 70.452 84.9338 70.66 85.2378 70.82C85.5578 70.98 85.9978 71.124 86.5578 71.252L88.9578 71.804C90.5578 72.172 91.7498 72.716 92.5338 73.436C93.3178 74.14 93.7098 75.108 93.7098 76.34C93.7098 77.54 93.4058 78.54 92.7978 79.34C92.2058 80.14 91.3898 80.74 90.3498 81.14C89.3098 81.54 88.1338 81.74 86.8218 81.74C85.7818 81.74 84.7658 81.636 83.7738 81.428C82.7978 81.22 81.9018 80.924 81.0858 80.54C80.2698 80.14 79.5658 79.668 78.9738 79.124L81.0858 75.884C81.5178 76.3 82.0458 76.676 82.6698 77.012C83.2938 77.332 83.9578 77.588 84.6618 77.78C85.3658 77.972 86.0458 78.068 86.7018 78.068C87.1658 78.068 87.5418 78.028 87.8298 77.948C88.1338 77.852 88.3498 77.724 88.4778 77.564C88.6058 77.404 88.6698 77.212 88.6698 76.988C88.6698 76.716 88.5658 76.5 88.3578 76.34C88.1498 76.164 87.7578 76.012 87.1818 75.884L84.5418 75.284C83.6778 75.092 82.8778 74.828 82.1418 74.492C81.4058 74.156 80.8138 73.692 80.3658 73.1C79.9338 72.492 79.7178 71.7 79.7178 70.724C79.7178 69.684 79.9978 68.764 80.5578 67.964C81.1178 67.164 81.9338 66.54 83.0058 66.092C84.0778 65.644 85.3658 65.42 86.8698 65.42Z" fill="#C6C6C6"/>
</svg>
