<svg width="104" height="100" viewBox="0 0 104 100" fill="none" xmlns="http://www.w3.org/2000/svg">
<path d="M82.0148 5.05217C85.3566 7.8718 87.7565 11.9395 88.2656 16.2809C88.2839 16.5482 88.3023 16.8155 88.3212 17.0908C88.5004 17.1316 88.5004 17.1316 88.6832 17.1732C93.6641 18.4656 98.0112 21.7911 100.663 26.1232C103.604 31.3671 104.528 37.1925 103.022 43.0075C101.284 48.8785 97.3875 53.5752 92.0244 56.6111C88.2902 58.5525 85.05 59.0408 80.748 59.0408C80.748 63.2446 80.748 67.4483 80.748 71.7795C83.0266 71.707 85.3053 71.6346 87.653 71.5599C88.0205 70.8351 88.3881 70.1103 88.7667 69.3635C89.8349 67.8548 91.2128 66.9943 92.9989 66.5083C95.5108 66.2716 97.5348 66.516 99.528 68.0869C101.087 69.5406 101.745 71.2904 101.992 73.3581C101.748 75.8102 100.923 77.6315 99.0129 79.247C98.4396 79.6363 97.8872 79.9008 97.231 80.1256C96.9599 80.2207 96.6889 80.3158 96.4096 80.4138C94.4872 80.8235 92.5219 80.5297 90.8201 79.5791C89.4408 78.6524 88.4327 77.5215 87.8758 75.9525C87.8758 75.7351 87.8758 75.5177 87.8758 75.2936C87.6049 75.2971 87.3341 75.3005 87.0551 75.3041C86.0485 75.316 85.0418 75.3236 84.0351 75.3298C83.5998 75.3331 83.1644 75.3376 82.7291 75.3434C82.1027 75.3514 81.4763 75.3551 80.8498 75.358C80.5588 75.3631 80.5588 75.3631 80.2619 75.3683C79.2013 75.3686 78.4839 75.3261 77.6296 74.6347C77.0914 73.8387 77.13 73.477 77.1335 72.5301C77.1334 72.3843 77.1334 72.2385 77.1333 72.0883C77.1336 71.607 77.1371 71.1258 77.1406 70.6445C77.1414 70.3105 77.142 69.9766 77.1425 69.6427C77.1442 68.7642 77.1486 67.8858 77.1535 67.0073C77.1589 65.953 77.1609 64.8988 77.1635 63.8446C77.1678 62.2433 77.1764 60.6421 77.1841 59.0408C73.9499 59.0408 70.7156 59.0408 67.3834 59.0408C67.2475 62.0189 67.2475 62.0189 67.1689 64.997C67.1493 66.2184 67.1239 67.4372 67.0573 68.6571C66.7079 73.9262 66.7079 73.9262 68.9786 78.507C70.3755 80.0168 71.9596 81.3241 73.6202 82.5415C73.8478 82.4717 73.8478 82.4717 74.08 82.4005C74.2797 82.3401 74.4794 82.2798 74.6851 82.2176C74.8828 82.1574 75.0805 82.0973 75.2842 82.0353C77.0626 81.5534 79.1045 81.7059 80.748 82.5415C82.6003 83.6392 83.6137 85.082 84.3954 87.044C84.7585 89.0493 84.6204 90.9582 83.5453 92.7365C82.3738 94.3366 80.9055 95.4193 78.966 95.9392C76.5552 96.1663 74.5138 95.9567 72.5622 94.4841C71.0801 93.1091 70.1941 91.3497 70.0563 89.3502C70.0719 88.3122 70.1061 87.3299 70.5261 86.3688C70.7555 85.7529 70.721 85.5635 70.5018 84.9575C70.2346 84.6012 70.2346 84.6012 69.8871 84.2801C69.6942 84.091 69.6942 84.091 69.4974 83.8981C69.2882 83.698 69.2882 83.698 69.0748 83.4939C68.9323 83.3548 68.7898 83.2157 68.6429 83.0724C68.1875 82.6285 67.7299 82.1868 67.272 81.7454C66.8145 81.302 66.3575 80.8581 65.9011 80.4137C65.617 80.1372 65.3322 79.8615 65.0466 79.5865C63.8283 78.4055 63.8283 78.4055 63.7927 77.3706C63.7921 77.0287 63.7927 76.6868 63.7942 76.3449C63.7942 76.1585 63.7941 75.9721 63.7941 75.78C63.7943 75.162 63.796 74.5441 63.7977 73.9261C63.7981 73.4983 63.7985 73.0705 63.7987 72.6427C63.7995 71.5155 63.8017 70.3882 63.8042 69.2609C63.8069 67.9091 63.8079 66.5573 63.8092 65.2055C63.8114 63.1506 63.8156 61.0957 63.8195 59.0408C60.5853 59.0408 57.351 59.0408 54.0188 59.0408C54.0188 67.9557 54.0188 76.8706 54.0188 86.0557C54.4598 86.2006 54.9009 86.3456 55.3552 86.4949C57.3039 87.4717 58.4294 88.8667 59.114 90.9013C59.637 92.8936 59.3796 94.6358 58.4171 96.472C57.454 98.0115 56.1087 99.2154 54.3433 99.7888C51.9537 100.242 49.7841 100.003 47.7428 98.706C46.1742 97.5147 45.1799 95.6672 44.8863 93.7428C44.7458 91.6985 45.281 89.9356 46.489 88.2614C47.5416 87.0865 48.7417 86.5456 50.2322 86.0557C50.2322 77.1408 50.2322 68.2258 50.2322 59.0408C46.9979 59.0408 43.7637 59.0408 40.4314 59.0408C40.4495 60.3998 40.4676 61.7587 40.4863 63.1589C40.4942 64.0217 40.5017 64.8845 40.5076 65.7473C40.5169 67.1158 40.5279 68.4841 40.5491 69.8525C40.5661 70.9561 40.5753 72.0597 40.5794 73.1635C40.5823 73.5838 40.5879 74.0041 40.5963 74.4244C40.6678 78.132 40.6678 78.132 39.7259 79.2209C39.4494 79.4587 39.1651 79.688 38.8722 79.9059C38.6452 80.1211 38.4201 80.3384 38.1974 80.5579C37.977 80.7594 37.7561 80.9605 37.5349 81.1611C37.294 81.3863 37.0534 81.6118 36.8132 81.8376C36.442 82.1859 36.0696 82.5318 35.6911 82.8724C34.2076 84.0952 34.2076 84.0952 33.4615 85.7448C33.5779 86.2563 33.7445 86.6815 33.9719 87.1538C34.3806 89.4128 34.0955 91.2864 32.8208 93.2315C31.7779 94.5383 30.31 95.6392 28.6261 95.9392C26.0116 96.1704 24.0423 95.9096 21.9855 94.2645C20.5881 92.9598 19.8356 91.3755 19.6711 89.4909C19.628 87.3226 20.2646 85.5087 21.721 83.8593C23.5741 82.2763 25.1905 81.8417 27.6072 81.8029C28.6641 81.9088 29.6251 82.2138 30.6307 82.5415C33.3149 81.1773 35.811 79.2687 36.8676 76.3918C37.5376 73.4586 37.4088 70.3196 37.3687 67.3319C37.3647 67.0286 37.3647 67.0286 37.3606 66.7192C37.3219 64.1558 37.2124 61.603 37.0903 59.0408C33.8561 59.0408 30.6218 59.0408 27.2896 59.0408C27.2973 60.1062 27.3051 61.1715 27.3131 62.2692C27.3165 62.9448 27.3197 63.6205 27.3222 64.2961C27.3262 65.3681 27.3309 66.4401 27.34 67.512C27.3473 68.3765 27.3513 69.2408 27.353 70.1053C27.3542 70.4348 27.3566 70.7643 27.3602 71.0938C27.3651 71.556 27.3658 72.018 27.3655 72.4802C27.3677 72.8745 27.3677 72.8745 27.37 73.2768C27.2815 74.0467 27.09 74.4583 26.6214 75.074C26.1179 75.3222 25.8259 75.3272 25.2665 75.3387C25.0793 75.3431 24.892 75.3475 24.6991 75.352C24.3956 75.3575 24.3956 75.3575 24.0859 75.3631C23.7754 75.37 23.7754 75.37 23.4586 75.377C22.7959 75.3913 22.1332 75.4043 21.4704 75.4172C21.0217 75.4267 20.5731 75.4362 20.1244 75.4459C19.0232 75.4695 17.9219 75.4917 16.8207 75.5133C16.7462 75.6634 16.6718 75.8135 16.5951 75.9681C16.4964 76.1654 16.3977 76.3627 16.296 76.566C16.1499 76.8591 16.1499 76.8591 16.0009 77.1581C15.1484 78.7577 13.8731 79.7074 12.1883 80.3709C10.3731 80.8642 8.24943 80.8568 6.57099 79.9609C6.42513 79.8703 6.27927 79.7797 6.12899 79.6863C5.97394 79.5957 5.81889 79.5051 5.65914 79.4118C4.15234 78.4287 3.19574 76.9756 2.70431 75.2662C2.31952 72.9138 2.74021 70.9076 4.15301 68.9483C5.41513 67.5453 7.01601 66.6136 8.91676 66.4345C11.2575 66.4104 13.1428 66.6891 14.9047 68.2988C15.743 69.2524 16.4161 70.3632 16.8207 71.5599C19.0993 71.6324 21.378 71.7048 23.7257 71.7795C23.7257 67.6482 23.7257 63.5169 23.7257 59.2604C21.0373 59.2949 21.0373 59.2949 18.349 59.3396C13.3781 59.3948 9.10415 58.0996 5.46076 54.6481C2.20228 51.3565 0.690696 47.1266 0.736164 42.576C0.909836 38.188 2.87367 34.336 6.08461 31.3378C7.32438 30.2999 8.59071 29.3215 10.1801 28.8987C11.8278 28.5325 11.8278 28.5325 13.0307 27.4813C13.3558 26.5468 13.465 25.5724 13.6092 24.5984C14.0991 22.076 16.0035 19.627 18.0946 18.1355C19.5558 17.1874 21.1268 16.3978 22.8347 15.9927C23.0053 15.9519 23.1758 15.9111 23.3516 15.8691C24.0647 15.7543 24.7437 15.7521 25.4659 15.7593C25.7246 15.7613 25.9833 15.7633 26.2498 15.7653C26.4459 15.7678 26.6421 15.7704 26.8441 15.773C26.8671 15.6173 26.8901 15.4616 26.9137 15.3012C27.7928 11.7057 31.3752 8.47781 34.4591 6.61706C37.7194 4.72587 41.5275 3.3935 45.3318 3.25392C45.556 3.2426 45.7803 3.23127 46.0113 3.2196C47.5604 3.17732 49.0518 3.29903 50.5802 3.52846C50.7614 3.55564 50.9426 3.58282 51.1293 3.61083C52.2306 3.79301 53.1783 4.09214 54.2137 4.51681C55.122 4.81877 55.4258 4.86219 56.3045 4.45333C56.9414 4.03421 57.5299 3.55888 58.1222 3.08137C65.1451 -2.24885 75.6894 -0.0593111 82.0148 5.05217ZM57.7637 7.74268C57.0551 8.30642 56.7389 8.51536 55.8286 8.70357C54.8133 8.59589 53.9169 8.11861 52.993 7.71522C48.5394 6.0173 43.2887 6.51339 38.9697 8.37412C34.5189 10.4114 31.4437 13.3794 29.6702 17.9144C29.6113 18.0855 29.5524 18.2565 29.4918 18.4326C29.2943 18.8479 29.2943 18.8479 28.6261 19.2872C28.0624 19.3018 27.5175 19.2957 26.9555 19.2734C24.1537 19.2256 21.9184 19.9577 19.772 21.7855C17.8083 24.0445 16.9789 25.9429 16.7695 28.9166C16.6679 30.18 16.6679 30.18 16.3091 30.6354C15.8892 30.9589 15.5901 31.0674 15.0735 31.186C14.8241 31.2468 14.8241 31.2468 14.5697 31.3089C14.3937 31.3507 14.2177 31.3925 14.0364 31.4356C10.5629 32.3327 7.86306 34.0228 6.00978 37.1358C4.40442 40.0906 3.97442 43.2525 4.79253 46.5217C5.81348 49.7844 7.94533 52.4597 11.0067 54.0555C11.1612 54.1333 11.3157 54.2111 11.4748 54.2912C11.6928 54.4013 11.6928 54.4013 11.9151 54.5136C13.9281 55.4737 15.8705 55.5912 18.0831 55.5854C18.3624 55.5864 18.6418 55.5874 18.9296 55.5884C19.7004 55.5911 20.4712 55.591 21.242 55.5905C22.0751 55.5904 22.9083 55.5928 23.7415 55.5949C25.3723 55.5986 27.003 55.5998 28.6339 55.6C29.9605 55.6002 31.2872 55.6011 32.6138 55.6025C36.3803 55.6064 40.1469 55.6084 43.9134 55.6081C44.1163 55.6081 44.3191 55.6081 44.5281 55.608C44.7312 55.608 44.9343 55.608 45.1436 55.608C48.4323 55.6078 51.721 55.612 55.0097 55.6182C58.3917 55.6245 61.7736 55.6275 65.1556 55.6272C67.0522 55.627 68.9489 55.6282 70.8455 55.633C72.4609 55.637 74.0763 55.6379 75.6917 55.6349C76.5145 55.6335 77.3373 55.6334 78.1602 55.6373C82.8688 55.6776 82.8688 55.6776 87.4303 54.6481C87.7998 54.5202 87.7998 54.5202 88.1769 54.3898C92.829 52.6904 96.4515 48.9845 98.5535 44.6273C100.578 40.2005 100.498 35.3815 98.8824 30.8454C97.1599 26.4912 93.8026 23.0513 89.5115 21.106C88.4012 20.6287 87.3171 20.1939 86.1495 19.8774C85.4256 19.5068 85.4256 19.5068 85.1472 18.6969C85.0897 18.3082 85.0343 17.9192 84.9801 17.5301C84.2004 13.6523 82.7652 10.6208 79.857 7.86622C79.6623 7.67172 79.6623 7.67172 79.4637 7.47328C76.5788 4.78667 72.5092 3.58296 68.6293 3.44696C64.4823 3.58475 60.8976 5.07241 57.7637 7.74268ZM6.94861 71.2321C6.27144 72.2361 6.14653 73.2365 6.35173 74.4151C6.65944 75.3289 7.13943 75.9545 7.9527 76.4879C8.89322 76.9437 9.7809 77.0306 10.8066 76.8311C11.773 76.4416 12.4201 75.9613 13.034 75.1289C13.4148 73.9086 13.4985 72.7691 12.9087 71.6011C12.3678 70.7991 11.7334 70.3259 10.8066 70.0224C9.28143 69.7643 7.98564 70.0644 6.94861 71.2321ZM91.8138 71.2321C91.1366 72.2361 91.0117 73.2365 91.2169 74.4151C91.5246 75.3289 92.0046 75.9545 92.8179 76.4879C93.8879 77.0098 94.9838 77.0563 96.1146 76.6861C96.9876 76.2603 97.5431 75.7125 97.9749 74.8518C98.3504 73.7368 98.3032 72.6562 97.7739 71.6011C97.233 70.7991 96.5985 70.3259 95.6718 70.0224C94.1466 69.7643 92.8508 70.0644 91.8138 71.2321ZM24.1016 86.8381C23.4627 87.7481 23.4282 88.4828 23.503 89.5698C23.9152 90.6989 24.5121 91.3062 25.5077 91.9858C26.4628 92.4122 27.1037 92.4783 28.097 92.2054C29.3604 91.7237 29.9169 91.0137 30.4915 89.8032C30.722 88.6897 30.5673 87.9012 30.046 86.893C29.303 86.0254 28.5901 85.5032 27.4584 85.3127C25.9524 85.2377 25.1122 85.7339 24.1016 86.8381ZM74.4276 86.8793C73.921 87.8784 73.6471 88.7256 73.9909 89.822C74.5002 90.9204 75.1009 91.6675 76.2522 92.1582C77.2658 92.4848 78.0132 92.4512 78.9895 92.0278C79.9441 91.4359 80.6161 90.6187 80.9707 89.5698C81.0957 88.2881 80.8601 87.4953 80.0797 86.4949C79.1004 85.5999 78.3372 85.3139 76.9892 85.3359C75.8637 85.4807 75.1526 86.0516 74.4276 86.8793ZM49.2437 90.819C48.7349 91.8826 48.4799 92.8529 48.813 94.0097C49.2842 95.0535 49.8324 95.6621 50.9004 96.1588C51.9704 96.4583 52.8397 96.4855 53.8657 96.0353C54.8453 95.4696 55.3961 94.814 55.7111 93.7197C55.9117 92.604 55.7783 91.8065 55.1969 90.8276C54.5086 89.9185 53.7043 89.5434 52.5988 89.3502C51.1662 89.2525 50.19 89.7902 49.2437 90.819Z" fill="#C6C6C6"/>
<path d="M26.9992 45.904C26.6872 47.1693 26.1585 48.2007 25.4132 48.998C24.6852 49.7953 23.7925 50.376 22.7352 50.74C21.6952 51.0867 20.5425 51.26 19.2772 51.26C17.5092 51.26 15.9752 50.9133 14.6752 50.22C13.3925 49.5093 12.4045 48.4953 11.7112 47.178C11.0178 45.8607 10.6712 44.2747 10.6712 42.42C10.6712 40.5653 11.0178 38.9793 11.7112 37.662C12.4045 36.3447 13.3925 35.3393 14.6752 34.646C15.9752 33.9353 17.5005 33.58 19.2512 33.58C20.4992 33.58 21.6432 33.7533 22.6832 34.1C23.7405 34.4467 24.6332 34.984 25.3612 35.712C26.0892 36.44 26.5832 37.3847 26.8432 38.546L22.2412 40.392C22.0505 39.2827 21.7125 38.546 21.2272 38.182C20.7592 37.818 20.1525 37.636 19.4072 37.636C18.7138 37.636 18.1158 37.818 17.6132 38.182C17.1278 38.5287 16.7552 39.0573 16.4952 39.768C16.2525 40.4613 16.1312 41.3453 16.1312 42.42C16.1312 43.4773 16.2438 44.3613 16.4692 45.072C16.7118 45.7827 17.0758 46.32 17.5612 46.684C18.0638 47.0307 18.7138 47.204 19.5112 47.204C20.2218 47.204 20.8198 46.996 21.3052 46.58C21.7905 46.164 22.1112 45.514 22.2672 44.63L26.9992 45.904ZM44.9057 45.904C44.5937 47.1693 44.065 48.2007 43.3197 48.998C42.5917 49.7953 41.699 50.376 40.6417 50.74C39.6017 51.0867 38.449 51.26 37.1837 51.26C35.4157 51.26 33.8817 50.9133 32.5817 50.22C31.299 49.5093 30.311 48.4953 29.6177 47.178C28.9243 45.8607 28.5777 44.2747 28.5777 42.42C28.5777 40.5653 28.9243 38.9793 29.6177 37.662C30.311 36.3447 31.299 35.3393 32.5817 34.646C33.8817 33.9353 35.407 33.58 37.1577 33.58C38.4057 33.58 39.5497 33.7533 40.5897 34.1C41.647 34.4467 42.5397 34.984 43.2677 35.712C43.9957 36.44 44.4897 37.3847 44.7497 38.546L40.1477 40.392C39.957 39.2827 39.619 38.546 39.1337 38.182C38.6657 37.818 38.059 37.636 37.3137 37.636C36.6203 37.636 36.0223 37.818 35.5197 38.182C35.0343 38.5287 34.6617 39.0573 34.4017 39.768C34.159 40.4613 34.0377 41.3453 34.0377 42.42C34.0377 43.4773 34.1503 44.3613 34.3757 45.072C34.6183 45.7827 34.9823 46.32 35.4677 46.684C35.9703 47.0307 36.6203 47.204 37.4177 47.204C38.1283 47.204 38.7263 46.996 39.2117 46.58C39.697 46.164 40.0177 45.514 40.1737 44.63L44.9057 45.904ZM53.9721 42.81C53.9721 42.3247 53.8421 41.9433 53.5821 41.666C53.3395 41.3713 52.9755 41.224 52.4901 41.224C52.0395 41.224 51.6495 41.3453 51.3201 41.588C51.0081 41.8307 50.8088 42.29 50.7221 42.966L46.2761 42.16C46.4495 40.808 47.0821 39.7333 48.1741 38.936C49.2661 38.1387 50.8261 37.74 52.8541 37.74C54.2408 37.74 55.4021 37.9393 56.3381 38.338C57.2915 38.7193 58.0021 39.2827 58.4701 40.028C58.9555 40.7733 59.1981 41.666 59.1981 42.706V47.074C59.1981 47.7673 59.5101 48.114 60.1341 48.114C60.3941 48.114 60.5935 48.0793 60.7321 48.01L60.4721 50.844C59.9001 51.1213 59.1895 51.26 58.3401 51.26C57.5948 51.26 56.9361 51.1473 56.3641 50.922C55.7921 50.6793 55.3415 50.3327 55.0121 49.882C54.6828 49.4313 54.5181 48.842 54.5181 48.114V47.906L55.0381 47.828C55.0381 48.5213 54.8215 49.128 54.3881 49.648C53.9721 50.168 53.4175 50.5667 52.7241 50.844C52.0481 51.1213 51.2941 51.26 50.4621 51.26C49.5608 51.26 48.7895 51.1213 48.1481 50.844C47.5068 50.5667 47.0128 50.168 46.6661 49.648C46.3368 49.128 46.1721 48.4953 46.1721 47.75C46.1721 46.7967 46.4581 46.0167 47.0301 45.41C47.6195 44.8033 48.5035 44.3873 49.6821 44.162L54.3881 43.174L54.3621 45.384L52.4381 45.826C52.0048 45.9127 51.6841 46.06 51.4761 46.268C51.2855 46.4587 51.1901 46.7273 51.1901 47.074C51.1901 47.4033 51.3028 47.6633 51.5281 47.854C51.7535 48.0273 52.0308 48.114 52.3601 48.114C52.5855 48.114 52.7935 48.0793 52.9841 48.01C53.1748 47.9407 53.3395 47.8367 53.4781 47.698C53.6341 47.5593 53.7555 47.386 53.8421 47.178C53.9288 46.97 53.9721 46.7187 53.9721 46.424V42.81ZM70.0505 42.81C70.0505 42.3247 69.9205 41.9433 69.6605 41.666C69.4178 41.3713 69.0538 41.224 68.5685 41.224C68.1178 41.224 67.7278 41.3453 67.3985 41.588C67.0865 41.8307 66.8872 42.29 66.8005 42.966L62.3545 42.16C62.5278 40.808 63.1605 39.7333 64.2525 38.936C65.3445 38.1387 66.9045 37.74 68.9325 37.74C70.3192 37.74 71.4805 37.9393 72.4165 38.338C73.3698 38.7193 74.0805 39.2827 74.5485 40.028C75.0338 40.7733 75.2765 41.666 75.2765 42.706V47.074C75.2765 47.7673 75.5885 48.114 76.2125 48.114C76.4725 48.114 76.6718 48.0793 76.8105 48.01L76.5505 50.844C75.9785 51.1213 75.2678 51.26 74.4185 51.26C73.6732 51.26 73.0145 51.1473 72.4425 50.922C71.8705 50.6793 71.4198 50.3327 71.0905 49.882C70.7612 49.4313 70.5965 48.842 70.5965 48.114V47.906L71.1165 47.828C71.1165 48.5213 70.8998 49.128 70.4665 49.648C70.0505 50.168 69.4958 50.5667 68.8025 50.844C68.1265 51.1213 67.3725 51.26 66.5405 51.26C65.6392 51.26 64.8678 51.1213 64.2265 50.844C63.5852 50.5667 63.0912 50.168 62.7445 49.648C62.4152 49.128 62.2505 48.4953 62.2505 47.75C62.2505 46.7967 62.5365 46.0167 63.1085 45.41C63.6978 44.8033 64.5818 44.3873 65.7605 44.162L70.4665 43.174L70.4405 45.384L68.5165 45.826C68.0832 45.9127 67.7625 46.06 67.5545 46.268C67.3638 46.4587 67.2685 46.7273 67.2685 47.074C67.2685 47.4033 67.3812 47.6633 67.6065 47.854C67.8318 48.0273 68.1092 48.114 68.4385 48.114C68.6638 48.114 68.8718 48.0793 69.0625 48.01C69.2532 47.9407 69.4178 47.8367 69.5565 47.698C69.7125 47.5593 69.8338 47.386 69.9205 47.178C70.0072 46.97 70.0505 46.7187 70.0505 46.424V42.81ZM85.7801 33.58C87.4094 33.58 88.8568 33.8053 90.1221 34.256C91.3874 34.6893 92.4968 35.3567 93.4501 36.258L91.1361 39.664C90.3561 39.0053 89.5241 38.494 88.6401 38.13C87.7734 37.7487 86.8114 37.558 85.7541 37.558C85.2168 37.558 84.7834 37.61 84.4541 37.714C84.1248 37.818 83.8821 37.9653 83.7261 38.156C83.5874 38.3293 83.5181 38.5287 83.5181 38.754C83.5181 39.0313 83.6828 39.2567 84.0121 39.43C84.3588 39.6033 84.8354 39.7593 85.4421 39.898L88.0421 40.496C89.7754 40.8947 91.0668 41.484 91.9161 42.264C92.7654 43.0267 93.1901 44.0753 93.1901 45.41C93.1901 46.71 92.8608 47.7933 92.2021 48.66C91.5608 49.5267 90.6768 50.1767 89.5501 50.61C88.4234 51.0433 87.1494 51.26 85.7281 51.26C84.6014 51.26 83.5008 51.1473 82.4261 50.922C81.3688 50.6967 80.3981 50.376 79.5141 49.96C78.6301 49.5267 77.8674 49.0153 77.2261 48.426L79.5141 44.916C79.9821 45.3667 80.5541 45.774 81.2301 46.138C81.9061 46.4847 82.6254 46.762 83.3881 46.97C84.1508 47.178 84.8874 47.282 85.5981 47.282C86.1008 47.282 86.5081 47.2387 86.8201 47.152C87.1494 47.048 87.3834 46.9093 87.5221 46.736C87.6608 46.5627 87.7301 46.3547 87.7301 46.112C87.7301 45.8173 87.6174 45.5833 87.3921 45.41C87.1668 45.2193 86.7421 45.0547 86.1181 44.916L83.2581 44.266C82.3221 44.058 81.4554 43.772 80.6581 43.408C79.8608 43.044 79.2194 42.5413 78.7341 41.9C78.2661 41.2413 78.0321 40.3833 78.0321 39.326C78.0321 38.1993 78.3354 37.2027 78.9421 36.336C79.5488 35.4693 80.4328 34.7933 81.5941 34.308C82.7554 33.8227 84.1508 33.58 85.7801 33.58Z" fill="#C6C6C6"/>
</svg>
