<svg width="101" height="100" viewBox="0 0 101 100" fill="none" xmlns="http://www.w3.org/2000/svg">
<path d="M67.9611 0.000388721C68.2019 0.00103927 68.2019 0.00103927 68.4475 0.00170295C70.7681 0.0117749 73.0136 0.0683059 75.2686 0.666988C75.5076 0.728565 75.5076 0.728565 75.7514 0.791386C81.0317 2.18284 85.7003 4.60231 89.7223 8.31637C90.0736 8.63741 90.4284 8.93772 90.8016 9.23216C95.1211 12.9757 97.9916 18.7702 99.4171 24.2118C99.481 24.4529 99.481 24.4529 99.5462 24.6989C100.692 29.2428 100.781 34.7554 99.6183 39.3046C99.5599 39.5474 99.5599 39.5474 99.5004 39.7951C97.5764 47.681 92.7867 54.7865 85.9342 59.2271C85.8015 59.3134 85.6688 59.3996 85.5321 59.4885C80.2747 62.8514 74.3286 64.5546 68.0869 64.5222C67.9469 64.5219 67.8069 64.5217 67.6626 64.5215C64.6032 64.5114 61.6971 64.1802 58.7671 63.2519C58.7142 63.4285 58.6613 63.6052 58.6067 63.7872C57.366 67.2315 54.268 69.7249 51.097 71.327C47.4941 72.9945 42.9371 73.4146 39.1354 72.1849C34.5088 70.3175 31.1667 67.5704 28.9391 63.0553C28.7827 62.6481 28.7827 62.6481 28.7827 62.0444C28.6131 62.0416 28.6131 62.0416 28.4402 62.0387C20.3662 61.8717 13.3987 59.133 7.76212 53.2885C3.11227 48.3273 0.716333 41.7255 0.735218 34.978C0.735261 34.837 0.735303 34.6961 0.735347 34.5508C0.742495 32.1701 0.962084 29.9286 1.61563 27.6328C1.67055 27.4315 1.67055 27.4315 1.72657 27.2261C2.76654 23.4965 4.76111 20.1089 7.25028 17.1685C7.39114 17.0004 7.532 16.8323 7.67713 16.6591C12.0056 11.6593 18.2639 8.73567 24.7579 7.91154C30.5403 7.62737 36.6575 8.23112 41.6116 11.5338C42.1949 11.9804 42.1949 11.9804 42.6657 11.908C43.1806 11.6881 43.4099 11.4134 43.7623 10.9804C44.3104 10.3255 44.8735 9.71592 45.4854 9.11896C45.5866 9.00871 45.6878 8.89847 45.792 8.78488C51.3868 2.83585 59.9606 -0.0384709 67.9611 0.000388721ZM45.7654 11.8878C44.6019 13.1384 44.6019 13.1384 43.6743 14.5524C43.1202 14.7343 42.7984 14.8036 42.2476 14.5924C42.1106 14.5063 41.9736 14.4202 41.8325 14.3315C41.6777 14.2371 41.523 14.1427 41.3635 14.0454C41.119 13.8917 41.119 13.8917 40.8695 13.7348C35.0549 10.2376 28.5505 9.0583 21.9089 10.6428C17.495 11.7715 13.8097 13.8951 10.4701 16.9672C10.3196 17.1011 10.1692 17.2349 10.0142 17.3728C5.70314 21.4035 3.11852 27.6311 2.82306 33.4687C2.81242 33.6669 2.80179 33.8651 2.79083 34.0693C2.60243 41.0483 5.32505 47.3561 10.0676 52.385C10.1908 52.5212 10.314 52.6574 10.441 52.7977C15.0172 57.6666 21.6038 59.6537 28.0909 59.944C28.2747 59.9527 28.4585 59.9614 28.6479 59.9703C29.0953 59.9914 29.5427 60.012 29.9901 60.032C30.3632 60.7728 30.7345 61.5135 31.0883 62.2637C31.7264 63.6044 32.4288 64.754 33.4112 65.8679C33.5432 66.0189 33.6752 66.1699 33.8113 66.3254C36.3193 69.0123 39.8026 70.4598 43.4369 70.7417C45.9386 70.8217 48.316 70.2692 50.5164 69.0877C50.7631 68.9613 50.7631 68.9613 51.0147 68.8323C54.1655 67.0968 56.0566 64.4334 57.5597 61.2395C57.6261 61.1731 57.6925 61.1067 57.7609 61.0382C58.7796 61.0928 59.7193 61.269 60.7077 61.5218C68.4556 63.4884 76.4282 62.1492 83.3534 58.2649C90.3486 53.9727 95.3996 47.2881 97.4047 39.3046C97.824 37.4542 98.121 35.5661 98.2096 33.6699C98.2203 33.4577 98.2309 33.2455 98.2419 33.0269C98.4136 26.2322 96.2884 19.2423 91.9713 13.9487C91.8347 13.7793 91.8347 13.7793 91.6953 13.6065C86.436 7.11375 79.1617 3.05038 70.8264 2.15819C61.5175 1.31102 52.0727 4.99098 45.7654 11.8878Z" fill="#C6C6C6"/>
<path d="M34.2915 76.6844C36.2922 78.3643 37.2904 80.0537 37.5986 82.6524C37.7127 84.7948 37.1447 86.6732 35.7929 88.3397C34.2997 89.9443 32.6028 90.9131 30.3965 91.0635C27.7715 91.1019 26.0041 90.457 24.0158 88.7461C22.3871 86.8533 21.7194 85.082 21.7393 82.5706C22.0615 80.1963 23.08 78.2367 24.9591 76.7348C27.8188 74.9435 31.4297 74.6585 34.2915 76.6844ZM25.1604 79.5521C24.2143 81.1051 23.6695 82.6028 24.0457 84.4297C24.5184 86.0396 25.42 87.244 26.7891 88.2037C28.2404 88.971 29.9374 89.0892 31.519 88.6707C33.2462 87.9596 34.2429 86.9381 35.032 85.2606C35.6769 83.6458 35.5043 82.2681 34.8685 80.6809C34.1574 79.1872 33.1382 78.452 31.644 77.7622C29.3554 76.9761 26.7206 77.6782 25.1604 79.5521Z" fill="#C6C6C6"/>
<path d="M14.5578 88.57C16.0878 89.8322 16.9109 91.1994 17.1888 93.1898C17.2614 94.939 16.781 96.5403 15.7023 97.9276C14.4712 99.1899 13.018 99.9138 11.2558 99.9996C9.14126 100.016 7.73131 99.4629 6.18834 98.0243C4.74591 96.5229 4.541 94.9985 4.57058 92.9886C4.70324 91.4082 5.29346 90.1121 6.44539 89.0102C8.94096 87.2172 11.9343 86.6876 14.5578 88.57ZM7.69055 90.9723C6.90457 92.14 6.47833 93.1614 6.70716 94.5836C7.0478 95.7064 7.72131 96.7131 8.70931 97.3616C9.83566 97.9011 11.1197 98.034 12.319 97.676C13.4887 97.1635 14.4281 96.0214 14.8974 94.8461C15.0872 93.4247 14.9534 92.1918 14.0924 91.0226C13.1725 90.0097 12.1426 89.61 10.7972 89.5385C9.49269 89.5736 8.61102 90.0723 7.69055 90.9723Z" fill="#C6C6C6"/>
<path d="M24.9991 38.904C24.6871 40.1693 24.1584 41.2007 23.4131 41.998C22.6851 42.7953 21.7924 43.376 20.7351 43.74C19.6951 44.0867 18.5424 44.26 17.2771 44.26C15.5091 44.26 13.9751 43.9133 12.6751 43.22C11.3924 42.5093 10.4044 41.4953 9.71111 40.178C9.01777 38.8607 8.67111 37.2747 8.67111 35.42C8.67111 33.5653 9.01777 31.9793 9.71111 30.662C10.4044 29.3447 11.3924 28.3393 12.6751 27.646C13.9751 26.9353 15.5004 26.58 17.2511 26.58C18.4991 26.58 19.6431 26.7533 20.6831 27.1C21.7404 27.4467 22.6331 27.984 23.3611 28.712C24.0891 29.44 24.5831 30.3847 24.8431 31.546L20.2411 33.392C20.0504 32.2827 19.7124 31.546 19.2271 31.182C18.7591 30.818 18.1524 30.636 17.4071 30.636C16.7138 30.636 16.1158 30.818 15.6131 31.182C15.1278 31.5287 14.7551 32.0573 14.4951 32.768C14.2524 33.4613 14.1311 34.3453 14.1311 35.42C14.1311 36.4773 14.2438 37.3613 14.4691 38.072C14.7118 38.7827 15.0758 39.32 15.5611 39.684C16.0638 40.0307 16.7138 40.204 17.5111 40.204C18.2218 40.204 18.8198 39.996 19.3051 39.58C19.7904 39.164 20.1111 38.514 20.2671 37.63L24.9991 38.904ZM35.7556 26.84C37.2289 26.84 38.4769 27.074 39.4996 27.542C40.5396 27.9927 41.3283 28.66 41.8656 29.544C42.4203 30.4107 42.6976 31.4767 42.6976 32.742C42.6976 34.0073 42.4203 35.082 41.8656 35.966C41.3283 36.8327 40.5396 37.5 39.4996 37.968C38.4769 38.4187 37.2289 38.644 35.7556 38.644H32.5316V44H27.2276V26.84H35.7556ZM34.8976 34.796C35.6776 34.796 36.2843 34.6313 36.7176 34.302C37.1509 33.9553 37.3676 33.4353 37.3676 32.742C37.3676 32.0487 37.1509 31.5373 36.7176 31.208C36.2843 30.8613 35.6776 30.688 34.8976 30.688H32.5316V34.796H34.8976ZM52.226 35.81C52.226 35.3247 52.096 34.9433 51.836 34.666C51.5933 34.3713 51.2293 34.224 50.744 34.224C50.2933 34.224 49.9033 34.3453 49.574 34.588C49.262 34.8307 49.0626 35.29 48.976 35.966L44.53 35.16C44.7033 33.808 45.336 32.7333 46.428 31.936C47.52 31.1387 49.08 30.74 51.108 30.74C52.4947 30.74 53.656 30.9393 54.592 31.338C55.5453 31.7193 56.256 32.2827 56.724 33.028C57.2093 33.7733 57.452 34.666 57.452 35.706V40.074C57.452 40.7673 57.764 41.114 58.388 41.114C58.648 41.114 58.8473 41.0793 58.986 41.01L58.726 43.844C58.154 44.1213 57.4433 44.26 56.594 44.26C55.8487 44.26 55.19 44.1473 54.618 43.922C54.046 43.6793 53.5953 43.3327 53.266 42.882C52.9367 42.4313 52.772 41.842 52.772 41.114V40.906L53.292 40.828C53.292 41.5213 53.0753 42.128 52.642 42.648C52.226 43.168 51.6713 43.5667 50.978 43.844C50.302 44.1213 49.548 44.26 48.716 44.26C47.8146 44.26 47.0433 44.1213 46.402 43.844C45.7606 43.5667 45.2666 43.168 44.92 42.648C44.5906 42.128 44.426 41.4953 44.426 40.75C44.426 39.7967 44.712 39.0167 45.284 38.41C45.8733 37.8033 46.7573 37.3873 47.936 37.162L52.642 36.174L52.616 38.384L50.692 38.826C50.2586 38.9127 49.938 39.06 49.73 39.268C49.5393 39.4587 49.444 39.7273 49.444 40.074C49.444 40.4033 49.5566 40.6633 49.782 40.854C50.0073 41.0273 50.2847 41.114 50.614 41.114C50.8393 41.114 51.0473 41.0793 51.238 41.01C51.4287 40.9407 51.5933 40.8367 51.732 40.698C51.888 40.5593 52.0093 40.386 52.096 40.178C52.1826 39.97 52.226 39.7187 52.226 39.424V35.81ZM68.3043 35.81C68.3043 35.3247 68.1743 34.9433 67.9143 34.666C67.6717 34.3713 67.3077 34.224 66.8223 34.224C66.3717 34.224 65.9817 34.3453 65.6523 34.588C65.3403 34.8307 65.141 35.29 65.0543 35.966L60.6083 35.16C60.7817 33.808 61.4143 32.7333 62.5063 31.936C63.5983 31.1387 65.1583 30.74 67.1863 30.74C68.573 30.74 69.7343 30.9393 70.6703 31.338C71.6237 31.7193 72.3343 32.2827 72.8023 33.028C73.2877 33.7733 73.5303 34.666 73.5303 35.706V40.074C73.5303 40.7673 73.8423 41.114 74.4663 41.114C74.7263 41.114 74.9257 41.0793 75.0643 41.01L74.8043 43.844C74.2323 44.1213 73.5217 44.26 72.6723 44.26C71.927 44.26 71.2683 44.1473 70.6963 43.922C70.1243 43.6793 69.6737 43.3327 69.3443 42.882C69.015 42.4313 68.8503 41.842 68.8503 41.114V40.906L69.3703 40.828C69.3703 41.5213 69.1537 42.128 68.7203 42.648C68.3043 43.168 67.7497 43.5667 67.0563 43.844C66.3803 44.1213 65.6263 44.26 64.7943 44.26C63.893 44.26 63.1217 44.1213 62.4803 43.844C61.839 43.5667 61.345 43.168 60.9983 42.648C60.669 42.128 60.5043 41.4953 60.5043 40.75C60.5043 39.7967 60.7903 39.0167 61.3623 38.41C61.9517 37.8033 62.8357 37.3873 64.0143 37.162L68.7203 36.174L68.6943 38.384L66.7703 38.826C66.337 38.9127 66.0163 39.06 65.8083 39.268C65.6177 39.4587 65.5223 39.7273 65.5223 40.074C65.5223 40.4033 65.635 40.6633 65.8603 40.854C66.0857 41.0273 66.363 41.114 66.6923 41.114C66.9177 41.114 67.1257 41.0793 67.3163 41.01C67.507 40.9407 67.6717 40.8367 67.8103 40.698C67.9663 40.5593 68.0877 40.386 68.1743 40.178C68.261 39.97 68.3043 39.7187 68.3043 39.424V35.81ZM84.0339 26.58C85.6633 26.58 87.1106 26.8053 88.3759 27.256C89.6413 27.6893 90.7506 28.3567 91.7039 29.258L89.3899 32.664C88.6099 32.0053 87.7779 31.494 86.8939 31.13C86.0273 30.7487 85.0653 30.558 84.0079 30.558C83.4706 30.558 83.0373 30.61 82.7079 30.714C82.3786 30.818 82.1359 30.9653 81.9799 31.156C81.8413 31.3293 81.7719 31.5287 81.7719 31.754C81.7719 32.0313 81.9366 32.2567 82.2659 32.43C82.6126 32.6033 83.0893 32.7593 83.6959 32.898L86.2959 33.496C88.0293 33.8947 89.3206 34.484 90.1699 35.264C91.0193 36.0267 91.4439 37.0753 91.4439 38.41C91.4439 39.71 91.1146 40.7933 90.4559 41.66C89.8146 42.5267 88.9306 43.1767 87.8039 43.61C86.6773 44.0433 85.4033 44.26 83.9819 44.26C82.8553 44.26 81.7546 44.1473 80.6799 43.922C79.6226 43.6967 78.6519 43.376 77.7679 42.96C76.8839 42.5267 76.1213 42.0153 75.4799 41.426L77.7679 37.916C78.2359 38.3667 78.8079 38.774 79.4839 39.138C80.1599 39.4847 80.8793 39.762 81.6419 39.97C82.4046 40.178 83.1413 40.282 83.8519 40.282C84.3546 40.282 84.7619 40.2387 85.0739 40.152C85.4033 40.048 85.6373 39.9093 85.7759 39.736C85.9146 39.5627 85.9839 39.3547 85.9839 39.112C85.9839 38.8173 85.8713 38.5833 85.6459 38.41C85.4206 38.2193 84.9959 38.0547 84.3719 37.916L81.5119 37.266C80.5759 37.058 79.7093 36.772 78.9119 36.408C78.1146 36.044 77.4733 35.5413 76.9879 34.9C76.5199 34.2413 76.2859 33.3833 76.2859 32.326C76.2859 31.1993 76.5893 30.2027 77.1959 29.336C77.8026 28.4693 78.6866 27.7933 79.8479 27.308C81.0093 26.8227 82.4046 26.58 84.0339 26.58Z" fill="#C6C6C6"/>
</svg>
