<svg width="118" height="118" viewBox="0 0 118 118" fill="none" xmlns="http://www.w3.org/2000/svg">
<path d="M49.3683 0.500859C49.6657 0.502641 49.9631 0.504424 50.2696 0.506261C52.6417 0.547803 54.8235 0.80643 57.0782 1.54552C57.2301 1.59472 57.382 1.64392 57.5385 1.69461C61.2222 2.93302 64.2278 4.945 66.9656 7.66635C67.1359 7.83052 67.3061 7.9947 67.4815 8.16385C68.1569 8.82233 68.7872 9.4727 69.3198 10.2559C69.572 10.2186 69.8242 10.1813 70.084 10.1428C75.673 9.45141 81.0452 10.2188 85.593 13.7136C85.8999 13.9702 86.2038 14.2304 86.5052 14.4934C86.7331 14.6752 86.961 14.857 87.1958 15.0443C89.6399 17.0844 91.761 20.4867 92.1552 23.6747C92.2985 23.7038 92.4417 23.7329 92.5893 23.763C95.7231 24.5003 98.4639 26.0242 100.866 28.1476C101.006 28.2547 101.147 28.3618 101.291 28.4722C104.942 31.2965 106.889 35.9391 107.829 40.3166C108.604 46.3946 107.329 52.0334 103.588 56.9217C100.324 61.0459 95.5396 63.9547 90.2719 64.6371C89.318 64.6708 88.3646 64.6669 87.4102 64.6639C86.9794 64.6639 86.9794 64.6639 86.5398 64.664C85.7554 64.6638 84.9709 64.6627 84.1865 64.661C83.3655 64.6595 82.5445 64.6594 81.7235 64.6591C80.1703 64.6584 78.6171 64.6565 77.0639 64.6541C75.295 64.6515 73.5261 64.6502 71.7572 64.649C68.1197 64.6465 64.4823 64.6422 60.8448 64.6371C60.8448 67.1231 60.8448 69.6091 60.8448 72.1705C61.636 72.1596 62.4271 72.1486 63.2422 72.1374C64.0136 72.13 64.7849 72.1243 65.5563 72.1188C66.0899 72.114 66.6235 72.1076 67.1571 72.0994C67.9268 72.0879 68.6963 72.0827 69.466 72.0785C69.7023 72.0737 69.9385 72.0688 70.1819 72.0638C72.3503 72.0631 74.3159 72.7812 75.9115 74.2892C76.8558 75.4403 77.3381 76.3436 77.5594 77.8205C77.7372 77.8184 77.915 77.8163 78.0982 77.8141C79.7747 77.7953 81.4511 77.7809 83.1277 77.7717C83.9896 77.7668 84.8515 77.7601 85.7133 77.7494C86.5452 77.7392 87.3771 77.7336 88.209 77.7311C88.6806 77.7285 89.1521 77.7212 89.6236 77.7138C89.9111 77.7137 90.1985 77.7136 90.4947 77.7136C90.7477 77.7115 91.0007 77.7094 91.2614 77.7072C92.097 77.8509 92.37 78.0776 92.8615 78.7621C92.9747 79.3401 92.9747 79.3401 92.9684 79.9928C92.9683 80.3603 92.9683 80.3603 92.9682 80.7353C92.9609 81.1296 92.9609 81.1296 92.9534 81.532C92.9521 81.8023 92.9508 82.0727 92.9494 82.3513C92.9441 83.2149 92.9323 84.0783 92.9203 84.9418C92.9156 85.5273 92.9113 86.1128 92.9074 86.6982C92.8971 88.1335 92.8808 89.5686 92.8615 91.0038C91.6185 91.0038 90.3755 91.0038 89.0948 91.0038C89.0948 87.8963 89.0948 84.7888 89.0948 81.5871C85.2881 81.5871 81.4814 81.5871 77.5594 81.5871C77.4817 82.0533 77.404 82.5194 77.324 82.9996C76.3432 84.9145 74.941 86.1753 72.9763 87.0145C71.8413 87.3184 70.7679 87.3066 69.5977 87.3055C69.3437 87.3071 69.0898 87.3087 68.8281 87.3103C67.9899 87.3148 67.1518 87.3157 66.3137 87.3162C65.7296 87.3177 65.1455 87.3193 64.5615 87.321C63.3375 87.3238 62.1136 87.3247 60.8896 87.3244C59.3238 87.3243 57.7581 87.3308 56.1923 87.3389C54.986 87.3441 53.7797 87.3451 52.5734 87.3448C51.9963 87.3454 51.4191 87.3474 50.842 87.3511C50.0335 87.3557 49.2252 87.3543 48.4167 87.3515C48.1799 87.3542 47.9432 87.3568 47.6993 87.3595C45.5545 87.3405 43.5893 86.6096 42.0115 85.1184C41.0368 83.9303 40.6216 83.1351 40.3636 81.5871C36.5569 81.5871 32.7502 81.5871 28.8282 81.5871C28.8282 84.6946 28.8282 87.8021 28.8282 91.0038C27.5852 91.0038 26.3422 91.0038 25.0615 91.0038C25.0382 89.2776 25.0211 87.5516 25.0098 85.8253C25.005 85.238 24.9986 84.6507 24.9905 84.0634C24.9791 83.2195 24.9737 82.3759 24.9696 81.532C24.9647 81.2691 24.9598 81.0061 24.9548 80.7353C24.9547 80.3677 24.9547 80.3677 24.9546 79.9928C24.9525 79.7774 24.9504 79.562 24.9483 79.3401C25.102 78.5554 25.3591 78.2868 26.0032 77.8205C26.6616 77.7072 26.6616 77.7072 27.4283 77.7136C27.7158 77.7136 28.0032 77.7137 28.2993 77.7138C28.6086 77.7186 28.9178 77.7235 29.2365 77.7285C29.5571 77.7303 29.8777 77.7316 30.1983 77.7326C31.0406 77.7361 31.8826 77.7454 32.7248 77.7558C33.5848 77.7655 34.4448 77.7698 35.3049 77.7745C36.9912 77.7846 38.6774 77.8006 40.3636 77.8205C40.3961 77.5999 40.4285 77.3792 40.462 77.1519C40.7674 75.4937 41.9612 74.1686 43.321 73.2299C44.976 72.1852 46.4816 72.1052 48.388 72.1245C48.7612 72.1255 48.7612 72.1255 49.142 72.1265C49.9335 72.1291 50.7249 72.135 51.5164 72.141C52.0544 72.1434 52.5924 72.1456 53.1303 72.1475C54.4463 72.1523 55.7622 72.1615 57.0782 72.1705C57.0782 69.6845 57.0782 67.1985 57.0782 64.6371C56.203 64.6433 55.3279 64.6495 54.4262 64.6558C51.52 64.6754 48.6137 64.6884 45.7074 64.6981C43.947 64.7042 42.1866 64.7124 40.4263 64.7259C38.8898 64.7378 37.3533 64.7453 35.8167 64.7479C35.0051 64.7494 34.1936 64.7529 33.382 64.7616C29.0112 64.8031 24.7154 64.7142 20.824 62.4595C20.6615 62.3694 20.499 62.2793 20.3316 62.1865C18.8725 61.3526 17.5867 60.3614 16.3511 59.2226C16.1884 59.0815 16.0258 58.9403 15.8582 58.795C11.9854 55.2372 9.9666 49.8582 9.73001 44.6902C9.60125 38.5983 11.8888 33.2222 16.0421 28.8097C18.3888 26.5465 21.7963 24.3377 25.0615 23.9101C25.0421 23.6091 25.0227 23.308 25.0027 22.9979C25.0244 17.8685 27.5113 12.9492 30.7115 9.07885C30.8487 8.90709 30.9858 8.73532 31.1272 8.55836C35.5373 3.2773 42.5968 0.443342 49.3683 0.500859ZM34.4782 10.9622C34.3161 11.1245 34.1541 11.2869 33.9871 11.4542C30.6779 14.9955 29.0563 19.6922 28.9497 24.4706C28.9108 25.5008 28.8291 26.2026 28.1219 26.9705C27.4145 27.3042 26.6787 27.5149 25.9296 27.7356C21.4956 29.1729 18.185 31.8007 15.8803 35.9163C15.7892 36.0699 15.6982 36.2234 15.6044 36.3816C13.6077 39.991 13.4111 44.4825 14.3795 48.4375C15.8132 52.9702 18.7668 56.678 22.9428 58.9872C27.139 61.0291 31.5557 60.9402 36.1206 60.9314C36.6814 60.932 37.2421 60.9329 37.8029 60.9339C39.3155 60.936 40.8282 60.9352 42.3409 60.9337C43.2878 60.9329 44.2348 60.9331 45.1817 60.9335C45.3396 60.9336 45.4975 60.9336 45.6602 60.9337C45.9811 60.9339 46.3019 60.934 46.6228 60.9342C49.6217 60.9355 52.6205 60.934 55.6193 60.9314C58.185 60.9293 60.7508 60.9297 63.3165 60.9319C66.306 60.9344 69.2955 60.9354 72.285 60.9339C72.6045 60.9338 72.9241 60.9336 73.2436 60.9335C73.4008 60.9334 73.5579 60.9333 73.7199 60.9333C74.8204 60.9329 75.921 60.9336 77.0215 60.9347C78.5061 60.936 79.9907 60.9351 81.4753 60.9323C82.0179 60.9317 82.5604 60.9319 83.1029 60.9329C89.2952 60.9438 94.8204 60.3736 99.546 55.8798C102.845 52.334 104.493 47.9729 104.447 43.1563C104.186 38.5871 102.067 34.3313 98.7469 31.208C96.197 29.1372 93.3813 27.7732 90.1367 27.1673C89.4094 26.9167 89.232 26.6986 88.8594 26.0288C88.6632 25.4747 88.4833 24.9147 88.315 24.3515C87.4709 21.6965 86.0993 19.7791 84.1511 17.7893C84.0291 17.6588 83.9071 17.5283 83.7814 17.3938C81.2683 14.9597 77.4309 13.8159 74.0281 13.6989C72.6775 13.7314 71.4096 14.011 70.1024 14.3389C69.2645 14.5043 68.5238 14.5499 67.6719 14.4934C66.8832 13.8822 66.344 13.1187 65.7444 12.3305C62.2826 7.85095 57.465 5.20283 51.864 4.46616C45.2014 3.7634 39.1102 6.24786 34.4782 10.9622ZM44.8365 77.3643C44.0297 78.5494 43.9754 79.4634 44.1302 80.8809C44.683 82.0289 45.375 82.6238 46.4844 83.2351C47.5863 83.5454 48.7008 83.5069 49.8361 83.5084C50.0533 83.5096 50.2705 83.5107 50.4943 83.5119C51.2114 83.5154 51.9286 83.517 52.6457 83.5183C53.1456 83.5196 53.6456 83.521 54.1455 83.5224C55.1936 83.5248 56.2416 83.5262 57.2897 83.527C58.6293 83.5283 59.9688 83.534 61.3084 83.5407C62.3413 83.5451 63.3741 83.5463 64.407 83.5466C64.9007 83.5474 65.3943 83.5492 65.888 83.5523C66.5804 83.5564 67.2726 83.5559 67.965 83.5544C68.2678 83.5576 68.2678 83.5576 68.5767 83.561C70.0156 83.5511 71.6444 83.4198 72.7639 82.4224C73.7162 81.3031 73.8765 80.5527 73.858 79.1245C73.7612 78.2384 73.4436 77.7692 72.8511 77.1142C71.3137 75.904 69.9612 75.9016 68.0869 75.8992C67.8697 75.898 67.6525 75.8969 67.4287 75.8957C66.7115 75.8922 65.9944 75.8906 65.2773 75.8893C64.7773 75.888 64.2774 75.8866 63.7775 75.8853C62.7294 75.8828 61.6814 75.8814 60.6333 75.8806C59.2937 75.8793 57.9541 75.8736 56.6145 75.8669C55.5817 75.8625 54.5489 75.8613 53.516 75.861C53.0223 75.8603 52.5286 75.8584 52.035 75.8553C51.3426 75.8512 50.6503 75.8517 49.958 75.8532C49.7561 75.8511 49.5542 75.8489 49.3463 75.8466C47.6971 75.8579 45.9599 76.0439 44.8365 77.3643Z" fill="#C6C6C6"/>
<path d="M65.7786 94.6509C65.9941 94.6494 66.2096 94.6479 66.4316 94.6464C67.1553 94.6427 67.8788 94.6456 68.6025 94.6486C69.1206 94.6473 69.6388 94.6456 70.1569 94.6436C71.5655 94.6393 72.974 94.641 74.3826 94.644C75.8551 94.6463 77.3276 94.6441 78.8001 94.6427C81.4316 94.6408 84.0632 94.6438 86.6947 94.6485C89.081 94.6528 91.4673 94.652 93.8537 94.6477C96.6244 94.6426 99.395 94.6408 102.166 94.6435C103.633 94.645 105.099 94.6452 106.566 94.6421C107.945 94.6394 109.324 94.6413 110.703 94.6467C111.21 94.648 111.716 94.6476 112.223 94.6455C112.914 94.643 113.604 94.6462 114.294 94.6509C114.496 94.6488 114.698 94.6467 114.906 94.6445C115.796 94.6563 116.258 94.6671 116.998 95.1929C117.528 95.987 117.476 96.7835 117.467 97.7058C117.468 97.9065 117.47 98.1072 117.472 98.3139C117.476 98.9769 117.473 99.6397 117.47 100.303C117.47 100.764 117.471 101.224 117.473 101.685C117.474 102.651 117.472 103.617 117.467 104.583C117.462 105.821 117.465 107.059 117.471 108.297C117.474 109.249 117.473 110.2 117.471 111.152C117.47 111.608 117.471 112.065 117.473 112.521C117.475 113.159 117.472 113.797 117.467 114.435C117.468 114.624 117.47 114.813 117.472 115.007C117.461 115.768 117.426 116.307 116.998 116.948C116.118 117.573 115.35 117.501 114.294 117.49C114.079 117.491 113.863 117.493 113.641 117.494C112.918 117.498 112.194 117.495 111.47 117.492C110.952 117.494 110.434 117.495 109.916 117.497C108.507 117.502 107.099 117.5 105.69 117.497C104.218 117.495 102.745 117.497 101.273 117.498C98.6412 117.5 96.0097 117.497 93.3781 117.492C90.9918 117.488 88.6055 117.489 86.2192 117.493C83.4485 117.498 80.6778 117.5 77.9071 117.497C76.4402 117.496 74.9734 117.496 73.5065 117.499C72.1276 117.501 70.7488 117.5 69.3699 117.494C68.8632 117.493 68.3564 117.493 67.8496 117.495C67.1592 117.498 66.469 117.495 65.7786 117.49C65.4759 117.493 65.4759 117.493 65.1671 117.496C64.2766 117.485 63.8153 117.474 63.0746 116.948C62.5446 116.154 62.5969 115.357 62.6062 114.435C62.6046 114.234 62.6029 114.034 62.6012 113.827C62.5971 113.164 62.5998 112.501 62.603 111.838C62.6024 111.377 62.6015 110.916 62.6003 110.456C62.5989 109.49 62.6009 108.524 62.6053 107.558C62.6107 106.32 62.6076 105.082 62.602 103.844C62.5986 102.892 62.5996 101.941 62.6021 100.989C62.6027 100.533 62.6019 100.076 62.5997 99.6195C62.5974 98.9815 62.601 98.3438 62.6062 97.7058C62.6043 97.5169 62.6024 97.3281 62.6005 97.1335C62.6121 96.3728 62.6468 95.8339 63.0746 95.1929C63.9551 94.5679 64.7228 94.6399 65.7786 94.6509ZM66.4948 98.5371C66.4948 103.509 66.4948 108.481 66.4948 113.604C82.0322 113.604 97.5697 113.604 113.578 113.604C113.578 108.632 113.578 103.66 113.578 98.5371C98.0406 98.5371 82.5031 98.5371 66.4948 98.5371Z" fill="#C6C6C6"/>
<path d="M3.62872 94.6509C3.8442 94.6494 4.05968 94.6479 4.28169 94.6464C5.00538 94.6427 5.72888 94.6456 6.45257 94.6486C6.97071 94.6473 7.48886 94.6456 8.007 94.6436C9.41559 94.6393 10.8241 94.641 12.2327 94.644C13.7052 94.6463 15.1777 94.6441 16.6502 94.6427C19.2817 94.6408 21.9133 94.6438 24.5448 94.6485C26.9311 94.6528 29.3174 94.652 31.7037 94.6477C34.4745 94.6426 37.2451 94.6408 40.0159 94.6435C41.4827 94.645 42.9495 94.6452 44.4164 94.6421C45.7953 94.6394 47.1741 94.6413 48.553 94.6467C49.0598 94.648 49.5665 94.6476 50.0733 94.6455C50.7637 94.643 51.4539 94.6462 52.1443 94.6509C52.3461 94.6488 52.5479 94.6467 52.7558 94.6445C53.6463 94.6563 54.1076 94.6671 54.8483 95.1929C55.3783 95.987 55.326 96.7835 55.3167 97.7058C55.3183 97.9065 55.32 98.1072 55.3217 98.3139C55.3258 98.9769 55.3231 99.6397 55.3199 100.303C55.3205 100.764 55.3214 101.224 55.3226 101.685C55.324 102.651 55.322 103.617 55.3176 104.583C55.3122 105.821 55.3153 107.059 55.321 108.297C55.3244 109.249 55.3233 110.2 55.3208 111.152C55.3202 111.608 55.321 112.065 55.3232 112.521C55.3256 113.159 55.3219 113.797 55.3167 114.435C55.3186 114.624 55.3205 114.813 55.3224 115.007C55.3109 115.768 55.2761 116.307 54.8483 116.948C53.9679 117.573 53.2001 117.501 52.1443 117.49C51.9288 117.491 51.7133 117.493 51.4913 117.494C50.7676 117.498 50.0441 117.495 49.3204 117.492C48.8023 117.494 48.2842 117.495 47.766 117.497C46.3574 117.502 44.9489 117.5 43.5403 117.497C42.0678 117.495 40.5953 117.497 39.1228 117.498C36.4913 117.5 33.8598 117.497 31.2282 117.492C28.8419 117.488 26.4556 117.489 24.0693 117.493C21.2986 117.498 18.5279 117.5 15.7572 117.497C14.2903 117.496 12.8235 117.496 11.3566 117.499C9.97773 117.501 8.59892 117.5 7.22004 117.494C6.71326 117.493 6.20647 117.493 5.6997 117.495C5.00928 117.498 4.31912 117.495 3.62872 117.49C3.32602 117.493 3.32602 117.493 3.01721 117.496C2.12671 117.485 1.66539 117.474 0.924693 116.948C0.394713 116.154 0.447035 115.357 0.456344 114.435C0.454694 114.234 0.453044 114.034 0.451344 113.827C0.447201 113.164 0.449943 112.501 0.453126 111.838C0.452491 111.377 0.451577 110.916 0.450396 110.456C0.449007 109.49 0.451025 108.524 0.455425 107.558C0.46079 106.32 0.457701 105.082 0.452061 103.844C0.448658 102.892 0.44974 101.941 0.452181 100.989C0.452809 100.533 0.452038 100.076 0.449846 99.6195C0.447455 98.9815 0.451098 98.3438 0.456344 97.7058C0.454438 97.5169 0.452532 97.3281 0.450568 97.1335C0.46216 96.3728 0.496906 95.8339 0.924693 95.1929C1.80515 94.5679 2.57293 94.6399 3.62872 94.6509ZM4.34485 98.5371C4.34485 103.509 4.34485 108.481 4.34485 113.604C19.8823 113.604 35.4198 113.604 51.4282 113.604C51.4282 108.632 51.4282 103.66 51.4282 98.5371C35.8907 98.5371 20.3532 98.5371 4.34485 98.5371Z" fill="#C6C6C6"/>
<path d="M49.5449 8.1372C49.5449 9.45789 49.5449 10.7786 49.5449 12.1393C49.0642 12.1927 48.5835 12.2461 48.0882 12.3011C44.4601 12.8346 41.5173 14.3616 39.2012 17.2596C37.4858 19.7146 36.9221 22.1607 36.5969 25.0872C35.2763 25.0872 33.9556 25.0872 32.5949 25.0872C32.393 20.9988 33.6739 17.1484 36.3566 14.0441C39.9184 10.1428 44.2057 7.94652 49.5449 8.1372Z" fill="#C6C6C6"/>
<path d="M72.1448 104.187C79.6028 104.187 87.0608 104.187 94.7448 104.187C94.7448 105.43 94.7448 106.673 94.7448 107.954C87.2868 107.954 79.8288 107.954 72.1448 107.954C72.1448 106.711 72.1448 105.468 72.1448 104.187Z" fill="#C6C6C6"/>
<path d="M23.1782 104.187C30.6362 104.187 38.0942 104.187 45.7782 104.187C45.7782 105.43 45.7782 106.673 45.7782 107.954C38.3202 107.954 30.8622 107.954 23.1782 107.954C23.1782 106.711 23.1782 105.468 23.1782 104.187Z" fill="#C6C6C6"/>
<path d="M106.045 104.187C107.288 104.187 108.531 104.187 109.811 104.187C109.811 105.43 109.811 106.673 109.811 107.954C108.568 107.954 107.325 107.954 106.045 107.954C106.045 106.711 106.045 105.468 106.045 104.187Z" fill="#C6C6C6"/>
<path d="M98.5115 104.187C99.7545 104.187 100.997 104.187 102.278 104.187C102.278 105.43 102.278 106.673 102.278 107.954C101.035 107.954 99.7921 107.954 98.5115 107.954C98.5115 106.711 98.5115 105.468 98.5115 104.187Z" fill="#C6C6C6"/>
<path d="M15.6448 104.187C16.8878 104.187 18.1308 104.187 19.4114 104.187C19.4114 105.43 19.4114 106.673 19.4114 107.954C18.1684 107.954 16.9254 107.954 15.6448 107.954C15.6448 106.711 15.6448 105.468 15.6448 104.187Z" fill="#C6C6C6"/>
<path d="M8.11157 104.187C9.35457 104.187 10.5976 104.187 11.8782 104.187C11.8782 105.43 11.8782 106.673 11.8782 107.954C10.6352 107.954 9.39224 107.954 8.11157 107.954C8.11157 106.711 8.11157 105.468 8.11157 104.187Z" fill="#C6C6C6"/>
<path d="M64.6116 77.8206C65.8546 77.8206 67.0976 77.8206 68.3782 77.8206C68.3782 79.0636 68.3782 80.3066 68.3782 81.5872C67.1352 81.5872 65.8922 81.5872 64.6116 81.5872C64.6116 80.3442 64.6116 79.1012 64.6116 77.8206Z" fill="#C6C6C6"/>
<path d="M57.0782 77.8206C58.3212 77.8206 59.5642 77.8206 60.8449 77.8206C60.8449 79.0636 60.8449 80.3066 60.8449 81.5872C59.6019 81.5872 58.3589 81.5872 57.0782 81.5872C57.0782 80.3442 57.0782 79.1012 57.0782 77.8206Z" fill="#C6C6C6"/>
<path d="M49.5448 77.8206C50.7878 77.8206 52.0308 77.8206 53.3115 77.8206C53.3115 79.0636 53.3115 80.3066 53.3115 81.5872C52.0685 81.5872 50.8255 81.5872 49.5448 81.5872C49.5448 80.3442 49.5448 79.1012 49.5448 77.8206Z" fill="#C6C6C6"/>
<path d="M20.9131 52.5V36.66H29.3371C31.3211 36.676 32.7851 37.044 33.7291 37.764C34.6891 38.468 35.1691 39.516 35.1691 40.908C35.1691 41.82 34.8891 42.604 34.3291 43.26C33.7851 43.916 32.9291 44.332 31.7611 44.508V44.532C33.0571 44.692 34.0171 45.108 34.6411 45.78C35.2651 46.452 35.5771 47.284 35.5771 48.276C35.5771 49.652 35.0971 50.7 34.1371 51.42C33.1931 52.14 31.7611 52.5 29.8411 52.5H20.9131ZM25.6171 49.188H28.7131C29.3371 49.188 29.8011 49.068 30.1051 48.828C30.4091 48.572 30.5611 48.212 30.5611 47.748C30.5611 47.284 30.4091 46.932 30.1051 46.692C29.8011 46.452 29.3371 46.332 28.7131 46.332H25.6171V49.188ZM25.6171 42.948H28.3531C29.5531 42.948 30.1531 42.476 30.1531 41.532C30.1531 40.588 29.5531 40.116 28.3531 40.116H25.6171V42.948ZM45.6892 36.66C47.0492 36.66 48.2012 36.876 49.1452 37.308C50.1052 37.724 50.8332 38.34 51.3292 39.156C51.8412 39.956 52.0972 40.94 52.0972 42.108C52.0972 43.276 51.8412 44.268 51.3292 45.084C50.8332 45.884 50.1052 46.5 49.1452 46.932C48.2012 47.348 47.0492 47.556 45.6892 47.556H42.7132V52.5H37.8172V36.66H45.6892ZM44.8972 44.004C45.6172 44.004 46.1772 43.852 46.5772 43.548C46.9772 43.228 47.1772 42.748 47.1772 42.108C47.1772 41.468 46.9772 40.996 46.5772 40.692C46.1772 40.372 45.6172 40.212 44.8972 40.212H42.7132V44.004H44.8972ZM60.8926 44.94C60.8926 44.492 60.7726 44.14 60.5326 43.884C60.3086 43.612 59.9726 43.476 59.5246 43.476C59.1086 43.476 58.7486 43.588 58.4446 43.812C58.1566 44.036 57.9726 44.46 57.8926 45.084L53.7886 44.34C53.9486 43.092 54.5326 42.1 55.5406 41.364C56.5486 40.628 57.9886 40.26 59.8606 40.26C61.1406 40.26 62.2126 40.444 63.0766 40.812C63.9566 41.164 64.6126 41.684 65.0446 42.372C65.4926 43.06 65.7166 43.884 65.7166 44.844V48.876C65.7166 49.516 66.0046 49.836 66.5806 49.836C66.8206 49.836 67.0046 49.804 67.1326 49.74L66.8926 52.356C66.3646 52.612 65.7086 52.74 64.9246 52.74C64.2366 52.74 63.6286 52.636 63.1006 52.428C62.5726 52.204 62.1566 51.884 61.8526 51.468C61.5486 51.052 61.3966 50.508 61.3966 49.836V49.644L61.8766 49.572C61.8766 50.212 61.6766 50.772 61.2766 51.252C60.8926 51.732 60.3806 52.1 59.7406 52.356C59.1166 52.612 58.4206 52.74 57.6526 52.74C56.8206 52.74 56.1086 52.612 55.5166 52.356C54.9246 52.1 54.4686 51.732 54.1486 51.252C53.8446 50.772 53.6926 50.188 53.6926 49.5C53.6926 48.62 53.9566 47.9 54.4846 47.34C55.0286 46.78 55.8446 46.396 56.9326 46.188L61.2766 45.276L61.2526 47.316L59.4766 47.724C59.0766 47.804 58.7806 47.94 58.5886 48.132C58.4126 48.308 58.3246 48.556 58.3246 48.876C58.3246 49.18 58.4286 49.42 58.6366 49.596C58.8446 49.756 59.1006 49.836 59.4046 49.836C59.6126 49.836 59.8046 49.804 59.9806 49.74C60.1566 49.676 60.3086 49.58 60.4366 49.452C60.5806 49.324 60.6926 49.164 60.7726 48.972C60.8526 48.78 60.8926 48.548 60.8926 48.276V44.94ZM75.7342 44.94C75.7342 44.492 75.6142 44.14 75.3742 43.884C75.1502 43.612 74.8142 43.476 74.3662 43.476C73.9502 43.476 73.5902 43.588 73.2862 43.812C72.9982 44.036 72.8142 44.46 72.7342 45.084L68.6302 44.34C68.7902 43.092 69.3742 42.1 70.3822 41.364C71.3902 40.628 72.8302 40.26 74.7022 40.26C75.9822 40.26 77.0542 40.444 77.9182 40.812C78.7982 41.164 79.4542 41.684 79.8862 42.372C80.3342 43.06 80.5582 43.884 80.5582 44.844V48.876C80.5582 49.516 80.8462 49.836 81.4222 49.836C81.6622 49.836 81.8462 49.804 81.9742 49.74L81.7342 52.356C81.2062 52.612 80.5502 52.74 79.7662 52.74C79.0782 52.74 78.4702 52.636 77.9422 52.428C77.4142 52.204 76.9982 51.884 76.6942 51.468C76.3902 51.052 76.2382 50.508 76.2382 49.836V49.644L76.7182 49.572C76.7182 50.212 76.5182 50.772 76.1182 51.252C75.7342 51.732 75.2222 52.1 74.5822 52.356C73.9582 52.612 73.2622 52.74 72.4942 52.74C71.6622 52.74 70.9502 52.612 70.3582 52.356C69.7662 52.1 69.3102 51.732 68.9902 51.252C68.6862 50.772 68.5342 50.188 68.5342 49.5C68.5342 48.62 68.7982 47.9 69.3262 47.34C69.8702 46.78 70.6862 46.396 71.7742 46.188L76.1182 45.276L76.0942 47.316L74.3182 47.724C73.9182 47.804 73.6222 47.94 73.4302 48.132C73.2542 48.308 73.1662 48.556 73.1662 48.876C73.1662 49.18 73.2702 49.42 73.4782 49.596C73.6862 49.756 73.9422 49.836 74.2462 49.836C74.4542 49.836 74.6462 49.804 74.8222 49.74C74.9982 49.676 75.1502 49.58 75.2782 49.452C75.4222 49.324 75.5342 49.164 75.6142 48.972C75.6942 48.78 75.7342 48.548 75.7342 48.276V44.94ZM90.2538 36.42C91.7578 36.42 93.0938 36.628 94.2618 37.044C95.4298 37.444 96.4538 38.06 97.3338 38.892L95.1978 42.036C94.4778 41.428 93.7098 40.956 92.8938 40.62C92.0938 40.268 91.2058 40.092 90.2298 40.092C89.7338 40.092 89.3338 40.14 89.0298 40.236C88.7258 40.332 88.5018 40.468 88.3578 40.644C88.2298 40.804 88.1658 40.988 88.1658 41.196C88.1658 41.452 88.3178 41.66 88.6218 41.82C88.9418 41.98 89.3818 42.124 89.9418 42.252L92.3418 42.804C93.9418 43.172 95.1338 43.716 95.9178 44.436C96.7018 45.14 97.0938 46.108 97.0938 47.34C97.0938 48.54 96.7898 49.54 96.1818 50.34C95.5898 51.14 94.7738 51.74 93.7338 52.14C92.6938 52.54 91.5178 52.74 90.2058 52.74C89.1658 52.74 88.1498 52.636 87.1578 52.428C86.1818 52.22 85.2858 51.924 84.4698 51.54C83.6538 51.14 82.9498 50.668 82.3578 50.124L84.4698 46.884C84.9018 47.3 85.4298 47.676 86.0538 48.012C86.6778 48.332 87.3418 48.588 88.0458 48.78C88.7498 48.972 89.4298 49.068 90.0858 49.068C90.5498 49.068 90.9258 49.028 91.2138 48.948C91.5178 48.852 91.7338 48.724 91.8618 48.564C91.9898 48.404 92.0538 48.212 92.0538 47.988C92.0538 47.716 91.9498 47.5 91.7418 47.34C91.5338 47.164 91.1418 47.012 90.5658 46.884L87.9258 46.284C87.0618 46.092 86.2618 45.828 85.5258 45.492C84.7898 45.156 84.1978 44.692 83.7498 44.1C83.3178 43.492 83.1018 42.7 83.1018 41.724C83.1018 40.684 83.3818 39.764 83.9418 38.964C84.5018 38.164 85.3178 37.54 86.3898 37.092C87.4618 36.644 88.7498 36.42 90.2538 36.42Z" fill="#C6C6C6"/>
</svg>
