<svg width="68" height="40" viewBox="0 0 68 40" fill="none" xmlns="http://www.w3.org/2000/svg">
<path d="M31.1958 0.0337058C25.5018 0.534567 20.994 1.76036 16.394 4.06696C10.3046 7.11167 5.20371 11.6458 1.36817 17.4189C0.129193 19.2773 -0.0816959 19.7518 0.0237486 20.2659C0.155554 20.8722 2.55442 24.365 4.07018 26.1839C11.939 35.5685 23.9333 40.7221 36.033 39.9181C48.4887 39.1009 59.2835 32.8006 66.1374 22.3879C66.7701 21.4258 67.3237 20.4636 67.3764 20.2527C67.4818 19.7518 67.2578 19.2773 66.032 17.4189C59.7185 7.9025 49.9385 1.78672 38.6296 0.284136C37.127 0.086428 32.4347 -0.0717387 31.1958 0.0337058ZM37.6542 2.92025C42.0434 3.43429 45.523 4.43601 49.4508 6.34719C54.6308 8.86468 59.0331 12.5157 62.5655 17.2212C63.0795 17.9065 63.7122 18.816 63.9626 19.2378L64.4371 19.9891L64.0022 20.6876C63.7781 21.0567 63.0927 22.0189 62.4996 22.8229C56.397 31.0212 47.2101 36.1616 36.9425 37.137C33.7923 37.427 29.3769 37.1765 26.319 36.5175C17.1321 34.5536 8.99971 29.0705 3.83293 21.3467C3.37161 20.6613 2.98937 20.0418 2.98937 19.9891C2.98937 19.9364 3.37161 19.3169 3.83293 18.6315C9.63238 9.95867 19.0565 4.19876 29.535 2.93343C31.5385 2.683 35.6376 2.683 37.6542 2.92025Z" fill="#0077FF"/>
<path d="M31.6578 7.54675C29.4302 8.06079 28.2308 8.53529 26.7941 9.49747C24.1976 11.2241 22.3391 13.8207 21.4955 16.8918C21.2978 17.6299 21.2451 18.2494 21.2451 20.0551C21.2451 22.0322 21.2847 22.4144 21.5483 23.2843C22.0491 24.8528 22.4709 25.7755 23.2222 26.909C24.8566 29.3738 27.1368 31.0609 30.142 32.0626C31.2096 32.4185 31.381 32.4316 33.7007 32.4316C36.0205 32.4316 36.1919 32.4185 37.2595 32.0626C41.8859 30.5336 45.0492 27.0803 46.0377 22.4935C46.42 20.7141 46.2355 17.7749 45.6292 15.9691C44.5615 12.7662 41.7145 9.66882 38.683 8.42984C36.8641 7.69173 36.2578 7.57311 34.0303 7.52039C32.8704 7.50721 31.8027 7.5072 31.6578 7.54675ZM36.1391 10.4333C36.5741 10.5387 37.4967 10.9078 38.1821 11.2505C39.2366 11.7645 39.6188 12.0545 40.6337 13.0562C41.6354 14.0711 41.9254 14.4534 42.4395 15.5078C43.2962 17.2345 43.5071 18.1439 43.5071 19.9892C43.5071 21.8345 43.2962 22.7439 42.4395 24.4706C41.9254 25.525 41.6486 25.9073 40.6337 26.909C39.632 27.9107 39.2234 28.2139 38.1821 28.7279C36.4687 29.5715 35.546 29.7955 33.7007 29.7955C31.8555 29.7955 30.946 29.5846 29.2194 28.7279C28.1649 28.2139 27.7827 27.9371 26.781 26.9222C25.7792 25.9204 25.4761 25.5118 24.962 24.4706C24.1185 22.7571 23.8944 21.8345 23.8944 19.9892C23.8944 18.1439 24.1053 17.2345 24.962 15.5078C25.4761 14.4534 25.7529 14.0711 26.7678 13.0694C28.3494 11.5009 29.8125 10.7101 31.9214 10.2883C33.0285 10.0774 35.0056 10.1433 36.1391 10.4333Z" fill="#0077FF"/>
</svg>
