<svg width="59" height="53" viewBox="0 0 59 53" fill="none" xmlns="http://www.w3.org/2000/svg">
<path d="M54.4392 0.0703078C54.2813 0.142061 51.7701 2.58165 48.857 5.49481L43.5618 10.8045L42.0406 10.0439C37.7643 7.92006 33.8611 6.95857 29.5273 6.95857C22.2805 6.97292 15.3924 9.87173 8.08817 15.9851C6.39486 17.3914 1.6019 22.1845 0.999196 23.0886C-0.321019 25.0116 -0.335369 27.6521 0.970496 29.5463C1.61625 30.4791 5.4908 34.4255 7.22716 35.9323C8.80568 37.2956 11.0013 38.989 12.465 39.9648C12.9816 40.3092 13.4264 40.5963 13.4551 40.625C13.4838 40.6537 11.2165 43.0071 8.43258 45.8486C5.6343 48.7043 3.29522 51.1583 3.22347 51.3161C2.95082 51.9045 3.79748 52.8516 4.45758 52.6794C4.64414 52.6364 16.2821 41.1129 30.3166 27.0637C53.4203 3.95931 55.8455 1.49101 55.8455 1.07485C55.8455 0.357319 55.0706 -0.202353 54.4392 0.0703078ZM34.349 9.54167C35.1382 9.71388 36.4871 10.0726 37.3625 10.3596C39.0128 10.8906 41.8828 12.1678 41.8828 12.3687C41.8828 12.5266 37.8217 16.5734 37.6639 16.5734C37.6064 16.5734 37.2333 16.3438 36.8602 16.0712C32.5408 12.8997 26.3129 12.9427 22.0078 16.186C19.6401 17.9654 17.875 20.7207 17.2579 23.5765C16.9996 24.8107 16.9996 27.566 17.2579 28.7858C17.5736 30.2495 18.2337 31.7994 19.1378 33.1627L19.9701 34.3968L17.6023 36.7647L15.2489 39.1181L13.613 37.9701C10.2694 35.6453 7.29892 33.0479 4.44323 30.0055C2.72121 28.1543 2.36246 27.4942 2.36246 26.2601C2.37681 25.069 2.69251 24.538 4.55804 22.5146C7.48547 19.3574 11.0874 16.2434 14.187 14.1912C18.1763 11.5651 21.6204 10.1157 25.5954 9.38381C27.6331 9.0107 32.2682 9.0968 34.349 9.54167ZM32.0673 16.2147C33.0431 16.473 35.0091 17.4058 35.6405 17.9224L36.071 18.2812L28.7811 25.5712L21.4912 32.8613L21.1325 32.4308C20.6015 31.785 19.6688 29.8333 19.3961 28.7714C19.0804 27.5086 19.0804 24.9972 19.4104 23.7487C20.5011 19.6301 23.7872 16.6882 28.0349 15.9851C28.982 15.8416 31.0197 15.9564 32.0673 16.2147Z" fill="#0077FF"/>
<path d="M48.2832 15.1239C48.1397 15.2674 48.0249 15.6118 48.0249 15.8701C48.0106 16.3868 47.8671 16.2289 51.1819 19.1995C53.2914 21.0937 56.0753 24.0213 56.4484 24.7675C56.5919 25.0258 56.7354 25.6429 56.7785 26.1308C56.8933 27.6663 56.5632 28.1686 53.2627 31.4692C47.7092 37.0228 42.6579 40.4383 37.4058 42.189C34.1913 43.251 32.9285 43.4662 29.6136 43.4662C26.5427 43.4806 25.5382 43.3514 22.826 42.5909L21.4915 42.2177L21.104 42.5048C20.6161 42.8635 20.4869 43.7963 20.8888 44.1551C21.2188 44.4564 22.6825 44.9013 24.6198 45.2888C26.9732 45.7623 31.1491 45.8341 33.5599 45.4323C41.2803 44.1694 49.0007 39.4624 56.2475 31.5983C58.2135 29.4601 58.7445 28.5991 58.931 27.2071C59.2037 25.2841 58.6871 23.8347 57.1229 22.0839C55.7022 20.491 52.5309 17.3769 50.9236 16.0136C49.7756 15.0235 49.4886 14.8512 49.0438 14.8512C48.7137 14.8512 48.4411 14.9517 48.2832 15.1239Z" fill="#0077FF"/>
<path d="M40.0892 23.519C39.7591 23.8491 39.7448 23.9065 39.8309 25.7003C39.9026 27.2789 39.8739 27.7237 39.6156 28.7139C38.6398 32.5599 35.7842 35.43 31.9527 36.4058C30.9194 36.6641 30.5033 36.6928 28.8817 36.6211C27.0593 36.535 26.9875 36.5493 26.6862 36.865C26.2843 37.2955 26.2987 37.97 26.7149 38.3575C27.131 38.7593 29.0109 39.0176 30.4028 38.8884C33.5742 38.5727 36.0855 37.439 38.2667 35.3152C40.5197 33.1339 41.7682 30.479 42.0982 27.1928C42.2274 25.8007 41.9691 23.9208 41.5673 23.5047C41.1655 23.0741 40.5341 23.0741 40.0892 23.519Z" fill="#0077FF"/>
</svg>
