<svg width="20" height="20" viewBox="0 0 20 20" fill="none" xmlns="http://www.w3.org/2000/svg">
<g clip-path="url(#clip0_1_855)">
<path d="M10.0008 0.625C9.771 0.625056 9.5506 0.716382 9.38808 0.878902C9.22556 1.04142 9.13424 1.26183 9.13418 1.49167V11.3788L5.8198 8.06438C5.73932 7.9839 5.64376 7.92007 5.5386 7.87652C5.43345 7.83297 5.32074 7.81056 5.20692 7.81057C4.97705 7.81059 4.7566 7.90192 4.59407 8.06448C4.43155 8.22703 4.34025 8.4475 4.34027 8.67737C4.34029 8.90723 4.43163 9.12768 4.59418 9.29021L9.38793 14.0833C9.55053 14.2458 9.77098 14.3371 10.0008 14.3371C10.2307 14.3371 10.4512 14.2458 10.6138 14.0833L15.4075 9.28938C15.5701 9.12684 15.6614 8.9064 15.6614 8.67653C15.6614 8.44667 15.5701 8.2262 15.4077 8.06364C15.2451 7.90109 15.0247 7.80976 14.7948 7.80973C14.5649 7.80972 14.3444 7.90101 14.1819 8.06354L10.8675 11.3788V1.49167C10.8675 1.26183 10.7761 1.04142 10.6136 0.878902C10.4511 0.716382 10.2307 0.625056 10.0008 0.625Z" fill="#0077FF"/>
<path d="M1.49167 12.0845C1.26181 12.0845 1.04137 12.1758 0.878841 12.3382C0.716309 12.5008 0.625 12.7213 0.625 12.9511V15.8069C0.626048 16.7529 1.00231 17.6599 1.67123 18.3288C2.34017 18.9978 3.24712 19.374 4.19312 19.375H15.8069C16.7529 19.374 17.6599 18.9978 18.3288 18.3288C18.9977 17.6599 19.374 16.7529 19.375 15.8069V12.9511C19.375 12.8373 19.3526 12.7246 19.309 12.6195C19.2654 12.5143 19.2017 12.4188 19.1211 12.3382C19.0407 12.2578 18.9451 12.194 18.84 12.1505C18.7349 12.1069 18.6221 12.0845 18.5083 12.0845C18.3946 12.0845 18.2818 12.1069 18.1767 12.1505C18.0716 12.194 17.976 12.2578 17.8956 12.3382C17.815 12.4188 17.7512 12.5143 17.7077 12.6195C17.6641 12.7246 17.6417 12.8373 17.6417 12.9511V15.8069C17.6411 16.2934 17.4477 16.7598 17.1037 17.1037C16.7597 17.4477 16.2933 17.6411 15.8069 17.6417H4.19312C3.70668 17.6411 3.24031 17.4477 2.89634 17.1037C2.55237 16.7598 2.35889 16.2934 2.35833 15.8069V12.9511C2.35836 12.8373 2.33597 12.7246 2.29242 12.6195C2.24888 12.5143 2.18503 12.4187 2.10456 12.3382C2.02407 12.2577 1.92852 12.1939 1.82336 12.1504C1.7182 12.1068 1.60549 12.0845 1.49167 12.0845Z" fill="#0077FF"/>
</g>
<defs>
<clipPath id="clip0_1_855">
<rect width="20" height="20" fill="white"/>
</clipPath>
</defs>
</svg>
