<svg width="150" height="150" viewBox="0 0 150 150" fill="none" xmlns="http://www.w3.org/2000/svg">
<path d="M126.452 20.4679C140.941 33.9923 149.312 53.0338 149.981 72.7864C150.276 86.2252 147.108 98.9198 140.95 110.823C140.804 111.105 140.659 111.388 140.509 111.679C140.103 112.406 140.103 112.406 139.421 113.256C138.202 116.229 140.681 121.591 141.506 124.62C141.678 125.256 141.85 125.891 142.021 126.527C142.47 128.188 142.92 129.849 143.371 131.51C144.096 134.179 144.818 136.848 145.539 139.518C145.792 140.45 146.045 141.381 146.298 142.313C146.452 142.88 146.605 143.447 146.758 144.014C146.829 144.273 146.9 144.533 146.973 144.8C147.454 146.584 147.454 146.584 147.454 147.363C143.657 146.499 139.893 145.553 136.141 144.511C135.304 144.279 134.466 144.049 133.628 143.82C131.251 143.168 128.874 142.516 126.499 141.857C125.034 141.45 123.567 141.048 122.1 140.649C121.546 140.497 120.991 140.343 120.438 140.188C119.667 139.972 118.895 139.762 118.122 139.553C117.685 139.432 117.247 139.311 116.796 139.187C114.861 138.841 113.48 139.234 111.792 140.176C111.474 140.35 111.155 140.524 110.827 140.703C110.489 140.889 110.151 141.075 109.803 141.267C101.517 145.689 92.7108 148.295 83.3964 149.46C82.8765 149.529 82.8765 149.529 82.3462 149.6C63.1551 151.661 43.4722 145.674 28.4396 133.729C12.6865 120.976 2.51025 102.937 0.326738 82.6918C-1.49661 62.6157 4.33813 42.9017 17.1603 27.3187C29.7259 12.2799 47.1409 2.97553 66.5943 0.542276C66.9408 0.496313 67.2874 0.45035 67.6444 0.402993C89.3201 -1.92527 110.518 5.97536 126.452 20.4679ZM67.9945 38.6457C66.1447 41.3221 65.5491 43.3998 65.8942 46.6859C66.8342 49.7915 68.857 51.6833 71.5824 53.3059C74.1172 54.0231 76.5251 54.0732 78.9552 52.9782C81.434 51.5693 83.313 49.4472 84.0964 46.6859C84.4421 43.6053 84.0734 41.1405 82.1685 38.6566C80.4709 36.7957 78.5836 35.692 76.0714 35.3671C72.7742 35.2374 70.1309 36.038 67.9945 38.6457ZM58.8933 58.9209C58.8933 63.4199 58.8933 67.9189 58.8933 72.5542C61.2036 72.5542 63.5139 72.5542 65.8942 72.5542C65.8942 81.8983 65.8942 91.2424 65.8942 100.87C63.5839 100.87 61.2736 100.87 58.8933 100.87C58.8933 105.369 58.8933 109.868 58.8933 114.503C69.5206 114.503 80.148 114.503 91.0973 114.503C91.0973 110.004 91.0973 105.505 91.0973 100.87C88.787 100.87 86.4767 100.87 84.0964 100.87C84.0964 87.0266 84.0964 73.1835 84.0964 58.9209C75.7794 58.9209 67.4624 58.9209 58.8933 58.9209Z" fill="#0077FF"/>
</svg>
