<svg width="19" height="19" viewBox="0 0 19 19" fill="none" xmlns="http://www.w3.org/2000/svg">
<path d="M12.0312 18.8125H6.78125C2.03 18.8125 0 16.7825 0 12.0312V6.78125C0 2.03 2.03 0 6.78125 0H12.0312C16.7825 0 18.8125 2.03 18.8125 6.78125V12.0312C18.8125 16.7825 16.7825 18.8125 12.0312 18.8125ZM6.78125 1.3125C2.7475 1.3125 1.3125 2.7475 1.3125 6.78125V12.0312C1.3125 16.065 2.7475 17.5 6.78125 17.5H12.0312C16.065 17.5 17.5 16.065 17.5 12.0312V6.78125C17.5 2.7475 16.065 1.3125 12.0312 1.3125H6.78125Z" fill="#0077FF"/>
<path d="M4.15626 15.3125C3.99001 15.3125 3.82376 15.2513 3.69251 15.12C3.43876 14.8663 3.43876 14.4463 3.69251 14.1925L14.1925 3.69251C14.4463 3.43876 14.8663 3.43876 15.12 3.69251C15.3738 3.94626 15.3738 4.36626 15.12 4.62001L4.62001 15.12C4.48876 15.2513 4.32251 15.3125 4.15626 15.3125Z" fill="#0077FF"/>
<path d="M14.6562 8.3125C14.2975 8.3125 14 8.015 14 7.65625V4.8125H11.1562C10.7975 4.8125 10.5 4.515 10.5 4.15625C10.5 3.7975 10.7975 3.5 11.1562 3.5H14.6562C15.015 3.5 15.3125 3.7975 15.3125 4.15625V7.65625C15.3125 8.015 15.015 8.3125 14.6562 8.3125Z" fill="#0077FF"/>
<path d="M7.65625 15.3125H4.15625C3.7975 15.3125 3.5 15.015 3.5 14.6562V11.1562C3.5 10.7975 3.7975 10.5 4.15625 10.5C4.515 10.5 4.8125 10.7975 4.8125 11.1562V14H7.65625C8.015 14 8.3125 14.2975 8.3125 14.6562C8.3125 15.015 8.015 15.3125 7.65625 15.3125Z" fill="#0077FF"/>
</svg>
