<svg width="226" height="48" viewBox="0 0 226 48" fill="none" xmlns="http://www.w3.org/2000/svg">
<path fill-rule="evenodd" clip-rule="evenodd" d="M7 10C8.65685 10 10 8.65685 10 7C10 5.34315 8.65685 4 7 4C5.34315 4 4 5.34315 4 7C4 8.65685 5.34315 10 7 10ZM14 7C14 10.171 11.8915 12.8496 9 13.7101V24.9711C9.32557 24.7757 9.66003 24.5973 9.99906 24.4336C12.2734 23.3354 15.1764 22.7164 17.8466 22.147C18.2133 22.0688 18.5756 21.9916 18.9313 21.9141C22.0586 21.2333 24.7924 20.5238 26.7574 19.251C27.7016 18.6394 28.4147 17.9282 28.9005 17.0681C29.3838 16.2124 29.7029 15.1021 29.7029 13.598H33.7029C33.7029 15.6944 33.2504 17.5002 32.3833 19.0353C31.5187 20.566 30.3028 21.7203 28.932 22.6082C26.2672 24.3344 22.828 25.1595 19.7822 25.8226C19.4083 25.904 19.0405 25.983 18.6793 26.0606C15.922 26.6528 13.5449 27.1633 11.7384 28.0357C10.7607 28.5078 10.0977 29.0232 9.67723 29.5894C9.27971 30.1247 9.01057 30.8221 9.01057 31.8489H9V35H5V13.7101C2.10851 12.8496 0 10.171 0 7C0 3.13401 3.13401 0 7 0C10.866 0 14 3.13401 14 7Z" fill="url(#paint0_linear_9_940)"/>
<circle cx="32" cy="7" r="5" stroke="url(#paint1_linear_9_940)" stroke-width="4"/>
<path fill-rule="evenodd" clip-rule="evenodd" d="M7 44C8.65685 44 10 42.6569 10 41C10 39.3431 8.65685 38 7 38C5.34315 38 4 39.3431 4 41C4 42.6569 5.34315 44 7 44ZM7 48C10.866 48 14 44.866 14 41C14 37.134 10.866 34 7 34C3.13401 34 0 37.134 0 41C0 44.866 3.13401 48 7 48Z" fill="url(#paint2_linear_9_940)"/>
<path fill-rule="evenodd" clip-rule="evenodd" d="M114 15.9966C114 16.6697 114.699 19.4947 116.223 24.9816L118.446 32.9848L120.633 32.9868L122.82 32.9886L123.914 28.9683C124.517 26.757 125.07 24.8838 125.143 24.8054C125.217 24.727 125.785 26.515 126.405 28.7786L127.532 32.8941L129.716 32.9471L131.9 33L134.116 25.0008C135.667 19.4039 136.331 16.7032 136.329 16.0083L136.325 15.015H134.176H132.027L130.851 19.8868C130.205 22.5663 129.612 24.9689 129.534 25.226C129.427 25.5787 129.067 24.3927 128.071 20.4015L126.75 15.1095L125.21 15.0548L123.671 15L123.506 15.6225C123.415 15.9647 122.835 18.3517 122.218 20.9266C121.501 23.917 121.045 25.4893 120.956 25.2783C120.88 25.0965 120.344 23.0323 119.765 20.6909C119.185 18.3495 118.627 16.1147 118.524 15.7245L118.337 15.015H116.169H114V15.9966Z" fill="url(#paint3_linear_9_940)"/>
<path fill-rule="evenodd" clip-rule="evenodd" d="M140.089 15.0828C140.04 15.1316 140 19.1828 140 24.0857V33H142.444H144.887L144.854 24.0322L144.821 15.0642L142.499 15.0293C141.222 15.0101 140.137 15.0342 140.089 15.0828ZM148.357 17.1856V19.3714H152.739C155.414 19.3714 157.105 19.4185 157.079 19.4921C157.035 19.6162 153.26 23.5632 150.128 26.762L148.362 28.5644L148.36 30.7821L148.357 33H155.943H163.529V30.8144V28.6286H159.093C156.092 28.6286 154.657 28.5852 154.657 28.4941C154.657 28.4201 156.653 26.3333 159.093 23.8565L163.529 19.3535V17.1768V15H155.943H148.357V17.1856Z" fill="url(#paint4_linear_9_940)"/>
<path fill-rule="evenodd" clip-rule="evenodd" d="M209 23.9868V32.9736H215.768H222.537L223.904 31.5975L225.271 30.2213V28.0429V25.8645L224.324 24.9322L223.378 23.9998L224.324 23.0414L225.271 22.0829V19.8135V17.5439L223.989 16.272L222.707 15H215.854H209V23.9868ZM220.541 20.392V22.0002H217.041H213.541V20.392V18.7838H217.041H220.541V20.392ZM220.541 27.5858V29.1983L217.088 29.1467L213.635 29.0952L213.58 27.5342L213.525 25.9734H217.033H220.541V27.5858Z" fill="url(#paint5_linear_9_940)"/>
<path fill-rule="evenodd" clip-rule="evenodd" d="M172 22.6218V30.2437L173.38 31.6219L174.76 33H180.735H186.71V31.1052V29.2105H181.743H176.776V22.1053V15H174.388H172V22.6218ZM190.86 16.2837L189.576 17.5674V25.2836V33H191.863H194.15L194.203 30.4895L194.256 27.9789L197.552 27.9271L200.847 27.8753V30.4376V33H203.235H205.623V25.3631V17.7264L204.363 16.3632L203.103 15H197.624H192.144L190.86 16.2837ZM200.847 21.4421V24.0947H197.504H194.161V21.4421V18.7895H197.504H200.847V21.4421Z" fill="url(#paint6_linear_9_940)"/>
<path fill-rule="evenodd" clip-rule="evenodd" d="M45 15.9966C45 16.6697 45.6989 19.4947 47.2232 24.9816L49.4462 32.9848L51.6329 32.9868L53.8197 32.9886L54.9145 28.9683C55.5167 26.757 56.0696 24.8838 56.1433 24.8054C56.217 24.727 56.7847 26.515 57.4048 28.7786L58.5325 32.8941L60.7164 32.9471L62.9003 33L65.1165 25.0008C66.6671 19.4039 67.3314 16.7032 67.3289 16.0083L67.3253 15.015H65.1759H63.0265L61.8513 19.8868C61.2048 22.5663 60.6119 24.9689 60.5337 25.226C60.4267 25.5787 60.0671 24.3927 59.0708 20.4015L57.7496 15.1095L56.2103 15.0548L54.671 15L54.5057 15.6225C54.4149 15.9647 53.8352 18.3517 53.2178 20.9266C52.5006 23.917 52.045 25.4893 51.9565 25.2783C51.8804 25.0965 51.3439 23.0323 50.7645 20.6909C50.1851 18.3495 49.6268 16.1147 49.524 15.7245L49.337 15.015H47.1686H45V15.9966ZM70.1632 22.7299V30.4447L71.4452 31.7167L72.727 32.9886H79.1076H85.4882V31.0998V29.2107L80.1435 29.1604L74.7985 29.1102L74.7436 27.5492L74.6887 25.9884H79.3317H83.9747V24.0052V22.0219L79.3866 21.9714L74.7985 21.9206V20.407V18.8935L80.1435 18.8432L85.4882 18.793V16.9039V15.015H77.8258H70.1632V22.7299ZM89.2722 24.0018V32.9886H96.0407H102.809L104.176 31.6125L105.543 30.2364V28.058V25.8795L104.597 24.9472L103.65 24.0149L104.597 23.0565L105.543 22.0979V19.8285V17.5589L104.261 16.287L102.979 15.015H96.1258H89.2722V24.0018ZM100.813 20.407V22.0153H97.3131H93.8128V20.407V18.7988H97.3131H100.813V20.407ZM100.813 27.6008V29.2134L97.3604 29.1618L93.9075 29.1102L93.8526 27.5492L93.7977 25.9884H97.3055H100.813V27.6008Z" fill="url(#paint7_linear_9_940)"/>
<defs>
<linearGradient id="paint0_linear_9_940" x1="0" y1="17.5" x2="33.7029" y2="17.5" gradientUnits="userSpaceOnUse">
<stop stop-color="#2155A2"/>
<stop offset="0.37" stop-color="#1C60AD"/>
<stop offset="1" stop-color="#0B8FD4"/>
</linearGradient>
<linearGradient id="paint1_linear_9_940" x1="32" y1="0" x2="32" y2="14" gradientUnits="userSpaceOnUse">
<stop stop-color="#0D8BD1"/>
<stop offset="0.89" stop-color="#0C8DD2"/>
</linearGradient>
<linearGradient id="paint2_linear_9_940" x1="7" y1="48" x2="7" y2="34" gradientUnits="userSpaceOnUse">
<stop offset="0.085" stop-color="#2A3C8E"/>
<stop offset="0.93471" stop-color="#1F5CA9"/>
</linearGradient>
<linearGradient id="paint3_linear_9_940" x1="114" y1="24" x2="136.329" y2="24" gradientUnits="userSpaceOnUse">
<stop offset="0.055" stop-color="#0D8AD0"/>
<stop offset="1" stop-color="#0D8CD2"/>
</linearGradient>
<linearGradient id="paint4_linear_9_940" x1="140" y1="24" x2="163.529" y2="24" gradientUnits="userSpaceOnUse">
<stop offset="0.055" stop-color="#0D8AD0"/>
<stop offset="1" stop-color="#0D8CD2"/>
</linearGradient>
<linearGradient id="paint5_linear_9_940" x1="209" y1="23.9868" x2="225.271" y2="23.9868" gradientUnits="userSpaceOnUse">
<stop stop-color="#293B89"/>
<stop offset="0.58" stop-color="#0D8CD2"/>
</linearGradient>
<linearGradient id="paint6_linear_9_940" x1="172" y1="24" x2="205.623" y2="24" gradientUnits="userSpaceOnUse">
<stop stop-color="#293B89"/>
<stop offset="0.58" stop-color="#0D8CD2"/>
</linearGradient>
<linearGradient id="paint7_linear_9_940" x1="45" y1="24" x2="105.543" y2="24" gradientUnits="userSpaceOnUse">
<stop stop-color="#293B89"/>
<stop offset="1" stop-color="#0D8CD2"/>
</linearGradient>
</defs>
</svg>
