<svg width="65" height="66" viewBox="0 0 65 66" fill="none" xmlns="http://www.w3.org/2000/svg">
<path d="M8.21791 0.327231C7.96548 0.583365 7.86731 0.896417 7.7972 1.6079C7.7411 2.1344 7.65696 2.56129 7.62891 2.56129C7.58684 2.56129 7.22222 2.30515 6.81553 1.9921C5.58145 1.03871 5.45523 1.0814 3.26753 3.31546C1.0658 5.53529 1.02373 5.66335 1.96332 6.91556C2.27184 7.32822 2.52427 7.69819 2.52427 7.74088C2.52427 7.76934 2.10356 7.85472 1.58468 7.91164C0.883495 7.98279 0.574973 8.08239 0.322546 8.33853C0.0140237 8.66581 0 8.73696 0 11.3837C0 14.0446 0 14.1015 0.33657 14.4431C0.574973 14.685 0.883495 14.7988 1.59871 14.8699C2.10356 14.9269 2.52427 14.998 2.52427 15.0407C2.52427 15.0692 2.27184 15.4391 1.96332 15.8518C1.02373 17.104 1.0658 17.2321 3.26753 19.4519C5.45523 21.6859 5.58145 21.7286 6.81553 20.7752C7.22222 20.4622 7.58684 20.2061 7.61489 20.2061C7.65696 20.2061 7.72708 20.633 7.78317 21.1452C7.85329 21.8709 7.96548 22.184 8.20388 22.4259C8.54045 22.7674 8.59655 22.7674 11.219 22.7674C13.8414 22.7674 13.8975 22.7674 14.2341 22.4259C14.4725 22.184 14.5847 21.8709 14.6548 21.1452C14.7109 20.633 14.795 20.2061 14.8511 20.2061C14.8932 20.2061 15.2578 20.4622 15.6365 20.7752C16.8285 21.7429 16.9687 21.6859 19.1704 19.4519C21.3722 17.2321 21.4142 17.104 20.4746 15.8518C20.1661 15.4391 19.9137 15.0692 19.9137 15.0407C19.9137 14.998 20.3344 14.9269 20.8393 14.8699C22.1014 14.7419 22.438 14.4146 22.438 13.3047V12.522H23.5458H24.6677L24.7098 15.2115C24.7519 18.157 24.794 18.2851 25.7195 18.9823C26.0982 19.2811 26.1963 19.2811 39.2665 19.2811C52.3366 19.2811 52.4347 19.2811 52.8134 18.9823C53.7389 18.2851 53.781 18.157 53.8231 15.2257L53.8652 12.5363L54.5243 12.6217C58.1704 13.0912 61.3118 15.8233 62.4337 19.4946C62.9105 21.0741 62.8824 23.5216 62.3635 25.1153C61.8587 26.6521 61.1154 27.8901 60.0076 29.0142C58.8997 30.1384 57.6796 30.8925 56.165 31.4048C55.0992 31.7605 54.8749 31.789 51.6494 31.8459L48.2557 31.9028L48.2136 29.1992C48.1715 26.2252 48.1294 26.1114 47.2039 25.4141C46.8252 25.1153 46.7271 25.1153 33.657 25.1153C20.5868 25.1153 20.4887 25.1153 20.11 25.4141C19.1845 26.1114 19.1424 26.2394 19.1003 29.185L19.0583 31.8744H14.9633C10.616 31.8744 9.66235 31.9598 7.99353 32.5289C6.22654 33.1266 4.97842 33.9377 3.50593 35.4318C0.196332 38.79 -0.8274 43.2723 0.687163 47.7689C2.03344 51.7674 5.60949 54.8268 9.77454 55.5668C10.4337 55.6806 11.0227 55.7802 11.0928 55.7802C11.1489 55.7802 11.219 56.9897 11.247 58.4696C11.2891 61.4152 11.3312 61.5432 12.2567 62.2405C12.6354 62.5393 12.7335 62.5393 25.8037 62.5393C38.8738 62.5393 38.972 62.5393 39.3506 62.2405C40.2762 61.5432 40.3182 61.4152 40.3603 58.4696L40.4024 55.766L41.5523 55.8087L42.6882 55.8514L42.8565 56.7763C43.5717 60.6894 46.3625 64.005 50.0367 65.3283C55.0151 67.107 60.3581 65.2714 63.2611 60.789C64.4951 58.8823 65 57.1178 65 54.6418C65 52.1659 64.4951 50.4014 63.2611 48.4946C60.3581 44.0123 55.0151 42.1767 50.0367 43.9554C46.3484 45.2787 43.5717 48.5942 42.8565 52.5074L42.6882 53.4323L41.5523 53.475L40.4024 53.5177L40.3603 50.8141C40.3182 47.8685 40.2762 47.7405 39.3506 47.0432C38.972 46.7444 38.8738 46.7444 25.8037 46.7444C12.7335 46.7444 12.6354 46.7444 12.2567 47.0432C11.3312 47.7405 11.2891 47.8685 11.247 50.7998L11.205 53.4892L10.5458 53.4181C9.62028 53.29 7.92341 52.7066 7.01187 52.1943C6.59115 51.9524 5.70766 51.1983 5.04854 50.5295C4.09493 49.5618 3.73031 49.0638 3.26753 48.0962C1.93528 45.3499 1.92125 42.3474 3.22546 39.6295C4.3754 37.2105 6.33873 35.4887 8.90507 34.6207C10.0129 34.2365 10.0831 34.2365 14.5426 34.1796L19.0583 34.1369L19.1003 36.8405C19.1424 39.7861 19.1845 39.9141 20.11 40.6114C20.4887 40.9102 20.5868 40.9102 33.657 40.9102C46.7271 40.9102 46.8252 40.9102 47.2039 40.6114C48.1294 39.9141 48.1715 39.7861 48.2136 36.8548L48.2557 34.1796L51.7896 34.1084C54.9029 34.0515 55.4498 34.0088 56.3754 33.7385C60.4423 32.5289 63.5275 29.3842 64.6775 25.2576C64.9299 24.3327 64.986 23.7635 64.986 22.1982C64.986 20.1349 64.7616 18.9965 64.0324 17.3032C62.5178 13.8312 59.082 11.1275 55.3236 10.4587C54.6505 10.3449 54.0475 10.2453 53.9773 10.2453C53.9213 10.2453 53.8511 9.03578 53.8231 7.5559C53.781 4.61036 53.7389 4.48229 52.8134 3.78504C52.4347 3.48621 52.3366 3.48621 39.2665 3.48621C26.1963 3.48621 26.0982 3.48621 25.7195 3.78504C24.794 4.48229 24.7519 4.61036 24.7098 7.5559L24.6677 10.2453H23.5458H22.438V9.46267C22.438 8.36699 22.1154 8.03971 20.8533 7.91164C20.3344 7.85472 19.9137 7.76934 19.9137 7.74088C19.9137 7.69819 20.1661 7.32822 20.4746 6.91556C21.4142 5.66335 21.3722 5.53529 19.1704 3.31546C16.9687 1.0814 16.8285 1.02448 15.6365 1.9921C15.2578 2.30515 14.8932 2.56129 14.8371 2.56129C14.795 2.56129 14.6969 2.1344 14.6408 1.6079C14.5707 0.896417 14.4725 0.583365 14.2201 0.327231C13.8975 0.0141782 13.8274 -5.14286e-05 11.219 -5.14286e-05C8.61057 -5.14286e-05 8.54045 0.0141782 8.21791 0.327231ZM12.5372 2.87434C12.5793 3.21585 12.6494 3.84196 12.7055 4.26885C12.8037 5.17954 13.0561 5.64912 13.5469 5.83411C14.0097 6.01909 14.4444 5.81988 15.4822 4.99456C15.959 4.62459 16.4218 4.26885 16.52 4.1977C16.6602 4.12655 16.9827 4.35422 17.5437 4.92341C17.9924 5.37876 18.3711 5.79142 18.3711 5.84834C18.3711 5.90526 18.0205 6.40329 17.5998 6.94402C16.6882 8.12508 16.5059 8.55197 16.6882 9.02155C16.8706 9.53382 17.3474 9.77572 18.3711 9.87533C18.8759 9.93225 19.493 10.0034 19.7454 10.0603L20.1942 10.1315V11.3979C20.1942 12.0952 20.1521 12.6643 20.096 12.6643C19.4229 12.6786 17.1931 13.1055 17.0248 13.2478C16.6742 13.5324 16.534 14.0446 16.6882 14.4573C16.7724 14.6565 17.1791 15.2684 17.5998 15.8233C18.0205 16.3641 18.3711 16.8621 18.3711 16.919C18.3711 16.9759 17.9924 17.3886 17.5437 17.8439C16.9827 18.4131 16.6602 18.6408 16.52 18.5697C16.4218 18.4985 15.959 18.1428 15.4822 17.7728C14.4444 16.9475 14.0097 16.7483 13.5469 16.9332C13.0421 17.1182 12.8037 17.602 12.7055 18.6408C12.6494 19.1531 12.5793 19.7792 12.5232 20.0211L12.4531 20.4907H11.219H9.9849L9.91478 20.0211C9.85868 19.7792 9.78857 19.1531 9.73247 18.6408C9.6343 17.602 9.3959 17.1182 8.89105 16.9332C8.42826 16.7483 7.99353 16.9475 6.95577 17.7728C6.47896 18.1428 6.01618 18.4985 5.91802 18.5697C5.77778 18.6408 5.45523 18.4131 4.89428 17.8439C4.44552 17.3886 4.06688 16.9759 4.06688 16.919C4.06688 16.8621 4.41748 16.3641 4.83819 15.8233C5.2589 15.2684 5.66559 14.6565 5.74973 14.4573C5.90399 14.0446 5.76375 13.5324 5.41316 13.2478C5.24488 13.1055 3.0151 12.6786 2.35599 12.6643C2.28587 12.6643 2.2438 12.0952 2.2438 11.3979V10.1315L2.83279 10.0461C3.16936 10.0034 3.78641 9.93225 4.20712 9.87533C5.10464 9.77572 5.56742 9.51959 5.74973 9.02155C5.93204 8.55197 5.74973 8.12508 4.83819 6.94402C4.41748 6.40329 4.06688 5.90526 4.06688 5.84834C4.06688 5.79142 4.44552 5.37876 4.89428 4.92341C5.45523 4.35422 5.77778 4.12655 5.91802 4.1977C6.01618 4.26885 6.47896 4.62459 6.95577 4.99456C7.99353 5.81988 8.42826 6.01909 8.89105 5.83411C9.38188 5.64912 9.6343 5.17954 9.73247 4.26885C9.78857 3.84196 9.85868 3.21585 9.90076 2.87434L9.9849 2.27669H11.219H12.4531L12.5372 2.87434ZM51.6073 11.3837V17.0755H39.2665H26.9256V12.9774C26.9256 10.7291 26.8835 8.16777 26.8274 7.28553L26.7433 5.69181H39.1683H51.6073V11.3837ZM45.9978 33.0128V38.7046H33.657H21.3161V33.0128V27.3209H33.657H45.9978V33.0128ZM56.5156 45.9475C59.2362 46.8155 61.5782 49.2061 62.4477 52.0093C62.8824 53.4181 62.8824 55.8656 62.4477 57.2743C61.7886 59.3661 60.1899 61.4152 58.3387 62.5108C55.8004 64.005 52.6311 64.133 49.9946 62.8381C44.3851 60.0776 43.151 52.6924 47.5405 48.2385C48.7465 47.0147 50.3452 46.0898 51.8878 45.7483C53.1219 45.4637 55.3096 45.5633 56.5156 45.9475ZM38.1446 54.6418V60.3337H25.8037H13.4628V54.6418V48.95H25.8037H38.1446V54.6418Z" fill="#0077FF"/>
<path d="M10.1533 6.95803C9.46615 7.12878 8.27414 7.8545 7.90952 8.29561C7.71319 8.53752 7.39064 9.04979 7.18028 9.44822C6.87176 10.0601 6.81567 10.3589 6.81567 11.3835C6.80164 12.4934 6.84371 12.6641 7.27845 13.4894C7.81135 14.4855 8.26011 14.9124 9.31189 15.4816C9.91491 15.7946 10.2094 15.8516 11.2191 15.8516C12.2288 15.8516 12.5233 15.7946 13.1263 15.4816C14.1781 14.9124 14.6269 14.4855 15.1598 13.4894C15.5945 12.6641 15.6366 12.4934 15.6226 11.3835C15.6226 10.3589 15.5665 10.0601 15.258 9.44822C14.711 8.38099 14.2763 7.92564 13.3367 7.41338C12.4252 6.92957 11.0368 6.71612 10.1533 6.95803ZM12.1026 9.30592C13.5471 9.9178 13.8977 11.8246 12.7758 12.9629C11.2051 14.5709 8.62473 13.1337 9.03142 10.8854C9.28384 9.54782 10.8265 8.75096 12.1026 9.30592Z" fill="#0077FF"/>
<path d="M28.398 10.601C28.1736 10.8144 28.0474 11.1132 28.0474 11.3836C28.0474 11.654 28.1736 11.9528 28.398 12.1662L28.7345 12.522H33.0959H37.4573L37.7939 12.1662C38.0182 11.9528 38.1444 11.654 38.1444 11.3836C38.1444 11.1132 38.0182 10.8144 37.7939 10.601L37.4573 10.2452H33.0959H28.7345L28.398 10.601Z" fill="#0077FF"/>
<path d="M40.7388 10.601C40.5144 10.8144 40.3882 11.1132 40.3882 11.3836C40.3882 11.654 40.5144 11.9528 40.7388 12.1662C41.0333 12.4793 41.2016 12.522 42.071 12.522C42.9405 12.522 43.1088 12.4793 43.4033 12.1662C43.6277 11.9528 43.7539 11.654 43.7539 11.3836C43.7539 11.1132 43.6277 10.8144 43.4033 10.601C43.1088 10.2879 42.9405 10.2452 42.071 10.2452C41.2016 10.2452 41.0333 10.2879 40.7388 10.601Z" fill="#0077FF"/>
<path d="M46.3486 10.601C46.1243 10.8144 45.998 11.1132 45.998 11.3836C45.998 11.654 46.1243 11.9528 46.3486 12.1662C46.6431 12.4793 46.8114 12.522 47.6809 12.522C48.5504 12.522 48.7187 12.4793 49.0131 12.1662C49.2375 11.9528 49.3637 11.654 49.3637 11.3836C49.3637 11.1132 49.2375 10.8144 49.0131 10.601C48.7187 10.2879 48.5504 10.2452 47.6809 10.2452C46.8114 10.2452 46.6431 10.2879 46.3486 10.601Z" fill="#0077FF"/>
<path d="M23.9102 32.2304C23.6858 32.4438 23.5596 32.7426 23.5596 33.013C23.5596 33.2834 23.6858 33.5822 23.9102 33.7956C24.2047 34.1087 24.3729 34.1514 25.2424 34.1514C26.1119 34.1514 26.2802 34.1087 26.5747 33.7956C26.7991 33.5822 26.9253 33.2834 26.9253 33.013C26.9253 32.7426 26.7991 32.4438 26.5747 32.2304C26.2802 31.9173 26.1119 31.8746 25.2424 31.8746C24.3729 31.8746 24.2047 31.9173 23.9102 32.2304Z" fill="#0077FF"/>
<path d="M29.52 32.2304C29.2956 32.4438 29.1694 32.7426 29.1694 33.013C29.1694 33.2834 29.2956 33.5822 29.52 33.7956C29.8145 34.1087 29.9828 34.1514 30.8523 34.1514C31.7218 34.1514 31.89 34.1087 32.1845 33.7956C32.4089 33.5822 32.5351 33.2834 32.5351 33.013C32.5351 32.7426 32.4089 32.4438 32.1845 32.2304C31.89 31.9173 31.7218 31.8746 30.8523 31.8746C29.9828 31.8746 29.8145 31.9173 29.52 32.2304Z" fill="#0077FF"/>
<path d="M35.1294 32.2304C34.905 32.4438 34.7788 32.7426 34.7788 33.013C34.7788 33.2834 34.905 33.5822 35.1294 33.7956L35.466 34.1514H39.2664H43.0668L43.4034 33.7956C43.6278 33.5822 43.754 33.2834 43.754 33.013C43.754 32.7426 43.6278 32.4438 43.4034 32.2304L43.0668 31.8746H39.2664H35.466L35.1294 32.2304Z" fill="#0077FF"/>
<path d="M57.5955 50.4014C57.4272 50.5864 56.2492 51.9952 54.9871 53.5462L52.6872 56.3494L51.2568 54.9265C50.0508 53.7169 49.7563 53.5035 49.3776 53.5035C48.7746 53.5035 48.2417 54.0442 48.2417 54.6561C48.2417 55.0545 48.4941 55.3818 50.163 57.0894C51.2288 58.1708 52.2385 59.0958 52.4067 59.1527C52.5891 59.1954 52.8836 59.1954 53.0518 59.1384C53.2622 59.0958 54.4963 57.7013 56.4175 55.3534C59.7271 51.3121 59.8253 51.1556 59.1101 50.4441C58.6754 49.9888 58.0162 49.9745 57.5955 50.4014Z" fill="#0077FF"/>
<path d="M16.0571 53.8593C15.8328 54.0727 15.7065 54.3715 15.7065 54.6419C15.7065 54.9123 15.8328 55.2111 16.0571 55.4245L16.3937 55.7803H20.1941H23.9946L24.3311 55.4245C24.5555 55.2111 24.6817 54.9123 24.6817 54.6419C24.6817 54.3715 24.5555 54.0727 24.3311 53.8593L23.9946 53.5035H20.1941H16.3937L16.0571 53.8593Z" fill="#0077FF"/>
<path d="M27.2759 53.8593C27.0515 54.0727 26.9253 54.3715 26.9253 54.6419C26.9253 54.9123 27.0515 55.2111 27.2759 55.4245C27.5704 55.7376 27.7387 55.7803 28.6081 55.7803C29.4776 55.7803 29.6459 55.7376 29.9404 55.4245C30.1648 55.2111 30.291 54.9123 30.291 54.6419C30.291 54.3715 30.1648 54.0727 29.9404 53.8593C29.6459 53.5462 29.4776 53.5035 28.6081 53.5035C27.7387 53.5035 27.5704 53.5462 27.2759 53.8593Z" fill="#0077FF"/>
<path d="M32.8857 53.8593C32.6614 54.0727 32.5352 54.3715 32.5352 54.6419C32.5352 54.9123 32.6614 55.2111 32.8857 55.4245C33.1802 55.7376 33.3485 55.7803 34.218 55.7803C35.0875 55.7803 35.2558 55.7376 35.5503 55.4245C35.7746 55.2111 35.9009 54.9123 35.9009 54.6419C35.9009 54.3715 35.7746 54.0727 35.5503 53.8593C35.2558 53.5462 35.0875 53.5035 34.218 53.5035C33.3485 53.5035 33.1802 53.5462 32.8857 53.8593Z" fill="#0077FF"/>
</svg>
