<svg width="65" height="66" viewBox="0 0 65 66" fill="none" xmlns="http://www.w3.org/2000/svg">
<path d="M46.9779 0.177084C45.9941 0.6589 45.4951 1.33911 45.3525 2.41611L45.267 3.15301L44.2689 3.52146C43.7271 3.73402 43.0713 4.00327 42.8146 4.13081C42.2443 4.4284 41.8593 4.44257 41.617 4.13081C41.5029 4.00327 41.1607 3.79071 40.847 3.649C39.7207 3.13884 38.6941 3.36557 37.5677 4.40006C35.7712 6.02973 35.5288 7.47518 36.7978 9.04817C37.254 9.62919 37.0402 9.84175 35.814 10.111C26.8315 12.095 21.1568 20.6259 22.9106 29.5254C23.8658 34.4002 27.0454 38.6515 31.4938 40.9756C35.2722 42.9595 39.7207 43.4272 43.7414 42.2652C44.383 42.0809 44.9676 41.925 45.0389 41.925C45.0959 41.925 45.3953 42.2793 45.6805 42.7045C46.094 43.3422 46.1652 43.5406 46.0512 43.7673C45.8658 44.1074 45.8658 44.9151 46.0512 45.4111C46.3791 46.2614 51.4122 53.8713 51.8827 54.2397C52.2962 54.5515 52.5243 54.6082 53.3085 54.6082H54.2495L56.4595 53.191C57.6714 52.4258 58.8405 51.6039 59.0544 51.3772C59.5107 50.8953 59.7245 50.0026 59.5677 49.2515C59.4394 48.6988 54.7628 41.2307 54.0499 40.4513C53.6079 39.9836 52.9235 39.6577 52.3389 39.6577C51.9967 39.6577 51.8542 39.5301 51.4835 38.9775C51.2411 38.5948 51.0415 38.2406 51.0415 38.1839C51.0415 38.113 51.3409 37.7446 51.6973 37.3336C53.6649 35.1654 55.3188 31.7644 55.6753 29.1002C55.8179 27.9949 55.8321 27.9807 56.3169 28.335C56.9442 28.8026 58.2275 28.8735 58.9689 28.4909C59.8814 28.0374 61.2359 26.4928 61.4355 25.7133C61.6494 24.8631 61.4497 24.0695 60.8509 23.3184L60.4232 22.7799L60.9222 21.6888C61.1931 21.0936 61.4925 20.3709 61.5781 20.0874C61.7349 19.6056 61.7919 19.5631 62.4906 19.4922C63.4031 19.3789 64.2443 18.8262 64.6293 18.061C64.9857 17.3808 65.114 15.6235 64.8859 14.7449C64.5865 13.6538 63.5171 12.7326 62.5476 12.7326C61.9345 12.7326 61.6636 12.5059 61.4497 11.8115C61.3499 11.4998 61.079 10.8337 60.8509 10.3236L60.4374 9.41662L60.7369 9.04817C61.2929 8.35379 61.4925 7.84363 61.4925 7.12091C61.4925 6.17145 61.022 5.36369 59.9242 4.38589C58.5126 3.13884 57.1724 3.05381 55.8606 4.15915L55.4472 4.51343L54.8483 4.20167C54.5204 4.03161 53.8075 3.73402 53.2514 3.52146L52.2534 3.15301L52.1678 2.41611C52.0538 1.56585 51.6403 0.885637 50.9274 0.38965C50.4854 0.0920571 50.243 0.0495439 48.917 0.00703074C47.8192 -0.0213114 47.2916 0.0353729 46.9779 0.177084ZM49.9151 2.95461C49.9721 3.30889 50.0862 3.76236 50.1575 3.96076C50.3713 4.51343 51.1127 5.17947 51.7116 5.37787C52.011 5.46289 52.8237 5.803 53.5081 6.10059C55.3759 6.93668 55.989 6.88 57.6429 5.74631C57.871 5.6046 57.9851 5.67546 58.6124 6.32733C59.3111 7.05005 59.3253 7.07839 59.1114 7.39016C57.9138 9.00566 57.9138 9.33159 58.9404 11.7407C60.0525 14.3198 60.3519 14.6599 61.7777 14.8725C62.1769 14.9433 62.5476 15.0709 62.6189 15.1701C62.79 15.4535 62.7472 16.9131 62.5619 17.0973C62.4621 17.1965 62.1769 17.2674 61.9203 17.2674C61.3499 17.2674 60.5087 17.6642 60.0525 18.1602C59.8671 18.3444 59.5392 18.9821 59.3111 19.5489C59.0972 20.1299 58.7407 21.0086 58.5269 21.5045C58.0421 22.6382 58.1134 23.4318 58.7407 24.3104C58.9831 24.6363 59.1685 24.9765 59.1685 25.0756C59.1685 25.3449 58.0136 26.4786 57.7284 26.4786C57.6001 26.4786 57.4005 26.3652 57.2579 26.2093C57.1296 26.0676 56.7731 25.8409 56.4737 25.6992C55.9319 25.4583 55.9177 25.4299 55.8179 24.5513C55.7608 24.0412 55.604 23.1484 55.4614 22.539C55.2048 21.4904 55.2048 21.4337 55.4472 21.1644C56.8159 19.6481 57.5146 16.5022 56.9728 14.2631C56.6448 12.8602 55.9462 11.5706 54.9766 10.5078C53.2657 8.65138 51.2696 7.77278 48.7887 7.77278C46.6928 7.77278 45.1957 8.26876 43.5703 9.50165C42.8004 10.0827 42.672 10.1252 42.2158 10.026C41.9306 9.95512 41.175 9.87009 40.5334 9.81341C39.407 9.72838 39.35 9.70004 39.35 9.37411C39.35 8.90646 38.9935 8.11288 38.5658 7.60272C38.1523 7.10674 38.1951 6.9792 39.0505 6.1431C39.5496 5.66129 39.6779 5.6046 39.8918 5.76048C41.5029 6.88 42.1588 6.93668 44.0123 6.10059C44.6967 5.78883 45.4951 5.46289 45.7945 5.37787C46.6928 5.09444 47.3629 4.24418 47.5483 3.16718C47.7051 2.20355 47.6623 2.23189 48.7887 2.2744L49.8295 2.31691L49.9151 2.95461ZM51.2126 10.4936C52.3532 11.018 52.9805 11.5281 53.7077 12.5059C54.5774 13.6821 54.9481 14.9717 54.8483 16.4738C54.777 17.5933 54.4206 18.8262 54.1639 18.8262C54.0927 18.8262 54.0356 18.7695 54.0356 18.6987C54.0356 18.6278 53.6364 17.9759 53.1659 17.2532C51.5833 14.8441 48.917 12.5201 46.4361 11.3864L45.4381 10.9188L45.9229 10.6637C46.8924 10.1677 47.5197 10.0401 48.9741 10.0827C50.1575 10.111 50.5282 10.1819 51.2126 10.4936ZM42.6578 12.4351C46.9352 13.5404 50.2288 16.1904 52.1108 20.0307C53.2942 22.4257 53.5366 23.5027 53.5223 26.4077C53.5223 28.6184 53.4796 28.9302 53.1231 30.0922C52.3389 32.6572 51.3694 34.3435 49.5871 36.2141C48.6176 37.2203 48.3325 37.6029 48.3325 37.9146C48.3325 38.1555 48.6176 38.7366 49.0453 39.3743C49.4303 39.9553 49.7582 40.5079 49.7582 40.593C49.7582 40.7489 47.9332 42.0101 47.8619 41.9109C47.8334 41.8825 47.534 41.4007 47.1918 40.8622C46.8496 40.3095 46.4504 39.7569 46.2936 39.6152C45.9371 39.2892 45.3668 39.3034 44.4543 39.6718C38.5515 41.9817 31.5794 39.9978 27.7582 34.9104C24.5645 30.6591 23.9799 25.0756 26.2184 20.3C28.2288 16.0345 32.0356 13.1294 36.7407 12.2367C38.2521 11.9532 41.175 12.0524 42.6578 12.4351ZM54.8626 45.7512C56.2028 47.8627 57.3149 49.6625 57.3149 49.7758C57.3149 50.0167 53.4938 52.4542 53.2514 52.3691C53.1659 52.3266 52.7667 51.8023 52.396 51.1788C52.011 50.5694 50.9417 48.9114 50.0006 47.4801C49.0739 46.0488 48.2897 44.8018 48.2469 44.6884C48.1899 44.5467 48.7887 44.0791 50.1432 43.2146C51.2268 42.5061 52.1821 41.925 52.2534 41.925C52.3389 41.925 53.5081 43.6539 54.8626 45.7512Z" fill="#0077FF"/>
<path d="M37.9242 14.2914C34.9728 14.6457 32.3065 15.9778 30.3247 18.1035C28.0434 20.555 26.9741 23.5168 27.1309 26.8895C27.2164 28.8735 27.5729 30.163 28.4569 31.8777C29.9397 34.7261 32.278 36.7242 35.4005 37.7871C36.7122 38.2405 37.0402 38.2972 38.7796 38.3539C40.3908 38.3964 40.9041 38.3681 41.9591 38.113C46.5502 37.0218 49.9579 33.6491 51.1127 29.0293C51.4835 27.5981 51.4835 24.9481 51.127 23.5877C49.7155 18.2168 45.3668 14.6032 39.9203 14.2489C39.3357 14.2206 38.4374 14.2348 37.9242 14.2914ZM41.5742 16.7714C46.3363 17.8342 49.7155 22.6524 49.0596 27.4564C48.5463 31.2825 46.1938 34.2443 42.6008 35.5764C41.6027 35.9448 41.1607 36.0299 39.7349 36.0865C37.696 36.1716 36.5554 35.9307 34.7874 35.0804C33.1477 34.2868 31.2657 32.4446 30.4673 30.8716C28.0149 25.9542 29.8542 20.1016 34.6448 17.6358C36.8976 16.4738 39.0363 16.2187 41.5742 16.7714Z" fill="#0077FF"/>
<path d="M41.5029 21.2212C41.3461 21.3771 41.1892 21.6322 41.1892 21.7597C41.1322 22.6525 41.4601 23.0635 42.3299 23.1768C42.6436 23.2194 42.9145 23.276 42.9145 23.3044C42.9145 23.3752 40.6047 26.4787 40.5476 26.4787C40.5334 26.4787 39.8918 26.0961 39.1504 25.6284C37.6533 24.6931 37.1542 24.5798 36.6837 25.0899C36.5269 25.2742 35.5431 26.6771 34.5165 28.2076C32.4491 31.311 32.2923 31.7078 33.0194 32.2747C33.8892 32.9549 34.2171 32.714 36.0992 29.9081C36.9689 28.6044 37.6961 27.5132 37.7246 27.4848C37.7531 27.4565 38.4089 27.825 39.1789 28.3068C39.9631 28.7744 40.7187 29.1712 40.8613 29.1712C41.3461 29.1712 41.7168 28.7886 43.2709 26.6913C44.0979 25.5576 44.8108 24.6365 44.8535 24.6365C44.8821 24.6365 45.0246 24.8774 45.1815 25.1891C45.3383 25.4867 45.5664 25.7701 45.6948 25.8268C46.5075 26.1244 47.3487 25.6143 47.3202 24.8349C47.3059 24.1972 46.1653 21.6464 45.766 21.3629C45.4951 21.1646 45.0104 21.0795 43.6131 21.0087C41.9021 20.9236 41.8023 20.9236 41.5029 21.2212Z" fill="#0077FF"/>
<path d="M3.09199 8.50973C2.10819 9.09074 1.99413 9.54421 1.99413 12.9878C1.99413 16.3888 2.06542 16.7006 2.93515 17.3525L3.4627 17.7634L6.58518 17.8059L9.69341 17.8485L9.6649 20.7819L9.62212 23.7153L5.13087 26.5212C2.66425 28.0658 0.497045 29.4546 0.325949 29.5963C-0.0732728 29.9364 -0.116047 30.7158 0.25466 31.1267C0.382981 31.2826 2.56445 32.6997 5.10236 34.2727L9.69341 37.1353V40.0829V43.0446L6.57093 43.0871C3.13476 43.1296 3.07773 43.1438 2.36483 44.1074C2.07968 44.4759 2.06542 44.6885 2.06542 47.8769C2.06542 51.0796 2.07968 51.278 2.36483 51.6606C2.52167 51.8732 2.87812 52.1991 3.13476 52.3692C3.59102 52.6809 3.7336 52.6951 6.64221 52.6951H9.69341V56.7906C9.69341 60.9994 9.7647 61.6371 10.2637 61.9063C10.4206 61.9913 12.488 62.048 15.3823 62.048H20.2443V62.8558C20.2443 64.0603 20.4582 64.6413 21.0998 65.2223L21.6701 65.7325H29.127C36.2559 65.7325 36.5839 65.7183 37.0259 65.4491C37.753 65.0098 37.9812 64.5421 38.0667 63.2667L38.138 62.1189H42.1872H46.2365L46.4219 62.6432C46.9066 64.0603 48.1898 65.2507 49.744 65.7325C50.8703 66.0868 51.7686 66.0868 52.8807 65.7467C54.4063 65.279 55.4614 64.3012 56.2028 62.6857C56.6876 61.5945 56.6591 59.8657 56.1173 58.6895C55.6753 57.7117 54.6059 56.6063 53.6649 56.1245C51.0842 54.8208 47.8619 55.9403 46.6072 58.5761C46.3791 59.0438 46.1937 59.5114 46.1937 59.5964C46.1937 59.7381 45.2955 59.7806 42.1445 59.7806H38.0952L38.0524 58.6611C37.9812 57.3999 37.753 56.9464 36.9118 56.4504C36.4413 56.1812 36.1704 56.167 29.1555 56.167C21.9267 56.167 21.8839 56.167 21.3849 56.4788C20.6435 56.9323 20.3583 57.5416 20.2728 58.7462L20.2015 59.7806H16.0952H11.9747V56.2521V52.7093L15.1685 52.6668C18.6902 52.6243 18.7329 52.6101 19.4458 51.6465C19.731 51.278 19.7453 51.0654 19.7453 47.8769C19.7453 44.6885 19.731 44.4759 19.4458 44.1074C18.7329 43.1438 18.6902 43.1296 15.1685 43.0871L11.9747 43.0446V40.1537V37.2628L12.8016 36.7101C13.2436 36.4126 15.3538 35.0946 17.464 33.7767C19.5884 32.473 21.4277 31.2685 21.5703 31.1126C21.941 30.6874 21.8839 29.9931 21.4277 29.5679C21.1996 29.3837 18.9896 27.9524 16.5087 26.4078L11.9747 23.5877V20.7252V17.8485L15.1542 17.8059C18.6474 17.7634 18.7472 17.7351 19.4316 16.7856C19.731 16.3605 19.7453 16.233 19.7453 12.9878C19.7453 9.81346 19.731 9.61507 19.4458 9.23245C19.289 9.01988 18.9326 8.69395 18.6759 8.50973L18.2054 8.19796H10.9196C3.69082 8.19796 3.63379 8.21213 3.09199 8.50973ZM17.5353 13.0161V15.5669H10.9053H4.2754V13.0161V10.4653H10.9053H17.5353V13.0161ZM14.755 27.9949C17.7206 29.8372 18.5048 30.3899 18.3622 30.5174C18.0486 30.8008 11.0479 35.123 10.9053 35.123C10.72 35.123 3.39141 30.5457 3.36289 30.4182C3.34863 30.319 10.663 25.6567 10.8626 25.6425C10.9196 25.6284 12.6733 26.6912 14.755 27.9949ZM17.5353 47.8769V50.4277H10.9053H4.2754V47.8769V45.3262H10.9053H17.5353V47.8769ZM52.7239 58.2077C53.394 58.5478 53.6649 58.8454 54.0213 59.6389C54.5204 60.7159 54.335 61.7788 53.508 62.7424C51.5262 65.0523 47.6053 62.9266 48.475 60.0216C49.0168 58.1651 50.9844 57.3291 52.7239 58.2077ZM35.7854 60.9143V63.4651H29.1555H22.5256V61.0135C22.5256 59.6531 22.5683 58.5053 22.6254 58.4627C22.6681 58.4061 25.6623 58.3635 29.2553 58.3635H35.7854V60.9143Z" fill="#0077FF"/>
</svg>
