<svg width="65" height="66" viewBox="0 0 65 66" fill="none" xmlns="http://www.w3.org/2000/svg">
<path d="M24.4543 0.212061C23.4253 0.768688 23.1204 1.43134 23.1204 3.10122V4.36025L16.8194 4.40001L10.5185 4.43977L10.2771 4.75784C9.94685 5.18194 9.97226 5.6458 10.3534 6.03013L10.6582 6.36146H32.4575H54.2567L54.5616 6.69278L54.8791 7.01086V12.0337V17.0566L55.1713 17.335C55.5397 17.6928 56.0225 17.706 56.4163 17.3747L56.7212 17.1229L56.7593 12.3651C56.7847 9.75423 56.7593 7.31567 56.7212 6.93134C56.6195 6.05664 56.0733 5.19519 55.3619 4.7711L54.8156 4.43977L44.2463 4.40001L33.6897 4.37351L33.6389 3.00845C33.6008 1.77592 33.5627 1.57712 33.2451 1.08676C32.5845 0.0397721 32.3939 1.30569e-05 28.3669 1.30569e-05C25.407 1.30569e-05 24.7718 0.0397721 24.4543 0.212061ZM31.6825 2.20001C31.7207 2.31929 31.7588 2.84941 31.7588 3.39278V4.37351H28.3923H25.0259V3.27351C25.0259 2.66387 25.064 2.12049 25.1148 2.08074C25.1529 2.02772 26.6393 1.98796 28.405 1.98796C31.1998 1.98796 31.619 2.01447 31.6825 2.20001Z" fill="#0077FF"/>
<path d="M1.85471 4.57229C1.0798 4.86385 0.7241 5.18192 0.355698 5.96385L0 6.67952V27.6325C0 42.953 0.0381105 48.7181 0.139739 49.0494C0.381105 49.7916 0.889245 50.3747 1.57523 50.706C2.21041 51.0108 2.29933 51.0241 5.75469 51.0241H9.27356V52.3494C9.27356 53.7145 9.40059 54.1916 9.89603 54.788C10.455 55.4506 10.5312 55.4639 15.8794 55.5301L20.91 55.5964L18.6487 60.1687C17.4165 62.6867 16.4002 64.9 16.3875 65.0855C16.3748 65.8675 17.48 66.3048 18.0009 65.7084C18.1406 65.5361 19.3347 63.1771 20.6559 60.4735L23.0569 55.5301L28.3796 55.5699L33.7024 55.5964L36.205 60.6723C37.577 63.4687 38.7838 65.8145 38.8854 65.8807C38.9871 65.947 39.2411 66 39.4698 66C39.9779 66 40.448 65.4434 40.3463 64.9398C40.3082 64.7542 39.2792 62.5807 38.0597 60.1024L35.8493 55.5964L40.8164 55.5301C46.444 55.4506 46.4567 55.4506 47.1046 54.4301C47.4095 53.953 47.4476 53.7542 47.4857 52.4554L47.5365 51.0241H50.4964C53.2912 51.0241 53.4691 51.0108 53.7866 50.7458C54.244 50.3747 54.244 49.6855 53.7866 49.3145L53.4436 49.0361H27.935C2.57881 49.0361 2.41367 49.0361 2.1596 48.7711C1.90553 48.506 1.90553 48.3337 1.90553 27.6988C1.90553 7.06385 1.90553 6.89156 2.1596 6.6265C2.40096 6.3747 2.57881 6.36144 4.95437 6.36144C7.49507 6.36144 7.50777 6.36144 7.81266 6.03012C8.19376 5.64578 8.21917 5.18192 7.88888 4.75783C7.64751 4.43976 7.6094 4.43976 4.99248 4.41325C2.95992 4.38674 2.23582 4.4265 1.85471 4.57229ZM45.6056 52.1241C45.6056 52.8 45.5421 53.2904 45.4531 53.3831C45.3388 53.5024 41.388 53.5422 28.4431 53.5422C19.1696 53.5422 11.4967 53.5024 11.3823 53.4627C11.2172 53.3964 11.1791 53.1578 11.1791 52.2036V51.0241H28.3923H45.6056V52.1241Z" fill="#0077FF"/>
<path d="M40.3464 10.3373C39.0506 10.8807 38.3011 12.1265 38.3901 13.5711C38.4155 14.0217 38.5425 14.5783 38.6568 14.8301C38.7712 15.0819 38.8728 15.3337 38.8728 15.3867C38.8728 15.453 37.7295 17.1626 36.3448 19.1903L33.8041 22.8879L32.8767 22.8747C32.0637 22.8747 31.8605 22.9144 31.238 23.2855L30.5393 23.6964L28.8497 22.6891L27.1602 21.6687L27.1347 20.8735C27.0585 19.0446 25.7628 17.7193 24.0097 17.706C23.3237 17.6928 23.0696 17.759 22.5107 18.0903C21.4563 18.6867 20.8338 19.8 20.8338 21.0723V21.7084L19.1569 22.6891L17.4674 23.6831L16.8322 23.312C15.9557 22.8217 15.2951 22.7289 14.4185 22.994C12.7163 23.5108 11.7508 25.3 12.2462 27.0494C12.5003 27.9638 13.0466 28.653 13.8723 29.0771C15.9557 30.1638 18.4074 28.5602 18.4201 26.1084V25.3795L20.097 24.3988L21.7739 23.4181L22.4217 23.8024C22.968 24.1337 23.1967 24.1867 24.0097 24.1867C24.8227 24.1867 25.0514 24.1337 25.5976 23.8024L26.2328 23.4313L27.9097 24.3988L29.5865 25.3795L29.5992 26.1084C29.6119 27.4337 30.2852 28.5337 31.4412 29.1036C34.1344 30.4289 36.891 27.4072 35.5445 24.6108L35.3031 24.1205L37.8819 20.3434L40.4607 16.5795L41.1848 16.659C42.0868 16.7518 42.8871 16.4735 43.6112 15.7843C44.8942 14.5916 44.9705 12.4446 43.789 11.159C42.8871 10.165 41.5024 9.84697 40.3464 10.3373ZM42.0614 12.2723C43.0776 12.8156 42.8617 14.4325 41.7311 14.6578C41.261 14.7506 40.6005 14.459 40.3972 14.0614C40.2067 13.6638 40.2448 12.9614 40.4988 12.6434C40.9562 12.047 41.4389 11.9277 42.0614 12.2723ZM24.8481 20.0253C25.6357 20.8072 25.1022 22.265 24.0224 22.265C23.0061 22.265 22.3963 21.0325 23.0061 20.2241C23.5142 19.5614 24.2892 19.4819 24.8481 20.0253ZM16.1716 25.3265C17.099 26.3602 15.943 27.8843 14.6853 27.2879C14.012 26.9699 13.8088 25.7638 14.3296 25.2735C14.9267 24.7036 15.6254 24.7301 16.1716 25.3265ZM33.4992 25.1144C33.6389 25.2205 33.8295 25.512 33.9184 25.7638C34.3122 27.0361 32.7878 28.0036 31.8732 27.0494C30.7807 25.9096 32.1907 24.2397 33.4992 25.1144Z" fill="#0077FF"/>
<path d="M47.5111 18.488C46.2153 18.7928 45.5039 19.0578 44.2844 19.7205C40.7401 21.6289 38.3646 25.0482 37.7294 29.1831C37.488 30.7735 37.6278 33.3181 38.0343 34.7627C39.6476 40.4217 44.3987 44.1458 49.9756 44.1458C50.7505 44.1458 51.6906 44.0795 52.0717 44C52.4401 43.9337 52.7704 43.8675 52.7831 43.8675C52.8085 43.8675 54.0788 46.147 55.6286 48.9434C57.2166 51.8193 58.6267 54.2313 58.8934 54.5096C59.6048 55.2518 60.367 55.5699 61.4341 55.5699C62.1074 55.5699 62.4758 55.5036 62.9078 55.2916C64.5084 54.4699 65.3468 52.588 64.8641 50.8783C64.7498 50.4675 63.4667 48.0024 61.8788 45.1265L59.0967 40.0904L59.4651 39.6265C60.0368 38.9241 60.9006 37.506 61.2309 36.7771C61.9423 35.1072 62.2218 34.0205 62.3742 32.1916C62.8696 26.1217 59.1602 20.5422 53.4182 18.7398C52.4401 18.4349 51.9954 18.3819 50.3059 18.3422C48.9085 18.3024 48.0955 18.3554 47.5111 18.488ZM53.2277 20.794C55.997 21.7217 58.1566 23.6831 59.4524 26.453C60.2019 28.0434 60.4814 29.3157 60.4814 31.1578C60.4814 36.0747 57.6358 40.1566 53.1261 41.694C52.0971 42.0518 51.8684 42.0783 50.0518 42.0783C47.7398 42.0783 47.0284 41.9193 45.288 41.0181C42.7346 39.6928 40.8926 37.4398 39.9398 34.5241C39.4571 33 39.3682 30.3892 39.7493 28.7325C41.1848 22.4108 47.3206 18.806 53.2277 20.794ZM60.4052 46.4386C63.3016 51.6735 63.4032 51.9121 62.8569 52.747C62.2091 53.7542 61.0784 53.9133 60.2781 53.1048C59.9351 52.747 54.7521 43.5627 54.7521 43.2976C54.7521 43.2446 55.1332 43.006 55.6159 42.7542C56.086 42.5024 56.7211 42.1048 57.0387 41.8928C57.3436 41.6675 57.6485 41.5349 57.6866 41.588C57.7374 41.641 58.957 43.8277 60.4052 46.4386Z" fill="#0077FF"/>
<path d="M48.4639 21.9205C44.4369 22.7554 41.5659 25.9096 41.0323 30.1108C40.6004 33.4903 42.201 37.1084 44.9704 39.0301C49.7342 42.3301 56.2003 40.2361 58.3726 34.7096C58.8934 33.3578 59.1348 31.5952 58.9697 30.2301C58.8045 28.8385 58.3726 27.4072 57.9788 26.9699C57.5977 26.5458 57.0514 26.5325 56.683 26.9433C56.3527 27.3144 56.3273 27.7915 56.6068 28.4674C57.0133 29.4747 57.1785 30.8265 57.0387 32.0458C56.6195 35.5313 54.244 38.0626 50.8902 38.5795C49.2515 38.8313 47.473 38.394 45.9867 37.3602C42.3027 34.7891 41.8072 29.2626 44.9577 25.9891C47.346 23.5108 50.8521 23.0735 53.7612 24.9156C54.2313 25.2072 54.7521 25.4458 54.9299 25.4458C55.4 25.4458 55.7684 25.0084 55.7684 24.465C55.7684 23.9084 55.2729 23.4446 54.0153 22.7952C52.3003 21.9072 50.1534 21.5759 48.4639 21.9205Z" fill="#0077FF"/>
<path d="M21.7103 29.5675C21.5324 29.6338 21.3165 29.8458 21.2276 30.0313C21.037 30.4952 21.0243 44.2518 21.2276 44.7024C21.4562 45.2325 21.85 45.3253 24.0096 45.3253C26.3217 45.3253 26.6138 45.2458 26.8171 44.5434C26.8933 44.2253 26.9314 41.6675 26.906 37.0819L26.8679 30.0976L26.5757 29.7928C26.309 29.5012 26.1946 29.488 24.1621 29.4615C22.9933 29.4482 21.8881 29.488 21.7103 29.5675ZM25.0005 37.4L25.0259 43.3374H24.0096H22.9933V37.3735V31.3964L23.9842 31.4362L24.9624 31.4759L25.0005 37.4Z" fill="#0077FF"/>
<path d="M12.6274 34.8687C12.3987 35.1338 12.386 35.4121 12.386 39.9181V44.6892L12.7417 45.0072C13.0847 45.3121 13.1609 45.3253 15.1808 45.3253C17.4039 45.3253 17.7977 45.2458 18.0263 44.7024C18.1153 44.4904 18.1661 42.8868 18.1661 39.8386C18.1661 35.4386 18.1534 35.2795 17.8993 34.935L17.6452 34.5904H15.257C12.9958 34.5904 12.856 34.6036 12.6274 34.8687ZM16.2606 39.9578V43.3374H15.2443H14.228V39.9578V36.5783H15.2443H16.2606V39.9578Z" fill="#0077FF"/>
<path d="M30.12 34.935C29.866 35.2795 29.8533 35.4386 29.8533 39.9048C29.8533 42.4362 29.8914 44.6097 29.9295 44.7289C30.1073 45.2193 30.6536 45.3253 32.8259 45.3253C34.8585 45.3253 34.9347 45.3121 35.2777 45.0072L35.6334 44.6892L35.6715 40.4615C35.7223 35.8759 35.6715 35.2265 35.3031 34.8422C35.0871 34.6169 34.8585 34.5904 32.7243 34.5904H30.3741L30.12 34.935ZM33.6643 39.9578V43.3374H32.7116H31.7588V39.9578V36.5783H32.7116H33.6643V39.9578Z" fill="#0077FF"/>
<path d="M38.8855 40.7662C38.6442 41.0843 38.6188 41.2964 38.6188 42.8735C38.6188 45.3783 38.479 45.2458 41.3754 45.2988C43.535 45.3385 43.662 45.3253 43.9923 45.0602C44.437 44.6891 44.4624 44.0397 44.0432 43.6289C43.7764 43.3638 43.6112 43.3373 42.1376 43.3373H40.5243V42.2108C40.5243 41.1771 40.4989 41.0446 40.2067 40.753C39.7875 40.3024 39.2285 40.3156 38.8855 40.7662Z" fill="#0077FF"/>
</svg>
