<svg width="130" height="130" viewBox="0 0 130 130" fill="none" xmlns="http://www.w3.org/2000/svg">
<rect x="0.5" y="0.5" width="129" height="129" rx="30.5" fill="white" stroke="#DDDDDD"/>
<path d="M57.5985 73.6222H54.209L46.8029 66.0705H45.4228V73.6211H42.9111V56H51.3219C54.8626 56 56.9714 57.8877 56.9714 61.0352C56.9714 64.1817 54.8626 66.0705 51.3219 66.0705H50.0665L57.5985 73.6222ZM54.4607 61.0341C54.4607 59.2478 53.456 58.1399 51.3219 58.1399H45.4217V63.9306H51.3219C53.456 63.9306 54.4607 62.8227 54.4607 61.0341ZM64.0275 74C60.0098 74 57.4991 71.0044 57.4991 67.0771C57.4991 63.1498 60.0098 60.1531 63.9016 60.1531C67.0405 60.1531 68.9229 61.9152 69.752 64.5341C70.0535 65.5154 70.1782 66.598 70.1782 67.7059V67.9581H59.9104C59.9855 70.0727 61.5411 72.1112 64.0275 72.1112C66.1616 72.1112 67.1409 70.8778 67.3419 69.9714H69.9276C69.3248 72.1112 67.3165 74 64.0275 74ZM59.9093 66.0705H67.768C67.6422 63.804 66.4376 62.0419 63.9016 62.0419C61.3656 62.0419 59.9855 63.9295 59.9093 66.0694V66.0705ZM70.303 62.5452V60.5319H73.4407V57.511H75.8509V60.5319H79.2404V62.5452H75.8509V70.4747C75.8509 71.3568 76.1026 71.6586 76.9815 71.6586H79.2404V73.6222H76.4791C74.1937 73.6222 73.4407 72.4901 73.4407 70.4758V62.5463L70.303 62.5452ZM86.1706 60.1531C90.1883 60.1531 92.8237 63.1487 92.8237 67.0771C92.8237 71.0044 90.1883 74 86.1706 74C82.1529 74 79.5175 71.0044 79.5175 67.0771C79.5175 63.1498 82.1529 60.1531 86.1706 60.1531ZM86.1706 62.1685C83.4336 62.1685 81.9277 64.4328 81.9277 67.0771C81.9277 69.7203 83.4336 71.9857 86.1706 71.9857C88.9076 71.9857 90.4136 69.7203 90.4136 67.0771C90.4136 64.4339 88.9076 62.1685 86.1706 62.1685ZM100.542 60.1531C104.559 60.1531 107.195 63.1487 107.195 67.0771C107.195 71.0044 104.559 74 100.542 74C96.5246 74 93.8881 71.0044 93.8881 67.0771C93.8881 63.1498 96.5246 60.1531 100.542 60.1531ZM100.542 62.1685C97.8042 62.1685 96.2982 64.4328 96.2982 67.0771C96.2982 69.7203 97.8053 71.9857 100.542 71.9857C103.278 71.9857 104.785 69.7203 104.785 67.0771C104.785 64.4339 103.278 62.1685 100.542 62.1685ZM111 56V73.6222H108.59V56H111ZM29.0407 56.826C29.0407 56.6069 28.9534 56.3968 28.7981 56.2419C28.6429 56.087 28.4322 56 28.2126 56H18.8281C18.6084 56 18.3978 56.087 18.2425 56.2419C18.0872 56.3968 18 56.6069 18 56.826V60.6806C18 61.1366 18.371 61.5066 18.8281 61.5066H28.2126C28.4322 61.5066 28.6429 61.5936 28.7981 61.7485C28.9534 61.9034 29.0407 62.1135 29.0407 62.3326V63.4339C29.0407 63.653 28.9534 63.8631 28.7981 64.018C28.6429 64.1729 28.4322 64.2599 28.2126 64.2599H22.1403C21.9206 64.2599 21.71 64.3469 21.5547 64.5018C21.3994 64.6567 21.3122 64.8668 21.3122 65.0859V68.9405C21.3122 69.3965 21.6832 69.7665 22.1403 69.7665H28.2126C28.4322 69.7665 28.6429 69.8535 28.7981 70.0084C28.9534 70.1634 29.0407 70.3734 29.0407 70.5925V72.7952C29.0407 73.2522 29.4116 73.6211 29.8687 73.6211H33.733C33.9526 73.6211 34.1632 73.5341 34.3185 73.3792C34.4738 73.2243 34.561 73.0142 34.561 72.7952V68.9405C34.561 68.7215 34.4738 68.5114 34.3185 68.3565C34.1632 68.2016 33.9526 68.1145 33.733 68.1145H29.8687C29.6491 68.1145 29.4385 68.0275 29.2832 67.8726C29.1279 67.7177 29.0407 67.5076 29.0407 67.2885V66.1872C29.0407 65.9682 29.1279 65.7581 29.2832 65.6032C29.4385 65.4483 29.6491 65.3612 29.8687 65.3612H33.733C33.9526 65.3612 34.1632 65.2742 34.3185 65.1193C34.4738 64.9644 34.561 64.7543 34.561 64.5352V60.6806C34.561 60.4616 34.4738 60.2515 34.3185 60.0966C34.1632 59.9416 33.9526 59.8546 33.733 59.8546H29.8687C29.6491 59.8546 29.4385 59.7676 29.2832 59.6127C29.1279 59.4578 29.0407 59.2477 29.0407 59.0286V56.826Z" fill="black"/>
</svg>
