<svg width="28" height="28" viewBox="0 0 28 28" fill="none" xmlns="http://www.w3.org/2000/svg">
<g clip-path="url(#clip0_2_47)">
<path d="M26.5367 1.87882C27.0221 2.22043 27.3451 2.66131 27.4702 3.24365C27.5648 3.86047 27.4434 4.41791 27.0874 4.93213C26.679 5.43504 26.1897 5.67682 25.5489 5.76291C24.9827 5.78849 24.4336 5.6157 24.004 5.24509C23.6831 4.92751 23.4878 4.58725 23.3516 4.15625C23.3516 4.12016 23.3516 4.08406 23.3516 4.04688C22.8471 4.03236 22.3429 4.02307 21.8382 4.0201C21.6037 4.01856 21.3695 4.01535 21.1352 4.00806C19.9267 3.92927 19.9267 3.92927 18.8867 4.44016C18.7162 4.62622 18.5639 4.81751 18.4297 5.03125C18.4814 5.09165 18.533 5.15203 18.5847 5.2124C18.6135 5.24603 18.6423 5.27966 18.6719 5.3143C18.7481 5.40277 18.8251 5.4905 18.9022 5.57813C19.9692 6.80484 20.7035 8.26782 20.8906 9.89844C20.8966 9.94856 20.9026 9.99868 20.9088 10.0503C20.9461 10.4049 20.9453 10.742 20.9453 11.1016C21.7213 11.1016 22.4973 11.1016 23.2969 11.1016C23.2904 10.6844 23.2904 10.6844 23.2821 10.2672C23.2778 9.72075 23.2778 9.72075 23.4609 9.46094C23.6148 9.38402 23.7435 9.39844 23.9156 9.39744C23.951 9.39717 23.9864 9.3969 24.0229 9.39662C24.1402 9.39582 24.2575 9.39544 24.3748 9.39514C24.4563 9.39483 24.5378 9.39451 24.6192 9.3942C24.7902 9.39362 24.9611 9.3933 25.132 9.39311C25.351 9.39281 25.5699 9.3915 25.7889 9.38994C25.9572 9.38892 26.1255 9.38864 26.2939 9.38856C26.3746 9.38839 26.4553 9.38795 26.536 9.38723C26.649 9.3863 26.7619 9.3864 26.8749 9.38676C26.9392 9.38656 27.0035 9.38636 27.0697 9.38615C27.251 9.40829 27.3255 9.44164 27.4531 9.57031C27.5127 9.74909 27.5155 9.88175 27.5166 10.07C27.5171 10.1391 27.5177 10.2083 27.5182 10.2796C27.5185 10.3552 27.5187 10.4308 27.5189 10.5064C27.5192 10.584 27.5196 10.6616 27.5199 10.7392C27.5204 10.9018 27.5208 11.0644 27.521 11.2271C27.5213 11.4352 27.5226 11.6433 27.5241 11.8514C27.5251 12.0117 27.5254 12.1719 27.5255 12.3322C27.5257 12.4089 27.5261 12.4856 27.5268 12.5623C27.5278 12.6697 27.5276 12.7772 27.5273 12.8846C27.5275 12.9457 27.5277 13.0068 27.5279 13.0697C27.5052 13.2555 27.4545 13.3583 27.3438 13.5078C27.1899 13.5847 27.0612 13.5703 26.8891 13.5713C26.8537 13.5716 26.8183 13.5719 26.7818 13.5721C26.6645 13.5729 26.5472 13.5733 26.4299 13.5736C26.3484 13.5739 26.2669 13.5742 26.1855 13.5746C26.0145 13.5751 25.8436 13.5754 25.6727 13.5756C25.4537 13.5759 25.2348 13.5773 25.0158 13.5788C24.8475 13.5798 24.6792 13.5801 24.5108 13.5802C24.4301 13.5804 24.3494 13.5808 24.2687 13.5815C24.1557 13.5825 24.0427 13.5823 23.9298 13.582C23.8655 13.5822 23.8012 13.5824 23.735 13.5826C23.5548 13.5606 23.4803 13.5239 23.3516 13.3984C23.2839 13.2303 23.2905 13.0628 23.2915 12.8832C23.2917 12.8327 23.2918 12.7821 23.2919 12.7301C23.2927 12.6346 23.2927 12.6346 23.2935 12.5371C23.2946 12.3341 23.2957 12.1311 23.2969 11.9219C22.5028 11.9219 21.7088 11.9219 20.8906 11.9219C20.8094 12.4362 20.8094 12.4362 20.7266 12.9609C20.6901 13.1351 20.6538 13.3029 20.6069 13.4736C20.5898 13.5367 20.5898 13.5367 20.5724 13.6011C20.1958 14.9368 19.5779 16.1933 18.8396 17.3637C18.7157 17.5702 18.6005 17.7813 18.4844 17.9922C18.7116 18.3788 19.0205 18.7642 19.4649 18.8993C20.0407 19.0256 20.6429 19.0119 21.2292 19.0053C21.4279 19.0033 21.6255 19.0063 21.8242 19.0143C22.8849 19.0963 22.8849 19.0963 23.842 18.7408C24.1006 18.4355 24.2496 18.0981 24.3814 17.7233C24.4837 17.4533 24.6305 17.2113 24.7769 16.9634C24.8232 16.8799 24.8694 16.7964 24.9155 16.7128C25.024 16.5346 25.1237 16.4347 25.3203 16.3516C25.481 16.3379 25.481 16.3379 25.6484 16.4062C25.9316 16.7519 26.1388 17.1712 26.3594 17.5581C26.4318 17.6844 26.5042 17.8106 26.5766 17.9369C26.5949 17.9687 26.6132 18.0006 26.632 18.0335C26.7886 18.3064 26.9468 18.5783 27.1056 18.85C27.1704 18.9607 27.235 19.0716 27.2994 19.1825C27.4333 19.4129 27.5677 19.6427 27.7076 19.8695C27.739 19.9215 27.739 19.9215 27.771 19.9744C27.8238 20.0615 27.8774 20.148 27.9312 20.2344C28.0239 20.4554 28.024 20.597 28 20.8359C27.9456 20.9297 27.9456 20.9297 27.8359 21C27.6778 21.0162 27.5314 21.0224 27.3731 21.0212C27.3259 21.0215 27.2787 21.0218 27.23 21.0221C27.0736 21.0228 26.9173 21.0223 26.761 21.0218C26.6525 21.0219 26.544 21.0221 26.4355 21.0223C26.208 21.0225 25.9806 21.0222 25.7531 21.0214C25.4612 21.0205 25.1694 21.021 24.8775 21.022C24.6535 21.0226 24.4294 21.0224 24.2053 21.022C24.0977 21.0218 23.9901 21.022 23.8825 21.0224C23.7321 21.0228 23.5819 21.0221 23.4316 21.0212C23.3869 21.0216 23.3422 21.0219 23.2962 21.0222C22.9974 21.0189 22.9974 21.0189 22.8599 20.9284C22.755 20.7528 22.76 20.5903 22.8047 20.3984C22.8652 20.2817 22.9301 20.1672 22.9982 20.0547C23.0335 19.9961 23.0687 19.9374 23.105 19.877C23.1322 19.8325 23.1594 19.788 23.1875 19.7422C23.1371 19.743 23.0867 19.7439 23.0347 19.7448C22.5584 19.7524 22.0822 19.7583 21.6058 19.762C21.361 19.764 21.1162 19.7667 20.8713 19.7711C20.6348 19.7752 20.3983 19.7775 20.1618 19.7785C20.0718 19.7792 19.9818 19.7806 19.8918 19.7827C19.0986 19.8002 19.0986 19.8002 18.8201 19.5598C18.7611 19.4946 18.7037 19.4278 18.6484 19.3594C18.5869 19.2984 18.5249 19.238 18.4622 19.1784C18.4056 19.1215 18.3492 19.0645 18.293 19.0073C18.2636 18.9778 18.2343 18.9482 18.2041 18.9177C18.1333 18.8463 18.0627 18.7747 17.9922 18.7031C17.786 18.9011 17.6086 19.1087 17.4351 19.3354C17.3877 19.3971 17.3402 19.4587 17.2926 19.5202C17.2556 19.57 17.2556 19.57 17.2179 19.6209C17.1172 19.7422 17.1172 19.7422 16.9825 19.8613C16.6212 20.2099 16.5202 20.4944 16.5067 20.9957C16.504 21.2336 16.5081 21.4711 16.5126 21.709C16.513 21.8362 16.5131 21.9633 16.5129 22.0905C16.513 22.4235 16.5161 22.7564 16.5202 23.0894C16.5262 23.6237 16.5279 24.1579 16.5289 24.6922C16.5297 24.8785 16.5321 25.0647 16.5347 25.251C16.5355 25.365 16.5362 25.4789 16.5368 25.5929C16.5385 25.6704 16.5385 25.6704 16.5402 25.7495C16.5403 25.7972 16.5403 25.845 16.5403 25.8942C16.5411 25.956 16.5411 25.956 16.5419 26.0191C16.5032 26.1982 16.4277 26.2877 16.2969 26.4141C16.1493 26.4483 16.1493 26.4483 15.9772 26.4484C15.9119 26.4491 15.8466 26.4498 15.7793 26.4505C15.7078 26.4499 15.6363 26.4492 15.5627 26.4486C15.4865 26.4489 15.4103 26.4493 15.3341 26.4498C15.1273 26.4508 14.9206 26.4501 14.7138 26.449C14.4974 26.4481 14.281 26.4486 14.0647 26.4489C13.7013 26.4491 13.3379 26.4482 12.9746 26.4467C12.5544 26.445 12.1343 26.445 11.7142 26.4459C11.3101 26.4468 10.906 26.4464 10.5018 26.4455C10.3298 26.4451 10.1579 26.4451 9.98585 26.4455C9.78331 26.446 9.5808 26.4453 9.37826 26.4438C9.26846 26.4432 9.15866 26.4438 9.04885 26.4443C8.95086 26.4433 8.95086 26.4433 8.8509 26.4422C8.79412 26.4421 8.73733 26.4419 8.67883 26.4417C8.49263 26.4068 8.42836 26.3423 8.3125 26.1953C8.27106 26.0494 8.27106 26.0494 8.25098 25.8804C8.23891 25.7847 8.23891 25.7847 8.22661 25.687C8.21498 25.5833 8.21498 25.5833 8.20312 25.4775C8.19428 25.4059 8.18544 25.3343 8.17633 25.2605C8.13189 24.8995 8.09176 24.5381 8.05135 24.1766C8.03723 24.0507 8.02293 23.9247 8.00862 23.7988C7.99036 23.6381 7.97294 23.4774 7.95607 23.3166C7.88677 22.5458 7.88677 22.5458 7.44882 21.9455C7.068 21.7231 6.73677 21.6879 6.30487 21.6906C6.19165 21.6897 6.07843 21.6887 5.96521 21.6878C5.7887 21.6872 5.6122 21.687 5.43569 21.6871C5.26397 21.6869 5.0923 21.6854 4.92059 21.6838C4.86857 21.6843 4.81654 21.6847 4.76293 21.6852C4.26003 21.6796 3.75896 21.5207 3.39062 21.1641C3.10251 20.8048 2.96177 20.4565 2.89553 20.0005C2.88568 19.9337 2.87583 19.8669 2.86569 19.798C2.85549 19.7266 2.84529 19.6552 2.83478 19.5815C2.82392 19.5068 2.81304 19.432 2.80214 19.3573C2.77943 19.201 2.75693 19.0447 2.73459 18.8884C2.70602 18.6886 2.67698 18.489 2.64779 18.2893C2.62528 18.1351 2.60301 17.9808 2.5808 17.8265C2.57018 17.7529 2.5595 17.6793 2.54874 17.6057C2.53373 17.5027 2.51905 17.3995 2.50438 17.2964C2.49597 17.2379 2.48755 17.1794 2.47889 17.1191C2.46092 16.953 2.45776 16.7919 2.46094 16.625C2.39222 16.6259 2.3235 16.6267 2.25269 16.6276C1.99801 16.6306 1.74332 16.6325 1.48862 16.634C1.37833 16.6348 1.26805 16.636 1.15777 16.6374C0.99935 16.6394 0.840954 16.6403 0.682525 16.641C0.63313 16.6419 0.583737 16.6427 0.532845 16.6436C0.463886 16.6436 0.463885 16.6436 0.393533 16.6436C0.332874 16.6442 0.332873 16.6442 0.270989 16.6447C0.131287 16.619 0.0838859 16.5742 -6.91041e-07 16.4609C-0.0419273 16.103 0.0427402 15.8798 0.211913 15.5688C0.233939 15.5266 0.255964 15.4844 0.278657 15.4409C0.349004 15.3065 0.420549 15.1728 0.492187 15.0391C0.538627 14.951 0.584984 14.8629 0.631255 14.7748C0.699997 14.644 0.768804 14.5131 0.837937 14.3825C0.988992 14.0969 1.13682 13.8098 1.28131 13.5208C1.29863 13.4862 1.31596 13.4516 1.33381 13.416C1.97693 12.1226 2.29672 10.8002 2.46094 9.37207C2.71027 7.2109 3.46825 5.34995 5.19531 3.9375C7.26078 2.37576 9.89337 1.98724 12.4141 2.29688C12.8572 2.36386 13.2924 2.45968 13.7266 2.57031C13.798 2.5885 13.798 2.5885 13.8708 2.60706C15.2896 2.97927 16.5304 3.63897 17.7188 4.48438C18.0574 4.20289 18.3633 3.89683 18.6698 3.58107C18.707 3.54325 18.7442 3.50543 18.7826 3.46646C18.816 3.43218 18.8493 3.3979 18.8837 3.36257C19.0774 3.19299 19.3029 3.21731 19.5458 3.21533C19.5869 3.21479 19.628 3.21425 19.6703 3.21369C19.8062 3.21197 19.942 3.21061 20.0778 3.20926C20.172 3.20813 20.2661 3.20699 20.3603 3.20582C20.6082 3.2028 20.8561 3.20009 21.1039 3.19746C21.3569 3.19471 21.6098 3.19166 21.8627 3.18864C22.359 3.18276 22.8553 3.17722 23.3516 3.17188C23.3656 3.13509 23.3796 3.09831 23.394 3.06042C23.4129 3.01176 23.4318 2.9631 23.4513 2.91296C23.4698 2.8649 23.4884 2.81684 23.5074 2.76733C23.7357 2.25065 24.1456 1.89794 24.6579 1.68228C25.2782 1.45868 25.9769 1.54043 26.5367 1.87882ZM24.3603 2.95313C24.1739 3.21107 24.0952 3.46403 24.1306 3.78668C24.2133 4.22118 24.411 4.49992 24.7734 4.75781C25.0494 4.90094 25.3375 4.98145 25.6484 4.92188C26.018 4.79276 26.3211 4.60658 26.5234 4.26563C26.7024 3.88723 26.7165 3.56636 26.5781 3.17188C26.4092 2.8465 26.1515 2.60113 25.8228 2.44043C25.1811 2.31461 24.7788 2.45479 24.3603 2.95313ZM4.96503 5.31601C3.88981 6.46135 3.4541 7.96077 3.27414 9.48299C3.17853 10.2918 3.07159 11.0827 2.84375 11.8672C2.83178 11.9087 2.81982 11.9501 2.80749 11.9929C2.47754 13.1089 1.93555 14.1314 1.39938 15.159C1.37924 15.1977 1.3591 15.2363 1.33835 15.2761C1.29998 15.3497 1.26151 15.4232 1.22292 15.4966C1.13267 15.6432 1.13267 15.6432 1.09375 15.8047C1.17403 15.8067 1.17403 15.8067 1.25594 15.8088C1.45489 15.814 1.65384 15.8195 1.85278 15.825C1.93881 15.8274 2.02485 15.8297 2.11089 15.8319C2.2347 15.8351 2.3585 15.8385 2.4823 15.8421C2.53982 15.8434 2.53982 15.8434 2.5985 15.8448C2.77959 15.8503 2.94274 15.8664 3.11719 15.9141C3.23636 16.6038 3.34796 17.2941 3.44531 17.9873C3.45432 18.0508 3.46332 18.1143 3.4726 18.1797C3.50952 18.4401 3.54639 18.7006 3.58203 18.9612C3.60864 19.1551 3.63626 19.3488 3.66406 19.5424C3.67182 19.601 3.67957 19.6595 3.68756 19.7197C3.74717 20.1266 3.82132 20.43 4.15967 20.6924C4.35803 20.8021 4.50217 20.8427 4.72525 20.8446C4.77383 20.8451 4.82242 20.8457 4.87248 20.8463C4.92495 20.8467 4.97741 20.8471 5.03146 20.8475C5.14308 20.849 5.2547 20.8506 5.36632 20.8522C5.54187 20.8544 5.71741 20.8564 5.89296 20.8579C6.06268 20.8594 6.23236 20.8619 6.40207 20.8646C6.4796 20.8648 6.4796 20.8648 6.5587 20.8651C7.17076 20.8762 7.7314 21.0586 8.1933 21.4719C8.59359 21.9054 8.68179 22.4106 8.7438 22.9801C8.75186 23.048 8.75992 23.116 8.76822 23.1861C8.78935 23.3653 8.80981 23.5445 8.82991 23.7239C8.85851 23.9773 8.8884 24.2306 8.9181 24.4839C8.9338 24.6184 8.94927 24.753 8.96449 24.8876C8.97144 24.9484 8.97839 25.0092 8.98556 25.0718C8.99158 25.1252 8.9976 25.1786 9.0038 25.2337C9.02284 25.3892 9.02284 25.3892 9.07812 25.5937C11.2618 25.5937 13.4455 25.5937 15.6953 25.5937C15.6873 23.8104 15.6873 23.8104 15.6722 22.0272C15.6727 21.68 15.6727 21.68 15.6738 21.5168C15.6739 21.4043 15.6727 21.2918 15.6705 21.1794C15.6507 20.0838 15.6507 20.0838 16.0714 19.6215C16.1799 19.5118 16.292 19.4086 16.4062 19.3047C16.4694 19.2305 16.5314 19.1553 16.5904 19.0778C16.6255 19.033 16.6255 19.033 16.6612 18.9873C16.6831 18.9589 16.705 18.9306 16.7275 18.9014C16.752 18.87 16.7764 18.8386 16.8016 18.8063C16.9826 18.5735 17.1605 18.3386 17.3359 18.1016C17.2606 17.9294 17.1757 17.8228 17.0364 17.6974C16.9998 17.6631 16.9631 17.6287 16.9254 17.5934C16.8484 17.5222 16.7707 17.4517 16.6925 17.3819C16.4213 17.1248 16.4213 17.1248 16.3773 16.9423C16.3742 16.8241 16.3742 16.8241 16.4062 16.625C16.5156 16.5156 16.5156 16.5156 16.7139 16.4832C16.9807 16.4899 17.1046 16.6216 17.2832 16.8072C17.3186 16.8463 17.3541 16.8855 17.3906 16.9258C17.4278 16.9649 17.4649 17.004 17.5032 17.0443C17.5944 17.1406 17.6843 17.2378 17.7734 17.3359C18.021 17.1133 18.1748 16.8695 18.3374 16.5806C18.3636 16.5345 18.3898 16.4884 18.4168 16.441C19.1585 15.1259 20.0506 13.4695 20.0156 11.9219C19.9806 11.9211 19.9456 11.9203 19.9095 11.9195C19.75 11.9154 19.5906 11.9101 19.4312 11.9048C19.3485 11.9029 19.3485 11.9029 19.2642 11.901C18.7499 11.8824 18.7499 11.8824 18.5391 11.7031C18.4648 11.5546 18.4805 11.4963 18.5322 11.3374C18.5938 11.2109 18.5938 11.2109 18.6484 11.1563C18.7577 11.1476 18.8672 11.1425 18.9768 11.1389C19.0764 11.1355 19.0764 11.1355 19.1781 11.132C19.2481 11.1299 19.318 11.1277 19.3901 11.1255C19.4603 11.1231 19.5305 11.1208 19.6028 11.1183C19.7769 11.1125 19.9509 11.1069 20.125 11.1016C20.1655 9.11197 19.4155 7.42616 18.1016 5.96094C18.0117 5.8683 17.9204 5.77776 17.8281 5.6875C17.5612 5.78928 17.3888 6.01564 17.1998 6.22038C17.0355 6.39175 16.9227 6.50037 16.6797 6.50781C16.5259 6.45654 16.5259 6.45654 16.4062 6.34375C16.3536 5.98511 16.3536 5.98511 16.4734 5.8057C16.5654 5.70804 16.6609 5.61875 16.7617 5.53027C16.882 5.4202 17.0001 5.30888 17.1172 5.19531C17.1172 5.15922 17.1172 5.12313 17.1172 5.08594C17.0086 4.99983 16.9011 4.92283 16.7856 4.84668C16.7496 4.8229 16.7136 4.79912 16.6764 4.77462C13.1293 2.49256 8.1027 2.18388 4.96503 5.31601ZM24.1172 10.2266C24.1172 11.0567 24.1172 11.8869 24.1172 12.7422C24.9654 12.7422 25.8136 12.7422 26.6875 12.7422C26.6875 11.912 26.6875 11.0819 26.6875 10.2266C25.8393 10.2266 24.9911 10.2266 24.1172 10.2266ZM25.375 17.6094C25.3514 17.6509 25.3277 17.6924 25.3034 17.7352C25.213 17.8938 25.1226 18.0523 25.0322 18.2109C24.992 18.2814 24.9518 18.3518 24.9116 18.4223C24.6467 18.8869 24.3802 19.3502 24.1032 19.8078C23.9902 19.9815 23.9902 19.9815 23.9531 20.1797C24.9096 20.1797 25.8661 20.1797 26.8516 20.1797C26.784 20.0109 26.7251 19.8658 26.6388 19.7104C26.6184 19.6735 26.598 19.6367 26.5769 19.5987C26.5548 19.5592 26.5326 19.5197 26.5098 19.479C26.4865 19.4374 26.4632 19.3958 26.4393 19.3529C26.2232 18.9682 26.003 18.5858 25.7817 18.2041C25.7478 18.1454 25.714 18.0867 25.679 18.0262C25.6474 17.972 25.6158 17.9177 25.5833 17.8619C25.555 17.8132 25.5267 17.7644 25.4975 17.7142C25.4751 17.6796 25.4527 17.645 25.4297 17.6094C25.4116 17.6094 25.3936 17.6094 25.375 17.6094Z" fill="#0077FF"/>
<path d="M11.3135 4.52881C11.3643 4.52814 11.4151 4.52747 11.4675 4.52678C12.3042 4.52503 12.3042 4.52503 12.5632 4.71925C12.649 4.83416 12.662 4.91448 12.6798 5.05624C12.7399 5.56481 12.7399 5.56481 12.9937 5.98689C13.2229 6.11971 13.4713 6.17198 13.7266 6.23438C13.7836 6.26476 13.8406 6.29514 13.8994 6.32645C14.0461 6.40797 14.0461 6.40797 14.1867 6.39716C14.4243 6.30745 14.6276 6.16172 14.8365 6.01904C15.0175 5.9031 15.1218 5.8526 15.3409 5.84409C15.5886 5.92497 15.7409 6.05007 15.9312 6.22412C15.9843 6.27142 15.9843 6.27142 16.0385 6.31968C16.9119 7.11392 16.9119 7.11392 16.9753 7.52765C16.9484 7.75026 16.8693 7.84085 16.7364 8.0149C16.4738 8.36641 16.4738 8.36641 16.4224 8.78792C16.5072 9.08558 16.6396 9.3596 16.7887 9.6301C16.8438 9.73438 16.8438 9.73438 16.8984 9.89844C17.0108 9.94924 17.0108 9.94924 17.1492 9.98047C17.2256 10.0008 17.2256 10.0008 17.3035 10.0215C17.357 10.035 17.4106 10.0486 17.4658 10.0625C17.5712 10.0893 17.6764 10.1167 17.7816 10.1445C17.8285 10.1564 17.8754 10.1682 17.9237 10.1804C18.0617 10.2321 18.124 10.2719 18.2109 10.3906C18.3045 10.7032 18.2758 11.0415 18.2758 11.3646C18.2759 11.4768 18.2769 11.589 18.2779 11.7012C18.278 11.7728 18.2781 11.8443 18.2782 11.918C18.2785 11.983 18.2787 12.048 18.2789 12.115C18.2645 12.3215 18.2284 12.4935 18.1562 12.6875C17.9219 12.8274 17.7121 12.8642 17.4452 12.8993C17.0965 12.9497 17.0965 12.9497 16.8291 13.1597C16.7182 13.3748 16.6553 13.6019 16.6015 13.837C16.5703 13.9453 16.5703 13.9453 16.4644 14.1357C16.3897 14.3151 16.3897 14.3151 16.4444 14.439C16.5136 14.562 16.5887 14.6772 16.6694 14.793C17.0171 15.3037 17.0171 15.3037 16.9531 15.6406C16.8643 15.7755 16.7846 15.8798 16.6763 15.9961C16.6486 16.0271 16.621 16.058 16.5926 16.0899C16.5132 16.1781 16.4327 16.265 16.3516 16.3516C16.2982 16.4097 16.2982 16.4097 16.2437 16.4691C16.155 16.5617 16.0641 16.6487 15.9688 16.7344C15.9294 16.77 15.8901 16.8056 15.8495 16.8423C15.7867 16.8954 15.7867 16.8954 15.7227 16.9497C15.6849 16.9818 15.6471 17.0139 15.6082 17.0469C15.4196 17.1476 15.3056 17.1463 15.0938 17.1172C14.8951 17.0178 14.7194 16.8851 14.5399 16.7551C14.3175 16.5965 14.3175 16.5965 14.0538 16.5977C14 16.6247 13.9461 16.6518 13.8906 16.6797C13.8223 16.7077 13.7537 16.7352 13.6849 16.7621C13.5766 16.8066 13.4684 16.8514 13.3603 16.8965C13.2001 16.962 13.0811 17.0078 12.9062 17.0078C12.8924 17.0751 12.8785 17.1423 12.8642 17.2116C12.8452 17.3009 12.8262 17.3902 12.8071 17.4795C12.7981 17.5237 12.789 17.5679 12.7797 17.6134C12.6706 18.1198 12.6706 18.1198 12.5234 18.3203C12.1475 18.4738 11.7448 18.4441 11.3442 18.4399C11.2464 18.4399 11.2464 18.4399 11.1465 18.4398C10.3015 18.4356 10.3015 18.4356 10.1395 18.3046C10.0527 18.199 10.0224 18.1188 9.98666 17.9873C9.97486 17.9444 9.96305 17.9015 9.95088 17.8573C9.93921 17.8127 9.92755 17.7681 9.91553 17.7222C9.89708 17.6556 9.89708 17.6556 9.87825 17.5877C9.82291 17.3826 9.78906 17.223 9.78906 17.0078C9.72251 16.9965 9.65597 16.9853 9.5874 16.9736C9.28346 16.9091 9.02439 16.7716 8.75085 16.6276C8.59256 16.5562 8.59256 16.5562 8.45157 16.6015C8.24301 16.7188 8.03728 16.84 7.83452 16.967C7.61987 17.0951 7.46817 17.1533 7.21875 17.1172C6.70632 16.859 5.89709 16.0871 5.68408 15.5483C5.69156 15.1522 5.96314 14.7985 6.18951 14.486C6.25365 14.3385 6.22593 14.2627 6.17969 14.1094C6.12863 13.9808 6.07485 13.8532 6.01904 13.7266C5.85197 13.3456 5.85197 13.3456 5.81824 13.1917C5.72473 13.0425 5.67996 13.0387 5.51382 12.9934C5.42044 12.9723 5.32677 12.9524 5.23291 12.9336C4.62221 12.8093 4.62221 12.8093 4.42969 12.5234C4.38708 12.3593 4.37884 12.2004 4.375 12.0313C4.37357 11.987 4.37214 11.9427 4.37067 11.8971C4.3677 11.7594 4.36753 11.6221 4.36816 11.4844C4.36795 11.4386 4.36774 11.3927 4.36752 11.3455C4.36869 10.5906 4.36869 10.5906 4.48459 10.3146C4.66173 10.1718 4.86454 10.131 5.08252 10.0762C5.1269 10.0641 5.17127 10.0521 5.217 10.0396C5.42149 9.98563 5.58272 9.95313 5.79688 9.95313C5.80988 9.89846 5.80988 9.89846 5.82315 9.84268C5.90989 9.50006 6.0244 9.19647 6.18567 8.88181C6.24236 8.7284 6.22988 8.68317 6.17969 8.53125C6.12812 8.42969 6.12812 8.42969 6.06476 8.33002C6.03134 8.27408 6.03134 8.27408 5.99725 8.21701C5.95033 8.13952 5.90291 8.06232 5.85498 7.98544C5.74756 7.80379 5.68731 7.69503 5.68835 7.48044C5.91122 6.84988 6.62028 6.27608 7.14954 5.89685C7.33875 5.82769 7.46195 5.85732 7.65625 5.90625C7.83902 6.00076 8.00623 6.11828 8.17482 6.23576C8.38813 6.37844 8.38813 6.37844 8.63785 6.36917C8.6929 6.34274 8.74796 6.3163 8.80469 6.28906C8.87766 6.26097 8.95088 6.23353 9.02429 6.2066C9.1413 6.16202 9.25822 6.11725 9.37506 6.07224C9.66783 5.96094 9.66783 5.96094 9.78906 5.96094C9.79505 5.92449 9.80105 5.88805 9.80722 5.85049C9.85453 5.57548 9.90739 5.30237 9.97363 5.03125C9.98534 4.98275 9.99704 4.93425 10.0091 4.88428C10.0771 4.72324 10.1258 4.67474 10.2812 4.59375C10.6234 4.52899 10.966 4.52905 11.3135 4.52881ZM10.7734 5.35938C10.7529 5.44037 10.7324 5.52137 10.7113 5.60483C10.6831 5.71101 10.6548 5.81718 10.6265 5.92334C10.6131 5.97674 10.5997 6.03014 10.586 6.08516C10.4797 6.47674 10.4797 6.47674 10.3248 6.61676C10.2744 6.63495 10.2239 6.65314 10.1719 6.67188C10.1394 6.684 10.1069 6.69612 10.0734 6.70861C9.95995 6.74993 9.8457 6.78799 9.73096 6.82568C9.43116 6.92567 9.16234 7.03732 8.88672 7.19482C8.68218 7.30057 8.56131 7.35557 8.33643 7.29053C8.08191 7.17627 7.85328 7.01153 7.62784 6.84854C7.5007 6.76791 7.5007 6.76791 7.38644 6.80411C7.22056 6.93111 7.07692 7.07579 6.93164 7.22559C6.90133 7.25639 6.87101 7.2872 6.83978 7.31894C6.76533 7.39467 6.69123 7.47074 6.61719 7.54688C6.66727 7.63919 6.71741 7.73147 6.76758 7.82373C6.79726 7.87879 6.82694 7.93385 6.85751 7.99057C6.92707 8.11563 7.00057 8.23385 7.07861 8.35352C7.18585 8.57656 7.16119 8.67444 7.10938 8.91406C7.02991 9.09009 7.02991 9.09009 6.93164 9.26953C6.7479 9.61338 6.63065 9.95641 6.52618 10.3315C6.43758 10.5359 6.38322 10.5785 6.17969 10.6641C6.0318 10.7086 5.88274 10.7437 5.73193 10.7769C5.43765 10.8306 5.43765 10.8306 5.19531 10.9922C5.1793 11.0963 5.1793 11.0963 5.18271 11.2144C5.18281 11.2579 5.18292 11.3015 5.18303 11.3464C5.1837 11.3919 5.18437 11.4375 5.18506 11.4844C5.18509 11.5299 5.18513 11.5755 5.18517 11.6224C5.17963 11.8623 5.17963 11.8623 5.25 12.0859C5.35172 12.1233 5.35172 12.1233 5.47495 12.1487C5.52066 12.1597 5.56638 12.1707 5.61348 12.1821C5.70998 12.2044 5.80653 12.2265 5.90315 12.2483C6.36154 12.3595 6.36154 12.3595 6.50781 12.5781C6.55712 12.7149 6.5977 12.845 6.63428 12.9849C6.7405 13.3631 6.88551 13.668 7.09528 14.0019C7.18594 14.2156 7.16982 14.3234 7.10938 14.5469C7.03668 14.6987 6.95064 14.8393 6.85986 14.981C6.83663 15.0184 6.81341 15.0558 6.78947 15.0943C6.73263 15.1856 6.67499 15.2765 6.61719 15.3672C6.83764 15.6887 7.08041 15.9419 7.38281 16.1875C7.66016 16.0869 7.89363 15.9336 8.14117 15.7752C8.37248 15.6673 8.55579 15.6458 8.80042 15.7326C8.91453 15.7838 9.02527 15.8393 9.13623 15.897C9.43935 16.0494 9.73078 16.1714 10.0557 16.2695C10.3654 16.3774 10.3654 16.3774 10.4667 16.4932C10.5131 16.6101 10.5331 16.7197 10.5547 16.8438C10.5967 16.9912 10.5967 16.9912 10.6402 17.1382C10.6864 17.2948 10.7296 17.4522 10.7734 17.6094C11.1524 17.6094 11.5314 17.6094 11.9219 17.6094C12.005 17.2774 12.005 17.2774 12.0871 16.9452C12.0978 16.9035 12.1085 16.8619 12.1195 16.819C12.1301 16.7766 12.1407 16.7342 12.1516 16.6905C12.2017 16.5527 12.2617 16.4607 12.3594 16.3516C12.5279 16.2838 12.5279 16.2838 12.7319 16.2251C13.1046 16.1129 13.43 15.9589 13.7693 15.7694C13.9795 15.6809 14.1017 15.6646 14.3281 15.6953C14.5278 15.7845 14.7077 15.9047 14.8916 16.0222C14.9286 16.0447 14.9656 16.0673 15.0038 16.0905C15.0369 16.1117 15.07 16.1329 15.104 16.1547C15.2056 16.1996 15.2056 16.1996 15.3153 16.1473C15.474 16.0443 15.6058 15.9166 15.7397 15.7842C15.782 15.7446 15.782 15.7446 15.8251 15.7043C15.9765 15.5629 15.9765 15.5629 16.0277 15.3712C15.9233 15.1704 15.8058 14.978 15.6841 14.7873C15.5407 14.5495 15.4937 14.3848 15.5312 14.1094C15.587 13.9629 15.6598 13.829 15.7363 13.6924C15.9168 13.3543 16.0433 13.0364 16.139 12.6642C16.1914 12.5121 16.229 12.46 16.3516 12.3594C16.4706 12.3156 16.4706 12.3156 16.6068 12.2835C16.6508 12.2728 16.6948 12.2622 16.7402 12.2511C16.7958 12.2384 16.8514 12.2256 16.9087 12.2124C17.0858 12.1707 17.2629 12.1289 17.4453 12.0859C17.4453 11.707 17.4453 11.328 17.4453 10.9375C17.0077 10.777 17.0077 10.777 16.7611 10.7422C16.5577 10.7067 16.4176 10.6653 16.2422 10.5547C16.0852 10.3132 16.0282 10.022 15.9529 9.7473C15.8719 9.49229 15.7336 9.26417 15.6035 9.03156C15.5164 8.82395 15.501 8.7 15.5312 8.47656C15.6199 8.289 15.74 8.12313 15.8581 7.95319C15.9957 7.74944 15.9957 7.74944 16.0006 7.51227C15.8954 7.35494 15.7792 7.22827 15.644 7.0957C15.5722 7.02422 15.5722 7.02422 15.499 6.95129C15.3732 6.82619 15.3732 6.82619 15.2031 6.78125C15.0634 6.85675 14.9327 6.93432 14.7998 7.02051C14.3466 7.31262 14.3466 7.31262 14.1094 7.32813C13.974 7.28019 13.8548 7.22738 13.7266 7.16406C13.3216 6.97001 12.9254 6.79618 12.494 6.66953C12.3494 6.61332 12.2931 6.5713 12.1953 6.45313C12.1516 6.3341 12.1516 6.3341 12.1195 6.19785C12.1088 6.15384 12.0981 6.10984 12.0871 6.06451C12.0743 6.0089 12.0615 5.95329 12.0483 5.896C12.0066 5.71891 11.9649 5.54183 11.9219 5.35938C11.5429 5.35938 11.1639 5.35938 10.7734 5.35938Z" fill="#0077FF"/>
<path d="M13.8684 8.65045C14.5915 9.33115 15.0467 10.2093 15.1068 11.2088C15.1326 12.2295 14.9054 13.197 14.1948 13.9692C14.0952 14.0727 13.9934 14.173 13.8906 14.2734C13.8547 14.3105 13.8187 14.3476 13.7817 14.3858C13.1175 15.0272 12.1384 15.2741 11.2396 15.275C10.2215 15.2556 9.30248 14.8093 8.57803 14.1047C7.88725 13.3729 7.55437 12.4443 7.54495 11.4444C7.59046 10.3734 7.99071 9.44617 8.75 8.69531C10.2243 7.40844 12.3716 7.39263 13.8684 8.65045ZM9.02344 9.625C8.52831 10.3 8.2822 11.082 8.40564 11.9184C8.55699 12.7874 9.00359 13.4474 9.71365 13.9709C10.3709 14.394 11.1038 14.5328 11.8751 14.4102C12.7075 14.2221 13.3413 13.7752 13.837 13.0829C14.2481 12.4123 14.388 11.6302 14.2361 10.8565C13.9892 9.99922 13.5536 9.38369 12.7969 8.91406C11.4945 8.24857 9.98582 8.48302 9.02344 9.625Z" fill="#0077FF"/>
</g>
<defs>
<clipPath id="clip0_2_47">
<rect width="28" height="28" fill="white"/>
</clipPath>
</defs>
</svg>
