<svg width="28" height="28" viewBox="0 0 28 28" fill="none" xmlns="http://www.w3.org/2000/svg">
<path d="M18.5835 3.3291C19.7311 4.41238 20.5213 5.85378 20.8906 7.38281C20.8996 7.4182 20.9085 7.45359 20.9178 7.49005C21.0618 8.08281 21.0703 8.6798 21.0718 9.28662C21.072 9.32509 21.0722 9.36356 21.0724 9.40319C21.0738 9.90503 21.0379 10.3888 20.9453 10.8828C21.0096 10.8862 21.0739 10.8896 21.1401 10.8931C22.0797 11.0006 22.9621 11.4963 23.6797 12.0859C23.7269 12.1241 23.7742 12.1624 23.8228 12.2017C24.8303 13.0585 25.4764 14.3358 25.6484 15.6406C25.664 15.8733 25.6667 16.1048 25.6655 16.3379C25.6653 16.4004 25.665 16.4629 25.6647 16.5273C25.6504 17.5625 25.374 18.6938 24.7187 19.52C24.6827 19.5753 24.6466 19.6306 24.6094 19.6875C24.6683 19.8929 24.778 20.0605 24.8896 20.2412C25.0608 20.5525 25.114 20.8132 25.0469 21.1641C24.9849 21.3015 24.9091 21.4189 24.8281 21.5469C24.8491 21.7324 24.9381 21.879 25.0287 22.0399C25.0744 22.1213 25.0744 22.1213 25.121 22.2044C25.1541 22.2626 25.1871 22.3209 25.2212 22.3809C25.272 22.4712 25.272 22.4712 25.3238 22.5634C25.5004 22.8763 25.6798 23.1871 25.8638 23.4958C25.8982 23.5537 25.9325 23.6115 25.968 23.6712C26.0335 23.7811 26.0996 23.8906 26.1662 23.9999C26.462 24.4957 26.6614 24.9585 26.5234 25.5391C26.3861 25.9564 26.1193 26.1863 25.751 26.4072C25.4117 26.5338 25.0147 26.5263 24.6722 26.4207C24.1406 26.1774 23.8963 25.7391 23.625 25.2417C23.5631 25.1303 23.5012 25.0189 23.4391 24.9076C23.4072 24.85 23.3752 24.7925 23.3422 24.7332C23.1731 24.4314 22.9994 24.1324 22.8252 23.8335C22.7928 23.7777 22.7605 23.7218 22.7271 23.6643C22.6968 23.6122 22.6664 23.5601 22.6351 23.5064C22.6084 23.4606 22.5817 23.4148 22.5542 23.3675C22.4791 23.2462 22.4054 23.1319 22.3125 23.0234C22.1886 23.0172 22.1886 23.0172 22.0562 23.0508C21.8019 23.0859 21.6491 23.0673 21.4272 22.9376C21.1364 22.7081 20.9498 22.3632 20.7812 22.0391C20.7812 22.003 20.7812 21.9669 20.7812 21.9297C20.7192 21.9387 20.6572 21.9477 20.5933 21.957C19.2302 22.1203 17.7601 21.6807 16.6797 20.8359C16.492 20.6774 16.3116 20.5124 16.1328 20.3437C16.099 20.3135 16.0653 20.2833 16.0305 20.2521C15.2323 19.5092 14.7384 18.3973 14.5469 17.3359C14.5076 17.3432 14.4683 17.3505 14.4279 17.3579C14.0491 17.4226 13.6723 17.4644 13.2891 17.4897C13.2224 17.4951 13.2224 17.4951 13.1544 17.5005C12.8957 17.5154 12.7333 17.5077 12.5234 17.3359C12.4591 17.2073 12.4621 17.1316 12.4625 16.9882C12.4625 16.939 12.4625 16.8897 12.4626 16.839C12.4628 16.7857 12.4631 16.7324 12.4634 16.6775C12.4635 16.5958 12.4635 16.5958 12.4636 16.5125C12.464 16.3381 12.4646 16.1637 12.4653 15.9893C12.4656 15.8712 12.4659 15.7531 12.4661 15.6351C12.4667 15.3453 12.4676 15.0554 12.4687 14.7656C12.4081 14.7489 12.3474 14.7321 12.2849 14.7149C11.8474 14.586 11.6018 14.3115 11.3853 13.919C11.1702 13.4627 11.164 13.0269 11.3177 12.5506C11.5089 12.0947 11.8561 11.7888 12.3047 11.5937C12.3588 11.5937 12.413 11.5937 12.4687 11.5937C12.4687 10.9621 12.4687 10.3305 12.4687 9.67969C12.213 9.68445 12.213 9.68445 11.952 9.6893C11.7866 9.69143 11.6211 9.69309 11.4557 9.69471C11.3409 9.69608 11.226 9.69795 11.1112 9.70031C10.946 9.70364 10.7808 9.70518 10.6156 9.70639C10.5643 9.7078 10.5131 9.70921 10.4604 9.71067C10.208 9.71077 10.0991 9.70802 9.8939 9.5491C9.79034 9.408 9.75231 9.33095 9.73096 9.16016C9.68887 8.93192 9.63927 8.80019 9.46094 8.64062C9.23989 8.51045 9.04836 8.45356 8.79443 8.50732C8.55091 8.58579 8.36972 8.69626 8.24756 8.92773C8.20323 9.07034 8.20323 9.07034 8.18027 9.18707C8.16789 9.24481 8.16789 9.24481 8.15527 9.30371C8.14865 9.33995 8.14202 9.37618 8.13519 9.41351C8.07754 9.55557 8.00483 9.59963 7.875 9.67969C7.73842 9.70126 7.73842 9.70126 7.58342 9.70265C7.52519 9.70352 7.46697 9.70439 7.40698 9.70529C7.31307 9.7053 7.31307 9.7053 7.21725 9.70532C7.15266 9.70574 7.08807 9.70615 7.02153 9.70658C6.88496 9.70717 6.74838 9.70733 6.61181 9.70708C6.40282 9.70703 6.19394 9.70931 5.98497 9.71173C5.85227 9.71202 5.71958 9.71216 5.58688 9.71216C5.52438 9.71305 5.46189 9.71395 5.39749 9.71487C4.91485 9.71067 4.91485 9.71067 4.74562 9.54894C4.42212 9.07398 4.71091 8.08548 4.8125 7.54687C5.28872 5.36351 6.602 3.49798 8.47376 2.28235C11.6989 0.263864 15.8215 0.805498 18.5835 3.3291ZM11.4194 2.00635C11.3746 2.01623 11.3297 2.02612 11.2835 2.03631C9.39711 2.46637 7.67372 3.62104 6.63426 5.27258C5.94921 6.39457 5.58781 7.54976 5.46875 8.85937C6.10039 8.85937 6.73203 8.85937 7.38281 8.85937C7.47305 8.67891 7.56328 8.49844 7.65625 8.3125C7.89036 7.96227 8.25412 7.79651 8.65024 7.67419C9.12596 7.59146 9.59867 7.73571 9.99521 7.99292C10.2794 8.22784 10.4199 8.52245 10.5547 8.85937C11.1863 8.85937 11.818 8.85937 12.4687 8.85937C12.4709 8.59576 12.4709 8.59576 12.473 8.32681C12.4751 8.15686 12.4776 7.98691 12.4801 7.81696C12.4816 7.69872 12.4828 7.58048 12.4836 7.46224C12.4847 7.29239 12.4873 7.12261 12.4901 6.95279C12.4902 6.89981 12.4902 6.84682 12.4903 6.79223C12.4914 6.74298 12.4925 6.69372 12.4936 6.64297C12.4941 6.59961 12.4946 6.55626 12.4951 6.51159C12.5234 6.39844 12.5234 6.39844 12.6273 6.30302C12.7505 6.22938 12.8402 6.20684 12.9814 6.18652C13.2462 6.13417 13.3743 6.04433 13.5625 5.85156C13.712 5.60703 13.7063 5.36452 13.6719 5.08594C13.5513 4.81463 13.3956 4.70176 13.1342 4.58307C13.0146 4.5387 12.8971 4.5065 12.7729 4.47754C12.6765 4.45385 12.6765 4.45385 12.5781 4.42969C12.5151 4.30359 12.515 4.22742 12.5122 4.08701C12.5111 4.03884 12.51 3.99068 12.5089 3.94105C12.5075 3.86295 12.5075 3.86295 12.5061 3.78326C12.505 3.73001 12.5039 3.67675 12.5027 3.62189C12.4991 3.45138 12.4959 3.28087 12.4927 3.11035C12.4903 2.99492 12.4879 2.8795 12.4855 2.76407C12.4797 2.48074 12.4741 2.1974 12.4687 1.91406C12.3829 1.91302 12.297 1.91228 12.2111 1.91167C12.1632 1.91123 12.1154 1.91078 12.0661 1.91033C11.8444 1.91607 11.6352 1.95785 11.4194 2.00635ZM13.2891 1.91406C13.2891 2.52766 13.2891 3.14125 13.2891 3.77344C13.4876 3.88172 13.6861 3.99 13.8906 4.10156C14.3038 4.50187 14.4424 4.80618 14.4648 5.37988C14.4551 5.84508 14.3288 6.14945 14.0308 6.50098C13.7925 6.69859 13.5779 6.8298 13.2891 6.94531C13.2891 7.57695 13.2891 8.20859 13.2891 8.85937C13.5468 8.86339 13.5468 8.86339 13.8097 8.86749C13.9758 8.87044 14.142 8.87358 14.3081 8.87673C14.4237 8.87883 14.5393 8.88073 14.6549 8.88245C14.8209 8.88494 14.9869 8.88811 15.1529 8.89142C15.2047 8.89205 15.2565 8.89268 15.3099 8.89333C15.358 8.89442 15.4062 8.89551 15.4558 8.89662C15.4982 8.89735 15.5406 8.89808 15.5842 8.89883C15.6953 8.91406 15.6953 8.91406 15.8594 9.02344C15.8997 9.16614 15.8997 9.16614 15.9312 9.33789C16.0047 9.66195 16.0895 9.80579 16.3516 10.0078C16.6595 10.1104 16.9581 10.1138 17.2505 9.97021C17.5298 9.71814 17.5934 9.45339 17.6779 9.09607C17.6914 9.05405 17.7049 9.01204 17.7187 8.96875C17.8448 8.9057 17.921 8.90564 18.0614 8.90283C18.1096 8.90174 18.1578 8.90065 18.2074 8.89953C18.2595 8.89861 18.3115 8.8977 18.3652 8.89676C18.4184 8.89562 18.4717 8.89449 18.5266 8.89331C18.6971 8.88973 18.8676 8.88651 19.0381 8.8833C19.1535 8.88094 19.2689 8.87855 19.3844 8.87614C19.6677 8.87028 19.951 8.86472 20.2344 8.85937C20.2115 8.39942 20.1851 7.95267 20.0669 7.50586C20.0551 7.46027 20.0432 7.41468 20.0311 7.36771C19.5315 5.53668 18.3288 3.886 16.6852 2.92075C15.6355 2.32444 14.5041 1.91406 13.2891 1.91406ZM13.2891 9.67969C13.2864 9.85148 13.2837 10.0233 13.2809 10.2003C13.278 10.3664 13.2749 10.5326 13.2717 10.6987C13.2696 10.8143 13.2677 10.9299 13.266 11.0455C13.2635 11.2115 13.2603 11.3775 13.257 11.5435C13.2561 11.6212 13.2561 11.6212 13.2551 11.7005C13.254 11.7486 13.2529 11.7968 13.2518 11.8464C13.2511 11.8888 13.2504 11.9312 13.2496 11.9749C13.2344 12.0859 13.2344 12.0859 13.125 12.25C12.9962 12.2904 12.9962 12.2904 12.8413 12.3218C12.541 12.3974 12.3379 12.5007 12.1406 12.7422C12.0125 12.9931 12.0181 13.1818 12.0859 13.4531C12.2378 13.7629 12.4311 13.8812 12.7422 14C12.8125 14.0204 12.8832 14.0399 12.9541 14.0581C13.125 14.1094 13.125 14.1094 13.2344 14.2734C13.2496 14.3824 13.2496 14.3824 13.2518 14.5079C13.2529 14.555 13.254 14.6021 13.2551 14.6506C13.2557 14.7011 13.2564 14.7517 13.257 14.8039C13.2581 14.8558 13.2591 14.9078 13.2602 14.9613C13.2635 15.1274 13.266 15.2934 13.2686 15.4595C13.2706 15.572 13.2728 15.6846 13.275 15.7971C13.2802 16.0731 13.2848 16.349 13.2891 16.625C13.3671 16.6256 13.4452 16.626 13.5233 16.6264C13.5885 16.6268 13.5885 16.6268 13.6551 16.6271C13.819 16.6244 13.9754 16.6022 14.1367 16.5737C14.2205 16.5595 14.2205 16.5595 14.3059 16.5449C14.4342 16.5287 14.4342 16.5287 14.4922 16.4609C14.5052 16.3787 14.5152 16.296 14.5238 16.2131C14.6743 14.8654 15.0171 13.6471 15.9687 12.6328C16.0061 12.5911 16.0435 12.5495 16.082 12.5066C17.1483 11.3714 18.5562 10.933 20.0703 10.8281C20.2076 10.4297 20.2344 10.1064 20.2344 9.67969C19.6208 9.67969 19.0072 9.67969 18.375 9.67969C18.2667 9.8782 18.1584 10.0767 18.0469 10.2812C17.6427 10.6984 17.3413 10.8343 16.7617 10.8486C16.2503 10.836 15.9494 10.7375 15.5729 10.3891C15.3859 10.1797 15.2909 9.94298 15.2031 9.67969C14.5715 9.67969 13.9398 9.67969 13.2891 9.67969ZM17.0078 12.7422C16.9534 12.7848 16.9534 12.7848 16.8978 12.8283C16.0167 13.5432 15.4905 14.6932 15.3298 15.7966C15.1972 17.116 15.5763 18.3777 16.3966 19.4195C17.1997 20.3922 18.3687 20.9941 19.6161 21.147C20.8538 21.264 22.055 20.8872 23.0337 20.1318C23.1223 20.0577 23.21 19.9825 23.2969 19.9062C23.3385 19.8699 23.3801 19.8335 23.4229 19.796C24.256 19.0177 24.7902 17.8461 24.8452 16.713C24.8861 15.3579 24.5199 14.2081 23.625 13.1797C23.5669 13.1124 23.5669 13.1124 23.5077 13.0438C22.6577 12.1291 21.4519 11.6961 20.2344 11.5937C19.0509 11.5514 17.9043 11.9828 17.0078 12.7422ZM23.9531 20.3984C23.9004 20.4441 23.9004 20.4441 23.8465 20.4907C23.1801 21.0535 22.4808 21.4361 21.6562 21.7109C21.6791 21.9773 21.7954 22.0785 21.9844 22.2578C22.1895 22.1414 22.3946 22.0248 22.5995 21.908C22.6689 21.8685 22.7383 21.8291 22.8078 21.7897C23.2869 21.5177 23.7593 21.2372 24.2266 20.9453C24.1882 20.7048 24.1155 20.5817 23.9531 20.3984ZM23.751 22.1467C23.7119 22.1689 23.6728 22.1911 23.6325 22.214C23.5917 22.2375 23.5508 22.261 23.5088 22.2852C23.4675 22.3086 23.4263 22.3321 23.3838 22.3563C23.2818 22.4144 23.1799 22.4728 23.0781 22.5312C23.1569 22.7423 23.2547 22.9325 23.3665 23.1279C23.4023 23.1906 23.4381 23.2532 23.475 23.3178C23.5136 23.3849 23.5522 23.452 23.5908 23.519C23.6103 23.5529 23.6298 23.5868 23.6498 23.6217C23.7684 23.8279 23.8874 24.0338 24.0067 24.2395C24.059 24.33 24.1113 24.4205 24.1635 24.5111C24.2511 24.6627 24.3395 24.8139 24.4282 24.9648C24.4538 25.0092 24.4794 25.0535 24.5057 25.0992C24.6415 25.3276 24.7625 25.5034 24.9922 25.6484C25.2429 25.6895 25.3434 25.6683 25.5596 25.5322C25.7227 25.3535 25.7447 25.284 25.7578 25.0469C25.7088 24.8873 25.7088 24.8873 25.6177 24.7256C25.601 24.6938 25.5844 24.662 25.5672 24.6293C25.2957 24.1205 24.9973 23.6256 24.7038 23.1293C24.6155 22.9792 24.5286 22.8286 24.4421 22.6776C24.417 22.634 24.392 22.5905 24.3661 22.5456C24.3197 22.4649 24.2735 22.384 24.2277 22.3029C24.1757 22.2131 24.1195 22.1258 24.0625 22.0391C23.9271 22.0391 23.8683 22.0797 23.751 22.1467Z" fill="#0077FF"/>
<path d="M6.83701 10.4767C6.98264 10.5816 7.10249 10.6914 7.21875 10.8281C7.27797 10.8975 7.27797 10.8975 7.33838 10.9683C7.49396 11.1775 7.54687 11.2733 7.54687 11.5391C7.57928 11.5385 7.61168 11.5378 7.64506 11.5372C7.98216 11.5312 8.31924 11.527 8.65638 11.524C8.78221 11.5227 8.90804 11.5208 9.03385 11.5184C9.21468 11.5151 9.39544 11.5136 9.57629 11.5124C9.63258 11.5109 9.68887 11.5095 9.74687 11.5081C10.125 11.5079 10.125 11.5079 10.3167 11.6353C10.4336 11.9154 10.4218 12.187 10.4197 12.4875C10.4199 12.5533 10.4201 12.619 10.4203 12.6867C10.4205 12.8255 10.4201 12.9644 10.4191 13.1032C10.418 13.3156 10.4191 13.528 10.4205 13.7404C10.4204 13.8754 10.4201 14.0103 10.4197 14.1453C10.4201 14.2088 10.4206 14.2723 10.421 14.3378C10.4159 14.7765 10.4159 14.7765 10.2891 14.996C10.1429 15.1179 10.0342 15.1419 9.84717 15.1724C9.55685 15.2339 9.55685 15.2339 9.34131 15.4253C9.16865 15.7051 9.15283 15.9156 9.1875 16.2422C9.30914 16.5159 9.46614 16.6257 9.72925 16.7455C9.85757 16.7967 9.85757 16.7967 10.0522 16.8437C10.2508 16.9061 10.2883 16.9416 10.3906 17.1172C10.4122 17.2558 10.4122 17.2558 10.4136 17.4138C10.4145 17.4731 10.4153 17.5324 10.4162 17.5935C10.4162 17.6574 10.4162 17.7212 10.4163 17.7869C10.4167 17.8527 10.4171 17.9185 10.4175 17.9863C10.4181 18.1254 10.4183 18.2646 10.418 18.4037C10.418 18.6167 10.4202 18.8295 10.4227 19.0425C10.423 19.1777 10.4231 19.3128 10.4231 19.448C10.424 19.5117 10.4249 19.5754 10.4258 19.641C10.422 20.081 10.422 20.081 10.2651 20.3009C10.0701 20.4295 9.8901 20.4542 9.6626 20.4702C9.61914 20.474 9.57568 20.4779 9.5309 20.4818C8.76719 20.5435 8.03135 20.4967 7.27344 20.3984C7.28197 20.4336 7.2905 20.4688 7.29929 20.505C7.44295 21.172 7.35103 21.7371 7.10937 22.3672C7.06505 22.4845 7.02088 22.602 6.97675 22.7194C6.94708 22.798 6.91712 22.8765 6.88685 22.9548C6.80829 23.1476 6.80829 23.1476 6.78125 23.3516C6.82186 23.3752 6.86246 23.3989 6.9043 23.4233C7.12397 23.5581 7.24674 23.709 7.32812 23.9531C7.34205 24.1409 7.34077 24.3289 7.3418 24.5171C7.34292 24.5684 7.34405 24.6197 7.34521 24.6725C7.34687 24.9666 7.33195 25.1769 7.16406 25.4297C6.8865 25.6802 6.7116 25.7115 6.34733 25.7128C6.3025 25.7132 6.25767 25.7135 6.21149 25.7139C6.06274 25.715 5.914 25.7156 5.76526 25.7162C5.6891 25.7165 5.6891 25.7165 5.6114 25.7168C5.3426 25.718 5.0738 25.7188 4.805 25.7193C4.52743 25.7199 4.24989 25.7218 3.97234 25.7239C3.75887 25.7254 3.54541 25.7258 3.33194 25.726C3.22963 25.7263 3.12733 25.7269 3.02503 25.7279C2.88168 25.7293 2.73839 25.7292 2.59504 25.7288C2.53187 25.7299 2.53187 25.7299 2.46742 25.7309C2.18335 25.7282 2.0241 25.6626 1.80469 25.4844C1.54995 25.1945 1.57426 24.9043 1.57227 24.5376C1.57114 24.4863 1.57001 24.435 1.56885 24.3822C1.56679 24.0171 1.60906 23.7699 1.87305 23.4985C2.05244 23.3885 2.1981 23.3679 2.40625 23.3516C2.44049 22.1342 2.15064 21.0929 1.76131 19.9493C1.73703 19.878 1.71275 19.8067 1.68848 19.7354C1.67648 19.7001 1.66449 19.6649 1.65214 19.6287C1.1778 18.2301 0.770118 16.423 1.45423 15.0253C1.54429 14.8159 1.53812 14.6502 1.51501 14.4223C1.50828 14.345 1.50177 14.2677 1.49547 14.1904C1.49211 14.1503 1.48874 14.1102 1.48528 14.0689C1.46159 13.7331 1.46427 13.3957 1.46342 13.0592C1.46288 12.9285 1.46117 12.7979 1.45947 12.6673C1.45912 12.5828 1.45883 12.4983 1.45862 12.4138C1.45794 12.3755 1.45727 12.3372 1.45657 12.2977C1.45781 12.0207 1.5142 11.8351 1.64062 11.5937C1.77165 11.5282 1.85214 11.5325 1.99836 11.5329C2.04981 11.5329 2.10127 11.5329 2.15428 11.5329C2.20993 11.5331 2.26559 11.5334 2.32294 11.5337C2.37983 11.5338 2.43673 11.5339 2.49535 11.534C2.67756 11.5343 2.85978 11.5349 3.04199 11.5356C3.16532 11.5359 3.28866 11.5362 3.41199 11.5364C3.71476 11.537 4.01754 11.5379 4.32031 11.5391C4.32831 11.4962 4.33631 11.4533 4.34455 11.4092C4.43278 10.9933 4.75022 10.6843 5.08594 10.4453C5.57551 10.1337 6.35622 10.1908 6.83701 10.4767ZM5.20215 11.4869C5.09855 11.6668 5.0613 11.8628 5.01886 12.0646C4.97656 12.1953 4.97656 12.1953 4.8125 12.3047C4.69727 12.3199 4.69727 12.3199 4.56295 12.3221C4.5126 12.3232 4.46224 12.3243 4.41037 12.3254C4.35619 12.326 4.30201 12.3267 4.24619 12.3273C4.19058 12.3284 4.13498 12.3294 4.07769 12.3305C3.89994 12.3338 3.72219 12.3363 3.54443 12.3389C3.42398 12.341 3.30354 12.3431 3.18309 12.3453C2.88769 12.3505 2.59229 12.3552 2.29687 12.3594C2.27225 13.5491 2.33921 14.5715 2.73437 15.6953C2.7539 15.7514 2.77343 15.8074 2.79355 15.8651C3.1199 16.7197 3.72974 17.6758 4.48437 18.2109C4.52047 18.2109 4.55656 18.2109 4.59375 18.2109C4.62026 18.162 4.64676 18.1131 4.67407 18.0627C4.90541 17.6426 5.14942 17.2591 5.46875 16.8984C5.51591 16.8445 5.51591 16.8445 5.56403 16.7895C5.916 16.4116 6.36703 16.1623 6.88379 16.1123C7.20812 16.1216 7.45684 16.2592 7.68018 16.4883C7.8807 16.8091 7.86321 17.1934 7.78485 17.5536C7.62155 18.1154 7.39422 18.6816 7.09741 19.1872C6.99102 19.3423 6.99102 19.3423 7 19.4687C7.58913 19.6297 8.12794 19.6914 8.73633 19.6943C8.78099 19.6946 8.82565 19.6949 8.87167 19.6951C8.9147 19.695 8.95774 19.6949 9.00207 19.6948C9.04041 19.6947 9.07874 19.6946 9.11823 19.6946C9.27008 19.6859 9.42029 19.6578 9.57031 19.6328C9.57031 18.9651 9.57031 18.2973 9.57031 17.6094C9.24547 17.447 9.24547 17.447 8.91406 17.2812C8.77142 17.1463 8.68569 17.0577 8.58594 16.8984C8.56352 16.8645 8.5411 16.8305 8.518 16.7955C8.30756 16.4138 8.2988 15.9545 8.36719 15.5312C8.50234 15.1048 8.70905 14.7971 9.07812 14.5469C9.24055 14.4747 9.40297 14.4025 9.57031 14.3281C9.57031 13.6784 9.57031 13.0287 9.57031 12.3594C9.39062 12.3573 9.21093 12.3553 9.02579 12.3532C8.85203 12.3507 8.67828 12.3479 8.50453 12.345C8.38364 12.3432 8.26275 12.3417 8.14185 12.3404C7.96822 12.3386 7.79462 12.3357 7.621 12.3327C7.56682 12.3323 7.51264 12.332 7.45682 12.3316C7.40647 12.3305 7.35612 12.3294 7.30424 12.3283C7.25991 12.3277 7.21559 12.3271 7.16992 12.3265C7.02682 12.2994 6.97897 12.2545 6.89062 12.1406C6.8464 12.0026 6.8464 12.0026 6.81201 11.8467C6.73045 11.528 6.63804 11.3535 6.36084 11.1665C5.88745 10.9968 5.52208 11.091 5.20215 11.4869ZM1.96875 16.1875C1.91794 17.6233 2.24665 18.8451 2.70602 20.1938C3.06353 21.2475 3.20315 22.1855 3.28125 23.2969C4.1475 23.2969 5.01375 23.2969 5.90625 23.2969C6.01453 22.972 6.12281 22.6472 6.23437 22.3125C6.3122 22.1298 6.3122 22.1298 6.3916 21.9434C6.62269 21.3412 6.53894 20.8199 6.29647 20.2412C6.16579 19.9206 6.13104 19.6229 6.21024 19.2829C6.23403 19.2294 6.23403 19.2294 6.2583 19.1748C6.2779 19.1299 6.2975 19.085 6.31769 19.0387C6.38368 18.8985 6.45008 18.7586 6.51678 18.6187C6.53825 18.5737 6.55973 18.5286 6.58185 18.4822C6.62491 18.3923 6.66836 18.3026 6.71224 18.2131C6.99978 17.6363 6.99978 17.6363 7.05469 17.0078C7.00055 16.9537 7.00055 16.9537 6.94531 16.8984C6.52363 16.9409 6.22372 17.2126 5.9582 17.5253C5.39323 18.2279 4.98745 19.0203 4.8125 19.9062C4.80037 19.9671 4.78825 20.0279 4.77576 20.0906C4.74958 20.2295 4.72517 20.3683 4.70312 20.5078C4.63432 20.518 4.56552 20.5281 4.49463 20.5386C4.43658 20.5471 4.43658 20.5471 4.37735 20.5559C4.26562 20.5625 4.26562 20.5625 4.10156 20.5078C3.88883 20.0823 4.10543 19.4614 4.21094 19.0312C4.1666 18.9967 4.12225 18.9622 4.07657 18.9266C3.15745 18.1917 2.5829 17.2396 2.07812 16.1875C2.04203 16.1875 2.00594 16.1875 1.96875 16.1875ZM2.40625 24.1719C2.40625 24.4065 2.40625 24.6411 2.40625 24.8828C3.75977 24.8828 5.11328 24.8828 6.50781 24.8828C6.50781 24.6482 6.50781 24.4136 6.50781 24.1719C5.1543 24.1719 3.80078 24.1719 2.40625 24.1719Z" fill="#0077FF"/>
<path d="M22.7705 13.0156C22.8556 13.0877 22.9399 13.1605 23.0234 13.2344C23.0569 13.2627 23.0904 13.2911 23.1249 13.3203C23.8094 13.9437 24.2624 14.9525 24.3525 15.8632C24.3598 16.032 24.3616 16.1996 24.3599 16.3687C24.3594 16.4284 24.3589 16.4882 24.3584 16.5498C24.3372 17.544 23.9705 18.5084 23.2969 19.25C23.2618 19.2901 23.2267 19.3302 23.1905 19.3716C22.4369 20.1821 21.399 20.6036 20.3042 20.6875C19.2359 20.7133 18.2264 20.4199 17.3906 19.7422C17.3226 19.6885 17.3226 19.6885 17.2533 19.6337C16.4066 18.9231 15.8987 17.8648 15.7922 16.7705C15.7125 15.5528 16.0838 14.4407 16.864 13.5025C18.3868 11.8214 20.9921 11.6253 22.7705 13.0156ZM17.459 14.0854C16.8275 14.8248 16.549 15.7702 16.6137 16.7336C16.7144 17.7136 17.2255 18.5267 17.9672 19.1477C18.6868 19.6774 19.5591 19.9425 20.4531 19.8516C21.4276 19.6956 22.2794 19.258 22.8833 18.457C23.4508 17.6188 23.6726 16.7285 23.5039 15.7216C23.3008 14.8213 22.7952 14.0053 22.0192 13.4899C20.4877 12.5403 18.7109 12.8099 17.459 14.0854Z" fill="#0077FF"/>
<path d="M21.1243 14.4089C21.376 14.6137 21.5781 14.8284 21.6562 15.1484C21.7113 15.694 21.7041 16.2257 21.355 16.6769C21.1529 16.8936 20.9192 17.0526 20.6674 17.2069C20.5476 17.2824 20.5476 17.2824 20.4531 17.4453C20.4363 17.5628 20.4363 17.5628 20.4326 17.688C20.416 17.8549 20.4021 17.9315 20.313 18.0776C20.1081 18.1985 19.9786 18.1863 19.7422 18.1563C19.6179 18.0357 19.5814 17.9599 19.5563 17.788C19.5622 17.0362 19.5622 17.0362 19.8473 16.7314C20.0782 16.5204 20.3251 16.3329 20.5828 16.1559C20.7206 16.0356 20.772 15.9194 20.7996 15.74C20.8032 15.5311 20.7941 15.394 20.7026 15.2031C20.5007 15.0455 20.3227 15.0264 20.0703 15.0391C19.8798 15.0705 19.8798 15.0705 19.7422 15.2031C19.6873 15.341 19.6502 15.4751 19.6185 15.6201C19.574 15.7632 19.5306 15.822 19.4141 15.9141C19.2509 15.9699 19.1614 15.9741 18.9937 15.9312C18.8444 15.8464 18.8185 15.7984 18.7578 15.6406C18.7321 15.2536 18.8413 14.9517 19.0859 14.6563C19.5991 14.0804 20.48 13.9904 21.1243 14.4089Z" fill="#0077FF"/>
<path d="M9.17383 4.39209C9.40496 4.44098 9.51557 4.55186 9.68353 4.71274C9.78642 4.81001 9.89313 4.89374 10.0078 4.97656C10.0592 4.92422 10.0592 4.92422 10.1116 4.87082C10.1563 4.82563 10.201 4.78044 10.2471 4.73389C10.2915 4.68884 10.3359 4.64379 10.3817 4.59738C10.5223 4.46308 10.5735 4.43359 10.7666 4.4126C10.9375 4.42969 10.9375 4.42969 11.0674 4.51514C11.1957 4.70764 11.198 4.80326 11.1562 5.03125C11.0684 5.1533 10.9736 5.25832 10.8679 5.36514C10.7742 5.46787 10.7196 5.5609 10.6641 5.6875C10.6996 5.71795 10.7351 5.74841 10.7717 5.77979C11.1918 6.16352 11.1918 6.16352 11.2041 6.41553C11.1562 6.61719 11.1562 6.61719 11.04 6.75732C10.8828 6.83594 10.8828 6.83594 10.729 6.84619C10.5141 6.76612 10.3827 6.64713 10.2174 6.49094C10.112 6.38875 10.112 6.38875 9.95312 6.28906C9.92204 6.32396 9.89095 6.35885 9.85892 6.39481C9.51571 6.76208 9.51571 6.76208 9.25586 6.85303C9.03167 6.83147 8.94823 6.79118 8.80469 6.61719C8.76367 6.43945 8.76367 6.43945 8.80469 6.23438C8.89264 6.11247 8.98737 6.00727 9.09308 5.90048C9.1867 5.79775 9.24129 5.70473 9.29688 5.57812C9.26593 5.54781 9.23498 5.5175 9.20309 5.48627C9.16298 5.44665 9.12287 5.40703 9.08154 5.36621C9.04157 5.32687 9.0016 5.28754 8.96042 5.24701C8.82284 5.10216 8.8064 5.04974 8.7876 4.84668C8.80469 4.64844 8.80469 4.64844 8.89355 4.51514C9.02344 4.42969 9.02344 4.42969 9.17383 4.39209Z" fill="#0077FF"/>
<path d="M17.6555 5.16412C17.8281 5.19531 17.8281 5.19531 17.9614 5.28076C18.0831 5.4705 18.0771 5.57349 18.0469 5.79688C17.9442 5.95669 17.8145 6.08427 17.6794 6.21707C17.6416 6.25537 17.6038 6.29367 17.5649 6.33314C17.4848 6.41371 17.4042 6.4938 17.3232 6.57343C17.1997 6.69532 17.0785 6.81923 16.9574 6.9435C16.8792 7.02164 16.8009 7.09965 16.7224 7.17752C16.6864 7.2146 16.6504 7.25168 16.6133 7.28988C16.4353 7.46177 16.3131 7.56943 16.0591 7.57681C15.8594 7.54688 15.8594 7.54688 15.7389 7.43729C15.7065 7.38322 15.674 7.32915 15.6406 7.27344C15.62 7.24067 15.5994 7.20789 15.5781 7.17413C15.5098 7.0639 15.4451 6.95205 15.3809 6.83936C15.3584 6.80161 15.3359 6.76385 15.3127 6.72496C15.184 6.49944 15.1118 6.3373 15.1484 6.07031C15.2339 5.94043 15.2339 5.94043 15.3672 5.85156C15.5586 5.82422 15.5586 5.82422 15.75 5.85156C15.9266 5.98398 16.0306 6.1495 16.1328 6.34375C16.1328 6.37984 16.1328 6.41594 16.1328 6.45312C16.3633 6.25908 16.5841 6.06076 16.791 5.84152C16.8273 5.80328 16.8637 5.76503 16.9011 5.72563C16.9754 5.6469 17.049 5.56756 17.122 5.48766C17.3958 5.20266 17.3958 5.20266 17.6555 5.16412Z" fill="#0077FF"/>
<path d="M20.2344 18.2656C20.3254 18.3314 20.3254 18.3314 20.3984 18.4297C20.4202 18.5715 20.4202 18.5715 20.4189 18.7305C20.4194 18.7829 20.4198 18.8354 20.4202 18.8894C20.3984 19.0313 20.3984 19.0313 20.3286 19.1304C20.1938 19.2233 20.0633 19.2245 19.903 19.2177C19.7969 19.1953 19.7969 19.1953 19.6602 19.0825C19.5579 18.8823 19.5503 18.7615 19.5781 18.5391C19.6499 18.3818 19.6499 18.3818 19.7422 18.2656C19.9363 18.2009 20.0375 18.2164 20.2344 18.2656Z" fill="#0077FF"/>
</svg>
