<svg width="28" height="28" viewBox="0 0 28 28" fill="none" xmlns="http://www.w3.org/2000/svg">
<g clip-path="url(#clip0_2_12)">
<path d="M12.2801 4.08741C12.342 4.08712 12.342 4.08712 12.4052 4.08683C12.5415 4.08635 12.6777 4.08667 12.814 4.08703C12.9088 4.08696 13.0036 4.08686 13.0984 4.08672C13.297 4.08656 13.4955 4.08679 13.6941 4.0873C13.9487 4.08793 14.2032 4.08757 14.4577 4.08691C14.6534 4.08652 14.8491 4.08664 15.0449 4.08693C15.1387 4.087 15.2326 4.08691 15.3264 4.08665C15.4576 4.08638 15.5887 4.0868 15.7199 4.08741C15.7586 4.08719 15.7974 4.08697 15.8373 4.08674C16.0351 4.08844 16.1868 4.09597 16.3516 4.21094C16.5414 4.48812 16.5374 4.73859 16.5316 5.06158C16.5314 5.11089 16.5312 5.16019 16.5309 5.21099C16.53 5.36756 16.528 5.5241 16.5259 5.68066C16.5251 5.78719 16.5243 5.89372 16.5236 6.00024C16.5218 6.26059 16.519 6.52091 16.5156 6.78125C16.5519 6.79182 16.5882 6.8024 16.6256 6.81329C16.6739 6.82753 16.7222 6.84177 16.772 6.85644C16.8433 6.87738 16.8433 6.87738 16.9162 6.89874C17.0593 6.9443 17.1972 6.99719 17.3359 7.05469C17.3776 7.01247 17.4192 6.97026 17.4621 6.92677C17.6173 6.76963 17.7728 6.61287 17.9284 6.45621C17.9956 6.38846 18.0627 6.32062 18.1297 6.25268C18.2262 6.15481 18.3231 6.05731 18.4201 5.95987C18.4498 5.92961 18.4795 5.89936 18.51 5.86819C18.7337 5.64445 18.9184 5.48726 19.2397 5.43457C19.433 5.44326 19.5226 5.49554 19.6641 5.62505C19.7022 5.65992 19.7403 5.6948 19.7796 5.73072C20.0263 5.96614 20.2685 6.20595 20.5093 6.44736C20.5662 6.50418 20.623 6.561 20.6799 6.61781C20.7982 6.73598 20.9163 6.85425 21.0344 6.97259C21.1859 7.12436 21.3376 7.27589 21.4894 7.42734C21.6064 7.5442 21.7233 7.66119 21.8402 7.77822C21.8962 7.83418 21.9521 7.89011 22.0081 7.946C22.086 8.02373 22.1637 8.10165 22.2414 8.17959C22.3077 8.24598 22.3077 8.24598 22.3754 8.31372C22.5336 8.48287 22.5577 8.61688 22.5525 8.84947C22.4679 9.32391 21.8861 9.73554 21.5537 10.0625C21.4946 10.1211 21.4355 10.1797 21.3764 10.2383C21.233 10.3805 21.0893 10.5224 20.9453 10.6641C20.9651 10.7141 20.9848 10.7642 21.0051 10.8157C21.0305 10.8807 21.0559 10.9457 21.082 11.0127C21.1074 11.0774 21.1328 11.1421 21.1589 11.2088C21.2188 11.375 21.2188 11.375 21.2188 11.4844C21.285 11.4835 21.3512 11.4827 21.4194 11.4818C21.6658 11.4788 21.9122 11.4769 22.1587 11.4754C22.2652 11.4745 22.3717 11.4734 22.4782 11.472C22.6316 11.47 22.785 11.4691 22.9384 11.4684C23.0094 11.4671 23.0094 11.4671 23.0819 11.4658C23.3571 11.4657 23.5545 11.4878 23.7891 11.6484C23.9258 11.8444 23.9139 12.0502 23.9126 12.2801C23.9129 12.342 23.9129 12.342 23.9132 12.4052C23.9137 12.5415 23.9133 12.6777 23.913 12.814C23.913 12.9088 23.9131 13.0036 23.9133 13.0984C23.9134 13.297 23.9132 13.4955 23.9127 13.6941C23.9121 13.9487 23.9124 14.2032 23.9131 14.4577C23.9135 14.6534 23.9134 14.8491 23.9131 15.0449C23.913 15.1387 23.9131 15.2325 23.9133 15.3264C23.9136 15.4576 23.9132 15.5887 23.9126 15.7199C23.9128 15.7586 23.913 15.7974 23.9133 15.8373C23.9116 16.0351 23.904 16.1868 23.7891 16.3516C23.5119 16.5414 23.2614 16.5374 22.9384 16.5316C22.8891 16.5314 22.8398 16.5312 22.789 16.5309C22.6324 16.53 22.4759 16.528 22.3193 16.5259C22.2128 16.5251 22.1063 16.5243 21.9998 16.5236C21.7394 16.5218 21.4791 16.519 21.2188 16.5156C21.2082 16.5519 21.1976 16.5882 21.1867 16.6256C21.1653 16.6981 21.1653 16.6981 21.1436 16.772C21.1296 16.8196 21.1156 16.8671 21.1013 16.9162C21.0557 17.0593 21.0028 17.1972 20.9453 17.3359C20.9875 17.3776 21.0297 17.4192 21.0732 17.4621C21.2304 17.6173 21.3871 17.7728 21.5438 17.9284C21.6115 17.9956 21.6794 18.0627 21.7473 18.1297C21.8452 18.2262 21.9427 18.3231 22.0401 18.4201C22.0704 18.4498 22.1006 18.4795 22.1318 18.51C22.3556 18.7337 22.5127 18.9184 22.5654 19.2397C22.5567 19.433 22.5045 19.5226 22.3749 19.6641C22.3401 19.7022 22.3052 19.7403 22.2693 19.7796C22.0339 20.0263 21.794 20.2685 21.5526 20.5093C21.4958 20.5662 21.439 20.623 21.3822 20.6799C21.264 20.7982 21.1458 20.9163 21.0274 21.0344C20.8756 21.1859 20.7241 21.3376 20.5727 21.4894C20.4558 21.6064 20.3388 21.7233 20.2218 21.8402C20.1658 21.8962 20.1099 21.9521 20.054 22.0081C19.9763 22.086 19.8983 22.1637 19.8204 22.2413C19.7762 22.2856 19.7319 22.3298 19.6863 22.3753C19.5171 22.5336 19.3831 22.5577 19.1505 22.5525C18.6761 22.4679 18.2645 21.8861 17.9375 21.5537C17.8789 21.4946 17.8203 21.4355 17.7617 21.3764C17.6195 21.233 17.4776 21.0893 17.3359 20.9453C17.2859 20.965 17.2358 20.9848 17.1843 21.0051C17.0868 21.0432 17.0868 21.0432 16.9873 21.082C16.8902 21.1201 16.8902 21.1201 16.7912 21.1589C16.625 21.2187 16.625 21.2187 16.5156 21.2187C16.5169 21.3181 16.5169 21.3181 16.5182 21.4194C16.5212 21.6658 16.5231 21.9122 16.5246 22.1587C16.5255 22.2652 16.5266 22.3717 16.528 22.4782C16.53 22.6316 16.5309 22.785 16.5316 22.9384C16.5325 22.9858 16.5333 23.0331 16.5342 23.0819C16.5343 23.3571 16.5122 23.5545 16.3516 23.7891C16.1556 23.9258 15.9498 23.9139 15.7199 23.9126C15.6786 23.9128 15.6373 23.913 15.5948 23.9132C15.4585 23.9136 15.3223 23.9133 15.186 23.913C15.0912 23.913 14.9964 23.9131 14.9016 23.9133C14.703 23.9134 14.5044 23.9132 14.3059 23.9127C14.0513 23.9121 13.7968 23.9124 13.5423 23.9131C13.3466 23.9135 13.1509 23.9134 12.9551 23.9131C12.8613 23.913 12.7674 23.9131 12.6736 23.9133C12.5424 23.9136 12.4113 23.9132 12.2801 23.9126C12.222 23.9129 12.222 23.9129 12.1627 23.9133C11.9649 23.9116 11.8132 23.904 11.6484 23.7891C11.4586 23.5119 11.4626 23.2614 11.4684 22.9384C11.4686 22.8891 11.4688 22.8398 11.4691 22.789C11.47 22.6324 11.472 22.4759 11.4741 22.3193C11.4749 22.2128 11.4757 22.1063 11.4764 21.9998C11.4782 21.7394 11.481 21.4791 11.4844 21.2187C11.4481 21.2082 11.4118 21.1976 11.3744 21.1867C11.3019 21.1653 11.3019 21.1653 11.228 21.1436C11.1804 21.1296 11.1329 21.1156 11.0838 21.1013C10.9407 21.0557 10.8028 21.0028 10.6641 20.9453C10.6224 20.9875 10.5808 21.0297 10.5379 21.0732C10.3827 21.2304 10.2272 21.3871 10.0716 21.5438C10.0044 21.6115 9.9373 21.6794 9.87031 21.7473C9.77377 21.8452 9.67689 21.9427 9.57993 22.0401C9.55024 22.0704 9.52054 22.1006 9.48995 22.1318C9.26628 22.3556 9.08165 22.5127 8.76025 22.5654C8.56703 22.5567 8.47736 22.5045 8.33588 22.3749C8.29777 22.3401 8.25966 22.3052 8.2204 22.2693C7.97366 22.0339 7.73154 21.794 7.49069 21.5526C7.43383 21.4958 7.37696 21.439 7.32008 21.3822C7.20183 21.264 7.08368 21.1457 6.96559 21.0274C6.81413 20.8756 6.66242 20.7241 6.51064 20.5727C6.39359 20.4558 6.27666 20.3388 6.15978 20.2218C6.10385 20.1658 6.04787 20.1099 5.99186 20.054C5.91399 19.9763 5.83632 19.8983 5.75865 19.8204C5.71443 19.7761 5.67021 19.7319 5.62465 19.6863C5.46636 19.5171 5.44233 19.3831 5.44748 19.1505C5.53208 18.6761 6.11394 18.2645 6.44629 17.9375C6.50542 17.8789 6.56452 17.8203 6.6236 17.7617C6.767 17.6195 6.91075 17.4776 7.05469 17.3359C7.03495 17.2859 7.01521 17.2358 6.99487 17.1843C6.96949 17.1193 6.94412 17.0543 6.91797 16.9873C6.89259 16.9226 6.86721 16.8579 6.84106 16.7912C6.78125 16.625 6.78125 16.625 6.78125 16.5156C6.71505 16.5165 6.64884 16.5173 6.58063 16.5182C6.33419 16.5212 6.08776 16.5231 5.84131 16.5246C5.7348 16.5255 5.62829 16.5266 5.52178 16.528C5.36838 16.53 5.215 16.5309 5.06158 16.5316C4.99056 16.5329 4.99056 16.5329 4.91809 16.5342C4.64288 16.5343 4.4455 16.5122 4.21094 16.3516C4.07422 16.1556 4.0861 15.9498 4.08741 15.7199C4.08722 15.6786 4.08703 15.6373 4.08683 15.5948C4.08635 15.4585 4.08667 15.3223 4.08704 15.186C4.08696 15.0912 4.08686 14.9964 4.08672 14.9016C4.08656 14.703 4.08679 14.5044 4.0873 14.3059C4.08793 14.0513 4.08757 13.7968 4.08691 13.5423C4.08652 13.3466 4.08664 13.1509 4.08693 12.9551C4.087 12.8613 4.08691 12.7674 4.08665 12.6736C4.08638 12.5424 4.0868 12.4113 4.08741 12.2801C4.08719 12.2414 4.08697 12.2026 4.08674 12.1627C4.08844 11.9649 4.09597 11.8132 4.21094 11.6484C4.48812 11.4586 4.73859 11.4626 5.06158 11.4684C5.11089 11.4686 5.16019 11.4688 5.21099 11.4691C5.36756 11.47 5.5241 11.472 5.68066 11.4741C5.78719 11.4749 5.89372 11.4757 6.00024 11.4764C6.26059 11.4782 6.52092 11.481 6.78125 11.4844C6.79182 11.4481 6.8024 11.4118 6.81329 11.3744C6.82753 11.3261 6.84177 11.2778 6.85645 11.228C6.87738 11.1566 6.87738 11.1566 6.89874 11.0838C6.9443 10.9407 6.99719 10.8028 7.05469 10.6641C7.01247 10.6224 6.97026 10.5808 6.92677 10.5379C6.76963 10.3827 6.61287 10.2272 6.45621 10.0716C6.38847 10.0044 6.32062 9.9373 6.25268 9.8703C6.15481 9.77377 6.05731 9.67688 5.95987 9.57992C5.92961 9.55023 5.89936 9.52054 5.86819 9.48995C5.64445 9.26628 5.48726 9.08165 5.43457 8.76025C5.44326 8.56702 5.49554 8.47736 5.62506 8.33588C5.65993 8.29777 5.6948 8.25966 5.73072 8.2204C5.96614 7.97366 6.20595 7.73154 6.44736 7.49069C6.50418 7.43383 6.561 7.37696 6.61781 7.32008C6.73598 7.20183 6.85425 7.08367 6.97259 6.96559C7.12436 6.81413 7.27589 6.66242 7.42735 6.51064C7.5442 6.39359 7.66119 6.27666 7.77822 6.15978C7.83419 6.10384 7.89011 6.04787 7.946 5.99186C8.02373 5.91399 8.10165 5.83631 8.17959 5.75865C8.22385 5.71443 8.26811 5.67021 8.31372 5.62465C8.48287 5.46636 8.61689 5.44233 8.84947 5.44748C9.32391 5.53208 9.73554 6.11393 10.0625 6.44629C10.1211 6.50542 10.1797 6.56452 10.2383 6.62359C10.3805 6.767 10.5224 6.91075 10.6641 7.05469C10.7391 7.02508 10.7391 7.02508 10.8157 6.99487C10.9132 6.9568 10.9132 6.9568 11.0127 6.91797C11.0774 6.89259 11.1421 6.86721 11.2088 6.84106C11.375 6.78125 11.375 6.78125 11.4844 6.78125C11.4831 6.68194 11.4831 6.68194 11.4818 6.58063C11.4788 6.33419 11.4769 6.08776 11.4754 5.84131C11.4745 5.7348 11.4734 5.62829 11.472 5.52178C11.47 5.36838 11.4691 5.215 11.4684 5.06158C11.4675 5.01423 11.4667 4.96688 11.4658 4.91809C11.4657 4.64288 11.4878 4.44549 11.6484 4.21094C11.8444 4.07422 12.0502 4.0861 12.2801 4.08741ZM12.6328 5.25C12.6192 5.94205 12.6192 5.94205 12.6067 6.63412C12.6047 6.72104 12.6028 6.80797 12.6008 6.8949C12.5998 6.96229 12.5998 6.96229 12.5989 7.03105C12.5883 7.45017 12.5883 7.45017 12.4687 7.60156C12.3655 7.66222 12.3655 7.66222 12.24 7.70901C12.194 7.72667 12.1481 7.74433 12.1007 7.76253C12.0519 7.78047 12.003 7.79841 11.9526 7.81689C11.8526 7.85486 11.7526 7.89295 11.6527 7.93118C11.6046 7.9495 11.5565 7.96782 11.5069 7.9867C11.3458 8.05065 11.1915 8.12545 11.0366 8.20312C10.7797 8.31919 10.5589 8.40114 10.2813 8.3125C10.108 8.19939 9.96768 8.06099 9.82415 7.91265C9.71515 7.80054 9.60411 7.69063 9.49298 7.58063C9.26231 7.35185 9.03312 7.12164 8.80469 6.89062C8.64321 6.96336 8.52997 7.04253 8.40548 7.16804C8.37155 7.20197 8.33763 7.23591 8.30268 7.27087C8.24875 7.32565 8.24875 7.32565 8.19373 7.38153C8.13775 7.43774 8.13775 7.43774 8.08064 7.49509C7.9617 7.61463 7.84315 7.73456 7.72461 7.85449C7.64396 7.93569 7.56328 8.01687 7.48257 8.09802C7.28497 8.29683 7.08771 8.49598 6.89063 8.69531C6.98699 8.90205 7.10647 9.03236 7.27002 9.19284C7.29631 9.21885 7.3226 9.24485 7.34969 9.27165C7.43339 9.35438 7.51745 9.43673 7.60156 9.51904C7.68563 9.60159 7.76961 9.68423 7.85344 9.76702C7.92945 9.84206 8.00572 9.91683 8.082 9.99159C8.24582 10.1615 8.32866 10.2727 8.33194 10.5077C8.32526 10.79 8.23456 11.0019 8.11084 11.252C8.0703 11.3376 8.02992 11.4233 7.98972 11.5092C7.96999 11.551 7.95026 11.5928 7.92993 11.6359C7.82712 11.864 7.74752 12.1003 7.66736 12.3372C7.58572 12.5004 7.5538 12.5178 7.38281 12.5781C7.22034 12.5962 7.05827 12.5985 6.8949 12.6008C6.85319 12.6017 6.81148 12.6027 6.76851 12.6037C6.61326 12.6071 6.458 12.6097 6.30273 12.6123C5.95533 12.6191 5.60793 12.6258 5.25 12.6328C5.25 13.5352 5.25 14.4375 5.25 15.3672C5.94205 15.3808 5.94205 15.3808 6.63412 15.3933C6.72104 15.3953 6.80797 15.3972 6.8949 15.3992C6.9623 15.4002 6.9623 15.4002 7.03106 15.4011C7.45017 15.4117 7.45017 15.4117 7.60156 15.5312C7.66222 15.6345 7.66222 15.6345 7.70902 15.76C7.7355 15.829 7.7355 15.829 7.76253 15.8993C7.78047 15.9481 7.79841 15.997 7.81689 16.0474C7.85486 16.1474 7.89295 16.2474 7.93118 16.3473C7.9495 16.3954 7.96782 16.4435 7.9867 16.4931C8.05065 16.6542 8.12545 16.8085 8.20313 16.9634C8.3192 17.2203 8.40115 17.4411 8.3125 17.7187C8.19939 17.892 8.06099 18.0323 7.91265 18.1758C7.80054 18.2848 7.69063 18.3959 7.58063 18.507C7.35185 18.7377 7.12164 18.9669 6.89063 19.1953C6.96336 19.3568 7.04254 19.47 7.16804 19.5945C7.20197 19.6284 7.23591 19.6624 7.27087 19.6973C7.30739 19.7333 7.34391 19.7692 7.38153 19.8063C7.41901 19.8436 7.45648 19.8809 7.49509 19.9194C7.61464 20.0383 7.73456 20.1568 7.85449 20.2754C7.93569 20.356 8.01687 20.4367 8.09802 20.5174C8.29683 20.715 8.49598 20.9123 8.69531 21.1094C8.90205 21.013 9.03236 20.8935 9.19284 20.73C9.21885 20.7037 9.24485 20.6774 9.27165 20.6503C9.35438 20.5666 9.43673 20.4826 9.51904 20.3984C9.6016 20.3144 9.68423 20.2304 9.76703 20.1466C9.84206 20.0706 9.91683 19.9943 9.99159 19.918C10.1593 19.7563 10.2716 19.6711 10.5038 19.6661C10.8088 19.6733 11.0439 19.7864 11.3135 19.9199C11.4094 19.9656 11.5054 20.0111 11.6014 20.0564C11.6699 20.0889 11.6699 20.0889 11.7398 20.122C11.9427 20.2139 12.1517 20.283 12.3649 20.3465C12.5079 20.418 12.5232 20.4659 12.5781 20.6172C12.5964 20.7796 12.5985 20.9417 12.6008 21.1051C12.6017 21.1468 12.6027 21.1885 12.6037 21.2315C12.6071 21.3867 12.6097 21.542 12.6123 21.6973C12.6191 22.0447 12.6258 22.3921 12.6328 22.75C13.5352 22.75 14.4375 22.75 15.3672 22.75C15.3808 22.0579 15.3808 22.0579 15.3933 21.3659C15.3953 21.279 15.3972 21.192 15.3992 21.1051C15.4002 21.0377 15.4002 21.0377 15.4011 20.9689C15.4117 20.5523 15.4117 20.5523 15.5312 20.3984C15.6227 20.3437 15.6227 20.3437 15.7323 20.3049C15.7727 20.29 15.8131 20.2751 15.8548 20.2597C15.898 20.2446 15.9413 20.2294 15.9858 20.2139C16.3006 20.099 16.6023 19.9778 16.9019 19.8276C17.4257 19.5861 17.4257 19.5861 17.7187 19.6875C17.8916 19.8011 18.0323 19.939 18.1759 20.0873C18.2848 20.1995 18.3959 20.3094 18.507 20.4194C18.7377 20.6482 18.9669 20.8784 19.1953 21.1094C19.3568 21.0366 19.47 20.9575 19.5945 20.832C19.6284 20.798 19.6624 20.7641 19.6973 20.7291C19.7513 20.6744 19.7513 20.6744 19.8063 20.6185C19.8436 20.581 19.8809 20.5435 19.9194 20.5049C20.0383 20.3854 20.1568 20.2654 20.2754 20.1455C20.356 20.0643 20.4367 19.9831 20.5174 19.902C20.715 19.7032 20.9123 19.504 21.1094 19.3047C21.013 19.0979 20.8935 18.9676 20.73 18.8072C20.7037 18.7812 20.6774 18.7551 20.6503 18.7284C20.5666 18.6456 20.4826 18.5633 20.3984 18.481C20.3144 18.3984 20.2304 18.3158 20.1466 18.233C20.0706 18.1579 19.9943 18.0832 19.918 18.0084C19.7563 17.8407 19.6711 17.7284 19.6661 17.4962C19.6733 17.1912 19.7864 16.9561 19.9199 16.6865C19.9656 16.5906 20.0111 16.4946 20.0564 16.3986C20.0889 16.3301 20.0889 16.3301 20.122 16.2602C20.2139 16.0573 20.283 15.8483 20.3465 15.6351C20.418 15.4921 20.4659 15.4768 20.6172 15.4219C20.7796 15.4036 20.9417 15.4015 21.1051 15.3992C21.1468 15.3983 21.1885 15.3973 21.2315 15.3963C21.3867 15.3929 21.542 15.3903 21.6973 15.3877C22.0447 15.3809 22.3921 15.3742 22.75 15.3672C22.75 14.4648 22.75 13.5625 22.75 12.6328C22.058 12.6192 22.058 12.6192 21.3659 12.6067C21.279 12.6047 21.192 12.6028 21.1051 12.6008C21.0377 12.5998 21.0377 12.5998 20.9689 12.5989C20.5498 12.5883 20.5498 12.5883 20.3984 12.4687C20.3378 12.3655 20.3378 12.3655 20.291 12.24C20.2733 12.194 20.2557 12.1481 20.2375 12.1007C20.2195 12.0519 20.2016 12.003 20.1831 11.9526C20.1451 11.8526 20.107 11.7526 20.0688 11.6527C20.0505 11.6046 20.0322 11.5565 20.0133 11.5069C19.9493 11.3458 19.8745 11.1915 19.7969 11.0366C19.6808 10.7797 19.5989 10.5589 19.6875 10.2812C19.8006 10.108 19.939 9.96768 20.0873 9.82415C20.1995 9.71515 20.3094 9.60411 20.4194 9.49298C20.6482 9.26231 20.8784 9.03312 21.1094 8.80469C21.0366 8.64321 20.9575 8.52996 20.832 8.40548C20.798 8.37155 20.7641 8.33763 20.7291 8.30268C20.6926 8.26672 20.6561 8.23077 20.6185 8.19372C20.581 8.1564 20.5435 8.11909 20.5049 8.08063C20.3854 7.9617 20.2654 7.84315 20.1455 7.72461C20.0643 7.64396 19.9831 7.56328 19.902 7.48257C19.7032 7.28497 19.504 7.08771 19.3047 6.89062C19.0979 6.98699 18.9676 7.10647 18.8072 7.27002C18.7812 7.29631 18.7551 7.3226 18.7284 7.34969C18.6456 7.43339 18.5633 7.51745 18.481 7.60156C18.3984 7.68563 18.3158 7.76961 18.233 7.85344C18.1579 7.92945 18.0832 8.00572 18.0084 8.082C17.84 8.24443 17.748 8.30811 17.5137 8.34326C17.2231 8.33716 16.9904 8.21685 16.7361 8.08932C16.4357 7.93898 16.1295 7.82252 15.8103 7.71807C15.5515 7.628 15.5515 7.628 15.4671 7.5177C15.3981 7.31207 15.4022 7.11052 15.3992 6.8949C15.3983 6.85319 15.3973 6.81148 15.3963 6.76851C15.3929 6.61326 15.3903 6.458 15.3877 6.30273C15.3809 5.95533 15.3742 5.60793 15.3672 5.25C14.4648 5.25 13.5625 5.25 12.6328 5.25Z" fill="#0077FF"/>
<path d="M25.7414 5.78406C25.785 5.79911 25.8287 5.81417 25.8736 5.82968C25.9652 5.86144 26.0567 5.89344 26.1481 5.92566C26.2875 5.97457 26.4273 6.02215 26.5671 6.06967C26.6565 6.10085 26.7458 6.13211 26.8351 6.16345C26.8766 6.17742 26.9181 6.19139 26.9608 6.20578C27.2182 6.29824 27.3855 6.39951 27.5625 6.61719C27.6236 6.83118 27.641 6.94493 27.5522 7.15039C27.3821 7.36167 27.3821 7.36167 27.2344 7.4375C26.9162 7.46402 26.6665 7.40877 26.3594 7.32813C26.3852 7.37275 26.4111 7.41737 26.4378 7.46335C27.1965 8.80773 27.6668 10.3432 27.8906 11.8672C27.9003 11.9329 27.9099 11.9987 27.9199 12.0665C28.0076 12.7072 28.0219 13.3437 28.0205 13.9897C28.0205 14.0706 28.0205 14.0706 28.0204 14.1531C28.0114 17.7101 26.6422 21.1148 24.1719 23.6797C24.1373 23.7157 24.1027 23.7518 24.0671 23.789C23.5669 24.308 23.0582 24.7851 22.4766 25.2109C22.4168 25.2559 22.3571 25.3009 22.2973 25.3459C20.5901 26.616 18.6053 27.452 16.5156 27.8359C16.4715 27.8447 16.4275 27.8535 16.3821 27.8626C14.8533 28.1593 13.0649 28.1357 11.5391 27.8359C11.4901 27.8271 11.4411 27.8183 11.3906 27.8093C9.50868 27.4688 7.711 26.7194 6.12158 25.6587C6.08544 25.6351 6.04929 25.6115 6.01205 25.5872C5.79269 25.4357 5.67292 25.3045 5.57812 25.0469C5.57812 24.8131 5.61049 24.6968 5.74219 24.5034C5.96427 24.3507 6.13532 24.3522 6.39844 24.3906C6.55077 24.4524 6.67809 24.5387 6.81201 24.6333C6.88853 24.684 6.96515 24.7346 7.04187 24.785C7.0804 24.8106 7.11892 24.8363 7.15862 24.8627C8.61681 25.8129 10.2663 26.3981 11.9766 26.6875C12.0166 26.6943 12.0566 26.7011 12.0978 26.7081C12.3482 26.7489 12.5988 26.7767 12.8516 26.7969C12.9181 26.8024 12.9181 26.8024 12.986 26.808C16.3512 27.0662 19.7416 25.9794 22.3125 23.7891C22.5555 23.5766 22.7907 23.3564 23.0234 23.1328C23.097 23.0626 23.097 23.0626 23.1721 22.991C23.4958 22.6753 23.7857 22.3417 24.0625 21.9844C24.0854 21.955 24.1083 21.9257 24.1319 21.8954C26.2609 19.1461 27.1669 15.6739 26.7349 12.229C26.5325 10.8678 26.1118 8.61182 25.1016 7.60156C25.0717 7.69747 25.0717 7.69747 25.0413 7.79532C25.0136 7.88 24.9858 7.96467 24.958 8.04932C24.9387 8.11239 24.9387 8.11239 24.9189 8.17674C24.8182 8.47764 24.713 8.63012 24.4453 8.80469C24.2779 8.85342 24.1878 8.8304 24.0078 8.80469C23.8541 8.7066 23.7612 8.6396 23.6797 8.47656C23.6396 8.11097 23.717 7.80519 23.8395 7.46356C23.856 7.41609 23.8724 7.36863 23.8894 7.31972C23.9242 7.22023 23.9593 7.12088 23.9948 7.02166C24.049 6.86976 24.1015 6.71736 24.1539 6.56485C24.188 6.4679 24.2222 6.37099 24.2565 6.27411C24.2721 6.22865 24.2877 6.18319 24.3038 6.13636C24.4456 5.74549 24.4456 5.74549 24.6641 5.63281C25.0226 5.51331 25.3984 5.66392 25.7414 5.78406Z" fill="#0077FF"/>
<path d="M13.9795 -0.0170897C14.0325 -0.01699 14.0856 -0.0168903 14.1402 -0.0167876C14.9251 -0.0143052 15.6887 0.0133311 16.4609 0.164063C16.5345 0.177267 16.5345 0.177267 16.6096 0.190739C18.5367 0.539451 20.378 1.31325 21.9878 2.42676C22.0352 2.45896 22.0352 2.45896 22.0836 2.49182C22.2687 2.6248 22.3648 2.73114 22.4219 2.95313C22.4178 3.18178 22.3875 3.30517 22.2612 3.49658C22.0579 3.63353 21.9337 3.65575 21.6917 3.64227C21.4743 3.59289 21.3341 3.48046 21.1594 3.34576C19.1487 1.84181 16.5145 1.17707 14.0376 1.18262C13.9874 1.18265 13.9371 1.18268 13.8854 1.18271C13.0319 1.18502 12.2117 1.24114 11.375 1.42188C11.3206 1.43359 11.2662 1.44531 11.2102 1.45739C9.30073 1.88462 7.47247 2.74651 5.96094 3.99219C5.91544 4.02936 5.91544 4.02936 5.86903 4.06728C5.1588 4.65066 4.49631 5.2838 3.9375 6.01562C3.91492 6.04467 3.89235 6.07371 3.86909 6.10364C1.73926 8.85303 0.833154 12.3255 1.26513 15.771C1.47072 17.1536 1.87051 19.3705 2.89844 20.3984C2.92826 20.3025 2.92826 20.3025 2.95868 20.2047C2.9864 20.12 3.01417 20.0353 3.04199 19.9507C3.05489 19.9086 3.06779 19.8666 3.08109 19.8233C3.18182 19.5224 3.28699 19.3699 3.55469 19.1953C3.72209 19.1466 3.81219 19.1696 3.99219 19.1953C4.14586 19.2934 4.2388 19.3604 4.32031 19.5234C4.36036 19.889 4.28301 20.1948 4.16052 20.5364C4.14405 20.5839 4.12757 20.6314 4.1106 20.6803C4.07585 20.7798 4.04072 20.8791 4.00522 20.9783C3.95104 21.1302 3.89849 21.2826 3.84607 21.4351C3.81199 21.5321 3.77781 21.629 3.74353 21.7259C3.72791 21.7713 3.7123 21.8168 3.6962 21.8636C3.63327 22.0371 3.58133 22.1734 3.45744 22.3116C3.11066 22.4703 2.84153 22.4112 2.50046 22.2914C2.45834 22.2772 2.41622 22.2631 2.37282 22.2485C2.28413 22.2186 2.19557 22.1883 2.10714 22.1576C1.97303 22.1111 1.83856 22.0659 1.70397 22.0208C1.61739 21.9914 1.53083 21.962 1.44431 21.9325C1.4047 21.9191 1.3651 21.9057 1.32429 21.8919C0.619756 21.6463 0.619756 21.6463 0.434083 21.3931C0.37001 21.1752 0.370278 21.0534 0.437501 20.8359C0.621958 20.6245 0.698092 20.5712 0.97754 20.5352C1.14401 20.5452 1.28113 20.5855 1.43598 20.6462C1.47455 20.6612 1.51311 20.6762 1.55285 20.6916C1.5963 20.7089 1.5963 20.7089 1.64063 20.7266C1.62498 20.6956 1.60933 20.6647 1.59322 20.6328C0.661242 18.775 -0.000374059 16.7524 -0.0111074 14.6556C-0.0114935 14.6051 -0.0118796 14.5547 -0.0122773 14.5027C-0.0247672 12.3915 -0.0247672 12.3915 0.164063 11.4844C0.174929 11.431 0.185794 11.3776 0.196988 11.3226C0.750524 8.67681 1.94909 6.27126 3.82813 4.32031C3.8627 4.28425 3.89726 4.2482 3.93288 4.21104C4.43297 3.69216 4.94142 3.21419 5.52344 2.78906C5.58639 2.74214 5.64933 2.69521 5.71228 2.64828C6.16015 2.31811 6.62514 2.02373 7.10938 1.75C7.14805 1.72801 7.18673 1.70601 7.22657 1.68335C8.65652 0.878279 10.2436 0.347856 11.8672 0.109375C11.9331 0.0996776 11.9989 0.0899801 12.0668 0.0799886C12.7043 -0.00745511 13.3367 -0.0196001 13.9795 -0.0170897Z" fill="#0077FF"/>
<path d="M17.4453 9.95313C17.4822 9.98273 17.5191 10.0123 17.557 10.0428C18.544 10.8599 19.1729 12.1671 19.2976 13.4356C19.387 15.0438 18.9413 16.4109 17.8896 17.647C16.9598 18.6617 15.6155 19.2499 14.2491 19.3134C12.7154 19.348 11.3673 18.8191 10.233 17.7796C9.2302 16.7787 8.71343 15.4371 8.68164 14.0342C8.6821 12.7267 9.11463 11.559 9.95312 10.5547C9.9828 10.5177 10.0125 10.4807 10.0431 10.4425C10.861 9.45605 12.1668 8.82713 13.4356 8.70236C14.9213 8.61982 16.2945 8.97883 17.4453 9.95313ZM11.0469 11.1016C11.0045 11.1426 10.9621 11.1836 10.9185 11.2259C10.1475 12.022 9.82154 13.0789 9.832 14.1739C9.89326 15.2632 10.3453 16.1834 11.1016 16.9531C11.1631 17.0167 11.1631 17.0167 11.2259 17.0815C12.022 17.8525 13.0789 18.1785 14.1739 18.168C15.2632 18.1067 16.1833 17.6547 16.9531 16.8984C16.9955 16.8574 17.0379 16.8164 17.0815 16.7741C17.8525 15.978 18.1785 14.9211 18.168 13.8261C18.1067 12.7368 17.6547 11.8167 16.8984 11.0469C16.8574 11.0045 16.8164 10.9621 16.7741 10.9185C15.978 10.1475 14.9211 9.82154 13.8261 9.832C12.7368 9.89326 11.8167 10.3453 11.0469 11.1016Z" fill="#0077FF"/>
<path d="M14.2734 10.9922C14.423 11.1019 14.53 11.1877 14.5705 11.3748C14.5785 11.5077 14.5776 11.6378 14.5736 11.7708C14.5732 11.819 14.5728 11.8672 14.5724 11.9168C14.5709 12.0701 14.5674 12.2232 14.564 12.3765C14.5626 12.4806 14.5613 12.5847 14.5602 12.6889C14.5572 12.9437 14.5525 13.1984 14.5469 13.4531C14.6193 13.451 14.6193 13.451 14.6931 13.4488C14.873 13.4441 15.0529 13.4407 15.2328 13.4381C15.3105 13.4367 15.3882 13.4349 15.4659 13.4325C15.5779 13.4292 15.6899 13.4276 15.8019 13.4264C15.8692 13.425 15.9365 13.4236 16.0059 13.4221C16.2386 13.4619 16.3164 13.5437 16.4609 13.7266C16.5271 13.9541 16.5312 14.0682 16.4473 14.2905C16.3516 14.4375 16.3516 14.4375 16.1875 14.5469C16.0762 14.5619 16.0762 14.5619 15.9473 14.5636C15.8989 14.5645 15.8506 14.5654 15.8007 14.5663C15.7225 14.5667 15.7225 14.5667 15.6428 14.5672C15.589 14.5677 15.5353 14.5682 15.4799 14.5687C15.3662 14.5695 15.2524 14.5699 15.1387 14.5701C14.9649 14.5708 14.7912 14.5735 14.6174 14.5762C14.5069 14.5768 14.3963 14.5772 14.2858 14.5774C14.2339 14.5785 14.182 14.5796 14.1285 14.5807C13.8984 14.5791 13.7597 14.5657 13.5572 14.4504C13.3952 14.175 13.4141 13.9124 13.4168 13.5984C13.4165 13.5327 13.4163 13.4669 13.416 13.3992C13.4158 13.2604 13.4163 13.1216 13.4175 12.9828C13.4189 12.7703 13.4175 12.558 13.4157 12.3455C13.4159 12.2106 13.4163 12.0756 13.4168 11.9407C13.4163 11.8772 13.4157 11.8136 13.4151 11.7482C13.4215 11.3087 13.4215 11.3087 13.5819 11.0901C13.8292 10.9227 13.9864 10.9229 14.2734 10.9922Z" fill="#0077FF"/>
</g>
<defs>
<clipPath id="clip0_2_12">
<rect width="28" height="28" fill="white"/>
</clipPath>
</defs>
</svg>
