<svg width="28" height="28" viewBox="0 0 28 28" fill="none" xmlns="http://www.w3.org/2000/svg">
<g clip-path="url(#clip0_2_94)">
<path d="M16.425 5.40039C17.3235 6.16145 17.8752 7.07842 17.9802 8.26102C18.0412 9.36023 17.7173 10.3527 17.0114 11.1981C16.841 11.3824 16.6565 11.5461 16.4609 11.7031C16.4955 11.7132 16.53 11.7233 16.5656 11.7337C17.7313 12.1116 18.6082 13.0666 19.4483 13.9136C19.5756 14.0419 19.7033 14.1698 19.8312 14.2976C19.9137 14.3804 19.9962 14.4632 20.0786 14.546C20.1161 14.5836 20.1536 14.6211 20.1923 14.6598C20.3693 14.8386 20.5408 15.0197 20.7055 15.21C20.7373 15.2457 20.769 15.2814 20.8017 15.3182C20.8906 15.4219 20.8906 15.4219 20.9601 15.5209C21.0858 15.6827 21.1741 15.742 21.3787 15.7786C21.5853 15.7906 21.7904 15.7911 21.9972 15.7882C22.0739 15.7884 22.1506 15.7888 22.2273 15.7893C22.4288 15.7904 22.6303 15.7896 22.8319 15.7883C23.1536 15.7864 23.4753 15.7868 23.797 15.7881C23.9085 15.7882 24.02 15.7873 24.1316 15.7862C24.8296 15.7864 25.3051 15.9108 25.8095 16.4001C26.1529 16.7657 26.3047 17.1616 26.3047 17.6641C26.2593 18.1607 26.111 18.6138 25.7578 18.9766C25.1667 19.4523 24.5663 19.4939 23.8309 19.4905C23.7453 19.4907 23.6596 19.4908 23.5739 19.491C23.395 19.4913 23.2162 19.4909 23.0373 19.4901C22.8102 19.4892 22.5831 19.4897 22.356 19.4907C22.1792 19.4913 22.0024 19.4911 21.8256 19.4907C21.7419 19.4906 21.6583 19.4907 21.5747 19.4911C20.8776 19.4936 20.1919 19.439 19.5645 19.1064C19.5099 19.0785 19.5099 19.0785 19.4543 19.0499C19.1234 18.8725 18.8547 18.6444 18.5938 18.375C18.5391 18.3202 18.4845 18.2655 18.4297 18.2109C18.4296 18.2846 18.4296 18.2846 18.4294 18.3598C18.4274 19.5542 18.4242 20.7486 18.4196 21.943C18.4175 22.5207 18.4157 23.0983 18.4149 23.6759C18.4142 24.1792 18.4127 24.6826 18.4103 25.1859C18.4091 25.4525 18.4082 25.7191 18.4083 25.9857C18.4083 26.2366 18.4073 26.4874 18.4056 26.7382C18.4051 26.8304 18.405 26.9225 18.4053 27.0147C18.4057 27.1403 18.4047 27.2659 18.4034 27.3916C18.4032 27.462 18.403 27.5324 18.4028 27.6049C18.375 27.7813 18.375 27.7812 18.2758 27.9133C18.1011 28.04 17.9838 28.03 17.7734 28C17.6537 27.9275 17.6537 27.9275 17.5547 27.7812C17.5223 27.5757 17.5271 27.3717 17.5299 27.164C17.5298 27.1 17.5298 27.0361 17.5298 26.9701C17.5299 26.7628 17.5316 26.5556 17.5333 26.3483C17.5336 26.2204 17.5339 26.0924 17.534 25.9645C17.5351 25.49 17.5382 25.0155 17.541 24.541C17.5455 23.4808 17.55 22.4205 17.5547 21.3281C15.2086 21.3281 12.8625 21.3281 10.4453 21.3281C10.454 23.442 10.454 23.442 10.465 25.5559C10.466 25.9645 10.466 25.9645 10.4662 26.1558C10.4665 26.2895 10.4673 26.4232 10.4684 26.5569C10.47 26.7593 10.4702 26.9616 10.4701 27.164C10.4709 27.2237 10.4717 27.2834 10.4725 27.3449C10.4703 27.7461 10.4703 27.7461 10.3413 27.9274C10.1429 28.0529 10.0208 28.0294 9.78906 28C9.65046 27.8723 9.62639 27.7929 9.60396 27.6049C9.60358 27.4993 9.60358 27.4993 9.60319 27.3916C9.60283 27.3524 9.60247 27.3131 9.60209 27.2726C9.60107 27.141 9.60122 27.0095 9.60135 26.8779C9.60086 26.7836 9.6003 26.6893 9.59967 26.5949C9.59816 26.3388 9.59765 26.0827 9.59732 25.8265C9.59681 25.5589 9.59538 25.2913 9.59404 25.0236C9.59165 24.5168 9.59009 24.0099 9.58883 23.503C9.58735 22.926 9.58495 22.349 9.58247 21.772C9.57739 20.585 9.57347 19.398 9.57031 18.2109C9.53313 18.2488 9.49595 18.2866 9.45764 18.3256C9.40867 18.3751 9.35969 18.4246 9.30924 18.4755C9.23655 18.5492 9.23655 18.5492 9.16238 18.6244C8.54467 19.2176 7.6611 19.4729 6.82252 19.4776C6.78494 19.4778 6.74736 19.4781 6.70863 19.4784C6.58551 19.4792 6.46239 19.4796 6.33926 19.4799C6.29686 19.48 6.25445 19.4802 6.21076 19.4803C5.98638 19.4811 5.76201 19.4817 5.53763 19.4819C5.30724 19.4822 5.07687 19.4835 4.84649 19.4851C4.66806 19.4861 4.48963 19.4864 4.3112 19.4864C4.22632 19.4866 4.14145 19.487 4.05658 19.4878C3.36292 19.4933 2.80291 19.4439 2.26611 18.9595C1.89896 18.5547 1.70315 18.1651 1.69531 17.6094C1.74632 17.041 1.92117 16.6267 2.33597 16.2328C2.72757 15.9195 3.12685 15.7945 3.62317 15.8039C3.72507 15.8054 3.72507 15.8054 3.82903 15.807C3.86508 15.8076 3.90114 15.8082 3.93829 15.8088C4.17175 15.8122 4.40525 15.8122 4.63874 15.8128C4.84302 15.8135 5.04716 15.8154 5.2514 15.8199C6.24676 15.892 6.24676 15.892 7.11821 15.5321C7.21466 15.4248 7.29811 15.3111 7.37455 15.1887C7.60763 14.8371 7.92942 14.538 8.22556 14.2399C8.26325 14.2019 8.30095 14.1639 8.3398 14.1247C8.41918 14.0448 8.49864 13.965 8.57818 13.8852C8.69748 13.7654 8.81619 13.645 8.93489 13.5246C9.67106 12.7828 10.4967 11.968 11.5391 11.7031C11.5126 11.6818 11.486 11.6605 11.4587 11.6386C10.6069 10.9276 10.1296 9.97074 10.0181 8.87305C9.96167 7.75734 10.2846 6.74047 11.0317 5.89941C12.4244 4.39875 14.7872 4.12864 16.425 5.40039ZM11.6363 6.47406C11.0764 7.14169 10.7747 7.94288 10.8418 8.81921C10.9646 9.74456 11.3682 10.4981 12.0859 11.1016C12.8087 11.6248 13.616 11.794 14.4922 11.7031C15.3402 11.5572 16.0788 11.1115 16.5815 10.4077C17.0781 9.65632 17.2661 8.83359 17.1054 7.94208C16.8865 7.04218 16.3685 6.33251 15.5928 5.83447C14.268 5.08343 12.6683 5.36762 11.6363 6.47406ZM9.29688 14.3281C9.24792 14.3757 9.24792 14.3757 9.19797 14.4243C8.90129 14.714 8.61295 15.0079 8.3439 15.3238C8.22587 15.4583 8.09842 15.5819 7.9707 15.7071C7.83942 15.841 7.71948 15.9836 7.59985 16.1279C7.54656 16.1845 7.54656 16.1845 7.49219 16.2422C7.4708 16.2691 7.44941 16.296 7.42737 16.3238C7.21583 16.5516 7.03854 16.5952 6.73062 16.61C6.57766 16.6123 6.42493 16.6106 6.27197 16.6086C6.19006 16.6088 6.10815 16.6091 6.02624 16.6096C5.81132 16.6107 5.59645 16.6099 5.38153 16.6086C5.03763 16.6067 4.69374 16.6071 4.34984 16.6084C4.23026 16.6085 4.11073 16.6076 3.99116 16.6065C3.91723 16.6065 3.84331 16.6065 3.76938 16.6066C3.70532 16.6062 3.64126 16.6058 3.57526 16.6054C3.2464 16.6403 2.97285 16.776 2.73438 17.0078C2.5837 17.2554 2.48056 17.4903 2.53955 17.7826C2.62529 18.0735 2.73348 18.2747 2.95312 18.4844C3.22087 18.6202 3.41609 18.6691 3.72039 18.6697C3.75673 18.67 3.79307 18.6702 3.83051 18.6705C3.94957 18.6713 4.06859 18.6708 4.18765 18.6702C4.27136 18.6703 4.35507 18.6705 4.43878 18.6707C4.61396 18.6709 4.78914 18.6706 4.96432 18.6698C5.1871 18.6689 5.40984 18.6694 5.63262 18.6704C5.80552 18.671 5.97842 18.6708 6.15132 18.6704C6.23336 18.6703 6.31539 18.6704 6.39742 18.6708C7.59403 18.6752 8.31027 18.3085 9.14715 17.4861C9.23377 17.3991 9.31861 17.3108 9.40262 17.2212C9.44893 17.1722 9.49525 17.1232 9.54297 17.0728C9.58188 17.0295 9.6208 16.9863 9.66089 16.9418C9.83373 16.8096 9.95555 16.7883 10.1719 16.7891C11.0508 17.6679 10.4259 19.265 10.4453 20.5078C12.7914 20.5078 15.1375 20.5078 17.5547 20.5078C17.5727 19.3528 17.5908 18.1978 17.6094 17.0078C17.8281 16.7891 17.8281 16.7891 18.0016 16.7718C18.312 16.8378 18.5104 17.1171 18.7168 17.3394C19.4535 18.1034 20.1344 18.6394 21.2363 18.6643C21.3929 18.6662 21.5494 18.6667 21.706 18.6668C21.7901 18.6672 21.8742 18.6675 21.9583 18.6679C22.1337 18.6686 22.3091 18.6688 22.4846 18.6687C22.7085 18.6687 22.9324 18.6702 23.1563 18.6721C23.3296 18.6733 23.503 18.6735 23.6763 18.6734C23.7589 18.6736 23.8414 18.6741 23.9239 18.6749C24.4613 18.6799 24.8485 18.6662 25.2588 18.2827C25.4247 18.0241 25.5151 17.7874 25.4617 17.478C25.3675 17.1669 25.2355 16.9375 24.9648 16.748C24.721 16.6261 24.5206 16.6194 24.2486 16.6242C24.1744 16.6252 24.1003 16.6263 24.0261 16.6273C23.987 16.6279 23.9478 16.6285 23.9075 16.6291C23.6548 16.6325 23.4021 16.6325 23.1494 16.6331C22.9281 16.6339 22.7069 16.6357 22.4856 16.6402C22.2708 16.6444 22.0561 16.6454 21.8413 16.6442C21.76 16.6444 21.6787 16.6456 21.5975 16.6482C21.1844 16.6603 20.8622 16.6343 20.5517 16.3419C20.42 16.2046 20.2995 16.0619 20.1797 15.9141C20.1104 15.8353 20.0409 15.7566 19.9712 15.6782C19.9421 15.644 19.913 15.6098 19.883 15.5746C19.7943 15.4736 19.7014 15.3794 19.6055 15.2852C19.4802 15.1621 19.3633 15.0364 19.25 14.9023C18.8032 14.3846 18.3041 13.8848 17.7734 13.4531C17.733 13.4193 17.733 13.4193 17.6918 13.3848C16.9278 12.7295 16.9278 12.7295 15.9758 12.5155C15.9127 12.5167 15.8497 12.5178 15.7847 12.519C15.7372 12.5205 15.6896 12.5219 15.6406 12.5234C15.6186 12.5616 15.5967 12.5998 15.574 12.6392C15.377 12.9814 15.1797 13.3235 14.9821 13.6654C14.8978 13.8112 14.8136 13.957 14.7295 14.103C14.6541 14.234 14.5783 14.3649 14.5024 14.4956C14.4805 14.5339 14.4585 14.5722 14.4359 14.6117C14.286 14.8687 14.286 14.8687 14.1641 14.9297C14.0068 14.9468 14.0068 14.9468 13.8359 14.9297C13.6696 14.7879 13.5645 14.6375 13.4595 14.4471C13.431 14.3958 13.4024 14.3444 13.373 14.2915C13.3431 14.237 13.3131 14.1826 13.2822 14.1265C13.2507 14.0708 13.2192 14.0151 13.1867 13.9577C13.0388 13.6959 12.895 13.4338 12.7631 13.1635C12.5609 12.7292 12.5609 12.7292 12.1906 12.4551C11.0597 12.3906 10.0364 13.6089 9.29688 14.3281ZM13.2891 12.5234C13.3567 12.6419 13.4244 12.7603 13.4941 12.8823C13.6445 13.1455 13.7949 13.4087 13.9453 13.6719C14.1393 13.6072 14.1496 13.5738 14.2431 13.4004C14.279 13.3347 14.279 13.3347 14.3155 13.2678C14.3522 13.1988 14.3522 13.1988 14.3896 13.1284C14.4145 13.0826 14.4394 13.0368 14.4651 12.9897C14.5488 12.8351 14.6323 12.6807 14.7109 12.5234C14.2417 12.5234 13.7725 12.5234 13.2891 12.5234Z" fill="#0077FF"/>
<path d="M25.1631 8.71539C25.8062 9.21853 26.1622 9.97739 26.2739 10.77C26.3735 11.6442 26.1306 12.4066 25.5995 13.0992C25.0977 13.6885 24.4462 14.0447 23.6797 14.1641C22.7248 14.2184 21.9314 14.0364 21.1852 13.4108C20.6908 12.9496 20.3459 12.3749 20.2344 11.7031C20.227 11.659 20.2197 11.6149 20.2122 11.5694C20.1136 10.801 20.2813 9.97451 20.7539 9.35156C20.9004 9.17822 21.052 9.0136 21.2188 8.85938C21.2454 8.83308 21.272 8.80679 21.2995 8.77969C22.3883 7.76059 24.001 7.96772 25.1631 8.71539ZM21.4685 9.77902C21.0988 10.2943 20.9463 10.8618 21.0308 11.4946C21.15 12.0618 21.4328 12.5296 21.875 12.9063C22.4427 13.2708 22.9531 13.3945 23.625 13.3438C24.2891 13.1947 24.8157 12.8014 25.1821 12.2348C25.4661 11.724 25.539 11.1713 25.4196 10.6008C25.2534 10.0217 24.9085 9.54884 24.4009 9.22168C23.3909 8.66486 22.2029 8.87759 21.4685 9.77902Z" fill="#0077FF"/>
<path d="M6.67871 8.71539C7.32178 9.21853 7.67784 9.97739 7.78955 10.77C7.8891 11.6442 7.64624 12.4066 7.11514 13.0992C6.61334 13.6885 5.96179 14.0447 5.19531 14.1641C4.24045 14.2184 3.44705 14.0364 2.70084 13.4108C2.20646 12.9496 1.86154 12.3749 1.75 11.7031C1.74267 11.659 1.73534 11.6149 1.72778 11.5694C1.62922 10.801 1.79691 9.97451 2.26953 9.35156C2.41604 9.17822 2.56765 9.0136 2.73438 8.85938C2.76102 8.83308 2.78767 8.80679 2.81512 8.77969C3.90389 7.76059 5.51661 7.96772 6.67871 8.71539ZM2.9841 9.77902C2.61443 10.2943 2.4619 10.8618 2.54639 11.4946C2.66563 12.0618 2.94842 12.5296 3.39063 12.9063C3.95832 13.2708 4.46877 13.3945 5.14063 13.3438C5.80475 13.1947 6.33132 12.8014 6.69772 12.2348C6.9817 11.724 7.05461 11.1713 6.93527 10.6008C6.76902 10.0217 6.42417 9.54884 5.9165 9.22168C4.9065 8.66486 3.71854 8.87759 2.9841 9.77902Z" fill="#0077FF"/>
<path d="M21.3931 0.365723C22.118 0.838019 22.6123 1.45863 22.8254 2.30713C22.9687 3.1864 22.8402 3.99437 22.3672 4.75781C21.847 5.44872 21.1596 5.88306 20.3096 6.03613C19.5227 6.13096 18.6879 5.98084 18.0469 5.49609C17.973 5.43346 17.8999 5.36979 17.8281 5.30469C17.7808 5.26183 17.7334 5.21897 17.6846 5.17481C17.0801 4.5067 16.7523 3.7738 16.7722 2.86212C16.8543 1.97424 17.205 1.19768 17.8996 0.615582C18.9155 -0.13796 20.285 -0.248146 21.3931 0.365723ZM18.1013 1.6073C17.708 2.14268 17.5313 2.71461 17.6327 3.3793C17.7764 4.06115 18.1367 4.56806 18.7162 4.9473C19.2121 5.22733 19.8032 5.31867 20.3591 5.18869C20.9942 4.98339 21.5029 4.64055 21.8169 4.04004C21.856 3.95183 21.8938 3.86301 21.9297 3.77344C21.9534 3.71479 21.9771 3.65613 22.0015 3.5957C22.1146 2.97837 22.0704 2.37393 21.7359 1.83203C21.3699 1.33624 20.9088 0.937323 20.2891 0.820313C19.4265 0.756354 18.684 0.912172 18.1013 1.6073Z" fill="#0077FF"/>
<path d="M9.86426 0.451172C10.6351 1.04559 11.0487 1.72754 11.2109 2.67969C11.3065 3.46823 11.0525 4.22381 10.6094 4.86719C10.5502 4.95347 10.5502 4.95347 10.4897 5.0415C9.81219 5.71906 9.04218 6.03316 8.09375 6.07031C7.20367 6.0328 6.45441 5.66227 5.83789 5.02441C5.21568 4.28442 5.07427 3.45292 5.14063 2.51563C5.25582 1.72571 5.70059 1.02395 6.32944 0.541321C7.38606 -0.161102 8.78105 -0.260459 9.86426 0.451172ZM6.4668 1.5791C6.01685 2.11719 5.91238 2.70002 5.96094 3.39063C6.05392 3.95321 6.38692 4.46364 6.83594 4.8125C7.43731 5.18642 7.97796 5.30638 8.67566 5.18527C9.26824 5.04126 9.75057 4.68004 10.083 4.16992C10.4182 3.56477 10.4642 2.95838 10.2868 2.302C10.0981 1.77195 9.74983 1.32942 9.25052 1.06641C8.24239 0.598869 7.23048 0.753941 6.4668 1.5791Z" fill="#0077FF"/>
<path d="M14.2188 22.75C14.3359 22.8256 14.3691 22.8735 14.4132 23.0037C14.447 23.1836 14.446 23.3617 14.4463 23.544C14.4466 23.5851 14.4469 23.6262 14.4471 23.6686C14.4479 23.8043 14.4483 23.94 14.4486 24.0757C14.4489 24.1703 14.4492 24.2648 14.4496 24.3594C14.4501 24.5575 14.4504 24.7556 14.4506 24.9538C14.4509 25.2073 14.4523 25.4608 14.4538 25.7143C14.4548 25.9096 14.4551 26.1048 14.4552 26.3001C14.4554 26.3936 14.4558 26.487 14.4565 26.5805C14.4575 26.7113 14.4573 26.8422 14.457 26.9731C14.4575 27.0115 14.458 27.0498 14.4585 27.0893C14.4564 27.3403 14.4116 27.5162 14.2734 27.7266C14.0788 27.7832 13.9538 27.8029 13.7607 27.7368C13.6719 27.6719 13.6719 27.6719 13.6172 27.5625C13.6112 27.4165 13.6086 27.272 13.6084 27.126C13.6081 27.0809 13.6078 27.0358 13.6076 26.9893C13.6068 26.8398 13.6064 26.6903 13.6061 26.5407C13.6058 26.4371 13.6055 26.3334 13.6051 26.2297C13.6046 26.0122 13.6042 25.7947 13.604 25.5772C13.6037 25.2982 13.6024 25.0192 13.6009 24.7401C13.5999 24.526 13.5996 24.3118 13.5995 24.0976C13.5993 23.9947 13.5989 23.8918 13.5982 23.7889C13.5972 23.6452 13.5973 23.5014 13.5977 23.3577C13.5972 23.315 13.5967 23.2723 13.5962 23.2283C13.5984 22.9406 13.5984 22.9406 13.6938 22.8057C13.8575 22.7014 14.0325 22.7212 14.2188 22.75Z" fill="#0077FF"/>
<path d="M21.1641 1.75C21.2998 1.87219 21.3253 1.94211 21.3444 2.12384C21.3245 2.33597 21.2686 2.4072 21.1299 2.56689C21.0853 2.6185 21.0408 2.6701 20.9949 2.72327C20.7499 2.99544 20.4995 3.26265 20.248 3.52884C20.0815 3.70561 19.9212 3.88677 19.7657 4.07336C19.6079 4.24068 19.531 4.31707 19.2923 4.3295C18.9983 4.23849 18.8381 4.06368 18.6279 3.84521C18.5884 3.80648 18.5488 3.76774 18.5081 3.72783C18.154 3.36807 18.154 3.36807 18.1562 3.0625C18.2003 2.91837 18.2412 2.86207 18.3613 2.77197C18.5456 2.71567 18.627 2.72606 18.8125 2.78906C18.9868 2.92459 19.1467 3.07245 19.3047 3.22656C19.528 3.00617 19.7435 2.77925 19.9575 2.5498C19.9901 2.51512 20.0226 2.48044 20.0561 2.4447C20.2441 2.24338 20.4249 2.03901 20.5977 1.82442C20.769 1.65265 20.9487 1.69166 21.1641 1.75Z" fill="#0077FF"/>
<path d="M9.46094 1.75C9.56006 1.80811 9.56006 1.80811 9.625 1.91406C9.66385 2.29543 9.66385 2.29543 9.51071 2.51669C9.45932 2.5671 9.40793 2.6175 9.35498 2.66943C9.29908 2.72605 9.24333 2.7828 9.18771 2.83969C9.15981 2.86779 9.1319 2.89589 9.10315 2.92485C8.98637 3.04639 8.88219 3.17673 8.77734 3.30859C8.59554 3.5321 8.41286 3.75442 8.22363 3.97168C8.20005 4.0002 8.17647 4.02871 8.15218 4.05809C8.01826 4.20898 7.92871 4.2659 7.73294 4.32117C7.54688 4.32031 7.54688 4.32031 7.43301 4.25922C7.40178 4.22749 7.37055 4.19577 7.33838 4.16309C7.30243 4.12805 7.26647 4.09301 7.22943 4.05692C7.18981 4.01751 7.15019 3.9781 7.10938 3.9375C7.01056 3.84943 6.91144 3.7617 6.81201 3.67432C6.51818 3.41368 6.51818 3.41368 6.4873 3.18213C6.50781 3.00781 6.50781 3.00781 6.62061 2.84717C6.78125 2.73438 6.78125 2.73438 6.9624 2.71729C7.24613 2.81827 7.4059 3.00346 7.60156 3.22656C7.92798 2.96265 8.20099 2.66755 8.47656 2.35156C8.51308 2.30976 8.5496 2.26796 8.58722 2.22488C8.65062 2.15226 8.71387 2.0795 8.77692 2.00656C8.99211 1.76517 9.12613 1.64956 9.46094 1.75Z" fill="#0077FF"/>
<path d="M24.5 9.84375C24.6299 9.9292 24.6299 9.9292 24.7188 10.0625C24.7515 10.3096 24.7386 10.4157 24.5983 10.6252C24.5437 10.6869 24.4881 10.7476 24.4316 10.8076C24.4022 10.8403 24.3728 10.8731 24.3425 10.9068C24.2501 11.0091 24.1564 11.1101 24.0625 11.2109C24.0037 11.275 23.945 11.3391 23.8863 11.4032C23.7762 11.5231 23.6655 11.6426 23.5545 11.7617C23.3961 11.9328 23.2418 12.1069 23.0894 12.2833C22.9768 12.4131 22.9768 12.4131 22.7697 12.4388C22.5754 12.4362 22.4832 12.3977 22.3407 12.2662C22.28 12.2027 22.2205 12.138 22.1621 12.0723C22.117 12.0242 22.117 12.0242 22.0709 11.9751C22.0127 11.9129 21.955 11.8503 21.8979 11.7871C21.8321 11.7159 21.7621 11.6488 21.6913 11.5826C21.6016 11.4844 21.6016 11.4844 21.5742 11.293C21.6016 11.1016 21.6016 11.1016 21.6904 10.9683C21.8203 10.8828 21.8203 10.8828 21.9707 10.8452C22.2038 10.8945 22.3164 11.0089 22.4857 11.1712C22.5908 11.2754 22.5908 11.2754 22.75 11.375C23.0957 10.9925 23.0957 10.9925 23.437 10.606C23.4823 10.5541 23.4823 10.5541 23.5284 10.5013C23.5997 10.4196 23.6709 10.3378 23.7421 10.256C23.7813 10.2113 23.8205 10.1667 23.8608 10.1206C23.8967 10.0795 23.9326 10.0384 23.9696 9.99606C24.1341 9.82318 24.2669 9.82044 24.5 9.84375Z" fill="#0077FF"/>
<path d="M6.01562 9.84375C6.14551 9.9292 6.14551 9.9292 6.23438 10.0625C6.26717 10.3096 6.25419 10.4157 6.11389 10.6252C6.05932 10.6869 6.00371 10.7476 5.94727 10.8076C5.91786 10.8403 5.88845 10.8731 5.85814 10.9068C5.76575 11.0091 5.67207 11.1101 5.57812 11.2109C5.51933 11.275 5.46059 11.3391 5.40189 11.4032C5.29178 11.5231 5.18116 11.6426 5.07013 11.7617C4.91177 11.9328 4.75744 12.1069 4.60507 12.2833C4.49247 12.4131 4.49247 12.4131 4.28528 12.4388C4.09106 12.4362 3.99879 12.3977 3.85632 12.2662C3.79564 12.2027 3.73612 12.138 3.67773 12.0723C3.63258 12.0242 3.63258 12.0242 3.58652 11.9751C3.52828 11.9129 3.47058 11.8503 3.41348 11.7871C3.34775 11.7159 3.27772 11.6488 3.20691 11.5826C3.11719 11.4844 3.11719 11.4844 3.08984 11.293C3.11719 11.1016 3.11719 11.1016 3.20605 10.9683C3.33594 10.8828 3.33594 10.8828 3.48633 10.8452C3.71941 10.8945 3.83207 11.0089 4.00137 11.1712C4.10639 11.2754 4.10639 11.2754 4.26562 11.375C4.61135 10.9925 4.61135 10.9925 4.95264 10.606C4.99789 10.5541 4.99789 10.5541 5.04407 10.5013C5.11535 10.4196 5.18654 10.3378 5.25769 10.256C5.29689 10.2113 5.33608 10.1667 5.37646 10.1206C5.41235 10.0795 5.44823 10.0384 5.4852 9.99606C5.64976 9.82318 5.78252 9.82044 6.01562 9.84375Z" fill="#0077FF"/>
</g>
<defs>
<clipPath id="clip0_2_94">
<rect width="28" height="28" fill="white"/>
</clipPath>
</defs>
</svg>
