<svg width="28" height="28" viewBox="0 0 28 28" fill="none" xmlns="http://www.w3.org/2000/svg">
<g clip-path="url(#clip0_2_69)">
<path d="M8.78736 9.65759C8.85589 9.65722 8.92441 9.65684 8.99502 9.65645C9.18192 9.65563 9.36879 9.65554 9.55569 9.65585C9.71224 9.65602 9.86878 9.65568 10.0253 9.65535C10.3949 9.65459 10.7646 9.65467 11.1342 9.65529C11.5143 9.65592 11.8944 9.65515 12.2745 9.65369C12.6019 9.65247 12.9294 9.65211 13.2568 9.65243C13.4519 9.65262 13.647 9.65249 13.842 9.65154C14.0598 9.65053 14.2776 9.65131 14.4954 9.65225C14.5592 9.65172 14.623 9.65119 14.6888 9.65065C15.1418 9.65471 15.5376 9.72383 15.8953 10.0179C15.9285 10.0585 15.9618 10.0992 15.9961 10.1411C16.0305 10.1816 16.0649 10.2222 16.1003 10.2639C16.287 10.5352 16.3122 10.7742 16.3076 11.0975C16.3074 11.1384 16.3072 11.1793 16.3071 11.2214C16.3065 11.3512 16.3051 11.481 16.3037 11.6108C16.3032 11.6992 16.3027 11.7875 16.3022 11.8758C16.301 12.0917 16.2991 12.3076 16.2969 12.5234C16.3432 12.523 16.3895 12.5225 16.4372 12.522C16.8749 12.5176 17.3125 12.5142 17.7502 12.5121C17.9752 12.511 18.2001 12.5094 18.4251 12.5069C18.6425 12.5045 18.8598 12.5032 19.0772 12.5027C19.1599 12.5023 19.2426 12.5015 19.3252 12.5003C19.8364 12.4933 20.2285 12.4974 20.6304 12.8496C21.008 13.3058 21.063 13.704 21.0626 14.2933C21.0629 14.3594 21.0629 14.3594 21.0632 14.4268C21.0637 14.5715 21.0638 14.7162 21.0639 14.8609C21.064 14.9622 21.0642 15.0634 21.0644 15.1647C21.0648 15.3766 21.0649 15.5885 21.0648 15.8004C21.0648 16.071 21.0656 16.3416 21.0665 16.6122C21.0671 16.8213 21.0672 17.0304 21.0672 17.2394C21.0673 17.3392 21.0675 17.4389 21.0679 17.5386C21.0685 17.6785 21.0683 17.8183 21.068 17.9582C21.0683 17.9988 21.0686 18.0394 21.0689 18.0812C21.0661 18.5484 20.9871 18.9996 20.6719 19.3594C20.3496 19.6199 20.0954 19.7501 19.6772 19.7456C19.6178 19.7451 19.5584 19.7446 19.4972 19.7441C19.4517 19.7435 19.4062 19.7428 19.3594 19.7422C19.3605 19.7891 19.3617 19.836 19.3628 19.8843C19.3666 20.0588 19.3693 20.2332 19.3714 20.4078C19.3725 20.4832 19.374 20.5586 19.3759 20.634C19.3785 20.7426 19.3797 20.8512 19.3807 20.9598C19.3819 21.0251 19.383 21.0904 19.3842 21.1577C19.3543 21.3628 19.3044 21.4239 19.1406 21.5469C18.9162 21.6134 18.8063 21.6248 18.5938 21.5229C18.4655 21.4134 18.3673 21.3144 18.2599 21.1871C18.0318 20.9236 17.7859 20.6803 17.5376 20.436C17.45 20.3498 17.3624 20.2634 17.2751 20.1769C17.2368 20.1393 17.1986 20.1017 17.1592 20.063C17.0625 19.9609 17.0625 19.9609 16.9531 19.7969C16.8169 19.781 16.6941 19.7758 16.5578 19.7776C16.4967 19.7774 16.4967 19.7774 16.4344 19.7772C16.3457 19.777 16.257 19.7772 16.1683 19.7778C16.0275 19.7785 15.8868 19.7782 15.7461 19.7775C15.3458 19.7758 14.9455 19.7761 14.5452 19.7772C14.3004 19.7778 14.0556 19.777 13.8108 19.7755C13.7179 19.7752 13.6249 19.7755 13.532 19.7762C12.5496 19.7841 12.5496 19.7841 12.1406 19.4688C11.8168 19.1237 11.6854 18.8114 11.6924 18.3363C11.6926 18.2967 11.6928 18.257 11.6929 18.2161C11.6935 18.0902 11.6949 17.9643 11.6963 17.8384C11.6968 17.7527 11.6973 17.667 11.6978 17.5813C11.699 17.3719 11.7009 17.1625 11.7031 16.9531C11.2379 16.9449 11.2379 16.9449 10.8407 17.1533C10.7836 17.2138 10.7281 17.2759 10.6743 17.3394C10.6444 17.3718 10.6146 17.4043 10.5838 17.4377C10.4994 17.53 10.4174 17.6239 10.3359 17.7188C10.3001 17.7594 10.2642 17.8001 10.2272 17.842C10.1685 17.9092 10.1098 17.9765 10.0514 18.0439C10.019 18.081 9.98654 18.118 9.95313 18.1562C9.90716 18.2091 9.8612 18.262 9.81384 18.3165C9.37919 18.7968 9.37919 18.7968 9.08154 18.8125C8.91156 18.8023 8.8656 18.7642 8.74459 18.6407C8.61843 18.451 8.61514 18.3486 8.61926 18.1227C8.62032 18.0204 8.62032 18.0204 8.6214 17.916C8.62323 17.8453 8.62507 17.7745 8.62695 17.7017C8.62794 17.6299 8.62893 17.5581 8.62994 17.4841C8.63252 17.3071 8.63612 17.1301 8.64063 16.9531C8.60444 16.9541 8.56825 16.9551 8.53097 16.9561C8.05532 16.9637 7.68922 16.8869 7.33154 16.5532C6.97306 16.1585 6.93706 15.7001 6.93737 15.1845C6.93719 15.1399 6.937 15.0953 6.93681 15.0493C6.93629 14.9026 6.93619 14.7558 6.93613 14.609C6.93595 14.5065 6.93577 14.4039 6.93558 14.3013C6.93525 14.0865 6.93515 13.8717 6.93518 13.6569C6.93518 13.3825 6.93444 13.1082 6.9335 12.8339C6.93289 12.622 6.93278 12.4102 6.93281 12.1984C6.93274 12.0973 6.9325 11.9962 6.93208 11.8951C6.93154 11.7532 6.9317 11.6114 6.93203 11.4696C6.93172 11.4284 6.93141 11.3872 6.9311 11.3448C6.93393 10.8595 7.01052 10.4448 7.35739 10.0847C7.7867 9.68572 8.22345 9.65542 8.78736 9.65759ZM8.02883 10.7378C7.86267 10.9808 7.86661 11.193 7.86619 11.477C7.86592 11.5207 7.86565 11.5645 7.86537 11.6096C7.86457 11.7545 7.86419 11.8994 7.86389 12.0443C7.86358 12.145 7.86326 12.2458 7.86295 12.3465C7.86237 12.5579 7.86205 12.7692 7.86186 12.9805C7.86156 13.251 7.86025 13.5215 7.85869 13.792C7.85767 14.0002 7.85739 14.2084 7.85731 14.4165C7.85714 14.5162 7.8567 14.6159 7.85598 14.7156C7.85505 14.8553 7.85515 14.9949 7.85551 15.1346C7.855 15.1756 7.8545 15.2166 7.85398 15.2589C7.85603 15.5175 7.90244 15.6943 8.03906 15.9141C8.19045 16.0216 8.3157 16.0369 8.49878 16.0384C8.54397 16.0395 8.58916 16.0406 8.63571 16.0418C8.73013 16.0432 8.82455 16.0442 8.91898 16.0448C9.124 16.0506 9.25882 16.0549 9.43616 16.1631C9.54419 16.3449 9.55235 16.5145 9.55664 16.7207C9.55826 16.7588 9.55988 16.797 9.56155 16.8363C9.5654 16.9299 9.56798 17.0235 9.57031 17.1172C9.85936 16.8859 10.1052 16.6303 10.3505 16.3544C10.5909 16.0858 10.5909 16.0858 10.7719 16.0669C10.8148 16.0649 10.8578 16.0629 10.902 16.0608C10.9486 16.0585 10.9951 16.0562 11.043 16.0539C11.0917 16.0517 11.1403 16.0496 11.1904 16.0474C11.2395 16.045 11.2886 16.0426 11.3391 16.0402C11.4604 16.0344 11.5818 16.0289 11.7031 16.0234C11.7031 15.8249 11.7031 15.6264 11.7031 15.4219C11.593 15.4202 11.593 15.4202 11.4807 15.4186C11.2084 15.4144 10.936 15.4096 10.6637 15.4045C10.5459 15.4024 10.428 15.4005 10.3101 15.3988C10.1407 15.3963 9.97129 15.3931 9.80188 15.3898C9.74918 15.3892 9.69648 15.3886 9.64218 15.3879C9.59293 15.3868 9.54367 15.3857 9.49293 15.3846C9.4497 15.3839 9.40646 15.3832 9.36192 15.3824C9.22721 15.3653 9.13844 15.3294 9.02344 15.2578C8.93825 15.0874 8.93786 14.8966 8.96875 14.7109C9.05705 14.5963 9.10629 14.5518 9.25012 14.5251C9.29542 14.5245 9.34072 14.5239 9.38738 14.5232C9.43883 14.5221 9.49028 14.5211 9.54329 14.5199C9.59866 14.5196 9.65404 14.5193 9.71109 14.5189C9.79632 14.5174 9.79632 14.5174 9.88327 14.5159C10.0649 14.513 10.2466 14.5111 10.4282 14.5093C10.5513 14.5075 10.6744 14.5056 10.7975 14.5036C11.0993 14.499 11.4012 14.4953 11.7031 14.4922C11.7031 14.2576 11.7031 14.023 11.7031 13.7812C11.6281 13.7807 11.553 13.7802 11.4757 13.7797C11.1972 13.7775 10.9188 13.7739 10.6404 13.7699C10.5198 13.7684 10.3993 13.7672 10.2788 13.7664C10.1056 13.7653 9.93238 13.7627 9.75916 13.7599C9.70526 13.7598 9.65136 13.7598 9.59583 13.7597C9.22375 13.7517 9.22375 13.7517 9.04411 13.6271C8.93252 13.4505 8.93958 13.3292 8.96875 13.125C9.07911 12.9831 9.14386 12.9148 9.32224 12.8797C9.37256 12.88 9.42289 12.8804 9.47474 12.8807C9.53209 12.8805 9.58943 12.8803 9.64851 12.8801C9.71026 12.8809 9.77201 12.8817 9.83563 12.8825C9.96701 12.882 10.0984 12.8815 10.2298 12.8809C10.4364 12.8814 10.643 12.8823 10.8497 12.8835C11.0494 12.8843 11.2492 12.8835 11.4489 12.8825C11.51 12.8834 11.5711 12.8843 11.634 12.8853C12.0031 12.8829 12.2307 12.8203 12.5504 12.6405C12.8006 12.5267 13.0564 12.5384 13.3271 12.5395C13.3858 12.5386 13.4445 12.5378 13.505 12.537C13.6905 12.5346 13.876 12.5341 14.0615 12.5337C14.1881 12.5324 14.3147 12.531 14.4413 12.5295C14.75 12.5261 15.0586 12.5242 15.3672 12.5234C15.3713 12.2938 15.3742 12.0642 15.3762 11.8345C15.377 11.7564 15.3781 11.6783 15.3796 11.6003C15.3816 11.4879 15.3825 11.3755 15.3832 11.2631C15.3841 11.1955 15.3849 11.1279 15.3858 11.0583C15.3658 10.8695 15.3377 10.7953 15.2031 10.6641C15.0402 10.6097 14.9318 10.602 14.7617 10.601C14.7043 10.6005 14.647 10.6 14.5879 10.5995C14.525 10.5993 14.4621 10.5991 14.3973 10.5988C14.331 10.5984 14.2647 10.5979 14.1965 10.5975C13.9767 10.5961 13.757 10.5952 13.5373 10.5944C13.4616 10.5941 13.3859 10.5938 13.3102 10.5935C12.9955 10.5924 12.6807 10.5913 12.3659 10.5907C11.9149 10.5898 11.4639 10.588 11.0129 10.5849C10.6957 10.5828 10.3785 10.5817 10.0613 10.5814C9.87184 10.5812 9.68243 10.5806 9.49301 10.5788C9.28169 10.5768 9.07041 10.5771 8.85908 10.5775C8.76506 10.5761 8.76506 10.5761 8.66914 10.5747C8.32469 10.575 8.32469 10.575 8.02883 10.7378ZM12.6328 13.6719C12.611 13.8363 12.6023 13.9807 12.6036 14.1451C12.6032 14.1927 12.6027 14.2404 12.6022 14.2896C12.601 14.4471 12.6013 14.6046 12.6018 14.7622C12.6016 14.8717 12.6012 14.9812 12.6008 15.0907C12.6002 15.3202 12.6005 15.5497 12.6013 15.7792C12.6022 16.0735 12.6009 16.3677 12.599 16.6619C12.5978 16.8881 12.5979 17.1142 12.5984 17.3403C12.5984 17.4488 12.598 17.5573 12.5972 17.6658C12.5963 17.8174 12.5971 17.9689 12.5983 18.1206C12.5977 18.1655 12.597 18.2104 12.5964 18.2566C12.5998 18.4602 12.6146 18.5715 12.7452 18.731C12.944 18.8316 13.1117 18.8427 13.3295 18.8398C13.3713 18.8401 13.413 18.8404 13.456 18.8407C13.5463 18.8412 13.6366 18.8412 13.7269 18.8407C13.8699 18.8401 14.0129 18.8407 14.1559 18.8416C14.4078 18.8431 14.6598 18.8434 14.9118 18.8433C15.3151 18.8432 15.7184 18.844 16.1218 18.8463C16.2625 18.8469 16.4032 18.8464 16.5439 18.8459C16.6304 18.8462 16.7168 18.8466 16.8033 18.847C16.8617 18.8464 16.8617 18.8464 16.9214 18.8457C17.2229 18.8488 17.3898 18.9326 17.6105 19.1302C17.6454 19.166 17.6803 19.2018 17.7162 19.2387C17.7737 19.2971 17.7737 19.2971 17.8324 19.3567C17.8716 19.3971 17.9108 19.4374 17.9512 19.479C18.03 19.5597 18.1088 19.6402 18.1879 19.7206C18.2398 19.774 18.2398 19.774 18.2928 19.8285C18.3628 19.9125 18.3628 19.9125 18.4297 19.9062C18.4305 19.8542 18.4312 19.8021 18.432 19.7484C18.4346 19.6798 18.4373 19.6112 18.4399 19.5405C18.4418 19.4726 18.4437 19.4048 18.4457 19.3348C18.495 19.087 18.5483 19.0086 18.7578 18.8672C18.9416 18.833 19.1216 18.8339 19.3081 18.8364C19.6702 18.8518 19.6702 18.8518 19.9915 18.7153C20.1487 18.4728 20.1331 18.2243 20.1329 17.9429C20.1331 17.8995 20.1333 17.8562 20.1335 17.8115C20.134 17.6685 20.1341 17.5254 20.1342 17.3823C20.1344 17.2827 20.1345 17.1831 20.1347 17.0836C20.1351 16.8749 20.1352 16.6662 20.1351 16.4576C20.1351 16.1903 20.1359 15.9231 20.1368 15.6558C20.1374 15.4502 20.1375 15.2446 20.1375 15.0389C20.1376 14.9404 20.1378 14.8419 20.1382 14.7433C20.1388 14.6055 20.1386 14.4677 20.1383 14.3298C20.1386 14.2892 20.1389 14.2486 20.1392 14.2068C20.1376 13.9423 20.1115 13.741 19.9473 13.529C19.8168 13.4256 19.7331 13.4324 19.5676 13.4319C19.4793 13.4311 19.4793 13.4311 19.3894 13.4303C19.3248 13.4305 19.2603 13.4308 19.1938 13.431C19.1259 13.4307 19.0579 13.4303 18.9879 13.4299C18.8015 13.4291 18.6151 13.429 18.4286 13.4293C18.273 13.4295 18.1174 13.4291 17.9618 13.4288C17.5947 13.428 17.2276 13.4281 16.8605 13.4287C16.4817 13.4294 16.1029 13.4286 15.7242 13.4271C15.399 13.4259 15.0739 13.4255 14.7487 13.4259C14.5545 13.4261 14.3603 13.4259 14.166 13.425C13.9495 13.424 13.7329 13.4247 13.5164 13.4257C13.452 13.4252 13.3875 13.4246 13.3212 13.4241C13.2622 13.4246 13.2033 13.4252 13.1425 13.4257C13.0913 13.4257 13.0401 13.4257 12.9873 13.4257C12.8081 13.4619 12.7431 13.5284 12.6328 13.6719Z" fill="#0077FF"/>
<path d="M13.9863 0.410156C14.034 0.410469 14.0817 0.410782 14.1308 0.411104C14.83 0.430285 15.3412 0.706962 15.8414 1.18027C16.3074 1.67387 16.4933 2.28574 16.5156 2.95313C16.4887 3.68884 16.1648 4.2624 15.6953 4.8125C15.7431 4.82723 15.7909 4.84197 15.8401 4.85715C16.8344 5.20825 17.6061 6.06044 18.0613 6.9864C18.285 7.46622 18.5843 8.16716 18.4297 8.69531C18.2917 8.86236 18.2087 8.95766 17.9935 9.00316C17.9329 9.00326 17.8722 9.00337 17.8096 9.00347C17.7047 9.00463 17.7047 9.00463 17.5977 9.00581C17.5207 9.00528 17.4436 9.00472 17.3665 9.00413C17.285 9.0045 17.2035 9.00499 17.122 9.00558C16.901 9.00683 16.68 9.00635 16.459 9.00548C16.2276 9.00479 15.9962 9.00543 15.7648 9.00586C15.3763 9.00636 14.9877 9.0057 14.5992 9.0044C14.15 9.00291 13.701 9.00339 13.2519 9.0049C12.8661 9.00614 12.4804 9.00631 12.0947 9.0056C11.8644 9.00517 11.6341 9.00511 11.4037 9.00602C11.1872 9.00681 10.9707 9.00626 10.7541 9.00468C10.6747 9.00432 10.5953 9.00442 10.5158 9.00503C10.4074 9.00577 10.2989 9.00467 10.1904 9.00347C10.1297 9.00337 10.069 9.00327 10.0065 9.00316C9.79131 8.95766 9.70829 8.86236 9.57031 8.69531C9.38521 8.06296 9.80993 7.2071 10.1057 6.65756C10.2756 6.35958 10.4869 6.10336 10.7187 5.85156C10.7482 5.81709 10.7777 5.78262 10.808 5.7471C11.1734 5.34414 11.7058 5.03699 12.1953 4.8125C12.2314 4.8125 12.2675 4.8125 12.3047 4.8125C12.2717 4.77084 12.2387 4.72917 12.2047 4.68625C11.6764 4.00368 11.407 3.36817 11.5117 2.47803C11.6418 1.81068 12.0035 1.23503 12.5499 0.828644C13.0057 0.540585 13.4478 0.406014 13.9863 0.410156ZM12.7969 1.91406C12.5239 2.26292 12.3977 2.63542 12.4207 3.08173C12.4935 3.50688 12.7214 3.90493 13.0532 4.18018C13.4118 4.42105 13.8348 4.53232 14.263 4.46109C14.7216 4.3409 15.1011 4.12351 15.3535 3.71191C15.5529 3.32353 15.6462 2.90156 15.5246 2.47504C15.3196 1.94836 15.0329 1.65679 14.5272 1.41483C13.8899 1.20459 13.2173 1.39758 12.7969 1.91406ZM11.375 6.50781C10.8215 7.20544 10.8215 7.20544 10.6094 8.03906C12.8472 8.03906 15.085 8.03906 17.3906 8.03906C17.2586 7.24709 16.77 6.57536 16.1499 6.08057C14.6882 5.0389 12.6124 5.15858 11.375 6.50781Z" fill="#0077FF"/>
<path d="M6.16602 19.3696C6.74442 19.7702 7.18028 20.2922 7.32813 21C7.39923 21.813 7.29897 22.4792 6.78125 23.1328C6.70943 23.2068 6.63677 23.28 6.5625 23.3516C6.61206 23.3787 6.66162 23.4058 6.71268 23.4338C7.9142 24.1 8.76423 24.9739 9.18579 26.3083C9.27614 26.6358 9.37476 27.0052 9.29688 27.3438C9.17791 27.4966 9.11345 27.5563 8.92029 27.59C8.85867 27.5901 8.79705 27.5902 8.73357 27.5903C8.66272 27.5909 8.59187 27.5915 8.51888 27.5921C8.44047 27.5917 8.36207 27.5913 8.28366 27.5908C8.20101 27.5911 8.11836 27.5915 8.03571 27.592C7.81131 27.593 7.58693 27.5926 7.36253 27.5919C7.12776 27.5913 6.89299 27.5918 6.65822 27.5922C6.26395 27.5926 5.86969 27.5921 5.47543 27.591C5.01952 27.5898 4.56363 27.5902 4.10772 27.5914C3.71638 27.5924 3.32504 27.5926 2.9337 27.592C2.69992 27.5916 2.46616 27.5916 2.23239 27.5923C2.01261 27.5929 1.79286 27.5925 1.57309 27.5912C1.4924 27.591 1.41172 27.591 1.33103 27.5915C1.22096 27.5921 1.11088 27.5912 1.00081 27.5903C0.908381 27.5902 0.908381 27.5902 0.814084 27.59C0.620604 27.5563 0.556273 27.4972 0.437501 27.3438C0.275271 26.6411 0.68295 25.7422 1.03906 25.1563C1.55 24.3874 2.23787 23.7297 3.11719 23.4063C3.09731 23.3823 3.07743 23.3583 3.05695 23.3336C2.60629 22.7651 2.31375 22.1288 2.33789 21.3911C2.41561 20.7221 2.66848 20.0914 3.17188 19.6328C4.04064 18.952 5.20013 18.7869 6.16602 19.3696ZM3.60938 20.5625C3.35297 20.942 3.22449 21.3443 3.30753 21.8007C3.44734 22.3167 3.7414 22.7049 4.20602 22.9747C4.59754 23.1452 5.02608 23.1346 5.42432 22.9927C5.87198 22.7898 6.1673 22.4976 6.34375 22.0391C6.46322 21.6807 6.45495 21.2473 6.30957 20.8975C6.08555 20.4713 5.80098 20.2099 5.35938 20.0156C4.70417 19.8131 4.04839 20.0523 3.60938 20.5625ZM2.1875 25.2109C1.81575 25.6489 1.53519 26.1209 1.42188 26.6875C3.67774 26.6875 5.93359 26.6875 8.25781 26.6875C8.14153 25.8735 7.6346 25.1787 6.98419 24.6878C5.45086 23.6043 3.45366 23.8511 2.1875 25.2109Z" fill="#0077FF"/>
<path d="M24.6876 19.5181C25.207 19.942 25.5163 20.4791 25.626 21.1395C25.7089 21.9918 25.4735 22.6644 24.9431 23.3336C24.9232 23.3576 24.9033 23.3816 24.8828 23.4062C24.9245 23.4255 24.9661 23.4447 25.0091 23.4646C25.3891 23.6463 25.7112 23.8444 26.0312 24.1172C26.0716 24.1491 26.112 24.1809 26.1537 24.2137C26.9264 24.849 27.4724 25.8842 27.5834 26.8742C27.5989 27.2966 27.5989 27.2966 27.4728 27.46C27.3054 27.5929 27.2115 27.59 26.9992 27.5903C26.9283 27.5909 26.8575 27.5915 26.7845 27.5921C26.7061 27.5917 26.6277 27.5913 26.5493 27.5908C26.4666 27.5911 26.384 27.5915 26.3013 27.592C26.0769 27.593 25.8526 27.5926 25.6282 27.5919C25.3934 27.5913 25.1586 27.5918 24.9238 27.5922C24.5296 27.5926 24.1353 27.5921 23.7411 27.591C23.2851 27.5898 22.8293 27.5902 22.3733 27.5914C21.982 27.5924 21.5907 27.5926 21.1993 27.592C20.9655 27.5916 20.7318 27.5916 20.498 27.5923C20.2782 27.5929 20.0585 27.5925 19.8387 27.5912C19.758 27.591 19.6773 27.591 19.5967 27.5915C19.4866 27.5921 19.3765 27.5912 19.2664 27.5903C19.174 27.5902 19.174 27.5902 19.0797 27.59C18.8866 27.5564 18.8223 27.4962 18.7031 27.3437C18.5165 26.6234 19.004 25.7056 19.3594 25.1016C19.4743 24.9231 19.599 24.7659 19.7422 24.6094C19.8079 24.5362 19.8079 24.5362 19.8748 24.4615C20.2345 24.0806 20.5969 23.826 21.0547 23.5703C21.1333 23.5247 21.2119 23.4792 21.2905 23.4336C21.339 23.4065 21.3875 23.3795 21.4375 23.3516C21.4091 23.323 21.3807 23.2945 21.3514 23.265C20.7762 22.6579 20.6443 22.0684 20.6567 21.2617C20.683 20.5905 21.0533 20.0257 21.5287 19.5702C22.4604 18.829 23.7226 18.8556 24.6876 19.5181ZM21.875 20.5625C21.6076 20.9842 21.5613 21.3807 21.6016 21.875C21.7031 22.278 21.9677 22.6524 22.3174 22.8786C22.718 23.086 23.1508 23.1606 23.5942 23.0427C24.0669 22.8506 24.4061 22.5386 24.6143 22.0722C24.7677 21.6331 24.7326 21.2622 24.5547 20.8359C24.3611 20.4703 24.0498 20.1656 23.6592 20.019C22.9766 19.8317 22.3416 20.028 21.875 20.5625ZM20.3414 25.3372C20.2098 25.5181 20.0988 25.7051 19.9917 25.9014C19.973 25.9353 19.9542 25.9693 19.935 26.0043C19.8083 26.2479 19.7832 26.4006 19.7422 26.6875C21.998 26.6875 24.2539 26.6875 26.5781 26.6875C26.2868 25.7163 25.753 24.9709 24.8726 24.4519C23.3065 23.6147 21.4905 23.9915 20.3414 25.3372Z" fill="#0077FF"/>
<path d="M19.7422 3.99219C19.8785 4.09174 19.8785 4.09174 20.0088 4.21777C20.0558 4.26233 20.1028 4.30688 20.1513 4.35278C20.1967 4.39621 20.2422 4.43963 20.2891 4.48437C20.365 4.55091 20.4413 4.61703 20.5181 4.68262C20.8719 4.9917 21.1904 5.32776 21.4922 5.6875C21.5261 5.72762 21.5261 5.72762 21.5607 5.76854C22.3024 6.65114 22.9327 7.61647 23.4609 8.64062C23.4799 8.67719 23.4989 8.71375 23.5185 8.75142C24.4564 10.581 24.8518 12.5731 25.0469 14.6016C25.0851 14.543 25.1233 14.4844 25.1627 14.424C25.2129 14.3476 25.2632 14.2712 25.3135 14.1948C25.3386 14.1562 25.3638 14.1175 25.3897 14.0777C25.4141 14.0408 25.4384 14.004 25.4634 13.966C25.4858 13.932 25.5081 13.8979 25.5311 13.8628C25.5938 13.7812 25.5938 13.7812 25.7031 13.7266C25.9401 13.6997 26.0488 13.7005 26.2466 13.8394C26.3927 14.0474 26.3903 14.1308 26.3594 14.3828C26.2741 14.5685 26.1642 14.7354 26.0518 14.9058C26.0202 14.955 25.9886 15.0042 25.9561 15.055C25.8889 15.1597 25.8213 15.2641 25.7535 15.3684C25.6467 15.5339 25.5423 15.7008 25.4384 15.8681C25.3706 15.9769 25.3027 16.0856 25.2349 16.1943C25.203 16.2458 25.1711 16.2973 25.1383 16.3504C25.108 16.3983 25.0778 16.4462 25.0467 16.4955C25.0203 16.5378 24.9939 16.58 24.9666 16.6235C24.8345 16.7983 24.7239 16.888 24.5068 16.9258C24.2091 16.8781 24.0283 16.6644 23.8572 16.4295C23.8055 16.3549 23.7544 16.2799 23.7036 16.2046C23.647 16.1218 23.5902 16.039 23.5334 15.9564C23.504 15.9136 23.4746 15.8709 23.4444 15.8269C23.3495 15.6924 23.251 15.5615 23.151 15.4308C23.1183 15.3876 23.0856 15.3444 23.0519 15.2998C22.9887 15.2167 22.9249 15.1341 22.8601 15.0523C22.6553 14.7794 22.6005 14.6148 22.6406 14.2734C22.6987 14.1401 22.6987 14.1401 22.8047 14.0547C23.0027 13.9997 23.1275 13.9737 23.3185 14.0573C23.5065 14.1982 23.6207 14.364 23.7515 14.5571C23.7763 14.5929 23.8012 14.6287 23.8268 14.6655C23.8876 14.7533 23.9478 14.8414 24.0078 14.9297C24.0651 13.8429 23.8402 12.7501 23.5703 11.7031C23.56 11.6625 23.5498 11.6219 23.5392 11.5801C23.0869 9.82294 22.2036 8.1269 21.0547 6.72656C21.0308 6.6971 21.0069 6.66765 20.9822 6.63729C20.4348 5.96581 19.8306 5.3193 19.1593 4.7702C19.0444 4.66513 19.0314 4.59534 19.0142 4.43994C19.0353 4.22465 19.0987 4.14345 19.25 3.99219C19.4469 3.92654 19.5424 3.93961 19.7422 3.99219Z" fill="#0077FF"/>
<path d="M8.64062 4.48437C8.9241 4.9096 8.69792 5.60267 8.61882 6.08005C8.59616 6.21744 8.57451 6.35497 8.55293 6.49254C8.53857 6.58102 8.52415 6.6695 8.50967 6.75796C8.50334 6.79853 8.49701 6.8391 8.49049 6.8809C8.44294 7.16166 8.38708 7.49076 8.16211 7.68359C7.97478 7.72522 7.84119 7.70579 7.65625 7.65625C7.51953 7.55371 7.51953 7.55371 7.4375 7.38281C7.43323 7.17887 7.46272 6.98269 7.49219 6.78125C7.50294 6.67762 7.51322 6.57394 7.52295 6.47021C7.5309 6.3916 7.53886 6.31298 7.54687 6.23437C5.61552 8.25292 4.36467 10.8628 3.9375 13.6172C3.92748 13.6783 3.91747 13.7393 3.90715 13.8022C3.80345 14.5095 3.82198 15.2119 3.83449 15.925C3.83713 16.0878 3.83876 16.2507 3.8403 16.4135C3.84149 16.4629 3.84268 16.5123 3.84391 16.5632C3.84612 16.8441 3.82369 17.0389 3.66406 17.2813C3.48906 17.3688 3.30711 17.363 3.11719 17.3359C2.97387 17.2367 2.91399 17.172 2.86645 17.0044C2.83487 16.7809 2.83379 16.5603 2.83264 16.3349C2.83226 16.2853 2.83187 16.2356 2.83148 16.1845C2.83052 16.0237 2.83017 15.8629 2.83008 15.7021C2.83004 15.6475 2.83 15.5928 2.82997 15.5365C2.83082 14.7393 2.85307 13.964 3.00781 13.1797C3.0172 13.1295 3.02658 13.0792 3.03625 13.0275C3.48589 10.6531 4.45929 8.36979 6.01562 6.50781C6.04356 6.47433 6.07149 6.44084 6.10027 6.40634C6.27122 6.20201 6.44362 5.99898 6.61719 5.79687C6.54726 5.80526 6.47732 5.81365 6.40527 5.8223C6.36594 5.82701 6.3266 5.83173 6.28607 5.8366C6.17817 5.84935 6.17817 5.84935 6.07031 5.88232C5.88553 5.92274 5.70946 5.9383 5.52344 5.90625C5.35937 5.79346 5.35937 5.79346 5.25 5.63281C5.21924 5.43799 5.21924 5.43799 5.25 5.25C5.41489 5.03754 5.57224 4.9854 5.82934 4.92316C5.86497 4.91434 5.9006 4.90553 5.93731 4.89645C6.05439 4.86771 6.17171 4.84012 6.28906 4.8125C6.37082 4.79257 6.45257 4.77257 6.5343 4.75253C6.74617 4.70095 6.95846 4.65152 7.17106 4.60307C7.25841 4.58298 7.34568 4.5625 7.43285 4.54165C7.56125 4.51097 7.68987 4.48153 7.8186 4.45233C7.87638 4.43816 7.87638 4.43816 7.93531 4.4237C8.20149 4.3653 8.3885 4.38137 8.64062 4.48437Z" fill="#0077FF"/>
<path d="M11.3203 22.0937C11.4502 22.1826 11.4502 22.1826 11.5391 22.3125C11.5703 22.5271 11.5689 22.6458 11.4562 22.8329C11.2786 23.0105 11.1039 23.0713 10.8691 23.1499C10.8284 23.1643 10.7876 23.1787 10.7457 23.1936C10.6458 23.2288 10.5456 23.2629 10.4453 23.2969C10.631 23.3767 10.8043 23.4288 11.0033 23.4629C11.0569 23.4721 11.1106 23.4814 11.1659 23.491C11.2213 23.5002 11.2768 23.5095 11.334 23.519C11.4159 23.5333 11.4159 23.5333 11.4995 23.5478C11.9933 23.632 12.4758 23.688 12.977 23.6908C13.0475 23.6914 13.0475 23.6914 13.1195 23.692C13.2706 23.6929 13.4217 23.6933 13.5728 23.6934C13.6502 23.6934 13.6502 23.6934 13.7292 23.6935C14.4886 23.6926 15.2224 23.6658 15.9688 23.5156C16.018 23.5065 16.0672 23.4974 16.1179 23.4881C17.0143 23.322 17.9183 23.0862 18.752 22.7111C18.9801 22.6164 19.1715 22.5915 19.4141 22.6406C19.5948 22.7861 19.6264 22.8781 19.667 23.1055C19.6295 23.3154 19.5796 23.3728 19.4152 23.501C19.1869 23.6442 18.9328 23.7254 18.6792 23.813C18.5885 23.8448 18.5885 23.8448 18.496 23.8772C17.1516 24.3393 15.7261 24.6675 14.2986 24.6752C14.2507 24.6755 14.2028 24.6759 14.1535 24.6763C13.9998 24.6772 13.8461 24.6776 13.6924 24.6777C13.6137 24.6779 13.6137 24.6779 13.5335 24.678C12.7279 24.6781 11.9516 24.6358 11.1562 24.5C11.0775 24.488 10.9988 24.4763 10.92 24.4648C10.7615 24.4414 10.6033 24.4169 10.4453 24.3906C10.4881 24.4367 10.5309 24.4828 10.575 24.5303C10.6309 24.5909 10.6868 24.6514 10.7427 24.7119C10.7709 24.7423 10.7991 24.7727 10.8282 24.804C11.0945 25.0929 11.0945 25.0929 11.1187 25.3101C11.0972 25.5293 11.044 25.6093 10.8828 25.7578C10.7222 25.8125 10.7222 25.8125 10.5547 25.8125C10.3174 25.6956 10.1427 25.5247 9.95996 25.3374C9.9331 25.3105 9.90624 25.2836 9.87857 25.2559C9.69178 25.0669 9.51672 24.8695 9.34272 24.6687C9.13482 24.4329 8.91623 24.2068 8.69958 23.979C8.66448 23.9418 8.62937 23.9047 8.5932 23.8664C8.56156 23.8331 8.52991 23.7998 8.49731 23.7655C8.38188 23.6342 8.36688 23.5676 8.34668 23.3892C8.37337 23.1267 8.43792 23.0799 8.64062 22.9141C8.81207 22.8264 8.98947 22.7601 9.1702 22.694C9.22123 22.6749 9.27226 22.6557 9.32483 22.636C9.43239 22.5958 9.54009 22.556 9.64792 22.5166C9.81266 22.4562 9.97673 22.3941 10.1408 22.3319C10.2456 22.293 10.3505 22.2542 10.4554 22.2155C10.5042 22.197 10.5531 22.1784 10.6035 22.1593C10.8622 22.066 11.0477 22.0074 11.3203 22.0937Z" fill="#0077FF"/>
<path d="M14.3952 17.2724C14.4649 17.272 14.4649 17.272 14.5361 17.2716C14.6905 17.2708 14.8448 17.2704 14.9991 17.2701C15.1062 17.2698 15.2133 17.2695 15.3204 17.2692C15.5451 17.2686 15.7699 17.2683 15.9947 17.2681C16.2827 17.2678 16.5706 17.2665 16.8586 17.2649C17.0799 17.2639 17.3012 17.2636 17.5225 17.2636C17.6287 17.2634 17.7348 17.2629 17.841 17.2622C17.9896 17.2613 18.1381 17.2614 18.2867 17.2618C18.3306 17.2613 18.3744 17.2607 18.4196 17.2602C18.6693 17.2621 18.8334 17.2887 19.0312 17.4453C19.1171 17.617 19.1052 17.7482 19.0859 17.9375C18.9783 18.084 18.8918 18.1915 18.7095 18.2362C18.5836 18.2466 18.4603 18.2479 18.334 18.2463C18.2626 18.247 18.2626 18.247 18.1897 18.2478C18.0327 18.249 17.8758 18.2482 17.7188 18.2473C17.6094 18.2474 17.5001 18.2477 17.3908 18.248C17.1619 18.2484 16.933 18.2479 16.704 18.2466C16.4107 18.245 16.1174 18.2459 15.8241 18.2476C15.5984 18.2486 15.3728 18.2482 15.1471 18.2475C15.039 18.2473 14.9308 18.2476 14.8227 18.2482C14.6715 18.2489 14.5204 18.2478 14.3691 18.2463C14.3022 18.2471 14.3022 18.2471 14.234 18.248C14.0035 18.2437 13.9148 18.2295 13.7259 18.0842C13.6172 17.9375 13.6172 17.9375 13.5864 17.7427C13.6215 17.5284 13.6661 17.4658 13.8359 17.3359C14.0114 17.2482 14.2024 17.2727 14.3952 17.2724Z" fill="#0077FF"/>
<path d="M14.446 15.6327C14.4915 15.6325 14.5369 15.6323 14.5838 15.6321C14.7343 15.6316 14.8847 15.6315 15.0352 15.6314C15.1398 15.6313 15.2443 15.6311 15.3489 15.6309C15.5682 15.6306 15.7875 15.6305 16.0067 15.6305C16.2877 15.6305 16.5686 15.6298 16.8495 15.6288C17.0655 15.6282 17.2815 15.6281 17.4975 15.6281C17.6011 15.6281 17.7047 15.6278 17.8082 15.6274C17.9531 15.6269 18.098 15.627 18.243 15.6273C18.2857 15.627 18.3284 15.6267 18.3725 15.6264C18.5967 15.6277 18.7788 15.6395 18.9766 15.75C19.0938 15.9258 19.1024 16.033 19.1111 16.2403C19.0726 16.4103 19.0064 16.4652 18.8672 16.5703C18.6996 16.5922 18.5516 16.6008 18.384 16.5995C18.3352 16.6 18.2865 16.6004 18.2362 16.6009C18.0751 16.6022 17.9141 16.6018 17.7529 16.6013C17.641 16.6016 17.529 16.6019 17.417 16.6023C17.1824 16.6029 16.9478 16.6026 16.7131 16.6018C16.4122 16.6009 16.1114 16.6022 15.8106 16.6041C15.5794 16.6053 15.3482 16.6052 15.117 16.6048C15.006 16.6047 14.8951 16.6051 14.7841 16.6059C14.6291 16.6069 14.4742 16.6061 14.3192 16.6048C14.2732 16.6055 14.2273 16.6061 14.18 16.6068C13.9641 16.6032 13.8597 16.5922 13.6981 16.4436C13.5918 16.2509 13.5856 16.131 13.6172 15.9141C13.8436 15.6174 14.0988 15.6325 14.446 15.6327Z" fill="#0077FF"/>
<path d="M11.6796 11.203C11.7314 11.2026 11.7833 11.2023 11.8367 11.2019C11.8929 11.2019 11.949 11.2018 12.0069 11.2018C12.0645 11.2016 12.1221 11.2014 12.1814 11.2012C12.3034 11.2009 12.4254 11.2008 12.5474 11.2008C12.7342 11.2007 12.9209 11.1997 13.1077 11.1987C13.2261 11.1985 13.3445 11.1984 13.463 11.1983C13.5189 11.1979 13.5748 11.1975 13.6325 11.1971C13.6847 11.1973 13.7369 11.1975 13.7906 11.1977C13.8364 11.1976 13.8823 11.1975 13.9295 11.1974C14.0698 11.2126 14.155 11.2441 14.2734 11.3203C14.4102 11.5254 14.4121 11.6243 14.3828 11.8672C14.2705 12.0325 14.1811 12.1264 13.9808 12.1662C13.8179 12.1769 13.6573 12.1785 13.4941 12.1769C13.4345 12.1772 13.3748 12.1775 13.3134 12.1777C13.1874 12.1779 13.0615 12.1774 12.9355 12.1763C12.7428 12.1748 12.5503 12.1763 12.3577 12.178C12.2352 12.1778 12.1127 12.1775 11.9902 12.1769C11.9327 12.1775 11.8752 12.178 11.8159 12.1786C11.5533 12.1744 11.4182 12.1722 11.2018 12.0138C11.0701 11.8212 11.0641 11.7132 11.1016 11.4844C11.2762 11.2631 11.4047 11.2042 11.6796 11.203Z" fill="#0077FF"/>
<path d="M16.7927 14.0203C16.8806 14.0201 16.8806 14.0201 16.9702 14.0199C17.0938 14.0199 17.2174 14.0207 17.341 14.022C17.5303 14.0239 17.7195 14.0232 17.9088 14.0221C18.0289 14.0225 18.1491 14.023 18.2693 14.0237C18.3259 14.0234 18.3825 14.0232 18.4409 14.0229C18.832 14.0293 18.832 14.0293 19.0121 14.1592C19.1306 14.3425 19.13 14.5003 19.0859 14.7109C18.9837 14.8439 18.9065 14.91 18.7578 14.9844C18.6783 14.9904 18.5985 14.9931 18.5188 14.9941C18.4693 14.9948 18.4199 14.9955 18.3689 14.9962C18.3153 14.9966 18.2617 14.997 18.2065 14.9974C18.1239 14.9981 18.1239 14.9981 18.0397 14.9987C17.9231 14.9995 17.8064 15.0001 17.6898 15.0005C17.5115 15.0015 17.3333 15.0039 17.1551 15.0063C17.0419 15.0068 16.9286 15.0073 16.8153 15.0077C16.7621 15.0086 16.7088 15.0096 16.6539 15.0106C16.415 15.0098 16.2802 15.0078 16.0731 14.8804C15.949 14.7439 15.918 14.6855 15.8936 14.5024C15.9141 14.3281 15.9141 14.3281 16.0142 14.1827C16.2675 13.9956 16.4853 14.0164 16.7927 14.0203Z" fill="#0077FF"/>
<path d="M14.4956 14.0239C14.5771 14.023 14.5771 14.023 14.6602 14.0221C15.0532 14.0261 15.0532 14.0261 15.2373 14.1559C15.3363 14.3106 15.3634 14.4178 15.3672 14.6016C15.2767 14.8111 15.1932 14.8998 14.9844 14.9844C14.8676 14.9985 14.8676 14.9985 14.7434 14.9989C14.6756 14.9991 14.6756 14.9991 14.6065 14.9993C14.5597 14.9989 14.513 14.9985 14.4648 14.998C14.4181 14.9985 14.3714 14.9989 14.3232 14.9993C14.278 14.9992 14.2328 14.999 14.1863 14.9989C14.1453 14.9988 14.1043 14.9987 14.0621 14.9985C13.9268 14.9821 13.8415 14.9478 13.7266 14.875C13.5898 14.6699 13.5879 14.571 13.6172 14.3281C13.8497 13.9873 14.1184 14.0148 14.4956 14.0239Z" fill="#0077FF"/>
<path d="M9.69678 11.1973C9.73833 11.1961 9.77989 11.195 9.82271 11.1938C10.0744 11.1921 10.2433 11.208 10.4453 11.375C10.5273 11.5596 10.5273 11.5596 10.5547 11.7578C10.4824 11.9205 10.4065 12.0153 10.2812 12.1406C10.1036 12.1681 9.92413 12.1634 9.74463 12.1646C9.69525 12.1663 9.64586 12.1681 9.59499 12.17C9.34344 12.172 9.22493 12.1684 9.01788 12.0146C8.88205 11.8217 8.87624 11.7155 8.91406 11.4844C9.14115 11.1967 9.34975 11.1996 9.69678 11.1973Z" fill="#0077FF"/>
</g>
<defs>
<clipPath id="clip0_2_69">
<rect width="28" height="28" fill="white"/>
</clipPath>
</defs>
</svg>
