<svg width="28" height="28" viewBox="0 0 28 28" fill="none" xmlns="http://www.w3.org/2000/svg">
<g clip-path="url(#clip0_2_4)">
<path d="M19.1347 -0.0273748C19.1996 -0.0273862 19.2646 -0.0273976 19.3315 -0.0274094C19.3677 -0.0277121 19.4039 -0.0280148 19.4412 -0.0283266C19.5628 -0.0290723 19.6843 -0.0282513 19.8058 -0.027437C19.8929 -0.0276438 19.9799 -0.0279445 20.067 -0.0283324C20.3036 -0.0290972 20.5402 -0.0284835 20.7768 -0.0275825C21.0241 -0.0268263 21.2715 -0.0271782 21.5188 -0.0273711C21.9342 -0.0275189 22.3496 -0.0267811 22.7651 -0.0255144C23.2457 -0.0240591 23.7263 -0.0239636 24.2069 -0.0246059C24.6688 -0.025195 25.1307 -0.0248573 25.5926 -0.0240834C25.7894 -0.0237681 25.9861 -0.0237731 26.1829 -0.0240323C26.4145 -0.0242928 26.6461 -0.0237418 26.8777 -0.0225582C26.9629 -0.0222533 27.048 -0.0222286 27.1331 -0.0225009C27.2491 -0.0228255 27.365 -0.0221445 27.481 -0.021201C27.5784 -0.0210017 27.5784 -0.0210017 27.6779 -0.0207983C27.8359 2.35508e-07 27.8359 2.34693e-07 27.9387 0.0705317C28.0469 0.235642 28.0301 0.414314 28 0.601563C27.9362 0.740823 27.875 0.855481 27.7932 0.982453C27.7507 1.05338 27.7085 1.12445 27.6664 1.19565C27.6448 1.23207 27.6231 1.26849 27.6008 1.30601C27.2176 1.90979 27.2176 1.90979 27.1489 2.58591C27.2308 2.78703 27.3495 2.95675 27.4847 3.12571C27.6146 3.29416 27.7091 3.48011 27.8086 3.66748C27.8277 3.69942 27.8467 3.73135 27.8664 3.76425C28.0123 4.01924 28.0309 4.19858 28 4.48438C27.9373 4.578 27.9373 4.578 27.8359 4.64844C27.6876 4.66863 27.6876 4.66863 27.5048 4.66817C27.4009 4.66851 27.4009 4.66851 27.2949 4.66885C27.2181 4.66827 27.1412 4.66767 27.0643 4.66706C26.9835 4.66702 26.9026 4.66704 26.8218 4.66714C26.6021 4.66718 26.3825 4.66622 26.1629 4.66507C25.9334 4.66405 25.7039 4.66395 25.4744 4.66376C25.0398 4.66325 24.6052 4.6619 24.1706 4.66025C23.6758 4.65842 23.1811 4.65752 22.6863 4.65669C21.6685 4.65498 20.6506 4.65209 19.6328 4.64844C19.6195 5.89403 19.6112 7.13956 19.6089 8.38522C19.6077 8.96375 19.6049 9.5422 19.5981 10.1207C19.5923 10.6256 19.5895 11.1304 19.5905 11.6353C19.5908 11.9021 19.5898 12.1687 19.5849 12.4355C19.5627 13.711 19.6148 14.5973 20.4512 15.6098C20.6368 15.8436 20.7892 16.0976 20.9453 16.3516C21.0078 16.4502 21.0705 16.5488 21.1333 16.6472C21.1649 16.6968 21.1965 16.7465 21.229 16.7976C21.4075 17.0776 21.5866 17.3571 21.7656 17.6367C22.0711 18.1136 22.3757 18.5911 22.6795 19.0691C22.921 19.4488 23.1635 19.828 23.4063 20.207C23.7117 20.684 24.0163 21.1614 24.3201 21.6394C24.5617 22.0192 24.8041 22.3983 25.0469 22.7773C25.3523 23.2543 25.6569 23.7317 25.9608 24.2097C26.2387 24.6467 26.518 25.083 26.7973 25.5191C27.0835 25.9661 27.3687 26.4137 27.6533 26.8617C27.683 26.9084 27.7126 26.9551 27.7432 27.0032C27.7692 27.0441 27.7951 27.0849 27.8218 27.127C27.8802 27.2181 27.94 27.3084 28 27.3984C28.0296 27.5893 28.0324 27.7711 27.9453 27.9453C27.7574 28.0393 27.5969 28.0599 27.3984 28C27.0405 27.7074 26.8155 27.1863 26.5788 26.7932C26.4144 26.5218 26.2426 26.2557 26.0688 25.9902C25.818 25.6067 25.5695 25.2218 25.3237 24.835C25.2919 24.7848 25.26 24.7347 25.2272 24.683C25.1626 24.5813 25.0981 24.4797 25.0336 24.378C24.8764 24.1303 24.719 23.8828 24.5615 23.6353C24.5146 23.5615 24.5146 23.5615 24.4667 23.4862C24.1862 23.0455 23.9046 22.6056 23.6229 22.1658C23.3546 21.7468 23.0874 21.3273 22.8205 20.9075C22.579 20.5277 22.3365 20.1485 22.0938 19.7695C21.7883 19.2926 21.4837 18.8151 21.1799 18.3372C20.902 17.9002 20.623 17.4639 20.3433 17.0281C20.1586 16.7402 19.9752 16.4517 19.7939 16.1617C19.7587 16.1056 19.7235 16.0496 19.6873 15.9918C19.6203 15.885 19.5537 15.778 19.4873 15.6707C19.4577 15.6235 19.428 15.5763 19.3974 15.5276C19.3715 15.4859 19.3455 15.4442 19.3188 15.4012C19.2961 15.372 19.2734 15.3427 19.25 15.3125C19.2139 15.3125 19.1778 15.3125 19.1406 15.3125C19.0492 15.4337 18.9645 15.5552 18.8809 15.6816C18.8263 15.7626 18.7717 15.8435 18.717 15.9243C18.688 15.9673 18.6591 16.0103 18.6292 16.0546C18.4774 16.2783 18.3219 16.4995 18.1665 16.7207C18.1012 16.8138 18.0359 16.907 17.9706 17.0001C17.938 17.0466 17.9054 17.0931 17.8718 17.141C17.7112 17.3699 17.5509 17.599 17.3906 17.8281C17.2006 18.0997 17.0105 18.3712 16.8203 18.6427C16.4809 19.1271 16.1423 19.612 15.8047 20.0977C15.5201 20.5069 15.2355 20.916 14.9502 21.3247C14.9046 21.3902 14.9046 21.3902 14.8581 21.4569C14.715 21.6617 14.5704 21.8653 14.4225 22.0666C14.3965 22.1021 14.3705 22.1376 14.3436 22.1742C14.2447 22.2921 14.1761 22.3106 14.0243 22.3351C13.7465 22.3018 13.5652 22.1614 13.3371 22.006C13.2887 21.9738 13.2403 21.9417 13.1904 21.9086C13.0326 21.8035 12.8754 21.6974 12.7183 21.5913C12.6099 21.519 12.5015 21.4468 12.393 21.3747C11.8932 21.0415 11.396 20.7045 10.9014 20.3636C10.8618 20.3364 10.8222 20.3092 10.7814 20.2812C10.5984 20.1555 10.4159 20.0292 10.2344 19.9013C10.1703 19.8569 10.1061 19.8126 10.042 19.7682C9.96015 19.7108 9.96015 19.7108 9.87665 19.6522C9.74318 19.5671 9.74318 19.5671 9.61375 19.586C9.45715 19.6607 9.3658 19.7799 9.25244 19.9097C9.22837 19.9369 9.2043 19.9642 9.1795 19.9923C9.10881 20.0726 9.03877 20.1535 8.96875 20.2344C8.90381 20.3084 8.83887 20.3825 8.77393 20.4565C8.74383 20.4912 8.71372 20.5259 8.68271 20.5616C8.5722 20.6875 8.45944 20.8112 8.34668 20.9351C8.17969 21.1197 8.02024 21.308 7.86475 21.5024C7.59664 21.8342 7.30502 22.142 7.01261 22.4522C6.85178 22.623 6.69572 22.7972 6.54263 22.9749C6.43241 23.102 6.31977 23.2267 6.20703 23.3516C6.02837 23.5495 5.85183 23.7491 5.67682 23.9503C5.56557 24.0768 5.45222 24.2012 5.33887 24.3257C5.17188 24.5104 5.01242 24.6986 4.85693 24.8931C4.58883 25.2248 4.2972 25.5326 4.00479 25.8428C3.84397 26.0136 3.68791 26.1878 3.53482 26.3656C3.4246 26.4926 3.31196 26.6174 3.19922 26.7422C3.05212 26.9052 2.90592 27.0688 2.76172 27.2344C2.7312 27.2688 2.70067 27.3032 2.66922 27.3386C2.59495 27.4246 2.52313 27.5127 2.45261 27.6018C2.14295 27.9787 2.14295 27.9787 1.95529 28.0404C1.79841 28.0458 1.67137 28.0154 1.53125 27.9453C1.44289 27.7686 1.44527 27.5896 1.47656 27.3984C1.59085 27.2333 1.59085 27.2333 1.74658 27.0806C1.80269 27.0237 1.85866 26.9668 1.91449 26.9097C1.95639 26.8675 1.95639 26.8675 1.99914 26.8244C2.11236 26.7065 2.21279 26.5799 2.31397 26.4517C2.57937 26.1217 2.86905 25.8167 3.15927 25.5087C3.3201 25.3379 3.47616 25.1638 3.62924 24.986C3.73946 24.8589 3.85211 24.7342 3.96484 24.6094C4.11194 24.4464 4.25814 24.2828 4.40234 24.1172C4.54655 23.9516 4.69274 23.788 4.83984 23.625C5.10229 23.3339 5.36161 23.0405 5.6153 22.7417C5.92126 22.3818 6.23204 22.0283 6.55396 21.6825C6.72983 21.4936 6.90185 21.3022 7.07071 21.107C7.18246 20.9789 7.29623 20.8527 7.41016 20.7266C7.58882 20.5286 7.76536 20.329 7.94037 20.1278C8.05162 20.0014 8.16497 19.877 8.27832 19.7524C8.45426 19.5582 8.62077 19.3591 8.78418 19.1543C9.19912 18.6456 9.19912 18.6456 9.40625 18.5391C9.68102 18.5124 9.81729 18.5679 10.0426 18.7226C10.0722 18.7425 10.1018 18.7625 10.1323 18.7831C10.2314 18.8503 10.3298 18.9186 10.4282 18.9868C10.4986 19.0347 10.5689 19.0826 10.6394 19.1303C10.7961 19.2368 10.9526 19.3437 11.1089 19.4508C11.5644 19.7628 12.0225 20.071 12.4803 20.3797C12.6384 20.4865 12.7963 20.5935 12.9542 20.7005C13.0523 20.7669 13.1504 20.8332 13.2485 20.8996C13.3161 20.9456 13.3161 20.9456 13.3852 20.9925C13.4479 21.0349 13.4479 21.0349 13.5119 21.0781C13.5664 21.1151 13.5664 21.1151 13.622 21.1527C13.7269 21.219 13.8335 21.2746 13.9453 21.3281C13.9578 21.2907 13.9703 21.2533 13.9831 21.2147C14.0717 21.0166 14.1941 20.8538 14.3247 20.6821C14.538 20.3966 14.746 20.1085 14.9468 19.814C15.1702 19.4866 15.3959 19.1609 15.6235 18.8364C15.9036 18.4371 16.1826 18.0372 16.4609 17.6367C16.736 17.2409 17.0116 16.8455 17.2881 16.4507C17.3189 16.4066 17.3498 16.3626 17.3815 16.3172C17.5444 16.0847 17.7073 15.8524 17.8704 15.6201C17.9045 15.5715 17.9386 15.5229 17.9738 15.4728C18.0383 15.3807 18.1029 15.2887 18.1676 15.1968C18.1971 15.1547 18.2267 15.1126 18.2571 15.0692C18.2826 15.0329 18.3081 14.9966 18.3343 14.9592C18.3658 14.9134 18.3973 14.8675 18.4297 14.8203C18.456 14.7872 18.4823 14.7541 18.5094 14.7199C18.7572 14.3889 18.8048 14.1424 18.7982 13.7348C18.7986 13.6769 18.799 13.619 18.7994 13.5594C18.8003 13.3664 18.7989 13.1735 18.7975 12.9805C18.7977 12.8418 18.798 12.7031 18.7984 12.5644C18.7991 12.2661 18.7988 11.968 18.7976 11.6698C18.7959 11.2384 18.7962 10.807 18.7969 10.3757C18.7981 9.67539 18.798 8.97512 18.7969 8.27484C18.7969 8.23298 18.7968 8.19112 18.7967 8.14799C18.7967 8.10607 18.7966 8.06416 18.7965 8.02098C18.7956 7.42612 18.795 6.83125 18.7948 6.23639C18.7948 6.17355 18.7948 6.17355 18.7947 6.10945C18.7945 5.41136 18.7949 4.71328 18.7957 4.0152C18.7961 3.58477 18.7959 3.15435 18.7948 2.72392C18.7939 2.39453 18.7939 2.06514 18.7941 1.73575C18.7941 1.60047 18.7938 1.4652 18.7931 1.32992C18.7923 1.14574 18.7925 0.961577 18.7929 0.77739C18.7924 0.723464 18.7919 0.669539 18.7914 0.613978C18.7917 0.564698 18.7921 0.515417 18.7924 0.464643C18.7923 0.422132 18.7922 0.379621 18.7922 0.335822C18.8302 0.116701 18.9165 0.0104067 19.1347 -0.0273748ZM19.6328 0.765625C19.6328 1.7943 19.6328 2.82297 19.6328 3.88281C22.0511 3.88281 24.4694 3.88281 26.9609 3.88281C26.6367 3.22683 26.6367 3.22683 26.2891 2.58719C26.1933 2.27777 26.3144 2.04252 26.4536 1.76752C26.5139 1.65427 26.5748 1.54134 26.6362 1.42871C26.6973 1.31496 26.7584 1.20118 26.8193 1.08734C26.86 1.01238 26.86 1.01238 26.9016 0.935909C26.9651 0.833864 26.9651 0.833864 26.9609 0.765625C24.5427 0.765625 22.1244 0.765625 19.6328 0.765625Z" fill="#0077FF"/>
<path d="M9.50195 1.57227C9.95381 1.89764 10.2205 2.31834 10.3699 2.85678C10.501 3.8121 10.3515 4.64903 9.84375 5.46875C9.80766 5.50484 9.77156 5.54094 9.73437 5.57812C10.0279 5.5795 10.3214 5.58048 10.6149 5.58113C10.7143 5.5814 10.8136 5.58177 10.913 5.58225C11.2494 5.58383 11.5856 5.5829 11.9219 5.57812C11.9689 5.57746 12.0158 5.57679 12.0643 5.57611C12.1993 5.57349 12.3342 5.5692 12.4692 5.56424C12.5094 5.56348 12.5496 5.56272 12.591 5.56194C12.8556 5.54962 12.993 5.4917 13.1797 5.30469C13.2562 5.21695 13.2562 5.21695 13.3149 5.1246C13.3378 5.09063 13.3606 5.05666 13.3842 5.02166C13.4081 4.98535 13.4319 4.94904 13.4565 4.91162C13.5097 4.83261 13.5629 4.75365 13.6161 4.67471C13.6434 4.63413 13.6706 4.59355 13.6987 4.55175C13.8838 4.27818 14.0756 4.00936 14.2672 3.74033C14.3866 3.57277 14.5036 3.40384 14.6197 3.23404C14.6809 3.14609 14.742 3.05814 14.8032 2.97021C14.8305 2.92962 14.8577 2.88902 14.8858 2.84719C15.1214 2.51196 15.4116 2.26384 15.8047 2.13281C16.3231 2.09263 16.7039 2.10408 17.1114 2.43594C17.4 2.70146 17.5853 2.95971 17.6301 3.35452C17.6509 3.98391 17.4352 4.33537 17.0693 4.82617C17.0057 4.91292 16.9421 4.99972 16.8786 5.08658C16.8458 5.1313 16.8131 5.17602 16.7793 5.2221C16.6145 5.44926 16.4539 5.67941 16.2935 5.90967C16.2295 6.00124 16.1656 6.09281 16.1016 6.18439C16.0704 6.22906 16.0393 6.27374 16.0071 6.31977C14.6804 8.22042 14.6804 8.22042 13.9453 8.42188C13.5411 8.47177 13.1324 8.4799 12.7255 8.4881C12.6871 8.48889 12.6488 8.48967 12.6092 8.49049C12.4518 8.4936 12.2944 8.49662 12.137 8.49851C11.4304 8.49083 11.4304 8.49083 10.8149 8.79742C10.7854 8.83366 10.7559 8.86989 10.7256 8.90723C10.6953 8.94318 10.665 8.97913 10.6337 9.01617C10.4794 9.24389 10.4316 9.44003 10.4329 9.7134C10.4329 9.7736 10.4329 9.8338 10.4329 9.89582C10.4335 9.9602 10.434 10.0246 10.4346 10.0909C10.4348 10.1573 10.4349 10.2237 10.4351 10.292C10.4357 10.5038 10.4371 10.7155 10.4385 10.9272C10.439 11.0709 10.4395 11.2146 10.44 11.3582C10.4412 11.7102 10.443 12.0621 10.4453 12.4141C10.4857 12.4374 10.526 12.4606 10.5676 12.4846C11.0644 12.7712 11.0644 12.7712 11.2763 12.8936C11.5711 13.0637 11.8659 13.2338 12.1612 13.4031C12.2563 13.4576 12.3513 13.5122 12.4463 13.5668C12.565 13.6349 12.6838 13.703 12.8026 13.7709C13.0784 13.9295 13.3528 14.0904 13.6242 14.2563C13.6728 14.2859 13.7215 14.3154 13.7715 14.3459C13.9042 14.448 13.9406 14.5015 14 14.6563C14.0146 14.8177 14.0146 14.8177 14.0159 15.0081C14.0166 15.0794 14.0173 15.1508 14.018 15.2243C14.0182 15.3021 14.0183 15.3798 14.0184 15.4576C14.0187 15.5375 14.0191 15.6175 14.0195 15.6974C14.0201 15.8649 14.0203 16.0324 14.0203 16.1998C14.0203 16.4141 14.0217 16.6284 14.0236 16.8427C14.0249 17.0078 14.0251 17.1729 14.025 17.338C14.0251 17.417 14.0256 17.496 14.0265 17.575C14.0275 17.6855 14.0271 17.7961 14.0266 17.9067C14.0267 17.9696 14.0269 18.0324 14.027 18.0972C13.9942 18.3016 13.9252 18.3929 13.7812 18.5391C13.6176 18.5896 13.5193 18.5641 13.3437 18.5391C13.2173 18.4178 13.1821 18.3478 13.1667 18.1725C13.1701 18.116 13.1734 18.0596 13.1769 18.0014C13.1816 17.905 13.1816 17.905 13.1864 17.8066C13.1902 17.7371 13.194 17.6677 13.1978 17.5961C13.2022 17.4483 13.2063 17.3005 13.2099 17.1526C13.2158 16.9199 13.2233 16.6877 13.2384 16.4554C13.3178 15.5975 13.3178 15.5975 13.0034 14.8427C12.6906 14.5936 12.341 14.4345 11.9722 14.2852C11.7675 14.2 11.5875 14.0953 11.3983 13.9799C11.3419 13.9476 11.2856 13.9152 11.2275 13.8819C10.3432 13.3745 10.3432 13.3745 9.95312 13.1387C9.90124 13.1074 9.84935 13.0761 9.7959 13.0438C9.67969 12.9609 9.67969 12.9609 9.57031 12.7969C9.55606 12.65 9.55606 12.65 9.55529 12.4707C9.55477 12.4035 9.55425 12.3363 9.55371 12.267C9.55373 12.1935 9.55378 12.12 9.55386 12.0464C9.55365 11.9707 9.55341 11.895 9.55315 11.8193C9.55274 11.6604 9.55276 11.5015 9.55305 11.3425C9.55336 11.1402 9.55244 10.9379 9.55117 10.7356C9.55036 10.579 9.55032 10.4225 9.55049 10.2659C9.55045 10.1555 9.54969 10.045 9.54892 9.93461C9.55228 9.25933 9.67942 8.71627 10.1535 8.21658C10.6374 7.77578 11.196 7.64103 11.8362 7.63937C11.9347 7.638 12.0332 7.63661 12.1318 7.63521C12.285 7.63364 12.4382 7.63232 12.5914 7.6313C12.7408 7.6301 12.89 7.62795 13.0393 7.6257C13.0845 7.6257 13.1296 7.62569 13.1761 7.62568C13.5548 7.61932 13.9078 7.55898 14.2053 7.31296C14.3419 7.1474 14.4729 6.97938 14.5981 6.80518C14.6237 6.76999 14.6493 6.73479 14.6756 6.69854C14.922 6.35782 15.1624 6.0129 15.4026 5.66787C15.6522 5.30998 15.9062 4.95557 16.1635 4.6033C16.2451 4.49121 16.3259 4.37862 16.4062 4.26562C16.4364 4.22335 16.4666 4.18108 16.4977 4.13753C16.5273 4.09485 16.5569 4.05218 16.5874 4.00821C16.6143 3.9698 16.6411 3.93139 16.6688 3.89182C16.7428 3.75828 16.773 3.6516 16.7891 3.5C16.7036 3.27509 16.6183 3.12631 16.4062 3.00781C16.2252 2.94112 16.1546 2.94433 15.9739 3.01721C15.7886 3.12671 15.7031 3.22289 15.5791 3.39746C15.537 3.45604 15.4949 3.51462 15.4516 3.57498C15.4052 3.64111 15.3588 3.70727 15.3125 3.77344C15.2611 3.84589 15.2096 3.9183 15.158 3.99069C14.932 4.30914 14.7075 4.62859 14.4858 4.95007C13.6056 6.22204 13.6056 6.22204 13.0156 6.39844C12.7233 6.43335 12.4318 6.43561 12.1378 6.43796C12.0492 6.43943 11.9605 6.44099 11.8718 6.44263C11.6298 6.44676 11.3878 6.44944 11.1457 6.45168C10.9903 6.45314 10.8348 6.45484 10.6794 6.45661C9.78937 6.46656 8.89934 6.47378 8.0093 6.4792C7.72684 6.48094 7.44438 6.4832 7.16193 6.48577C7.05599 6.48664 6.95006 6.48732 6.84412 6.48779C5.62735 6.49333 4.91501 6.7288 4.04687 7.60156C4.00415 7.64428 3.96143 7.687 3.91742 7.73102C3.51229 8.15989 3.18216 8.65121 2.84375 9.13281C2.81204 9.17789 2.78034 9.22296 2.74767 9.2694C2.58623 9.49915 2.42527 9.72923 2.26462 9.95953C2.0653 10.2452 1.86467 10.5299 1.66348 10.8143C1.52209 11.0141 1.38117 11.2143 1.24094 11.4149C1.19627 11.4787 1.19627 11.4787 1.15071 11.5437C1.09366 11.6252 1.03674 11.7067 0.979969 11.7883C0.941439 11.8432 0.941439 11.8432 0.90213 11.8992C0.879673 11.9314 0.857216 11.9636 0.834078 11.9967C0.724728 12.1392 0.642126 12.2351 0.47168 12.2979C0.285939 12.3067 0.203131 12.2478 0.0546875 12.1406C-1.5425e-09 12.0859 -1.5425e-09 12.0859 -0.022644 11.892C-0.0180242 11.595 0.128816 11.4229 0.307617 11.1973C0.373297 11.1105 0.438875 11.0237 0.504364 10.9369C0.538493 10.8921 0.572621 10.8474 0.607784 10.8013C0.776875 10.5763 0.936786 10.345 1.09717 10.1138C1.16151 10.0215 1.22589 9.92932 1.29028 9.83713C1.32151 9.79237 1.35274 9.74762 1.38492 9.7015C1.60512 9.38628 1.82661 9.07198 2.04923 8.75846C2.10706 8.67693 2.16477 8.5953 2.22237 8.5136C2.64777 7.91081 3.07954 7.35219 3.60937 6.83594C3.638 6.80421 3.66662 6.77249 3.69611 6.73981C4.37314 6.01135 5.15967 5.69054 6.14209 5.64648C6.31867 5.64038 6.49521 5.63572 6.67187 5.63281C6.64993 5.60468 6.62799 5.57655 6.60538 5.54756C6.44506 5.33862 6.30089 5.1399 6.19336 4.89795C6.17221 4.85177 6.15106 4.8056 6.12927 4.75803C5.98658 4.36046 5.94102 3.97903 5.94385 3.5581C5.94416 3.50997 5.94446 3.46183 5.94478 3.41223C5.95644 2.78969 6.13251 2.27466 6.55246 1.80234C7.30448 1.08982 8.64186 1.04145 9.50195 1.57227ZM7.21875 2.35156C6.89923 2.668 6.76951 2.95562 6.76045 3.40806C6.762 4.07263 6.85715 4.63817 7.32812 5.14062C7.58211 5.38644 7.80342 5.53865 8.16211 5.54736C8.59022 5.53769 8.83097 5.34933 9.11914 5.04834C9.59119 4.48037 9.62759 3.76752 9.57031 3.0625C9.48664 2.66173 9.24123 2.41902 8.91406 2.1875C8.40892 1.90254 7.65259 1.97826 7.21875 2.35156Z" fill="#0077FF"/>
<path d="M5.41364 8.62268C5.55652 8.64603 5.59696 8.69361 5.6875 8.80469C5.70387 8.96613 5.71009 9.11609 5.70907 9.27762C5.70957 9.35096 5.70957 9.35096 5.71008 9.42578C5.71099 9.59028 5.71073 9.75475 5.71046 9.91925C5.71087 10.0369 5.71134 10.1546 5.71187 10.2722C5.71309 10.5923 5.71324 10.9124 5.71314 11.2325C5.71313 11.4995 5.7136 11.7664 5.71406 12.0333C5.71511 12.6629 5.71527 13.2924 5.7149 13.922C5.71453 14.5721 5.71578 15.2223 5.71781 15.8724C5.71949 16.43 5.72011 16.9876 5.7199 17.5453C5.71979 17.8785 5.72009 18.2118 5.72143 18.5451C5.72264 18.8585 5.72254 19.1718 5.72143 19.4852C5.72124 19.6004 5.72152 19.7155 5.7223 19.8307C5.72329 19.9876 5.72261 20.1444 5.72149 20.3014C5.72217 20.3472 5.72286 20.3931 5.72356 20.4403C5.72024 20.6569 5.70829 20.7586 5.55934 20.9208C5.41406 21 5.41406 21 5.24316 20.9966C5.07529 20.9418 5.02114 20.9239 4.92188 20.7812C4.90545 20.6335 4.89913 20.4983 4.90007 20.3504C4.89971 20.3061 4.89934 20.2617 4.89897 20.216C4.89795 20.0669 4.89809 19.9178 4.89823 19.7686C4.89774 19.6619 4.89717 19.5552 4.89654 19.4485C4.89503 19.1584 4.89452 18.8682 4.8942 18.5781C4.89369 18.2751 4.89225 17.972 4.89092 17.669C4.88852 17.0949 4.88697 16.5208 4.8857 15.9468C4.88423 15.2933 4.88182 14.6398 4.87934 13.9864C4.87426 12.642 4.87034 11.2975 4.86719 9.95312C4.65043 10.1657 4.65043 10.1657 4.45853 10.4C4.43566 10.4314 4.41278 10.4627 4.38922 10.495C4.36535 10.5282 4.34148 10.5614 4.31689 10.5957C4.29109 10.6313 4.26528 10.6669 4.2387 10.7035C3.90434 11.1659 3.57661 11.633 3.24926 12.1003C2.36301 13.3654 2.36301 13.3654 2.1875 13.4531C1.99378 13.4742 1.89423 13.4761 1.72949 13.3677C1.60407 13.1795 1.61429 13.0759 1.64063 12.8516C1.72507 12.6882 1.8351 12.5483 1.94824 12.4038C2.01399 12.3165 2.07964 12.2291 2.1452 12.1417C2.17934 12.0966 2.21348 12.0515 2.24865 12.0051C2.4161 11.7807 2.57494 11.5505 2.73438 11.3203C4.04176 9.44699 4.04176 9.44699 4.87381 8.81494C5.08433 8.65498 5.14128 8.63273 5.41364 8.62268Z" fill="#0077FF"/>
<path d="M7.67526 13.3741C8.01345 13.3793 8.27232 13.5647 8.55518 13.7334C8.677 13.8039 8.79883 13.8744 8.92069 13.9449C9.01394 13.9994 9.01394 13.9994 9.10907 14.0551C9.34913 14.1944 9.59147 14.3294 9.83414 14.4641C10.2939 14.7194 10.7524 14.9772 11.2075 15.2407C11.2457 15.2625 11.2839 15.2843 11.3232 15.3067C11.4941 15.4066 11.5914 15.4731 11.7031 15.6406C11.7178 15.7606 11.7178 15.7606 11.719 15.9018C11.7197 15.9547 11.7204 16.0076 11.7211 16.0622C11.7212 16.1192 11.7214 16.1763 11.7215 16.2351C11.722 16.3232 11.722 16.3232 11.7226 16.4131C11.7232 16.5374 11.7234 16.6616 11.7234 16.7859C11.7236 16.9761 11.7256 17.1663 11.7277 17.3566C11.728 17.4772 11.7282 17.5979 11.7283 17.7185C11.7291 17.7755 11.7299 17.8325 11.7307 17.8912C11.7282 18.2835 11.7282 18.2835 11.6041 18.4656C11.4269 18.5743 11.3051 18.5681 11.1016 18.5391C10.9823 18.4607 10.9823 18.4607 10.8828 18.3203C10.8492 18.146 10.8497 17.9736 10.8495 17.7965C10.8486 17.7458 10.8477 17.6952 10.8467 17.643C10.8441 17.4814 10.8429 17.3198 10.8418 17.1582C10.8403 17.0485 10.8386 16.9389 10.8369 16.8292C10.8328 16.5606 10.8301 16.2921 10.8281 16.0234C10.7983 16.0073 10.7684 15.9911 10.7376 15.9745C10.1351 15.648 9.53453 15.3183 8.93799 14.981C8.88504 14.951 8.8321 14.9211 8.77754 14.8902C8.54798 14.7601 8.31991 14.6282 8.09375 14.4922C8.09424 14.5417 8.09472 14.5912 8.09522 14.6423C8.0996 15.109 8.10294 15.5757 8.10508 16.0424C8.10623 16.2824 8.10777 16.5223 8.11025 16.7622C8.11263 16.9938 8.11394 17.2253 8.1145 17.4569C8.11491 17.5452 8.1157 17.6336 8.11688 17.7219C8.11847 17.8456 8.11869 17.9693 8.11858 18.0931C8.11907 18.1635 8.11956 18.2339 8.12006 18.3065C8.09375 18.4844 8.09375 18.4844 7.995 18.6167C7.82181 18.7414 7.70012 18.7296 7.49219 18.7031C7.34913 18.603 7.32977 18.544 7.27344 18.375C7.26761 18.2275 7.26484 18.0815 7.26463 17.934C7.26435 17.8891 7.26408 17.8442 7.2638 17.7979C7.263 17.6492 7.26263 17.5005 7.26233 17.3517C7.26201 17.2484 7.2617 17.1451 7.26138 17.0418C7.26081 16.825 7.26049 16.6083 7.2603 16.3916C7.26 16.114 7.25869 15.8364 7.25713 15.5588C7.25611 15.3453 7.25583 15.1318 7.25574 14.9184C7.25558 14.816 7.25514 14.7137 7.25442 14.6113C7.25349 14.4681 7.25359 14.3249 7.25394 14.1817C7.25344 14.1395 7.25294 14.0973 7.25242 14.0538C7.255 13.7208 7.3169 13.4218 7.67526 13.3741Z" fill="#0077FF"/>
<path d="M9.97021 21.9673C10.1719 21.9844 10.1719 21.9844 10.3052 22.0698C10.4235 22.2544 10.4131 22.3694 10.3906 22.5859C10.2845 22.7395 10.2845 22.7395 10.1411 22.8833C10.0909 22.935 10.0407 22.9868 9.98901 23.0401C9.94108 23.0887 9.89314 23.1374 9.84375 23.1875C9.77811 23.2609 9.71308 23.3349 9.64893 23.4097C9.50594 23.5742 9.36089 23.7366 9.21484 23.8984C9.06774 24.0614 8.92155 24.2251 8.77734 24.3906C8.59181 24.6036 8.40263 24.8132 8.21338 25.0229C8.10876 25.1395 8.00522 25.2569 7.90234 25.375C7.75814 25.5406 7.61194 25.7042 7.46484 25.8672C7.17364 26.1902 6.88761 26.5171 6.60588 26.8484C6.4927 26.981 6.37857 27.1127 6.2645 27.2446C6.18141 27.3417 6.10017 27.4402 6.01904 27.539C5.96782 27.5993 5.91656 27.6595 5.86523 27.7197C5.8204 27.7737 5.77556 27.8277 5.72937 27.8834C5.5177 28.0466 5.40309 28.027 5.14062 28C4.99679 27.9165 4.97967 27.8438 4.91846 27.689C4.92699 27.2369 5.45295 26.8447 5.74817 26.5292C5.90111 26.3656 6.04917 26.1983 6.19571 26.0289C6.30746 25.9008 6.42123 25.7746 6.53516 25.6484C6.79761 25.3573 7.05692 25.0639 7.31061 24.7651C7.61657 24.4052 7.92736 24.0517 8.24927 23.706C8.42514 23.5171 8.59716 23.3256 8.76602 23.1305C8.87777 23.0024 8.99154 22.8762 9.10547 22.75C9.2932 22.542 9.47879 22.3323 9.6626 22.1209C9.78175 21.9851 9.78175 21.9851 9.97021 21.9673Z" fill="#0077FF"/>
<path d="M19.0385 18.8841C19.1933 18.8941 19.3289 18.9067 19.4687 18.9766C19.5583 19.1557 19.5564 19.3303 19.5234 19.5234C19.4412 19.6911 19.3311 19.8317 19.2158 19.978C19.1839 20.0203 19.152 20.0626 19.119 20.1062C19.0516 20.1956 18.9837 20.2846 18.9154 20.3734C18.7503 20.589 18.5903 20.8084 18.4297 21.0273C18.3653 21.1145 18.301 21.2017 18.2366 21.2888C18.0532 21.5377 17.872 21.7882 17.6914 22.0391C17.4369 22.3925 17.1805 22.7444 16.9224 23.0952C16.8904 23.1387 16.8585 23.1821 16.8256 23.2269C16.382 23.8285 16.382 23.8285 16.2422 23.8984C16.0485 23.9195 15.9489 23.9214 15.7842 23.813C15.6578 23.6234 15.667 23.5232 15.6953 23.2969C15.7897 23.1217 15.9103 22.9705 16.0337 22.8149C16.1046 22.7223 16.1754 22.6297 16.2462 22.537C16.2823 22.4904 16.3183 22.4437 16.3555 22.3957C16.5137 22.1889 16.665 21.9774 16.8164 21.7656C17.0915 21.3831 17.3702 21.0033 17.6504 20.6245C17.9069 20.2772 18.1599 19.9275 18.4106 19.576C18.489 19.4666 18.5683 19.3581 18.6484 19.25C18.6846 19.2007 18.6846 19.2007 18.7214 19.1504C18.8899 18.9322 18.8899 18.9322 19.0385 18.8841Z" fill="#0077FF"/>
</g>
<defs>
<clipPath id="clip0_2_4">
<rect width="28" height="28" fill="white"/>
</clipPath>
</defs>
</svg>
