<svg width="28" height="28" viewBox="0 0 28 28" fill="none" xmlns="http://www.w3.org/2000/svg">
<path d="M4.10789 1.19578C4.16612 1.19554 4.22434 1.1953 4.28433 1.19505C4.34853 1.19506 4.41273 1.19507 4.47887 1.19508C4.5809 1.19477 4.5809 1.19477 4.685 1.19447C4.87417 1.19397 5.06334 1.19372 5.25251 1.19357C5.45639 1.19336 5.66027 1.19283 5.86415 1.19236C6.35666 1.19127 6.84917 1.19072 7.34168 1.19024C7.57353 1.19 7.80538 1.1897 8.03723 1.18942C8.80778 1.18849 9.57833 1.1877 10.3489 1.1873C10.5489 1.18719 10.7488 1.18709 10.9488 1.18698C10.9985 1.18696 11.0482 1.18693 11.0994 1.1869C11.905 1.18645 12.7105 1.18506 13.516 1.18329C14.3428 1.18148 15.1695 1.18049 15.9962 1.18032C16.4605 1.1802 16.9248 1.17972 17.3891 1.17832C17.7845 1.17714 18.1798 1.1767 18.5751 1.17723C18.7769 1.17748 18.9786 1.17737 19.1803 1.17631C19.399 1.17517 19.6176 1.17573 19.8362 1.17645C19.9001 1.17585 19.9639 1.17525 20.0297 1.17463C20.3705 1.17736 20.5779 1.19113 20.8359 1.42187C21.1141 1.7226 21.1173 1.95806 21.1132 2.35533C21.113 2.40017 21.1128 2.445 21.1125 2.4912C21.112 2.58949 21.1113 2.68777 21.1106 2.78606C21.1093 2.94603 21.1084 3.10599 21.1075 3.26596C21.1066 3.43831 21.1056 3.61067 21.1046 3.78303C21.1021 4.21076 21.1007 4.63849 21.1 5.06622C21.0999 5.12831 21.0998 5.19039 21.0997 5.25436C21.0993 5.51052 21.099 5.76668 21.0987 6.02284C21.0978 6.74982 21.0957 7.47675 21.0901 8.20371C21.0856 8.78119 21.0837 9.35862 21.0847 9.93611C21.0851 10.2416 21.0843 10.5469 21.0804 10.8524C21.0768 11.1401 21.0766 11.4276 21.0788 11.7153C21.0791 11.8205 21.0781 11.9257 21.0758 12.0309C21.0523 12.6401 21.0523 12.6401 21.3197 13.1643C21.4662 13.3084 21.6243 13.4314 21.7907 13.5517C22.6017 14.1817 23.0464 15.4469 23.218 16.4144C23.3697 17.7374 23.1266 18.8426 22.5312 20.0156C22.6801 20.152 22.8293 20.2879 22.9796 20.4226C23.1328 20.5625 23.1328 20.5625 23.2227 20.6597C23.3449 20.787 23.4379 20.8347 23.613 20.8443C23.7285 20.841 23.844 20.8373 23.9595 20.8332C24.3795 20.8406 24.6556 21.1883 24.9437 21.4572C25.0914 21.5923 25.2428 21.719 25.3989 21.8442C25.6174 22.0204 25.8259 22.2035 26.0312 22.3945C26.3708 22.7103 26.7291 23.0006 27.09 23.2915C27.352 23.5101 27.5368 23.6842 27.5794 24.0392C27.5987 24.4688 27.4778 24.7238 27.2043 25.0484C27.1543 25.1018 27.1039 25.1548 27.0532 25.2075C26.9997 25.2643 26.9462 25.3211 26.8928 25.378C26.867 25.4053 26.8412 25.4327 26.8146 25.4608C26.6872 25.5985 26.5677 25.743 26.4487 25.8879C26.2427 26.0924 26.0564 26.1657 25.7681 26.1714C25.4061 26.1595 25.2503 26.0532 24.9922 25.8125C24.9332 25.762 24.8739 25.7118 24.8145 25.6619C24.5191 25.4132 24.2286 25.1596 23.9429 24.8999C23.7617 24.7353 23.5764 24.5784 23.3857 24.4248C22.1628 23.4347 22.1628 23.4347 22.0391 23.0781C22.0367 22.9927 22.0369 22.9072 22.0391 22.8218C22.0183 22.5515 21.9245 22.4436 21.7246 22.2646C21.6301 22.188 21.5344 22.1127 21.4375 22.0391C21.3462 21.9663 21.2551 21.8934 21.1641 21.8203C21.1633 21.8889 21.1633 21.8889 21.1625 21.959C21.1601 22.1306 21.1567 22.3022 21.1527 22.4739C21.1504 22.5839 21.1492 22.694 21.148 22.804C21.1293 23.5484 21.1293 23.5484 20.8906 23.8438C20.5902 24.0979 20.3291 24.1561 19.9438 24.1439C19.8971 24.1435 19.8504 24.1431 19.8023 24.1427C19.6546 24.1412 19.507 24.1378 19.3594 24.1343C19.2586 24.1329 19.1579 24.1317 19.0571 24.1305C18.8115 24.1275 18.5659 24.1228 18.3203 24.1172C18.3212 24.1768 18.322 24.2363 18.3229 24.2977C18.3259 24.5197 18.3278 24.7417 18.3293 24.9637C18.3301 25.0596 18.3313 25.1555 18.3327 25.2514C18.3347 25.3896 18.3356 25.5277 18.3363 25.666C18.3372 25.7085 18.338 25.7511 18.3389 25.7949C18.339 26.0969 18.2862 26.3296 18.0723 26.5587C17.8426 26.7343 17.7325 26.8037 17.4459 26.8042C17.3878 26.8045 17.3297 26.8047 17.2699 26.805C17.2055 26.8049 17.1412 26.8049 17.0749 26.8049C17.007 26.8051 16.9391 26.8053 16.8691 26.8055C16.6799 26.806 16.4907 26.8063 16.3015 26.8064C16.0977 26.8066 15.8939 26.8072 15.6901 26.8076C15.1976 26.8087 14.705 26.8093 14.2125 26.8098C13.9806 26.81 13.7488 26.8103 13.517 26.8106C12.7464 26.8115 11.9759 26.8123 11.2053 26.8127C11.0053 26.8128 10.8052 26.8129 10.6052 26.813C10.5555 26.813 10.5058 26.8131 10.4545 26.8131C9.64903 26.8136 8.84353 26.8149 8.03803 26.8167C7.21136 26.8185 6.38469 26.8195 5.55802 26.8197C5.09374 26.8198 4.62948 26.8203 4.1652 26.8217C3.76981 26.8229 3.37443 26.8233 2.97903 26.8228C2.77729 26.8225 2.57556 26.8226 2.37382 26.8237C2.15507 26.8248 1.93635 26.8243 1.71759 26.8235C1.62202 26.8244 1.62202 26.8244 1.52453 26.8254C1.16877 26.8225 0.9395 26.8014 0.656251 26.5781C0.464119 26.3362 0.410153 26.1779 0.410125 25.8705C0.409824 25.8334 0.409522 25.7964 0.409212 25.7582C0.408468 25.6341 0.409282 25.5101 0.410091 25.3861C0.409878 25.2962 0.409569 25.2063 0.409174 25.1165C0.408366 24.8696 0.408924 24.6227 0.409706 24.3758C0.410313 24.1095 0.409661 23.8432 0.409168 23.5769C0.408405 23.0553 0.40882 22.5337 0.409643 22.0121C0.410564 21.4049 0.410389 20.7977 0.410184 20.1906C0.409862 19.1074 0.410638 18.0242 0.411986 16.941C0.413294 15.8894 0.413681 14.8378 0.413107 13.7863C0.412484 12.6416 0.412377 11.497 0.413167 10.3524C0.413251 10.2304 0.413334 10.1084 0.413417 9.98644C0.413458 9.92641 0.4135 9.86638 0.413542 9.80454C0.413802 9.38108 0.413701 8.95762 0.413468 8.53416C0.413199 8.0183 0.413524 7.50245 0.414611 6.98659C0.415151 6.72329 0.415429 6.45999 0.414999 6.19668C0.414614 5.95579 0.414983 5.71492 0.415962 5.47404C0.416184 5.38675 0.416127 5.29946 0.41577 5.21218C0.415326 5.09378 0.415886 4.97542 0.416702 4.85703C0.416758 4.79119 0.416814 4.72535 0.416872 4.65752C0.447923 4.39689 0.563122 4.22297 0.765626 4.06055C1.02791 3.86384 1.24924 3.87548 1.56436 3.87747C1.61026 3.87755 1.65615 3.87763 1.70343 3.87771C1.84998 3.87801 1.99652 3.8787 2.14307 3.87939C2.24244 3.87967 2.34181 3.87992 2.44118 3.88014C2.68475 3.88074 2.92831 3.88169 3.17188 3.88281C3.17102 3.82712 3.17016 3.77143 3.16927 3.71405C3.16628 3.50573 3.16441 3.29741 3.16286 3.08907C3.16204 2.99922 3.16093 2.90937 3.1595 2.81953C3.15749 2.68974 3.15657 2.55998 3.15585 2.43018C3.15501 2.39057 3.15416 2.35096 3.15329 2.31015C3.15319 2.00141 3.19946 1.68232 3.41342 1.44548C3.64054 1.24907 3.81496 1.19635 4.10789 1.19578ZM4.10156 2.13281C4.10156 2.71031 4.10156 3.28781 4.10156 3.88281C4.30806 3.88329 4.30806 3.88329 4.51874 3.88378C5.81435 3.88688 7.10996 3.89088 8.40556 3.8957C9.07169 3.89816 9.73782 3.90032 10.404 3.90176C10.9845 3.90301 11.565 3.90484 12.1456 3.90735C12.453 3.90866 12.7605 3.90968 13.0679 3.91003C13.3573 3.91036 13.6466 3.91145 13.9359 3.91312C14.0421 3.9136 14.1484 3.91381 14.2546 3.91371C14.3996 3.91362 14.5446 3.91453 14.6896 3.91569C14.7316 3.91543 14.7737 3.91516 14.817 3.91489C15.2334 3.92039 15.4705 4.07508 15.7581 4.36183C15.7841 4.38756 15.8101 4.41328 15.8369 4.43978C15.922 4.52416 16.0065 4.60913 16.0909 4.69415C16.1503 4.75337 16.2096 4.81256 16.269 4.87172C16.393 4.99548 16.5167 5.11954 16.6402 5.2438C16.7983 5.40282 16.9571 5.56108 17.1161 5.71913C17.2387 5.84109 17.3608 5.96345 17.4829 6.08593C17.5413 6.14443 17.5998 6.20282 17.6584 6.26109C17.7404 6.34261 17.8218 6.42464 17.9031 6.50682C17.9494 6.55333 17.9958 6.59983 18.0436 6.64774C18.2766 6.92382 18.2821 7.18221 18.2831 7.53252C18.2836 7.58003 18.2842 7.62755 18.2847 7.6765C18.2864 7.83303 18.2873 7.98955 18.2883 8.14609C18.2893 8.25482 18.2904 8.36355 18.2915 8.47229C18.2943 8.75809 18.2965 9.04389 18.2985 9.32971C18.3007 9.6215 18.3035 9.9133 18.3062 10.2051C18.3115 10.7773 18.3161 11.3496 18.3203 11.9219C18.3904 11.9345 18.4605 11.9471 18.5327 11.9601C18.6282 11.9781 18.7238 11.9961 18.8193 12.0142C18.8651 12.0223 18.9108 12.0304 18.958 12.0388C19.3944 12.1225 19.7463 12.2593 20.1797 12.4141C20.1797 9.02125 20.1797 5.62844 20.1797 2.13281C14.8739 2.13281 9.56813 2.13281 4.10156 2.13281ZM1.3125 4.8125C1.3125 11.7605 1.3125 18.7086 1.3125 25.8672C6.61828 25.8672 11.9241 25.8672 17.3906 25.8672C17.3906 24.7844 17.3906 23.7016 17.3906 22.5859C16.9304 22.5047 16.9304 22.5047 16.4609 22.4219C15.6759 22.1925 14.8599 21.8052 14.2734 21.2188C14.1017 21.2133 13.9312 21.2115 13.7595 21.2119C13.7055 21.2118 13.6516 21.2117 13.596 21.2116C13.4783 21.2113 13.3606 21.2112 13.243 21.2112C12.9931 21.211 12.7432 21.2098 12.4934 21.2087C12.0276 21.2066 11.5619 21.2049 11.0962 21.2051C10.7727 21.2051 10.4493 21.2038 10.1258 21.2017C10.0024 21.2011 9.87901 21.201 9.7556 21.2014C9.58288 21.202 9.41025 21.2008 9.23754 21.1993C9.18645 21.1998 9.13536 21.2004 9.08272 21.2009C8.8358 21.197 8.72856 21.1894 8.52663 21.0356C8.42188 20.8906 8.42188 20.8906 8.39111 20.7231C8.43007 20.5197 8.47467 20.467 8.64063 20.3438C8.80122 20.3217 8.94159 20.3129 9.10221 20.3139C9.14865 20.3133 9.19509 20.3128 9.24293 20.3122C9.39622 20.3106 9.54947 20.3105 9.70276 20.3104C9.80912 20.3096 9.91548 20.3087 10.0218 20.3077C10.3016 20.3053 10.5814 20.3042 10.8612 20.3034C11.1468 20.3023 11.4323 20.3 11.7179 20.2978C12.2781 20.2937 12.8382 20.291 13.3984 20.2891C13.3133 20.071 13.2134 19.8675 13.1045 19.6602C12.8265 19.1106 12.6864 18.5755 12.5995 17.9687C12.5884 17.893 12.5884 17.893 12.5771 17.8157C12.559 17.6923 12.5411 17.5688 12.5234 17.4453C12.4745 17.4451 12.4255 17.4449 12.3751 17.4447C11.914 17.4426 11.4529 17.4395 10.9918 17.4353C10.7547 17.4331 10.5177 17.4313 10.2806 17.4305C10.0519 17.4297 9.82318 17.4278 9.59447 17.4252C9.50715 17.4244 9.41982 17.4239 9.33249 17.4239C9.2103 17.4238 9.08819 17.4223 8.96601 17.4205C8.89643 17.42 8.82684 17.4195 8.75515 17.419C8.58594 17.3906 8.58594 17.3906 8.48143 17.2896C8.40035 17.1293 8.39969 17.0212 8.42188 16.8438C8.48112 16.726 8.48112 16.726 8.58594 16.625C8.75723 16.5966 8.75723 16.5966 8.97103 16.5951C9.01 16.5946 9.04896 16.594 9.0891 16.5934C9.21783 16.5918 9.34651 16.5917 9.47525 16.5917C9.56452 16.5909 9.65379 16.5899 9.74306 16.5889C9.97799 16.5865 10.2129 16.5855 10.4478 16.5846C10.6876 16.5836 10.9273 16.5813 11.167 16.5791C11.6374 16.5749 12.1078 16.5722 12.5781 16.5703C12.6135 16.412 12.6488 16.2536 12.6841 16.0952C12.6941 16.0506 12.704 16.0059 12.7143 15.9599C12.724 15.9164 12.7337 15.8728 12.7437 15.828C12.7526 15.7882 12.7614 15.7484 12.7706 15.7073C12.799 15.576 12.8255 15.4443 12.8516 15.3125C12.7993 15.3123 12.747 15.3121 12.6932 15.3119C12.2007 15.3099 11.7082 15.3067 11.2158 15.3024C10.9626 15.3003 10.7094 15.2985 10.4562 15.2977C10.2119 15.2969 9.96761 15.295 9.7233 15.2924C9.63007 15.2915 9.53684 15.2911 9.4436 15.2911C9.31304 15.2909 9.18256 15.2895 9.05201 15.2877C8.99413 15.2881 8.99413 15.2881 8.93507 15.2885C8.75169 15.2846 8.65522 15.2689 8.50746 15.1566C8.42188 15.0391 8.42188 15.0391 8.39111 14.8784C8.43312 14.6497 8.51341 14.5802 8.69531 14.4375C8.85618 14.4141 8.98373 14.4071 9.14352 14.4136C9.21014 14.4146 9.21014 14.4146 9.2781 14.4156C9.37432 14.4171 9.47052 14.4192 9.56671 14.4219C9.71945 14.4258 9.87208 14.4276 10.0249 14.4287C10.4591 14.4322 10.8932 14.438 11.3274 14.4489C11.5933 14.4554 11.8591 14.4582 12.1251 14.4586C12.2259 14.4595 12.3268 14.4618 12.4276 14.4655C12.9628 14.4996 12.9628 14.4996 13.4442 14.3077C13.6237 14.1273 13.7592 13.9247 13.889 13.7068C14.4149 12.8698 15.6109 12.3444 16.5156 12.0859C16.8044 12.0318 17.0931 11.9777 17.3906 11.9219C17.3906 10.4781 17.3906 9.03437 17.3906 7.54687C16.647 7.5354 16.647 7.5354 15.9034 7.52566C15.8099 7.52389 15.7164 7.52207 15.6229 7.52017C15.5506 7.51966 15.5506 7.51966 15.4769 7.51914C15.2165 7.51305 15.0272 7.50403 14.8203 7.32812C14.4445 6.57652 14.6763 5.65258 14.6563 4.8125C10.2528 4.8125 5.84938 4.8125 1.3125 4.8125ZM15.5859 5.52344C15.5859 5.88437 15.5859 6.24531 15.5859 6.61719C15.9469 6.61719 16.3078 6.61719 16.6797 6.61719C16.4291 6.3216 16.4291 6.3216 16.1659 6.04147C16.1352 6.01063 16.1044 5.97979 16.0727 5.94801C16.0418 5.91731 16.0109 5.88661 15.979 5.85498C15.947 5.8228 15.9151 5.79062 15.8821 5.75746C15.7546 5.59813 15.7546 5.59813 15.5859 5.52344ZM14.7109 14.1094C13.7744 15.1203 13.3961 16.3178 13.4438 17.6805C13.5149 18.8074 14.11 19.8328 14.9126 20.6035C15.8629 21.4112 17.0201 21.7884 18.2656 21.7109C19.4525 21.5878 20.5028 21.0453 21.292 20.1427C22.0999 19.1221 22.433 17.9744 22.3125 16.6797C22.2692 16.3781 22.1898 16.0934 22.0937 15.8047C22.0746 15.747 22.0554 15.6894 22.0356 15.6299C21.6458 14.5931 20.8025 13.7066 19.8031 13.241C18.0658 12.4681 16.0914 12.7613 14.7109 14.1094ZM21.875 20.8359C21.7855 20.9431 21.7855 20.9431 21.7109 21.0547C21.8349 21.1632 21.9591 21.2714 22.0835 21.3794C22.1186 21.4102 22.1538 21.4411 22.19 21.4729C22.241 21.517 22.241 21.517 22.2931 21.562C22.3243 21.5892 22.3555 21.6165 22.3877 21.6445C22.4821 21.7223 22.4821 21.7223 22.6406 21.7656C22.6948 21.6754 22.7489 21.5852 22.8047 21.4922C22.709 21.4135 22.6133 21.3349 22.5176 21.2563C22.4643 21.2126 22.411 21.1688 22.3561 21.1237C22.1401 20.9199 22.1401 20.9199 21.875 20.8359ZM23.8437 21.7656C23.7357 21.8758 23.6303 21.9871 23.5259 22.1006C23.4967 22.1317 23.4674 22.1629 23.4373 22.195C23.2592 22.3878 23.1083 22.5823 22.9687 22.8047C23.2809 23.0961 23.5929 23.3846 23.9258 23.6523C24.1725 23.8509 24.4053 24.0601 24.6368 24.2757C24.8676 24.4893 25.1084 24.6884 25.3545 24.8843C25.4844 24.9922 25.4844 24.9922 25.604 25.1154C25.6933 25.2236 25.6933 25.2236 25.8125 25.2109C25.8933 25.1216 25.9701 25.0286 26.0449 24.9341C26.2368 24.6942 26.4317 24.4587 26.6328 24.2266C26.485 24.0302 26.3339 23.8788 26.1406 23.7275C25.9137 23.5459 25.6968 23.3583 25.4844 23.1602C25.2342 22.9273 24.9755 22.7097 24.7089 22.4956C24.501 22.3225 24.3031 22.1396 24.106 21.9545C23.9923 21.8234 23.9923 21.8234 23.8437 21.7656ZM19.7467 22.2596C19.3311 22.4058 18.9399 22.5173 18.5013 22.5682C18.3773 22.5727 18.3773 22.5727 18.3203 22.6406C18.3203 22.8211 18.3203 23.0016 18.3203 23.1875C18.9339 23.1875 19.5475 23.1875 20.1797 23.1875C20.1797 22.8446 20.1797 22.5017 20.1797 22.1484C20.0236 22.1484 19.8923 22.2083 19.7467 22.2596Z" fill="#0077FF"/>
<path d="M20.2749 14.0153C21.1737 14.74 21.7351 15.6954 21.875 16.8437C21.9345 17.9253 21.6973 18.9878 20.9794 19.8305C20.1935 20.7076 19.2302 21.1949 18.0488 21.2685C17.0094 21.3146 16.0519 20.9476 15.2578 20.2891C15.2135 20.2558 15.1693 20.2225 15.1237 20.1882C14.4019 19.5772 14.0179 18.6368 13.8906 17.7187C13.8233 16.4558 14.1535 15.4247 14.9948 14.4648C16.3432 13.0369 18.6954 12.854 20.2749 14.0153ZM15.48 15.3296C14.9355 16.0618 14.7253 16.8874 14.8438 17.788C15.0041 18.607 15.4557 19.2897 16.1226 19.7866C16.8423 20.2575 17.6347 20.4314 18.4844 20.2891C19.2794 20.0977 19.9832 19.6464 20.4429 18.9629C20.9039 18.188 21.0682 17.391 20.8564 16.5122C20.6385 15.6757 20.159 15.0428 19.4141 14.6016C18.0723 13.896 16.4756 14.1413 15.48 15.3296Z" fill="#0077FF"/>
<path d="M6.3335 7.94336C6.89593 8.4222 7.29385 8.98561 7.38281 9.73437C7.44452 10.5255 7.23904 11.1938 6.74515 11.8178C6.28004 12.3181 5.60824 12.6284 4.92812 12.6587C4.16988 12.6688 3.47154 12.4273 2.91211 11.9082C2.38884 11.3479 2.16572 10.6542 2.17597 9.89801C2.2261 9.18687 2.52096 8.57963 3.03964 8.09396C3.97552 7.31835 5.33429 7.21681 6.3335 7.94336ZM3.66406 8.80469C3.29667 9.16586 3.14936 9.55417 3.09326 10.0591C3.11776 10.5644 3.35389 10.983 3.71875 11.3203C4.10119 11.6462 4.46238 11.7286 4.96246 11.7206C5.21952 11.6954 5.41173 11.6133 5.63281 11.4844C5.69034 11.4539 5.74786 11.4235 5.80713 11.3921C6.15119 11.1092 6.36002 10.7142 6.45313 10.2812C6.49677 9.823 6.39003 9.41382 6.12158 9.03711C5.79891 8.65491 5.40175 8.44086 4.90671 8.37402C4.43033 8.35215 4.03686 8.51258 3.66406 8.80469Z" fill="#0077FF"/>
<path d="M6.3335 19.7012C6.89593 20.18 7.29385 20.7434 7.38281 21.4922C7.44452 22.2834 7.23904 22.9516 6.74515 23.5757C6.28004 24.0759 5.60824 24.3863 4.92812 24.4165C4.16988 24.4266 3.47154 24.1851 2.91211 23.666C2.38884 23.1057 2.16572 22.412 2.17597 21.6558C2.2261 20.9447 2.52096 20.3374 3.03964 19.8518C3.97552 19.0762 5.33429 18.9746 6.3335 19.7012ZM3.66406 20.5625C3.29667 20.9237 3.14936 21.312 3.09326 21.8169C3.11776 22.3222 3.35389 22.7409 3.71875 23.0781C4.10119 23.404 4.46238 23.4864 4.96246 23.4785C5.21952 23.4532 5.41173 23.3712 5.63281 23.2422C5.69034 23.2117 5.74786 23.1813 5.80713 23.1499C6.15119 22.867 6.36002 22.472 6.45313 22.0391C6.49677 21.5808 6.39003 21.1716 6.12158 20.7949C5.79891 20.4127 5.40175 20.1987 4.90671 20.1318C4.43033 20.11 4.03686 20.2704 3.66406 20.5625Z" fill="#0077FF"/>
<path d="M6.2175 13.7456C6.86502 14.209 7.24731 14.7979 7.38281 15.5859C7.44108 16.358 7.24376 17.0154 6.78851 17.6401C6.32671 18.1679 5.66923 18.4808 4.97656 18.5391C4.14803 18.5476 3.50484 18.297 2.8916 17.7461C2.43019 17.2653 2.19473 16.6084 2.17041 15.9517C2.18641 15.2355 2.44672 14.5818 2.93668 14.0605C3.83368 13.2396 5.18493 13.0699 6.2175 13.7456ZM3.5 14.875C3.21069 15.249 3.06292 15.6547 3.11719 16.1328C3.21923 16.6704 3.47836 17.0625 3.92618 17.3767C4.34759 17.6162 4.7797 17.6672 5.24658 17.5479C5.70962 17.3968 6.04345 17.0975 6.28906 16.6797C6.49414 16.2448 6.51362 15.8472 6.36768 15.3911C6.15357 14.854 5.77236 14.55 5.26025 14.311C4.56638 14.1614 3.97787 14.3514 3.5 14.875Z" fill="#0077FF"/>
<path d="M8.95368 22.4003C9.01754 22.3997 9.08141 22.3991 9.14721 22.3984C9.25201 22.3987 9.25201 22.3987 9.35892 22.3989C9.4334 22.3985 9.50788 22.398 9.58236 22.3975C9.7845 22.3963 9.98663 22.3961 10.1888 22.3962C10.3576 22.3962 10.5264 22.3958 10.6952 22.3953C11.0934 22.3943 11.4916 22.3941 11.8898 22.3945C12.3006 22.3948 12.7113 22.3936 13.122 22.3916C13.4748 22.3899 13.8275 22.3893 14.1803 22.3895C14.3909 22.3896 14.6015 22.3893 14.8122 22.388C15.0103 22.3867 15.2083 22.3868 15.4064 22.3879C15.5137 22.3882 15.6209 22.3871 15.7282 22.386C16.2525 22.3911 16.2525 22.3911 16.4221 22.5487C16.5467 22.7441 16.5563 22.8505 16.5156 23.0781C16.425 23.2197 16.3856 23.2737 16.2422 23.3516C16.0024 23.3925 15.7646 23.3872 15.5218 23.3843C15.4478 23.3844 15.3738 23.3847 15.2997 23.385C15.099 23.3855 14.8984 23.3844 14.6977 23.3829C14.4876 23.3816 14.2775 23.3817 14.0674 23.3817C13.7147 23.3815 13.3619 23.3802 13.0092 23.3782C12.6014 23.3759 12.1936 23.375 11.7858 23.3748C11.3516 23.3746 10.9173 23.3735 10.483 23.3722C10.3579 23.3719 10.2328 23.3717 10.1077 23.3715C9.91117 23.3712 9.71461 23.3703 9.51805 23.3689C9.41151 23.3683 9.30497 23.3683 9.19843 23.3682C9.10332 23.3674 9.10332 23.3674 9.00629 23.3666C8.95119 23.3663 8.89609 23.366 8.83933 23.3658C8.69082 23.3511 8.60215 23.3211 8.47656 23.2422C8.33642 23.0687 8.36457 22.8998 8.38471 22.69C8.47895 22.4262 8.70237 22.4012 8.95368 22.4003Z" fill="#0077FF"/>
<path d="M8.95368 10.6425C9.01754 10.6419 9.08141 10.6413 9.14721 10.6406C9.25201 10.6409 9.25201 10.6409 9.35892 10.6411C9.4334 10.6407 9.50788 10.6402 9.58236 10.6397C9.7845 10.6385 9.98663 10.6383 10.1888 10.6384C10.3576 10.6384 10.5264 10.638 10.6952 10.6375C11.0934 10.6365 11.4916 10.6363 11.8898 10.6367C12.3006 10.637 12.7113 10.6358 13.122 10.6337C13.4748 10.6321 13.8275 10.6314 14.1803 10.6317C14.3909 10.6318 14.6015 10.6315 14.8122 10.6301C15.0103 10.6289 15.2083 10.629 15.4064 10.6301C15.5137 10.6304 15.6209 10.6293 15.7282 10.6282C16.2525 10.6332 16.2525 10.6332 16.4221 10.7909C16.5467 10.9863 16.5563 11.0927 16.5156 11.3203C16.425 11.4619 16.3856 11.5159 16.2422 11.5937C16.0024 11.6347 15.7646 11.6294 15.5218 11.6265C15.4478 11.6266 15.3738 11.6269 15.2997 11.6272C15.099 11.6277 14.8984 11.6266 14.6977 11.6251C14.4876 11.6238 14.2775 11.6239 14.0674 11.6239C13.7147 11.6237 13.3619 11.6224 13.0092 11.6204C12.6014 11.6181 12.1936 11.6171 11.7858 11.617C11.3516 11.6168 10.9173 11.6157 10.483 11.6144C10.3579 11.614 10.2328 11.6138 10.1077 11.6137C9.91117 11.6133 9.71461 11.6125 9.51805 11.6111C9.41151 11.6105 9.30497 11.6105 9.19843 11.6104C9.10332 11.6096 9.10332 11.6096 9.00629 11.6087C8.95119 11.6085 8.89609 11.6082 8.83933 11.608C8.69082 11.5933 8.60215 11.5633 8.47656 11.4844C8.33642 11.3109 8.36457 11.142 8.38471 10.9322C8.47895 10.6684 8.70237 10.6434 8.95368 10.6425Z" fill="#0077FF"/>
<path d="M9.37102 8.49674C9.44613 8.49646 9.52125 8.49606 9.59636 8.49555C9.79998 8.49454 10.0036 8.49525 10.2072 8.49632C10.4203 8.49722 10.6335 8.49674 10.8467 8.49646C11.2046 8.49621 11.5624 8.49708 11.9203 8.49861C12.3341 8.50036 12.7478 8.50036 13.1616 8.49941C13.5597 8.49855 13.9579 8.49891 14.356 8.49985C14.5254 8.50022 14.6948 8.50017 14.8642 8.49976C15.0636 8.49934 15.2631 8.50001 15.4625 8.50151C15.5706 8.50206 15.6787 8.50154 15.7868 8.501C15.8511 8.50169 15.9155 8.50239 15.9817 8.5031C16.0377 8.50326 16.0936 8.50341 16.1512 8.50357C16.3352 8.53853 16.4002 8.60557 16.5156 8.75C16.5554 8.89982 16.5473 9.03613 16.5156 9.1875C16.4134 9.32046 16.3362 9.3866 16.1875 9.46094C16.089 9.46651 15.9904 9.46857 15.8918 9.46899C15.829 9.46938 15.7662 9.46977 15.7015 9.47017C15.5976 9.47039 15.5976 9.47039 15.4917 9.47062C15.4183 9.47096 15.3449 9.47132 15.2715 9.47171C15.0718 9.47266 14.8722 9.47324 14.6725 9.47369C14.5478 9.47397 14.4231 9.4743 14.2984 9.47464C13.9082 9.47569 13.5181 9.47646 13.128 9.47692C12.6775 9.47745 12.227 9.47889 11.7765 9.4811C11.4284 9.48275 11.0803 9.48356 10.7322 9.48374C10.5243 9.48387 10.3163 9.48436 10.1084 9.48574C9.91273 9.48701 9.71709 9.48724 9.52142 9.48668C9.41547 9.48664 9.30953 9.48768 9.20358 9.48876C9.14032 9.48838 9.07707 9.488 9.01189 9.48761C8.95704 9.48774 8.90218 9.48787 8.84566 9.48801C8.65377 9.45346 8.56166 9.37523 8.42188 9.24219C8.34289 9.08422 8.34658 8.97988 8.36719 8.80469C8.6057 8.42902 8.96259 8.49302 9.37102 8.49674Z" fill="#0077FF"/>
</svg>
