<svg width="28" height="28" viewBox="0 0 28 28" fill="none" xmlns="http://www.w3.org/2000/svg">
<g clip-path="url(#clip0_2_19)">
<path d="M3.96484 0.880469C3.12266 1.36719 2.41172 1.78281 2.38438 1.81016C2.35703 1.83203 2.37891 2.22578 2.43359 2.72891L2.52656 3.60391L2.08906 4.35859L1.65156 5.11328L0.842188 5.47422L0.0273438 5.82969V7.66172V9.48828L0.842188 9.84922L1.65156 10.2047L2.08906 10.9594L2.52656 11.7141L2.43359 12.5891C2.37891 13.0922 2.35703 13.4805 2.38438 13.5078C2.43906 13.557 5.46328 15.3125 5.49609 15.3125C5.5125 15.3125 5.83516 15.0773 6.21797 14.793C6.84141 14.3336 6.94531 14.2734 7.15313 14.2734H7.38281V15.6406V17.0078H5.55078C3.55469 17.0078 3.47813 17.0188 3.15547 17.325C2.81094 17.6477 2.76719 17.8227 2.74531 18.8508L2.72344 19.7859L2.44453 19.8516C1.89766 19.9773 1.37813 20.2727 0.9625 20.6938C0.311719 21.3445 0.0273438 22.0227 0.0382813 22.9141C0.0546875 24.418 0.995313 25.6156 2.43906 25.9547C2.88203 26.0586 3.69688 26.0313 4.11797 25.9C5.425 25.4898 6.28906 24.2867 6.28906 22.8867C6.28906 21.4266 5.28281 20.1688 3.86094 19.8461L3.54922 19.7805L3.56563 18.9055C3.58203 18.0688 3.5875 18.0305 3.71328 17.932C3.83359 17.8336 3.98672 17.8281 7.82578 17.8281C11.7414 17.8281 11.8125 17.8281 11.9219 17.9375C12.0203 18.0359 12.0313 18.118 12.0313 18.9164V19.7859L11.7469 19.8516C10.8883 20.0484 10.0461 20.7156 9.65781 21.4977C9.03438 22.7609 9.32422 24.325 10.3578 25.2492C11.8508 26.5781 14.3117 26.1516 15.2195 24.4125C15.6133 23.6469 15.7008 22.7063 15.4438 21.9406C15.2742 21.4266 14.9078 20.8633 14.5305 20.5352C14.1914 20.2398 13.6008 19.9391 13.1688 19.8461L12.8516 19.7805V18.8563C12.8516 17.8664 12.8242 17.7242 12.5617 17.4125C12.25 17.0461 12.2063 17.0406 10.1172 17.0078L8.23047 16.9805L8.21406 15.6297L8.20313 14.2734H8.44922C8.67891 14.2734 8.75547 14.3172 9.41719 14.7984C9.98047 15.2141 10.1555 15.318 10.2211 15.2742C10.2703 15.2469 10.9813 14.8313 11.807 14.3555L13.3 13.4914L13.2727 13.2672C13.2563 13.1414 13.2125 12.7422 13.1742 12.3813L13.1086 11.7141L13.5352 10.9703C13.8359 10.4398 14.0055 10.1992 14.1203 10.1391C14.268 10.0625 14.2789 10.068 14.3227 10.1828C14.35 10.2539 14.5195 10.6258 14.7055 11.0195L15.0336 11.725L16.0234 11.9766L17.0133 12.2281L17.6258 11.6703C18.1836 11.1617 18.2492 11.118 18.375 11.1672C18.4516 11.2 18.7195 11.2273 18.9711 11.2328L19.425 11.2438L21.1148 13.3164C22.1922 14.6344 22.8047 15.4328 22.8047 15.5094C22.8047 15.575 22.8539 15.7828 22.9086 15.9688L23.0125 16.3023L21.2625 19.1023C20.2727 20.6938 19.4141 22.0063 19.2773 22.1484C18.9875 22.4492 18.6758 22.9578 18.5555 23.3242C18.5063 23.4773 18.457 23.8984 18.4352 24.2813L18.4023 24.9648L17.8555 24.9977C17.2266 25.0305 16.893 25.1617 16.6141 25.4789C16.2805 25.8563 16.2258 26.075 16.1984 27.0867L16.1711 28H20.0102H23.8438V27.5898V27.1797H20.4531H17.0625V26.7422C17.0625 26.2227 17.1445 26.0313 17.4125 25.9C17.5766 25.8234 18.0086 25.8125 21.5906 25.8125H25.5773L25.7633 25.9383C25.993 26.0914 26.0805 26.3266 26.0805 26.8078L26.0859 27.1797H25.375H24.6641V27.5898V28H25.7906H26.9172L26.8953 27.0539C26.8789 26.1625 26.868 26.0969 26.7313 25.8344C26.5508 25.4898 26.2117 25.1891 25.8781 25.0797C25.7305 25.025 25.4406 24.9922 25.1836 24.9922H24.7352L24.7023 24.3742C24.6859 24.0406 24.6422 23.6797 24.6148 23.5758C24.5602 23.4008 24.6422 23.1602 25.6484 20.4422L26.7422 17.4891L27.1469 17.1008C27.6172 16.6359 27.8523 16.193 27.9453 15.5914C28.1531 14.257 27.2125 12.9281 25.8781 12.6711C25.55 12.6109 25.5281 12.5945 24.5711 11.7195L23.5977 10.8336L23.3406 11.0906C23.193 11.2273 23.0781 11.375 23.0781 11.4078C23.0781 11.4461 23.3953 11.7633 23.7891 12.1188L24.4945 12.7641L24.2102 12.9063C23.8547 13.0758 23.2477 13.6719 23.0836 14.0109L22.9633 14.268L22.8102 14.093C22.7281 13.9945 22.1156 13.2453 21.443 12.425L20.2289 10.932L20.5516 10.6203C20.732 10.4508 20.9398 10.1773 21.0219 10.0188L21.1695 9.72891L21.6617 10.1828C21.9297 10.4344 22.2141 10.6859 22.2906 10.7461L22.4273 10.8555L22.7063 10.5656C22.9414 10.3195 22.9742 10.2594 22.9086 10.2047C22.8648 10.1609 22.4875 9.81641 22.0664 9.43359C21.3117 8.73906 21.3008 8.72813 21.2352 8.42188C21.1531 7.99531 20.9891 7.69453 20.6555 7.33906C20.3383 7.00547 20.0648 6.83047 19.6547 6.69922L19.3703 6.60625L19.2008 5.91719C19.1023 5.53438 19.0039 5.13516 18.9766 5.02578L18.9219 4.82891L17.6258 4.56641L16.3242 4.30938L15.7172 4.94922C15.0336 5.67656 15.1539 5.64375 14.4102 5.30469L13.9617 5.09688L13.5352 4.36953L13.1141 3.63672L13.1742 2.95313C13.2125 2.57578 13.2563 2.17109 13.2727 2.05078L13.3 1.82656L11.7523 0.929688C10.8992 0.4375 10.1719 0.0382817 10.1391 0.0382817C10.1063 0.0382817 9.77266 0.2625 9.39531 0.535938L8.71172 1.03906H7.81484H6.9125L6.20703 0.519532C5.81875 0.235157 5.50156 4.76837e-07 5.50156 4.76837e-07C5.49609 4.76837e-07 4.80703 0.399219 3.96484 0.880469ZM6.04844 1.42188L6.64453 1.85938H7.81484H8.98516L9.58125 1.42188L10.1828 0.978907L11.2273 1.58594C11.807 1.91406 12.3102 2.20938 12.3484 2.23672C12.4086 2.275 12.4086 2.41172 12.3375 3.02969L12.25 3.77344L12.8188 4.76328L13.393 5.75859L14.082 6.05938L14.7656 6.36016L14.7547 7.66719L14.7383 8.97422L14.1094 9.24766C13.7648 9.40078 13.4422 9.56484 13.393 9.61406C13.3438 9.66328 13.0703 10.1227 12.7805 10.6258L12.25 11.5445L12.332 12.2391C12.3758 12.6219 12.4141 12.9609 12.4141 12.9938C12.4141 13.0266 11.9547 13.3219 11.3914 13.6445C10.8227 13.9727 10.325 14.2625 10.2758 14.2898C10.2102 14.3336 10.0516 14.2406 9.57578 13.8961L8.96328 13.4531H7.80938H6.66094L6.06484 13.8906C5.73672 14.1313 5.45781 14.3281 5.44141 14.3281C5.40313 14.3281 3.31953 13.125 3.25938 13.0703C3.23203 13.043 3.24844 12.7148 3.29219 12.2938L3.37422 11.5664L2.90938 10.7461C2.17656 9.45547 2.29688 9.58125 1.50938 9.24766L0.820313 8.95234V7.67266V6.39297L1.30156 6.17969C2.29688 5.73125 2.19844 5.82422 2.81641 4.74688L3.36875 3.78438L3.30313 3.16094C3.26484 2.82188 3.23203 2.47734 3.23203 2.40078C3.22656 2.275 3.34141 2.19844 4.33125 1.62422C4.94375 1.27422 5.44141 0.984375 5.44688 0.984375C5.44688 0.984375 5.72031 1.18125 6.04844 1.42188ZM17.5109 5.39219L18.2547 5.53984L18.375 6.0375C18.4461 6.31094 18.5008 6.55703 18.5063 6.58438C18.5063 6.60625 18.4078 6.66094 18.282 6.69922C17.2703 7.00547 16.6359 7.95703 16.6906 9.07266C16.718 9.63047 16.8602 10.0023 17.2047 10.4234L17.4344 10.7023L17.1172 11.0195L16.8 11.3313L16.2477 11.1891C15.9414 11.1125 15.6789 11.0469 15.6625 11.0469C15.6352 11.0469 15.0391 9.81641 15.0391 9.76172C15.0391 9.75078 15.1648 9.68516 15.3125 9.61953L15.5859 9.50469V7.89141V6.28359L16.0945 5.74219C16.3898 5.425 16.6305 5.21172 16.6797 5.22266C16.7234 5.23359 17.1008 5.31016 17.5109 5.39219ZM19.6055 7.56875C19.9336 7.72188 20.3 8.11016 20.3875 8.41094C20.5297 8.88672 20.4367 9.48281 20.1688 9.84375C19.7531 10.407 18.8234 10.5875 18.2273 10.2211C17.9648 10.057 17.6367 9.66328 17.5656 9.41719C17.3359 8.65156 17.675 7.86406 18.375 7.55234C18.725 7.39375 19.2445 7.39922 19.6055 7.56875ZM26.168 13.6281C26.868 13.9891 27.2563 14.7492 27.1195 15.493C27.0047 16.1273 26.6766 16.5703 26.1297 16.8164C25.7523 16.9859 25.2547 17.0242 24.85 16.9094C24.5328 16.8164 24.1391 16.5375 23.9586 16.275C23.2914 15.307 23.6688 13.9891 24.7406 13.5625C25.1398 13.4039 25.7852 13.4367 26.168 13.6281ZM23.5922 17.1117C23.6578 17.2156 24.2156 17.5438 24.5273 17.6641C24.7625 17.7516 24.9867 17.7898 25.3094 17.7953C25.6867 17.8008 25.7523 17.8117 25.725 17.8828C25.6922 17.9594 24.1445 22.1484 24.0844 22.307C24.068 22.3617 23.9859 22.307 23.8164 22.1266C23.4773 21.7766 23.0016 21.4813 22.5203 21.3227C22.1977 21.2188 22.0063 21.1914 21.5359 21.1914C21.2078 21.1914 20.9508 21.175 20.9617 21.1586C21.0055 21.0328 23.4938 17.068 23.5266 17.0625C23.5484 17.0625 23.5758 17.0844 23.5922 17.1117ZM3.62578 20.6445C4.34219 20.7977 4.94375 21.268 5.26094 21.9242C5.40313 22.2195 5.44141 22.3727 5.45781 22.7555C5.49609 23.532 5.27188 24.1008 4.71406 24.6203C4.31484 24.9977 3.89375 25.1727 3.33047 25.2C2.31328 25.2492 1.53125 24.8172 1.11016 23.9695C0.929688 23.6031 0.902344 23.4992 0.885938 23.0508C0.847656 22.2523 1.07734 21.6563 1.59688 21.1859C1.87578 20.9344 2.39531 20.6883 2.78906 20.6227C3.21016 20.557 3.21016 20.557 3.62578 20.6445ZM13.2672 20.7375C13.6992 20.8961 14.1258 21.2297 14.3773 21.607C14.6891 22.0773 14.782 22.4273 14.7547 23.0453C14.7383 23.4719 14.7055 23.5922 14.5523 23.9094C14.3281 24.3633 13.8797 24.8008 13.4258 25.0195C13.1633 25.1453 12.9992 25.1781 12.6219 25.2C11.5773 25.2547 10.7789 24.7844 10.3523 23.8656C10.2102 23.5703 10.1992 23.4883 10.1992 22.9086C10.1992 22.2906 10.2047 22.2688 10.4016 21.8641C10.6477 21.3773 10.9648 21.0547 11.4461 20.8305C12.0477 20.5516 12.682 20.5188 13.2672 20.7375ZM22.5586 22.225C23.45 22.6625 23.8984 23.4773 23.8984 24.6477V24.9922H21.5688H19.2391L19.2609 24.3469C19.2773 23.7617 19.2938 23.6742 19.4469 23.3461C19.7422 22.7227 20.1742 22.3344 20.8305 22.1102C21.1313 22.0008 21.268 21.9844 21.6727 22.0008C22.0938 22.0227 22.2086 22.05 22.5586 22.225Z" fill="#0077FF"/>
<path d="M6.81953 4.10156C5.8625 4.38594 5.00938 5.06406 4.57188 5.90078C4.25469 6.51328 4.14531 6.95078 4.14531 7.60156C4.14531 9.74531 5.69297 11.3258 7.7875 11.3203C8.87578 11.3148 9.69609 10.9867 10.4234 10.2594C11.1781 9.49922 11.5172 8.59688 11.4734 7.47031C11.4297 6.48594 11.0906 5.72031 10.3906 5.03125C9.95859 4.61563 9.57031 4.36406 9.0125 4.17266C8.45469 3.97031 7.37734 3.9375 6.81953 4.10156ZM8.55313 4.9C9.83281 5.22813 10.6586 6.33281 10.6641 7.71641C10.6641 9.38984 9.11094 10.7352 7.4375 10.5C6.00469 10.2977 4.96016 9.12188 4.96016 7.71094C4.95469 6.34922 5.78594 5.24453 7.07109 4.89453C7.45391 4.79063 8.14297 4.79609 8.55313 4.9Z" fill="#0077FF"/>
<path d="M18.5938 8.94141V9.35703L18.993 9.34062L19.3867 9.32422L19.4031 8.925L19.4195 8.53125H19.0039H18.5938V8.94141Z" fill="#0077FF"/>
<path d="M24.9375 15.2305V15.6406H25.3477H25.7578V15.2305V14.8203H25.3477H24.9375V15.2305Z" fill="#0077FF"/>
<path d="M3.37969 22.4602L2.67969 23.1547L2.47187 22.9523L2.26406 22.75L1.97969 23.0398L1.69531 23.3297L2.1875 23.8164L2.67969 24.3086L3.66406 23.3242L4.64844 22.3398L4.35859 22.05L4.07422 21.7656L3.37969 22.4602Z" fill="#0077FF"/>
<path d="M11.4023 21.875L11.1344 22.1484L11.5117 22.5313L11.8891 22.9141L11.5117 23.2969L11.1289 23.6797L11.4188 23.9641L11.7031 24.2539L12.0859 23.8711L12.4688 23.4938L12.8516 23.8711L13.2344 24.2539L13.5188 23.9641L13.8086 23.6797L13.4258 23.2969L13.0484 22.9141L13.4258 22.5313L13.8086 22.1484L13.5188 21.8641L13.2344 21.5742L12.8516 21.957L12.4688 22.3344L12.0969 21.968C11.8945 21.7656 11.7141 21.6016 11.6977 21.6016C11.6867 21.6016 11.55 21.7273 11.4023 21.875Z" fill="#0077FF"/>
<path d="M21.2188 23.4883V23.8984H21.6289H22.0391V23.4883V23.0781H21.6289H21.2188V23.4883Z" fill="#0077FF"/>
</g>
<defs>
<clipPath id="clip0_2_19">
<rect width="28" height="28" fill="white"/>
</clipPath>
</defs>
</svg>
