<svg width="28" height="28" viewBox="0 0 28 28" fill="none" xmlns="http://www.w3.org/2000/svg">
<g clip-path="url(#clip0_2_52)">
<path d="M13.4841 0.845947C13.5495 0.845633 13.5495 0.845633 13.6162 0.845313C13.7078 0.845165 13.7994 0.845563 13.891 0.846481C14.0306 0.847655 14.17 0.846489 14.3096 0.845093C14.399 0.845237 14.4885 0.845518 14.5779 0.845947C14.6192 0.845504 14.6606 0.845062 14.7032 0.844605C14.9845 0.849548 15.1426 0.911008 15.3672 1.09375C15.5513 1.30348 15.5903 1.44988 15.6099 1.71924C15.6418 1.94201 15.6714 2.00487 15.8523 2.14542C16.2213 2.35053 16.2213 2.35053 16.625 2.46094C16.7179 2.41986 16.8107 2.37866 16.9029 2.33618C17.1592 2.24015 17.4132 2.26854 17.6641 2.36182C17.963 2.52907 18.1014 2.83002 18.2611 3.12151C18.3234 3.23203 18.3898 3.33918 18.4572 3.44659C18.8855 4.14088 18.8855 4.14088 18.843 4.57538C18.7739 4.86454 18.662 5.03272 18.4229 5.21924C18.2656 5.30469 18.2656 5.30469 18.1563 5.30469C18.1602 5.35157 18.1641 5.39845 18.1682 5.44675C18.1733 5.50928 18.1784 5.57181 18.1836 5.63623C18.1919 5.73373 18.1919 5.73373 18.2005 5.83319C18.2109 6.01562 18.2109 6.01562 18.187 6.23096C18.1934 6.39983 18.1934 6.39983 18.3024 6.48453C18.4175 6.57017 18.4175 6.57017 18.5367 6.64154C18.7131 6.7758 18.7984 6.92834 18.8411 7.1455C18.8537 7.6297 18.6986 7.95029 18.4536 8.36035C18.4203 8.41985 18.387 8.47935 18.3527 8.54065C18.1386 8.91124 17.9292 9.22342 17.5363 9.4133C17.2088 9.48295 16.9847 9.42609 16.6797 9.29688C16.6255 9.27883 16.5714 9.26078 16.5156 9.24219C16.3815 9.30967 16.2568 9.37908 16.1294 9.45752C15.7626 9.67969 15.7626 9.67969 15.6406 9.67969C15.6425 9.71536 15.6444 9.75103 15.6464 9.78778C15.6556 10.0864 15.6533 10.3013 15.4766 10.5547C15.0925 10.9408 14.6862 10.8982 14.1783 10.902C14.0895 10.9029 14.0008 10.9044 13.9121 10.9064C12.9962 10.9279 12.9962 10.9279 12.6328 10.6094C12.4052 10.3083 12.408 10.0437 12.4141 9.67969C12.3723 9.66841 12.3306 9.65713 12.2876 9.64551C12.1005 9.57575 11.955 9.49226 11.7852 9.38916C11.6326 9.29963 11.6326 9.29963 11.4844 9.24219C11.303 9.29187 11.303 9.29187 11.1563 9.40625C10.8775 9.47989 10.677 9.45119 10.4075 9.37207C10.0257 9.1447 9.82078 8.70877 9.61133 8.33301C9.58243 8.28225 9.55352 8.23149 9.52374 8.1792C9.2834 7.75342 9.10963 7.43933 9.24219 6.94531C9.36666 6.73378 9.50194 6.59223 9.72754 6.49414C9.85712 6.40991 9.85712 6.40991 9.8587 6.2724C9.85783 6.16747 9.85476 6.06254 9.84973 5.95773C9.84146 5.73521 9.86952 5.52518 9.89844 5.30469C9.85896 5.29228 9.81948 5.27987 9.77881 5.26709C9.53488 5.15326 9.38973 4.97912 9.24219 4.75781C9.10607 4.23983 9.35309 3.84169 9.6009 3.40677C9.67989 3.27245 9.76108 3.13989 9.84375 3.00781C9.87208 2.96223 9.90041 2.91665 9.9296 2.86969C9.95767 2.82588 9.98573 2.78207 10.0146 2.73694C10.0397 2.69773 10.0648 2.65851 10.0907 2.61811C10.2837 2.37444 10.5265 2.3074 10.8247 2.26953C11.0111 2.27608 11.1282 2.33655 11.2896 2.42676C11.4102 2.49264 11.4102 2.49264 11.5391 2.51562C11.6872 2.45503 11.7933 2.37716 11.9176 2.27658C12.0313 2.1875 12.0313 2.1875 12.2192 2.12598C12.3723 2.03656 12.3723 2.03656 12.3978 1.87732C12.4152 1.76254 12.4295 1.64725 12.4403 1.53168C12.473 1.34262 12.5131 1.24393 12.6328 1.09375C12.9252 0.893145 13.1333 0.842182 13.4841 0.845947ZM13.3438 1.75C13.3077 1.96656 13.2716 2.18313 13.2344 2.40625C13.0499 2.71374 13.0499 2.71374 12.8744 2.80637C12.8182 2.83687 12.8182 2.83687 12.7609 2.868C12.722 2.88819 12.6831 2.90839 12.6431 2.9292C12.5663 2.97016 12.4896 3.01125 12.413 3.05246C12.3761 3.07221 12.3392 3.09195 12.3011 3.1123C12.151 3.19681 12.0104 3.29506 11.8672 3.39062C11.5847 3.48477 11.3521 3.48449 11.0845 3.36328C11.036 3.33621 10.9875 3.30914 10.9375 3.28125C10.8834 3.28125 10.8292 3.28125 10.7734 3.28125C10.6931 3.37619 10.6931 3.37619 10.6239 3.50278C10.597 3.54892 10.5702 3.59506 10.5425 3.64259C10.5012 3.71582 10.5012 3.71582 10.459 3.79053C10.4306 3.83871 10.4022 3.88689 10.3729 3.93654C10.2636 4.12411 10.2636 4.12411 10.1719 4.32031C10.2113 4.49791 10.2113 4.49791 10.3804 4.57666C10.5963 4.73331 10.6936 4.89096 10.7734 5.14062C10.8043 5.3874 10.804 5.6305 10.8008 5.87891C10.8016 5.94369 10.8025 6.00848 10.8033 6.07523C10.8017 6.44642 10.7805 6.74972 10.5547 7.05469C10.434 7.17247 10.3171 7.23878 10.1719 7.32812C10.2648 7.58706 10.3981 7.81822 10.5342 8.05615C10.5687 8.1169 10.5687 8.1169 10.6038 8.17888C10.6602 8.27819 10.7168 8.37739 10.7734 8.47656C10.8067 8.46395 10.84 8.45133 10.8743 8.43834C11.1878 8.32185 11.4793 8.23215 11.8084 8.35031C11.9231 8.40524 12.0313 8.4662 12.1406 8.53125C12.2068 8.56985 12.2068 8.56985 12.2744 8.60922C12.3676 8.66442 12.4604 8.72047 12.5527 8.77734C12.6385 8.82955 12.7254 8.87992 12.8138 8.92773C13.0136 9.03921 13.1112 9.10972 13.231 9.31055C13.2891 9.51562 13.2891 9.51562 13.3438 10.0078C13.7949 10.0078 14.2461 10.0078 14.7109 10.0078C14.729 9.8093 14.747 9.61078 14.7656 9.40625C14.9008 9.12272 15.0847 8.9958 15.3569 8.85596C15.5718 8.74004 15.7826 8.62582 15.979 8.47998C16.2375 8.29039 16.4784 8.28064 16.7891 8.3125C16.9736 8.39453 16.9736 8.39453 17.1172 8.47656C17.1713 8.47656 17.2255 8.47656 17.2813 8.47656C17.579 7.93516 17.579 7.93516 17.8828 7.38281C17.7238 7.21761 17.7238 7.21761 17.5513 7.08545C17.3492 6.9092 17.2896 6.81871 17.2654 6.55131C17.2609 6.18562 17.2609 6.18562 17.261 6.00377C17.2607 5.88648 17.2588 5.76931 17.2567 5.65204C17.2564 5.57684 17.2561 5.50165 17.256 5.42645C17.2556 5.35854 17.2551 5.29063 17.2547 5.22065C17.2916 4.95714 17.406 4.78528 17.6051 4.61127C17.6977 4.55074 17.7902 4.49021 17.8828 4.42969C17.7933 4.17862 17.6644 3.9596 17.5273 3.73242C17.5053 3.69499 17.4832 3.65756 17.4605 3.61899C17.3495 3.41721 17.3495 3.41721 17.1719 3.28125C17.1177 3.30719 17.0636 3.33313 17.0078 3.35986C16.7465 3.47308 16.5224 3.51223 16.2422 3.44531C16.0364 3.33423 15.8473 3.21011 15.656 3.07617C15.5126 2.97785 15.3813 2.90067 15.2236 2.83008C14.9957 2.71188 14.8793 2.57889 14.7656 2.35156C14.7386 2.05379 14.7386 2.05379 14.7109 1.75C14.2598 1.75 13.8086 1.75 13.3438 1.75Z" fill="#0077FF"/>
<path d="M1.40094 18.3472C1.4635 18.3466 1.52607 18.346 1.59053 18.3454C1.69315 18.346 1.69315 18.346 1.79785 18.3467C1.8708 18.3464 1.94376 18.346 2.01671 18.3455C2.21467 18.3445 2.41261 18.3449 2.61057 18.3456C2.81776 18.3462 3.02493 18.3457 3.23212 18.3453C3.58004 18.3449 3.92796 18.3454 4.27588 18.3465C4.67811 18.3477 5.08032 18.3473 5.48255 18.3461C5.82791 18.3451 6.17327 18.3449 6.51863 18.3455C6.7249 18.3459 6.93115 18.3459 7.13741 18.3452C7.33134 18.3446 7.52523 18.345 7.71915 18.3463C7.82426 18.3467 7.92936 18.346 8.03447 18.3454C8.12832 18.3463 8.12832 18.3463 8.22406 18.3472C8.27842 18.3473 8.33278 18.3474 8.38879 18.3475C8.57653 18.3837 8.63945 18.4387 8.75 18.5937C8.77753 18.7499 8.77753 18.7499 8.77778 18.9342C8.77839 19.0041 8.77901 19.074 8.77965 19.1461C8.77922 19.2234 8.77877 19.3008 8.77831 19.3782C8.7786 19.4597 8.77899 19.5413 8.77947 19.6229C8.78046 19.8444 8.78008 20.0658 8.77938 20.2873C8.77883 20.519 8.77934 20.7507 8.77969 20.9824C8.78008 21.3715 8.77956 21.7606 8.77852 22.1497C8.77733 22.5997 8.77771 23.0496 8.77892 23.4995C8.77991 23.8858 8.78005 24.272 8.77948 24.6582C8.77914 24.8889 8.77909 25.1196 8.77981 25.3504C8.78045 25.5673 8.78001 25.7841 8.77874 26.001C8.77845 26.0807 8.77854 26.1603 8.77902 26.2399C8.77962 26.3486 8.77874 26.4572 8.77778 26.5658C8.7777 26.6267 8.77761 26.6875 8.77753 26.7501C8.74329 26.9443 8.68831 27.0085 8.53125 27.125C8.42244 27.1554 8.42244 27.1554 8.30579 27.1598C8.2613 27.1619 8.2168 27.164 8.17095 27.1662C8.12258 27.1674 8.0742 27.1686 8.02436 27.1698C7.97301 27.1718 7.92166 27.1739 7.86875 27.176C7.69845 27.1823 7.52819 27.1867 7.35782 27.1906C7.29925 27.192 7.24069 27.1933 7.18035 27.1947C6.86936 27.2015 6.55838 27.2066 6.24734 27.2106C5.99195 27.2142 5.73707 27.2214 5.48187 27.2319C3.1628 27.3252 3.1628 27.3252 2.52982 26.7709C2.29303 26.5424 2.09912 26.2857 1.91307 26.0147C1.75763 25.8031 1.57098 25.6472 1.36719 25.4844C1.28528 25.4068 1.20411 25.3285 1.12451 25.2485C1.08849 25.2127 1.05247 25.1768 1.01535 25.1398C0.874413 24.9869 0.867972 24.8875 0.866952 24.685C0.86656 24.6318 0.866169 24.5786 0.865766 24.5237C0.865619 24.4652 0.865472 24.4066 0.86532 24.3462C0.864961 24.2847 0.864601 24.2231 0.864231 24.1597C0.86315 23.9554 0.862514 23.7511 0.861969 23.5468C0.861746 23.4772 0.861523 23.4076 0.861294 23.3359C0.86027 23.0056 0.859473 22.6752 0.859018 22.3449C0.858483 21.9635 0.857043 21.5822 0.854834 21.2008C0.852987 20.8705 0.852338 20.5403 0.852116 20.21C0.851849 20.0695 0.851211 19.9289 0.8502 19.7884C0.848875 19.592 0.848917 19.3956 0.849298 19.1992C0.848598 19.1408 0.847897 19.0825 0.847176 19.0223C0.847555 18.9688 0.847935 18.9153 0.848326 18.8602C0.848196 18.8137 0.848065 18.7673 0.847931 18.7194C0.91351 18.4149 1.1154 18.3477 1.40094 18.3472ZM1.75 19.25C1.75 20.8562 1.75 22.4623 1.75 24.1172C2.22628 24.0439 2.69277 23.9645 3.16216 23.8615C3.86674 23.7138 3.86673 23.7138 4.12891 23.8711C4.36789 24.2694 4.13757 24.8555 4.04688 25.2827C4.02333 25.3951 3.99991 25.5075 3.97666 25.6199C3.95567 25.7212 3.93431 25.8224 3.91293 25.9236C3.87782 26.0853 3.87782 26.0853 3.88281 26.25C5.20023 26.25 6.51766 26.25 7.875 26.25C7.875 23.94 7.875 21.63 7.875 19.25C5.85375 19.25 3.8325 19.25 1.75 19.25ZM2.7002 24.8555C2.66156 24.8633 2.62293 24.8711 2.58313 24.8792C2.48769 24.8985 2.39228 24.918 2.29688 24.9375C2.38499 25.1591 2.54298 25.3073 2.71045 25.4707C2.73819 25.4984 2.76593 25.5261 2.79451 25.5547C2.90924 25.6952 2.90924 25.6952 3.0625 25.7578C3.11664 25.433 3.17078 25.1081 3.22656 24.7734C3.04766 24.7734 2.87487 24.8197 2.7002 24.8555Z" fill="#0077FF"/>
<path d="M24.6641 17.8452C25.1041 18.2297 25.4251 18.7119 25.6484 19.25C25.6659 19.2915 25.6834 19.3329 25.7014 19.3756C25.9982 20.2384 25.8539 21.2313 25.4775 22.0356C25.3484 22.2937 25.1998 22.5165 25.0195 22.7432C24.4561 23.4671 24.2416 24.3183 24.2026 25.2246C24.1754 25.8211 24.0041 26.3183 23.5703 26.7422C23.0601 27.1245 22.5611 27.2366 21.9297 27.1797C21.4508 27.0847 21.095 26.839 20.7812 26.4688C20.5099 26.0391 20.4018 25.6666 20.3826 25.1612C20.3409 24.1125 20.0062 23.3087 19.3877 22.4732C18.8898 21.7939 18.6724 20.9648 18.7578 20.125C18.9172 19.1294 19.3714 18.2946 20.1741 17.6698C21.5779 16.7169 23.3321 16.8219 24.6641 17.8452ZM20.3053 18.8174C19.8761 19.3612 19.6182 20.0296 19.6875 20.7266C19.7832 21.3532 20.0738 21.8317 20.4531 22.3296C20.8033 22.8001 21.0432 23.3449 21.191 23.9117C21.2105 24.0084 21.2105 24.0084 21.2734 24.0625C21.3748 24.0665 21.4762 24.0671 21.5776 24.0659C21.6606 24.0652 21.6606 24.0652 21.7453 24.0644C21.7881 24.0638 21.8309 24.0632 21.875 24.0625C21.9989 23.1256 21.9989 23.1256 21.7167 22.2713C21.5502 22.0944 21.367 21.953 21.1641 21.8203C21.2448 21.6315 21.3521 21.5113 21.499 21.3691C21.5386 21.3305 21.5783 21.2919 21.6191 21.2521C21.6494 21.223 21.6797 21.194 21.7109 21.1641C21.9458 21.2692 22.0813 21.417 22.2578 21.6016C22.4926 21.5113 22.634 21.3425 22.8047 21.1641C22.9935 21.2448 23.1137 21.3521 23.2559 21.499C23.2945 21.5386 23.3331 21.5783 23.3729 21.6191C23.402 21.6494 23.431 21.6797 23.4609 21.7109C23.4016 21.871 23.3518 21.9295 23.2093 22.0288C23.0045 22.177 22.8546 22.2975 22.75 22.5312C22.6706 23.0353 22.7131 23.5557 22.75 24.0625C22.9485 24.0625 23.147 24.0625 23.3516 24.0625C23.373 24.0038 23.3944 23.9452 23.4165 23.8848C23.6656 23.2247 23.9261 22.6027 24.3667 22.0459C24.8459 21.4145 24.9704 20.7903 24.8828 20.0156C24.7601 19.3467 24.3629 18.8153 23.823 18.4143C22.6804 17.6651 21.2437 17.8267 20.3053 18.8174ZM21.3828 24.9375C21.3533 25.5634 21.3533 25.5634 21.6562 26.0313C21.8882 26.2053 22.1307 26.2888 22.4212 26.2705C22.7225 26.2143 22.9495 26.0877 23.1328 25.8398C23.2866 25.5387 23.2866 25.5387 23.2422 24.9375C22.6286 24.9375 22.015 24.9375 21.3828 24.9375Z" fill="#0077FF"/>
<path d="M7.61524 5.12695C7.73965 5.21582 7.768 5.26898 7.82031 5.41406C7.82383 5.56728 7.82001 5.71273 7.81006 5.86523C7.8073 5.91279 7.80454 5.96034 7.8017 6.00934C7.79049 6.19378 7.77799 6.37813 7.76563 6.5625C7.76009 6.65011 7.75458 6.73772 7.7491 6.82534C7.73372 7.06976 7.71742 7.31411 7.70058 7.55844C7.69384 7.65752 7.6873 7.75661 7.68099 7.85571C7.67187 7.99714 7.66182 8.13847 7.65155 8.27982C7.64898 8.32233 7.64641 8.36485 7.64376 8.40865C7.62401 8.66445 7.57973 8.85741 7.4375 9.07813C7.25635 9.16357 7.25635 9.16357 7.05469 9.1875C6.72084 9.05567 6.46732 8.82085 6.19624 8.59245C6.16124 8.56359 6.12624 8.53472 6.09018 8.50497C6.05876 8.47853 6.02734 8.45208 5.99497 8.42483C5.90095 8.35229 5.90095 8.35229 5.74219 8.36719C4.27535 10.2666 3.80917 12.9767 4.07676 15.3025C4.1263 15.6501 4.20327 15.9921 4.28808 16.3326C4.30006 16.3815 4.31203 16.4303 4.32437 16.4806C4.33542 16.5232 4.34646 16.5657 4.35784 16.6096C4.37779 16.7547 4.35596 16.8666 4.32031 17.0078C4.20416 17.0445 4.08794 17.0809 3.97168 17.1172C3.90697 17.1375 3.84225 17.1578 3.77557 17.1787C3.60938 17.2266 3.60938 17.2266 3.5 17.2266C2.9808 15.4124 2.82791 13.4434 3.28125 11.5938C3.29297 11.545 3.30469 11.4963 3.31677 11.4461C3.63134 10.1752 4.14192 8.9589 4.89816 7.88718C4.98644 7.77441 4.98644 7.77441 4.97656 7.65625C4.8973 7.58335 4.8973 7.58335 4.79285 7.51163C4.75436 7.48361 4.71587 7.45558 4.67621 7.42671C4.59476 7.36844 4.5133 7.3102 4.43182 7.25197C3.90664 6.86954 3.90664 6.86954 3.85547 6.5625C3.89082 6.35043 3.94926 6.27747 4.10156 6.125C4.25686 6.04548 4.41862 5.99341 4.58456 5.94043C4.63208 5.92447 4.67959 5.90851 4.72854 5.89207C4.88045 5.84126 5.03273 5.79171 5.18506 5.74219C5.28517 5.70894 5.38525 5.67562 5.48531 5.64221C5.68022 5.57725 5.87534 5.51301 6.07066 5.44931C6.2436 5.39277 6.41586 5.33474 6.58757 5.27457C6.62475 5.26167 6.66192 5.24878 6.70022 5.2355C6.79803 5.20144 6.89568 5.16689 6.99331 5.13229C7.21119 5.07314 7.39935 5.05499 7.61524 5.12695ZM6.37409 6.33008C6.31522 6.34982 6.25636 6.36956 6.19571 6.38989C6.13403 6.41076 6.07234 6.43163 6.00879 6.45312C5.94668 6.47399 5.88458 6.49486 5.82059 6.51636C5.6668 6.56805 5.51307 6.6199 5.35938 6.67187C5.35938 6.70797 5.35938 6.74406 5.35938 6.78125C5.46463 6.87001 5.57008 6.95253 5.68066 7.03418C5.74571 7.08312 5.81072 7.13212 5.8757 7.18115C5.92468 7.21795 5.92468 7.21795 5.97464 7.25549C6.19248 7.42086 6.40449 7.59373 6.61719 7.76562C6.88043 7.50238 6.78424 6.87148 6.78467 6.51465C6.78381 6.42122 6.78279 6.32779 6.78125 6.23437C6.63231 6.23437 6.51534 6.2825 6.37409 6.33008Z" fill="#0077FF"/>
<path d="M20.3438 5.08594C20.8706 5.33173 21.2927 5.78412 21.7109 6.17969C21.7579 6.22368 21.8048 6.26767 21.8532 6.31299C22.4664 6.90474 22.9504 7.59616 23.4062 8.3125C23.4399 8.36438 23.4735 8.41627 23.5081 8.46973C24.2877 9.73137 24.7281 11.2212 24.8828 12.6875C24.9297 12.6864 24.9766 12.6852 25.0249 12.684C25.1994 12.6803 25.3739 12.6776 25.5484 12.6755C25.6238 12.6744 25.6992 12.6729 25.7747 12.671C25.8832 12.6683 25.9919 12.6672 26.1005 12.6661C26.1658 12.665 26.2311 12.6638 26.2983 12.6627C26.4688 12.6875 26.4688 12.6875 26.6011 12.7709C26.6983 12.9232 26.7258 13.0388 26.7159 13.2197C26.6568 13.4779 26.4984 13.684 26.3502 13.8994C26.3156 13.9513 26.2811 14.0031 26.2455 14.0566C26.1351 14.2218 26.0234 14.386 25.9116 14.5503C25.8374 14.6609 25.7633 14.7716 25.6893 14.8824C25.4949 15.1726 25.2996 15.4622 25.1016 15.75C25.0751 15.7887 25.0487 15.8273 25.0214 15.8672C24.8412 16.1263 24.8412 16.1263 24.7188 16.1875C24.4079 16.2181 24.4079 16.2181 24.2812 16.1875C24.0106 15.9542 23.8314 15.6645 23.638 15.3668C23.6035 15.3141 23.5689 15.2615 23.5333 15.2073C23.4234 15.0397 23.314 14.8719 23.2046 14.7041C23.1304 14.5908 23.0562 14.4775 22.9819 14.3642C22.8188 14.1153 22.656 13.8663 22.4934 13.6171C22.4336 13.5257 22.3731 13.4347 22.3125 13.3438C22.2753 12.9536 22.2753 12.9536 22.4027 12.7913C22.5673 12.6584 22.6542 12.662 22.8636 12.6661C22.9271 12.6668 22.9905 12.6675 23.0559 12.6683C23.1219 12.6701 23.1879 12.6719 23.2559 12.6738C23.3227 12.6748 23.3895 12.6758 23.4584 12.6768C23.6233 12.6794 23.7882 12.683 23.9531 12.6875C23.9003 12.4501 23.8457 12.2131 23.7891 11.9766C23.7797 11.9373 23.7703 11.8981 23.7606 11.8577C23.2032 9.56052 21.9754 7.34934 19.987 5.98636C19.9604 5.95992 19.9337 5.93349 19.9062 5.90625C19.9062 5.64293 19.9684 5.57853 20.125 5.37305C20.1656 5.31919 20.2062 5.26533 20.248 5.20984C20.2796 5.16895 20.3112 5.12806 20.3438 5.08594ZM23.625 13.5625C23.8029 13.8828 23.9799 14.1918 24.1821 14.4956C24.2061 14.5325 24.23 14.5694 24.2547 14.6074C24.3152 14.6987 24.3799 14.7872 24.4453 14.875C24.4814 14.875 24.5175 14.875 24.5547 14.875C24.6485 14.7556 24.6485 14.7556 24.7448 14.6018C24.7815 14.5453 24.8181 14.4888 24.8559 14.4306C24.8941 14.3708 24.9323 14.3111 24.9717 14.2495C25.0296 14.1602 25.0296 14.1602 25.0887 14.0691C25.2745 13.8312 25.2745 13.8312 25.375 13.5625C24.7975 13.5625 24.22 13.5625 23.625 13.5625Z" fill="#0077FF"/>
<path d="M13.6172 22.4219C13.7847 22.5278 13.7847 22.5278 13.8906 22.6953C13.9059 23.1623 13.7084 23.6237 13.5625 24.0625C15.0798 23.9799 16.5881 23.829 17.9804 23.1758C18.1016 23.1328 18.1016 23.1328 18.2656 23.1875C18.3534 23.3445 18.3534 23.3445 18.4399 23.5396C18.4689 23.6038 18.4979 23.668 18.5277 23.7342C18.5938 23.8984 18.5938 23.8984 18.5938 24.0078C16.9628 24.7048 15.0767 25.2252 13.2891 24.9375C13.2831 24.9886 13.2772 25.0397 13.2711 25.0924C13.2313 25.369 13.1582 25.6357 13.084 25.9048C13.0709 25.956 13.0578 26.0072 13.0443 26.06C12.9803 26.291 12.9375 26.4366 12.768 26.611C12.5871 26.7134 12.51 26.7318 12.3047 26.6875C11.9761 26.4759 11.7404 26.1599 11.5 25.8576C11.3807 25.7102 11.2568 25.5696 11.1289 25.4297C10.9148 25.1943 10.7111 24.9524 10.512 24.7042C10.4307 24.6041 10.3475 24.5055 10.2625 24.4086C9.96345 24.0611 9.96345 24.0611 9.91211 23.7959C9.9614 23.5905 10.0094 23.5388 10.1719 23.4063C10.3112 23.3474 10.4439 23.2981 10.5874 23.2529C10.628 23.2395 10.6686 23.2261 10.7105 23.2123C10.8418 23.1692 10.9733 23.127 11.105 23.085C11.195 23.0557 11.285 23.0264 11.3751 22.9971C11.5511 22.9398 11.7273 22.883 11.9036 22.8264C12.0984 22.7638 12.2926 22.6996 12.4865 22.6342C12.5763 22.6044 12.6661 22.5747 12.7559 22.5449C12.7941 22.5318 12.8323 22.5187 12.8717 22.5052C13.1319 22.4212 13.3469 22.4028 13.6172 22.4219ZM12.3231 23.678C12.2617 23.7002 12.2004 23.7224 12.1372 23.7453C12.0729 23.7687 12.0086 23.7922 11.9424 23.8164C11.8777 23.8399 11.813 23.8634 11.7463 23.8875C11.586 23.9457 11.4258 24.004 11.2656 24.0625C11.3561 24.2536 11.4632 24.3887 11.6074 24.5444C11.808 24.7631 12.0034 24.9846 12.1953 25.2109C12.3374 25.0688 12.357 24.9494 12.4111 24.7559C12.4305 24.6872 12.4498 24.6185 12.4698 24.5476C12.49 24.4748 12.5101 24.402 12.5303 24.3291C12.5508 24.2558 12.5714 24.1825 12.592 24.1093C12.6424 23.9297 12.6924 23.7501 12.7422 23.5703C12.5879 23.5703 12.4681 23.6252 12.3231 23.678Z" fill="#0077FF"/>
<path d="M15.389 4.0881C15.8207 4.44313 16.1393 4.90469 16.1995 5.4725C16.2376 6.1814 16.1662 6.76386 15.6938 7.32449C15.2491 7.79032 14.7761 8.0392 14.1293 8.0648C13.4449 8.07328 12.9187 7.91922 12.4141 7.4375C11.9323 6.93289 11.7783 6.40662 11.7868 5.72224C11.8124 5.07544 12.0612 4.60244 12.5271 4.15775C13.3572 3.45828 14.5245 3.45592 15.389 4.0881ZM13.0703 4.92187C12.7768 5.25656 12.694 5.57215 12.7178 6.01306C12.7784 6.42736 12.9709 6.65357 13.2837 6.92096C13.6111 7.14655 13.9425 7.14854 14.3281 7.10938C14.6915 7.01239 14.9392 6.75682 15.1484 6.45313C15.3093 6.12506 15.3179 5.7486 15.2241 5.39697C15.0647 5.03586 14.7436 4.7486 14.3828 4.59375C13.8885 4.49489 13.4574 4.58419 13.0703 4.92187Z" fill="#0077FF"/>
<path d="M2.625 22.3125C4.06875 22.3125 5.5125 22.3125 7 22.3125C7 22.6013 7 22.89 7 23.1875C5.55625 23.1875 4.1125 23.1875 2.625 23.1875C2.625 22.8987 2.625 22.61 2.625 22.3125Z" fill="#0077FF"/>
<path d="M2.625 20.125C4.06875 20.125 5.5125 20.125 7 20.125C7 20.4138 7 20.7025 7 21C5.55625 21 4.1125 21 2.625 21C2.625 20.7112 2.625 20.4225 2.625 20.125Z" fill="#0077FF"/>
<path d="M5.25 24.5C5.8275 24.5 6.405 24.5 7 24.5C7 24.7888 7 25.0775 7 25.375C6.4225 25.375 5.845 25.375 5.25 25.375C5.25 25.0862 5.25 24.7975 5.25 24.5Z" fill="#0077FF"/>
<path d="M25.7578 17.2812C25.9591 17.3653 26.0853 17.4881 26.2363 17.6436C26.28 17.6882 26.3237 17.7329 26.3688 17.779C26.4018 17.8133 26.4348 17.8475 26.4688 17.8828C26.3847 18.0841 26.2619 18.2103 26.1064 18.3613C26.0618 18.405 26.0171 18.4487 25.971 18.4938C25.9367 18.5268 25.9025 18.5598 25.8672 18.5938C25.6659 18.5097 25.5397 18.3869 25.3887 18.2314C25.345 18.1868 25.3013 18.1421 25.2562 18.096C25.2232 18.0617 25.1902 18.0275 25.1562 17.9922C25.2403 17.7909 25.3631 17.6647 25.5186 17.5137C25.5632 17.47 25.6079 17.4263 25.654 17.3812C25.7054 17.3317 25.7054 17.3317 25.7578 17.2812Z" fill="#0077FF"/>
<path d="M19.1953 16.8438C19.3966 16.9278 19.5228 17.0506 19.6738 17.2061C19.7175 17.2507 19.7612 17.2954 19.8063 17.3415C19.8393 17.3758 19.8723 17.41 19.9062 17.4453C19.8222 17.6466 19.6994 17.7728 19.5439 17.9238C19.4993 17.9675 19.4546 18.0112 19.4085 18.0563C19.3742 18.0893 19.34 18.1223 19.3047 18.1562C19.1034 18.0722 18.9772 17.9494 18.8262 17.7939C18.7825 17.7493 18.7388 17.7046 18.6937 17.6585C18.6607 17.6242 18.6277 17.59 18.5938 17.5547C18.6778 17.3534 18.8006 17.2272 18.9561 17.0762C19.0007 17.0325 19.0454 16.9888 19.0915 16.9437C19.1429 16.8942 19.1429 16.8942 19.1953 16.8438Z" fill="#0077FF"/>
<path d="M26.25 19.6875C26.5388 19.6875 26.8275 19.6875 27.125 19.6875C27.125 19.9763 27.125 20.265 27.125 20.5625C26.8362 20.5625 26.5475 20.5625 26.25 20.5625C26.25 20.2737 26.25 19.985 26.25 19.6875Z" fill="#0077FF"/>
<path d="M17.5 19.6875C17.7888 19.6875 18.0775 19.6875 18.375 19.6875C18.375 19.9763 18.375 20.265 18.375 20.5625C18.0862 20.5625 17.7975 20.5625 17.5 20.5625C17.5 20.2737 17.5 19.985 17.5 19.6875Z" fill="#0077FF"/>
<path d="M21.875 15.75C22.1638 15.75 22.4525 15.75 22.75 15.75C22.75 16.0388 22.75 16.3275 22.75 16.625C22.4612 16.625 22.1725 16.625 21.875 16.625C21.875 16.3362 21.875 16.0475 21.875 15.75Z" fill="#0077FF"/>
</g>
<defs>
<clipPath id="clip0_2_52">
<rect width="28" height="28" fill="white"/>
</clipPath>
</defs>
</svg>
