<svg width="175" height="81" viewBox="0 0 175 81" fill="none" xmlns="http://www.w3.org/2000/svg">
<path d="M174.167 3.2533C174.167 1.78053 172.973 0.586632 171.5 0.586632C170.027 0.586632 168.833 1.78053 168.833 3.2533C168.833 4.72606 170.027 5.91996 171.5 5.91996C172.973 5.91996 174.167 4.72606 174.167 3.2533ZM4.14645 80.3536C4.34171 80.5488 4.65829 80.5488 4.85355 80.3536L8.03554 77.1716C8.23079 76.9763 8.23079 76.6597 8.03554 76.4645C7.84027 76.2692 7.5237 76.2692 7.32843 76.4645L4.5 79.2929L1.67157 76.4645C1.4763 76.2692 1.15973 76.2692 0.964462 76.4645C0.769211 76.6597 0.769211 76.9763 0.964462 77.1716L4.14645 80.3536ZM171.028 3.0872C170.676 4.08827 170.303 5.06332 169.911 6.01305L170.835 6.39491C171.234 5.42851 171.613 4.43689 171.972 3.41939L171.028 3.0872ZM166.239 13.2934C165.157 15.0735 163.99 16.7429 162.744 18.3089L163.527 18.9315C164.799 17.3325 165.99 15.6285 167.093 13.8126L166.239 13.2934ZM157.148 24.223C155.62 25.5846 154.013 26.8434 152.334 28.0076L152.904 28.8293C154.615 27.6429 156.253 26.3592 157.813 24.9696L157.148 24.223ZM145.295 32.1598C143.479 33.0672 141.604 33.8943 139.676 34.6488L140.041 35.5801C141.995 34.8154 143.898 33.9761 145.742 33.0543L145.295 32.1598ZM131.905 37.2388C129.949 37.7893 127.953 38.2828 125.924 38.7257L126.137 39.7027C128.184 39.2559 130.199 38.7578 132.176 38.2013L131.905 37.2388ZM117.84 40.2124C115.821 40.521 113.779 40.7911 111.718 41.0285L111.832 42.0219C113.904 41.7833 115.959 41.5116 117.991 41.2009L117.84 40.2124ZM103.518 41.8066C101.47 41.9637 99.4113 42.0969 97.3465 42.2116L97.4019 43.2101C99.4728 43.095 101.539 42.9614 103.594 42.8036L103.518 41.8066ZM89.1062 42.5829C87.0418 42.6577 84.9779 42.7212 82.919 42.7787L82.947 43.7783C85.0076 43.7207 87.0745 43.6571 89.1424 43.5823L89.1062 42.5829ZM74.6632 42.9917C72.585 43.0442 70.5186 43.098 68.4697 43.1588L68.4994 44.1584C70.546 44.0976 72.6106 44.0438 74.6884 43.9914L74.6632 42.9917ZM60.2066 43.4611C58.113 43.5563 56.0458 43.668 54.0112 43.8027L54.0773 44.8005C56.1038 44.6663 58.1639 44.555 60.2521 44.46L60.2066 43.4611ZM45.7677 44.5118C43.6629 44.7418 41.6059 45.0101 39.6045 45.3253L39.7601 46.3132C41.7437 46.0007 43.7849 45.7344 45.8764 45.5059L45.7677 44.5118ZM31.4867 46.9648C29.4053 47.4942 27.4088 48.1006 25.5093 48.7971L25.8535 49.736C27.7168 49.0527 29.6802 48.4561 31.7331 47.934L31.4867 46.9648ZM17.986 52.3785C16.1673 53.4954 14.4952 54.7538 12.9884 56.1732L13.674 56.9011C15.1266 55.5328 16.7432 54.3152 18.5093 53.2307L17.986 52.3785ZM7.86356 62.7969C6.89479 64.5703 6.09676 66.5048 5.48259 68.6147L6.44275 68.8942C7.03763 66.8505 7.80862 64.9833 8.74115 63.2763L7.86356 62.7969ZM4.10193 76.7802C4.03426 77.821 4 78.8939 4 80H5C5 78.9145 5.03363 77.8633 5.09982 76.8451L4.10193 76.7802Z" fill="#0077FF"/>
</svg>
