<svg width="156" height="63" viewBox="0 0 156 63" fill="none" xmlns="http://www.w3.org/2000/svg">
<path d="M0.333333 3C0.333333 1.52724 1.52724 0.333332 3 0.333332C4.47276 0.333332 5.66667 1.52724 5.66667 3C5.66667 4.47276 4.47276 5.66667 3 5.66667C1.52724 5.66667 0.333333 4.47276 0.333333 3ZM151.854 62.8536C151.658 63.0488 151.342 63.0488 151.146 62.8536L147.964 59.6716C147.769 59.4763 147.769 59.1597 147.964 58.9645C148.16 58.7692 148.476 58.7692 148.672 58.9645L151.5 61.7929L154.328 58.9645C154.524 58.7692 154.84 58.7692 155.036 58.9645C155.231 59.1597 155.231 59.4763 155.036 59.6716L151.854 62.8536ZM3.46816 2.82444C3.82275 3.77001 4.20316 4.68216 4.60842 5.56206L3.70013 5.9804C3.28448 5.07794 2.89475 4.14334 2.53184 3.17556L3.46816 2.82444ZM8.54304 12.1769C9.73013 13.7488 11.0271 15.1798 12.4243 16.4822L11.7425 17.2137C10.3035 15.8724 8.96756 14.3983 7.74505 12.7796L8.54304 12.1769ZM18.6269 21.0947C20.2765 22.0699 22.0142 22.9336 23.8308 23.6972L23.4433 24.619C21.5884 23.8394 19.8098 22.9556 18.118 21.9555L18.6269 21.0947ZM31.2115 26.1706C33.063 26.6555 34.9709 27.0672 36.9275 27.4148L36.7525 28.3994C34.7724 28.0476 32.8382 27.6304 30.9582 27.138L31.2115 26.1706ZM44.6674 28.4541C46.5892 28.6384 48.5439 28.7775 50.5254 28.8787L50.4743 29.8774C48.4799 29.7755 46.5102 29.6354 44.5719 29.4495L44.6674 28.4541ZM58.3656 29.098C60.3119 29.1129 62.2748 29.102 64.2487 29.0721L64.2639 30.072C62.2836 30.102 60.3131 30.1129 58.358 30.098L58.3656 29.098ZM72.1002 28.8689C74.0606 28.801 76.0245 28.723 77.9868 28.641L78.0285 29.6401C76.065 29.7222 74.0985 29.8003 72.1348 29.8683L72.1002 28.8689ZM85.8371 28.3058C87.8122 28.2233 89.7785 28.1453 91.7303 28.0783L91.7646 29.0777C89.8163 29.1446 87.8527 29.2225 85.8788 29.3049L85.8371 28.3058ZM99.6064 27.8825C101.601 27.8564 103.572 27.8521 105.513 27.8773L105.5 28.8772C103.569 28.8522 101.607 28.8564 99.6194 28.8824L99.6064 27.8825ZM113.405 28.1726C115.42 28.3052 117.389 28.4854 119.303 28.7233L119.18 29.7157C117.287 29.4805 115.338 29.3019 113.34 29.1704L113.405 28.1726ZM127.067 30.1041C129.059 30.5843 130.967 31.1585 132.777 31.8419L132.423 32.7774C130.657 32.1106 128.79 31.5481 126.832 31.0762L127.067 30.1041ZM139.852 35.4535C141.517 36.5854 143.04 37.877 144.401 39.3485L143.667 40.0276C142.36 38.6153 140.897 37.3725 139.29 36.2805L139.852 35.4535ZM148.837 46.0039C149.634 47.7195 150.288 49.5874 150.791 51.6196L149.821 51.8599C149.332 49.8856 148.698 48.0787 147.93 46.425L148.837 46.0039ZM151.917 59.4307C151.972 60.4237 152 61.4465 152 62.5H151C151 61.4642 150.973 60.4599 150.919 59.4861L151.917 59.4307Z" fill="#0077FF"/>
</svg>
