<svg width="327" height="57" viewBox="0 0 327 57" fill="none" xmlns="http://www.w3.org/2000/svg">
<path d="M326.167 3.2533C326.167 1.78054 324.973 0.586636 323.5 0.586636C322.027 0.586636 320.833 1.78054 320.833 3.2533C320.833 4.72606 322.027 5.91997 323.5 5.91997C324.973 5.91997 326.167 4.72606 326.167 3.2533ZM3 56.5L6.01175 51.5743L0.240082 51.4289L3 56.5ZM320.546 3.90632C320.29 4.00866 320.165 4.29953 320.267 4.55602C320.369 4.81249 320.66 4.93745 320.917 4.83511L320.546 3.90632ZM313.551 7.68525C313.81 7.58829 313.941 7.30009 313.844 7.04153C313.747 6.78297 313.459 6.65196 313.2 6.74892L313.551 7.68525ZM307.718 8.75628C307.458 8.84921 307.322 9.13534 307.415 9.39538C307.508 9.65541 307.794 9.79089 308.054 9.69796L307.718 8.75628ZM300.57 12.2838C300.832 12.1964 300.973 11.9132 300.886 11.6513C300.798 11.3893 300.515 11.2478 300.253 11.3353L300.57 12.2838ZM294.666 13.1513C294.403 13.2346 294.257 13.5155 294.34 13.7788C294.423 14.0421 294.704 14.188 294.968 14.1047L294.666 13.1513ZM287.445 16.3981C287.71 16.3204 287.862 16.0425 287.784 15.7776C287.706 15.5126 287.429 15.3608 287.164 15.4386L287.445 16.3981ZM281.484 17.0568C281.218 17.1304 281.061 17.4058 281.135 17.672C281.209 17.9381 281.484 18.0943 281.75 18.0207L281.484 17.0568ZM274.188 20.0265C274.456 19.9585 274.618 19.6864 274.55 19.4187C274.482 19.1511 274.21 18.9893 273.942 19.0573L274.188 20.0265ZM268.181 20.4735C267.913 20.5373 267.746 20.8068 267.81 21.0755C267.874 21.3442 268.144 21.5102 268.412 21.4464L268.181 20.4735ZM260.766 23.1795C261.036 23.1213 261.207 22.8552 261.149 22.5853C261.091 22.3153 260.825 22.1438 260.555 22.202L260.766 23.1795ZM254.771 23.4037C254.501 23.4578 254.325 23.7212 254.379 23.992C254.433 24.2628 254.697 24.4385 254.967 24.3844L254.771 23.4037ZM247.235 25.8474C247.507 25.7988 247.688 25.539 247.639 25.2672C247.591 24.9953 247.331 24.8144 247.059 24.863L247.235 25.8474ZM241.269 25.8528C240.997 25.8973 240.812 26.1543 240.856 26.4268C240.901 26.6994 241.158 26.8842 241.43 26.8397L241.269 25.8528ZM233.628 28.0339C233.901 27.9948 234.091 27.7415 234.052 27.4682C234.013 27.1948 233.76 27.0049 233.486 27.0439L233.628 28.0339ZM227.691 27.8291C227.417 27.8642 227.223 28.1147 227.258 28.3886C227.293 28.6625 227.544 28.8561 227.818 28.821L227.691 27.8291ZM219.959 29.7503C220.234 29.7205 220.432 29.4738 220.402 29.1993C220.372 28.9248 220.126 28.7264 219.851 28.7562L219.959 29.7503ZM214.031 29.3464C213.756 29.3723 213.554 29.6162 213.58 29.8911C213.606 30.1661 213.85 30.3679 214.125 30.342L214.031 29.3464ZM206.244 31.0115C206.519 30.9907 206.726 30.7506 206.705 30.4752C206.684 30.1999 206.444 29.9935 206.169 30.0144L206.244 31.0115ZM200.322 30.4173C200.047 30.4344 199.837 30.6718 199.854 30.9474C199.871 31.223 200.109 31.4325 200.384 31.4154L200.322 30.4173ZM192.497 31.8361C192.773 31.8238 192.987 31.5902 192.974 31.3143C192.962 31.0384 192.729 30.8248 192.453 30.8371L192.497 31.8361ZM186.591 31.061C186.315 31.0698 186.098 31.3007 186.107 31.5767C186.116 31.8527 186.347 32.0693 186.623 32.0605L186.591 31.061ZM178.732 32.2466C179.008 32.2424 179.229 32.0151 179.224 31.739C179.22 31.4629 178.993 31.2425 178.717 31.2467L178.732 32.2466ZM172.849 31.3023C172.573 31.3033 172.35 31.5279 172.351 31.8041C172.352 32.0802 172.576 32.3033 172.853 32.3023L172.849 31.3023ZM164.961 32.2703C165.237 32.2734 165.463 32.0522 165.466 31.7761C165.47 31.5 165.248 31.2735 164.972 31.2703L164.961 32.2703ZM159.108 31.1706C158.832 31.1644 158.603 31.3832 158.597 31.6593C158.591 31.9354 158.81 32.1642 159.086 32.1703L159.108 31.1706ZM151.193 31.9393C151.469 31.9492 151.701 31.7336 151.711 31.4576C151.721 31.1816 151.505 30.9499 151.229 30.9399L151.193 31.9393ZM145.379 30.7009C145.103 30.6883 144.87 30.9017 144.857 31.1776C144.844 31.4535 145.058 31.6873 145.334 31.6998L145.379 30.7009ZM137.439 31.2922C137.715 31.308 137.951 31.0974 137.967 30.8217C137.983 30.546 137.772 30.3097 137.496 30.2938L137.439 31.2922ZM131.668 29.9349C131.392 29.9168 131.154 30.1255 131.136 30.4011C131.118 30.6766 131.327 30.9146 131.603 30.9327L131.668 29.9349ZM123.707 30.3757C123.982 30.3964 124.222 30.19 124.243 29.9146C124.264 29.6393 124.057 29.3992 123.782 29.3785L123.707 30.3757ZM117.929 28.919C117.654 28.8966 117.412 29.1015 117.39 29.3767C117.368 29.6519 117.572 29.8933 117.848 29.9157L117.929 28.919ZM110.006 29.2479C110.281 29.2723 110.524 29.069 110.548 28.7939C110.573 28.5189 110.369 28.2762 110.094 28.2518L110.006 29.2479ZM104.204 27.7187C103.929 27.6933 103.685 27.8956 103.66 28.1706C103.634 28.4456 103.837 28.6891 104.112 28.7145L104.204 27.7187ZM96.3287 27.9818C96.6036 28.0081 96.8477 27.8065 96.874 27.5316C96.9002 27.2568 96.6987 27.0126 96.4238 26.9864L96.3287 27.9818ZM90.5033 26.4184C90.2284 26.3919 89.9842 26.5934 89.9577 26.8682C89.9313 27.1431 90.1328 27.3874 90.4076 27.4138L90.5033 26.4184ZM82.5836 26.6678C82.8585 26.6937 83.1024 26.4917 83.1282 26.2168C83.154 25.9419 82.9521 25.698 82.6772 25.6722L82.5836 26.6678ZM76.8512 25.1357C76.5761 25.111 76.3331 25.3139 76.3084 25.5889C76.2838 25.864 76.4867 26.1069 76.7617 26.1316L76.8512 25.1357ZM68.8972 25.4616C69.1724 25.4835 69.4134 25.2781 69.4353 25.0029C69.4572 24.7276 69.2518 24.4867 68.9766 24.4648L68.8972 25.4616ZM63.0726 24.0277C62.7971 24.009 62.5586 24.2172 62.5399 24.4927C62.5213 24.7683 62.7295 25.0067 63.005 25.0254L63.0726 24.0277ZM55.176 24.5807C55.4519 24.5929 55.6854 24.3791 55.6976 24.1032C55.7098 23.8274 55.4961 23.5938 55.2202 23.5817L55.176 24.5807ZM49.3783 23.3932C49.1022 23.3879 48.8741 23.6075 48.8688 23.8835C48.8636 24.1596 49.0831 24.3877 49.3592 24.393L49.3783 23.3932ZM41.5168 24.4226C41.7928 24.4143 42.0098 24.1838 42.0015 23.9078C41.9932 23.6317 41.7627 23.4147 41.4867 23.423L41.5168 24.4226ZM35.5422 23.7535C35.2671 23.7766 35.0628 24.0185 35.0859 24.2937C35.1091 24.5688 35.351 24.7731 35.6261 24.75L35.5422 23.7535ZM27.9113 25.7841C28.1825 25.7317 28.3598 25.4695 28.3074 25.1983C28.255 24.9272 27.9927 24.7499 27.7216 24.8023L27.9113 25.7841ZM21.9497 26.2651C21.687 26.3501 21.5429 26.632 21.6279 26.8947C21.7129 27.1575 21.9948 27.3016 22.2575 27.2166L21.9497 26.2651ZM15.2066 30.4241C15.4407 30.2777 15.5117 29.9692 15.3653 29.7351C15.2188 29.501 14.9103 29.4299 14.6762 29.5764L15.2066 30.4241ZM10.0199 33.3334C9.82852 33.5324 9.83475 33.849 10.0338 34.0403C10.2329 34.2317 10.5494 34.2255 10.7408 34.0264L10.0199 33.3334ZM6.47531 40.3411C6.59061 40.0902 6.48071 39.7933 6.2298 39.678C5.97888 39.5627 5.68201 39.6726 5.56668 39.9235L6.47531 40.3411ZM3.65027 45.5673C3.5864 45.836 3.75241 46.1056 4.02109 46.1694C4.28973 46.2333 4.5593 46.0673 4.62317 45.7986L3.65027 45.5673ZM3.57654 53.4609C3.59085 53.1851 3.37888 52.95 3.10312 52.9357C2.82733 52.9214 2.59219 53.1333 2.57788 53.4091L3.57654 53.4609ZM323.311 2.79038C322.388 3.16696 321.467 3.53893 320.546 3.90632L320.917 4.83511C321.84 4.46675 322.764 4.0938 323.689 3.71622L323.311 2.79038ZM313.2 6.74892C311.369 7.43566 309.541 8.10465 307.718 8.75628L308.054 9.69796C309.882 9.04459 311.715 8.37382 313.551 7.68525L313.2 6.74892ZM300.253 11.3353C298.386 11.9583 296.524 12.5635 294.666 13.1513L294.968 14.1047C296.831 13.5154 298.698 12.9085 300.57 12.2838L300.253 11.3353ZM287.164 15.4386C285.265 15.9957 283.372 16.5349 281.484 17.0568L281.75 18.0207C283.643 17.4974 285.542 16.9567 287.445 16.3981L287.164 15.4386ZM273.942 19.0573C272.016 19.5469 270.096 20.0188 268.181 20.4735L268.412 21.4464C270.332 20.9905 272.257 20.5174 274.188 20.0265L273.942 19.0573ZM260.555 22.202C258.621 22.6195 256.693 23.0199 254.771 23.4037L254.967 24.3844C256.894 23.9995 258.827 23.5981 260.766 23.1795L260.555 22.202ZM247.059 24.863C245.122 25.2091 243.192 25.5389 241.269 25.8528L241.43 26.8397C243.358 26.525 245.293 26.1944 247.235 25.8474L247.059 24.863ZM233.486 27.0439C231.547 27.3211 229.615 27.5826 227.691 27.8291L227.818 28.821C229.747 28.5739 231.683 28.3117 233.628 28.0339L233.486 27.0439ZM219.851 28.7562C217.902 28.9676 215.962 29.1642 214.031 29.3464L214.125 30.342C216.061 30.1593 218.006 29.9623 219.959 29.7503L219.851 28.7562ZM206.169 30.0144C204.21 30.1626 202.262 30.2967 200.322 30.4173L200.384 31.4154C202.328 31.2945 204.281 31.1601 206.244 31.0115L206.169 30.0144ZM192.453 30.8371C190.488 30.9247 188.534 30.9991 186.591 31.061L186.623 32.0605C188.57 31.9984 190.528 31.9239 192.497 31.8361L192.453 30.8371ZM178.717 31.2467C176.749 31.277 174.793 31.2953 172.849 31.3023L172.853 32.3023C174.801 32.2953 176.76 32.277 178.732 32.2466L178.717 31.2467ZM164.972 31.2703C163.004 31.2475 161.05 31.214 159.108 31.1706L159.086 32.1703C161.031 32.2138 162.989 32.2474 164.961 32.2703L164.972 31.2703ZM151.229 30.9399C149.265 30.8691 147.315 30.7891 145.379 30.7009L145.334 31.6998C147.272 31.7882 149.225 31.8683 151.193 31.9393L151.229 30.9399ZM137.496 30.2938C135.537 30.1812 133.594 30.0611 131.668 29.9349L131.603 30.9327C133.531 31.0592 135.477 31.1793 137.439 31.2922L137.496 30.2938ZM123.782 29.3785C121.812 29.2302 119.861 29.0766 117.929 28.919L117.848 29.9157C119.781 30.0734 121.735 30.2272 123.707 30.3757L123.782 29.3785ZM110.094 28.2518C108.109 28.0762 106.145 27.898 104.204 27.7187L104.112 28.7145C106.054 28.8938 108.019 29.0721 110.006 29.2479L110.094 28.2518ZM96.4238 26.9864C94.4237 26.7954 92.4501 26.6054 90.5033 26.4184L90.4076 27.4138C92.3543 27.6008 94.3283 27.7908 96.3287 27.9818L96.4238 26.9864ZM82.6772 25.6722C80.7043 25.4868 78.762 25.3072 76.8512 25.1357L76.7617 26.1316C78.6708 26.3031 80.6117 26.4825 82.5836 26.6678L82.6772 25.6722ZM68.9766 24.4648C66.9691 24.3049 65.0008 24.1582 63.0726 24.0277L63.005 25.0254C64.9287 25.1557 66.893 25.302 68.8972 25.4616L68.9766 24.4648ZM55.2202 23.5817C53.2226 23.4934 51.2749 23.4293 49.3783 23.3932L49.3592 24.393C51.2464 24.4289 53.1857 24.4927 55.176 24.5807L55.2202 23.5817ZM41.4867 23.423C39.432 23.4848 37.4498 23.5929 35.5422 23.7535L35.6261 24.75C37.5135 24.5911 39.4776 24.4839 41.5168 24.4226L41.4867 23.423ZM27.7216 24.8023C25.6849 25.196 23.7595 25.6797 21.9497 26.2651L22.2575 27.2166C24.0234 26.6454 25.9089 26.1712 27.9113 25.7841L27.7216 24.8023ZM14.6762 29.5764C12.95 30.6564 11.3953 31.9026 10.0199 33.3334L10.7408 34.0264C12.0556 32.6586 13.5454 31.4635 15.2066 30.4241L14.6762 29.5764ZM5.56668 39.9235C4.77649 41.6428 4.13684 43.5204 3.65027 45.5673L4.62317 45.7986C5.09592 43.8098 5.71509 41.9952 6.47531 40.3411L5.56668 39.9235Z" fill="#0077FF"/>
</svg>
