<svg width="157" height="39" viewBox="0 0 157 39" fill="none" xmlns="http://www.w3.org/2000/svg">
<path d="M156.666 3C156.666 1.52724 155.472 0.333332 154 0.333332C152.527 0.333332 151.333 1.52724 151.333 3C151.333 4.47276 152.527 5.66667 154 5.66667C155.472 5.66667 156.666 4.47276 156.666 3ZM3.49951 39L6.56831 34.1096L0.798721 33.8972L3.49951 39ZM151.442 4.65197C151.229 4.82807 151.199 5.14326 151.375 5.35597C151.551 5.56868 151.867 5.59835 152.079 5.42226L151.442 4.65197ZM145.243 9.86034C145.49 9.73581 145.589 9.43505 145.464 9.18858C145.34 8.94212 145.039 8.84328 144.792 8.96781L145.243 9.86034ZM139.287 11.2851C139.026 11.3757 138.888 11.6605 138.979 11.9214C139.069 12.1823 139.354 12.3204 139.615 12.2298L139.287 11.2851ZM131.751 14.3446C132.022 14.29 132.197 14.0264 132.143 13.7557C132.088 13.485 131.824 13.3097 131.554 13.3643L131.751 14.3446ZM125.626 14.3186C125.352 14.3526 125.158 14.6024 125.192 14.8764C125.226 15.1505 125.475 15.345 125.749 15.3109L125.626 14.3186ZM117.683 15.9913C117.959 15.9778 118.171 15.7433 118.158 15.4675C118.144 15.1917 117.91 14.979 117.634 14.9924L117.683 15.9913ZM111.605 15.1549C111.329 15.1568 111.107 15.3822 111.108 15.6583C111.11 15.9345 111.336 16.1568 111.612 16.1549L111.605 15.1549ZM103.512 16.0324C103.788 16.042 104.02 15.826 104.029 15.5501C104.039 15.2741 103.823 15.0426 103.547 15.033L103.512 16.0324ZM97.5162 14.7522C97.2405 14.7364 97.0042 14.9471 96.9884 15.2228C96.9726 15.4985 97.1833 15.7348 97.459 15.7506L97.5162 14.7522ZM89.4004 15.1984C89.6758 15.2199 89.9164 15.0141 89.9379 14.7388C89.9594 14.4635 89.7536 14.2229 89.4783 14.2014L89.4004 15.1984ZM83.4523 13.7002C83.1772 13.6761 82.9347 13.8796 82.9107 14.1547C82.8866 14.4298 83.0901 14.6723 83.3652 14.6964L83.4523 13.7002ZM75.325 13.9688C75.5999 13.9941 75.8434 13.7917 75.8687 13.5167C75.894 13.2418 75.6916 12.9983 75.4166 12.973L75.325 13.9688ZM69.3876 12.4226C69.1126 12.398 68.8696 12.6009 68.845 12.876C68.8203 13.151 69.0233 13.394 69.2983 13.4186L69.3876 12.4226ZM61.2627 12.739C61.538 12.7604 61.7786 12.5546 61.8 12.2793C61.8214 12.004 61.6156 11.7634 61.3402 11.742L61.2627 12.739ZM55.2938 11.3177C55.0181 11.3007 54.781 11.5105 54.7641 11.7861C54.7471 12.0617 54.9568 12.2989 55.2325 12.3158L55.2938 11.3177ZM47.2119 11.9505C47.4879 11.958 47.7178 11.7402 47.7252 11.4642C47.7326 11.1881 47.5149 10.9583 47.2388 10.9509L47.2119 11.9505ZM41.1616 10.8982C40.8855 10.9015 40.6643 11.128 40.6675 11.4041C40.6708 11.6802 40.8973 11.9014 41.1734 11.8981L41.1616 10.8982ZM33.1341 12.2804C33.4091 12.2558 33.6121 12.0129 33.5875 11.7379C33.5629 11.4628 33.32 11.2598 33.045 11.2844L33.1341 12.2804ZM27.0185 12.073C26.7466 12.1214 26.5655 12.381 26.6139 12.6529C26.6624 12.9248 26.922 13.1059 27.1939 13.0575L27.0185 12.073ZM19.4841 15.1029C19.7427 15.0062 19.8739 14.7181 19.7771 14.4594C19.6804 14.2008 19.3923 14.0696 19.1336 14.1664L19.4841 15.1029ZM13.6359 16.8663C13.403 17.0146 13.3343 17.3236 13.4826 17.5566C13.6308 17.7896 13.9399 17.8582 14.1728 17.71L13.6359 16.8663ZM8.43729 23.0315C8.59981 22.8082 8.55057 22.4955 8.32732 22.333C8.10405 22.1704 7.79132 22.2197 7.62881 22.4429L8.43729 23.0315ZM4.75645 27.8838C4.66182 28.1432 4.79541 28.4302 5.05482 28.5249C5.31425 28.6195 5.60127 28.4859 5.69591 28.2265L4.75645 27.8838ZM4.11218 35.939C4.13315 35.6637 3.92691 35.4235 3.65157 35.4025C3.37622 35.3816 3.13603 35.5878 3.11507 35.8632L4.11218 35.939ZM153.646 2.64645C152.941 3.35102 152.206 4.01898 151.442 4.65197L152.079 5.42226C152.867 4.76969 153.626 4.08068 154.353 3.35355L153.646 2.64645ZM144.792 8.96781C143.049 9.84892 141.21 10.6177 139.287 11.2851L139.615 12.2298C141.576 11.5492 143.456 10.7634 145.243 9.86034L144.792 8.96781ZM131.554 13.3643C129.633 13.7512 127.655 14.0664 125.626 14.3186L125.749 15.3109C127.8 15.0561 129.804 14.7369 131.751 14.3446L131.554 13.3643ZM117.634 14.9924C115.656 15.089 113.644 15.1409 111.605 15.1549L111.612 16.1549C113.664 16.1408 115.689 16.0885 117.683 15.9913L117.634 14.9924ZM103.547 15.033C101.552 14.9638 99.5404 14.8682 97.5162 14.7522L97.459 15.7506C99.4896 15.867 101.509 15.9629 103.512 16.0324L103.547 15.033ZM89.4783 14.2014C87.4728 14.0448 85.4625 13.8759 83.4523 13.7002L83.3652 14.6964C85.3776 14.8723 87.3911 15.0415 89.4004 15.1984L89.4783 14.2014ZM75.4166 12.973C73.3984 12.7872 71.3868 12.6018 69.3876 12.4226L69.2983 13.4186C71.2961 13.5977 73.3064 13.7829 75.325 13.9688L75.4166 12.973ZM61.3402 11.742C59.3023 11.5835 57.2848 11.4399 55.2938 11.3177L55.2325 12.3158C57.217 12.4376 59.229 12.5808 61.2627 12.739L61.3402 11.742ZM47.2388 10.9509C45.1705 10.8951 43.1423 10.8748 41.1616 10.8982L41.1734 11.8981C43.1393 11.875 45.1545 11.8951 47.2119 11.9505L47.2388 10.9509ZM33.045 11.2844C30.9581 11.4711 28.9454 11.7298 27.0185 12.073L27.1939 13.0575C29.0882 12.7201 31.0717 12.4649 33.1341 12.2804L33.045 11.2844ZM19.1336 14.1664C17.1488 14.9091 15.309 15.8015 13.6359 16.8663L14.1728 17.71C15.7794 16.6875 17.5552 15.8247 19.4841 15.1029L19.1336 14.1664ZM7.62881 22.4429C6.4599 24.0487 5.49619 25.8559 4.75645 27.8838L5.69591 28.2265C6.40494 26.2828 7.32544 24.5589 8.43729 23.0315L7.62881 22.4429Z" fill="#0077FF"/>
</svg>
