<svg width="563" height="71" viewBox="0 0 563 71" fill="none" xmlns="http://www.w3.org/2000/svg">
<path d="M0.333333 3C0.333333 1.52724 1.52724 0.333336 3 0.333336C4.47276 0.333336 5.66667 1.52724 5.66667 3C5.66667 4.47276 4.47276 5.66666 3 5.66666C1.52724 5.66666 0.333333 4.47276 0.333333 3ZM558.854 70.3536C558.658 70.5488 558.342 70.5488 558.146 70.3536L554.964 67.1716C554.769 66.9763 554.769 66.6597 554.964 66.4645C555.16 66.2692 555.476 66.2692 555.672 66.4645L558.5 69.2929L561.328 66.4645C561.524 66.2692 561.84 66.2692 562.036 66.4645C562.231 66.6597 562.231 66.9763 562.036 67.1716L558.854 70.3536ZM3.43235 2.74886C3.8892 3.53533 4.41237 4.30564 5.00081 5.06013L4.21228 5.67512C3.5976 4.88699 3.04863 4.07916 2.56765 3.25114L3.43235 2.74886ZM10.6294 10.4327C12.1585 11.5724 13.8629 12.6676 15.7358 13.7198L15.246 14.5917C13.341 13.5214 11.5999 12.4032 10.0318 11.2345L10.6294 10.4327ZM22.6881 17.1105C24.4524 17.8634 26.3149 18.5901 28.2719 19.2917L27.9345 20.233C25.9608 19.5255 24.0798 18.7916 22.2956 18.0303L22.6881 17.1105ZM35.8213 21.7397C37.6661 22.2821 39.5748 22.8072 41.5452 23.3154L41.2955 24.2837C39.315 23.7729 37.3955 23.2449 35.5392 22.6991L35.8213 21.7397ZM49.2776 25.1562C51.1904 25.5768 53.1508 25.9843 55.1571 26.3791L54.964 27.3603C52.9509 26.9642 50.9833 26.5552 49.0628 26.1329L49.2776 25.1562ZM62.8949 27.801C64.8814 28.142 66.9064 28.4723 68.9684 28.7921L68.8151 29.7803C66.7481 29.4597 64.7178 29.1286 62.7257 28.7866L62.8949 27.801ZM76.6518 29.9135C78.6115 30.1825 80.6004 30.4432 82.6176 30.6959L82.4933 31.6882C80.4724 31.435 78.4796 31.1737 76.5158 30.9042L76.6518 29.9135ZM90.5467 31.6328C92.4796 31.8481 94.4354 32.0568 96.4134 32.2591L96.3116 33.2539C94.3308 33.0513 92.372 32.8423 90.4361 32.6267L90.5467 31.6328ZM104.441 33.035C106.393 33.2132 108.364 33.3857 110.353 33.5528L110.269 34.5493C108.278 34.382 106.304 34.2092 104.35 34.0309L104.441 33.035ZM118.231 34.1797C120.223 34.3298 122.232 34.4749 124.257 34.6153L124.187 35.6129C122.161 35.4724 120.15 35.3271 118.155 35.1769L118.231 34.1797ZM132.179 35.1355C134.138 35.2574 136.111 35.3751 138.097 35.4889L138.04 36.4873C136.052 36.3734 134.078 36.2555 132.116 36.1336L132.179 35.1355ZM146.11 35.9237C148.091 36.0253 150.084 36.1233 152.087 36.218L152.04 37.2168C150.035 37.1222 148.041 37.024 146.059 36.9223L146.11 35.9237ZM159.976 36.5707C161.962 36.6546 163.958 36.7355 165.963 36.8134L165.924 37.8126C163.918 37.7347 161.921 37.6538 159.934 37.5698L159.976 36.5707ZM173.978 37.1075C175.941 37.1754 177.912 37.2407 179.89 37.3036L179.858 38.3031C177.879 38.2402 175.907 38.1748 173.944 38.1069L173.978 37.1075ZM187.845 37.5419C189.843 37.5983 191.848 37.6524 193.86 37.7043L193.835 38.7039C191.822 38.652 189.815 38.5979 187.816 38.5415L187.845 37.5419ZM201.798 37.8969C203.776 37.942 205.76 37.9852 207.749 38.0265L207.728 39.0263C205.738 38.985 203.754 38.9418 201.775 38.8966L201.798 37.8969ZM215.732 38.1823C217.727 38.2188 219.727 38.2536 221.731 38.2869L221.715 39.2868C219.71 39.2535 217.709 39.2187 215.714 39.1822L215.732 38.1823ZM229.658 38.4101C231.644 38.4391 233.635 38.4666 235.628 38.4928L235.615 39.4927C233.621 39.4665 231.63 39.439 229.643 39.41L229.658 38.4101ZM243.616 38.5912C245.603 38.614 247.592 38.6358 249.583 38.6565L249.573 39.6564C247.581 39.6357 245.591 39.614 243.604 39.5911L243.616 38.5912ZM257.535 38.7339C259.525 38.7521 261.517 38.7693 263.51 38.7858L263.502 39.7858C261.509 39.7693 259.517 39.752 257.526 39.7339L257.535 38.7339ZM271.484 38.8479C273.474 38.8624 275.464 38.8764 277.455 38.8898L277.448 39.8897C275.457 39.8763 273.467 39.8624 271.477 39.8478L271.484 38.8479ZM285.417 38.9408C287.408 38.953 289.398 38.9648 291.387 38.9763L291.381 39.9762C289.392 39.9648 287.402 39.953 285.411 39.9408L285.417 38.9408ZM299.356 39.021C301.351 39.0319 303.345 39.0427 305.338 39.0535L305.332 40.0534C303.34 40.0427 301.346 40.0319 299.35 40.021L299.356 39.021ZM313.297 39.0964C315.284 39.1071 317.269 39.118 319.25 39.129L319.245 40.129C317.263 40.118 315.278 40.1071 313.292 40.0963L313.297 39.0964ZM327.242 39.175C329.239 39.1868 331.233 39.1991 333.224 39.2117L333.218 40.2117C331.227 40.199 329.233 40.1868 327.236 40.1749L327.242 39.175ZM341.165 39.265C343.156 39.2791 345.143 39.2939 347.125 39.3093L347.117 40.3092C345.135 40.2938 343.149 40.2791 341.158 40.265L341.165 39.265ZM355.135 39.3759C357.13 39.3937 359.12 39.4123 361.103 39.4319L361.094 40.4319C359.11 40.4123 357.121 40.3936 355.126 40.3759L355.135 39.3759ZM369.005 39.516C371.022 39.539 373.031 39.5632 375.034 39.5888L375.021 40.5887C373.019 40.5631 371.01 40.5389 368.994 40.5159L369.005 39.516ZM383.022 39.6986C385.009 39.728 386.987 39.7588 388.957 39.7913L388.94 40.7912C386.971 40.7587 384.993 40.7278 383.007 40.6985L383.022 39.6986ZM396.922 39.9327C398.939 39.9712 400.947 40.0115 402.943 40.054L402.922 41.0538C400.926 41.0113 398.92 40.971 396.903 40.9325L396.922 39.9327ZM410.873 40.2351C412.854 40.2835 414.823 40.3343 416.78 40.3875L416.753 41.3871C414.797 41.334 412.828 41.2832 410.848 41.2348L410.873 40.2351ZM424.852 40.623C426.852 40.6855 428.838 40.7509 430.81 40.8192L430.775 41.8186C428.804 41.7503 426.819 41.685 424.821 41.6225L424.852 40.623ZM438.675 41.111C440.719 41.1921 442.746 41.2768 444.755 41.3652L444.712 42.3642C442.704 42.2759 440.678 42.1913 438.635 42.1102L438.675 41.111ZM452.696 41.7393C454.665 41.8385 456.615 41.9418 458.546 42.0493L458.49 43.0477C456.562 42.9403 454.613 42.8372 452.646 42.738L452.696 41.7393ZM466.661 42.5342C468.658 42.6622 470.632 42.7952 472.582 42.9336L472.511 43.9311C470.564 43.7929 468.592 43.66 466.597 43.5322L466.661 42.5342ZM480.502 43.5374C482.546 43.7044 484.559 43.8782 486.541 44.059L486.45 45.0549C484.472 44.8744 482.461 44.7009 480.42 44.534L480.502 43.5374ZM494.296 44.8204C496.373 45.0396 498.41 45.2677 500.405 45.5052L500.287 46.4982C498.296 46.2613 496.264 46.0336 494.191 45.8148L494.296 44.8204ZM508.236 46.516C510.277 46.8015 512.266 47.0986 514.201 47.4078L514.044 48.3953C512.115 48.0871 510.132 47.791 508.098 47.5063L508.236 46.516ZM522.037 48.7834C524.08 49.1778 526.049 49.589 527.942 50.0179L527.721 50.9931C525.839 50.5668 523.88 50.1578 521.848 49.7653L522.037 48.7834ZM535.564 51.9619C537.656 52.5643 539.622 53.1965 541.457 53.8602L541.117 54.8005C539.306 54.1454 537.361 53.52 535.287 52.9228L535.564 51.9619ZM548.793 57.0585C550.701 58.077 552.364 59.1595 553.762 60.3115L553.126 61.0833C551.789 59.9821 550.185 58.9351 548.322 57.9407L548.793 57.0585ZM558.534 66.8935C558.843 67.8938 559 68.9294 559 70H558C558 69.0287 557.858 68.0925 557.579 67.1885L558.534 66.8935Z" fill="#0077FF"/>
</svg>
